<?xml version="1.0" encoding="UTF-8"?>
<svg id="Layer_1" xmlns="http://www.w3.org/2000/svg" baseProfile="tiny" version="1.2" viewBox="0 0 541.3 224.8">
  <!-- Generator: Adobe Illustrator 29.5.1, SVG Export Plug-In . SVG Version: 2.1.0 Build 141)  -->
  <path d="M259.6,4c-14.2-3.3-26.7,1.6-35,13.7-5.3,7.7-8.5,15-9.5,21.4-1.7,10.9-2.4,22-3.1,32.8-.3,4.1-.6,8.4-.9,12.6v3.3h1.8v3.8c-.1,5.3-.3,10.7.4,16.1,1.2,9.5,2.7,19.6,6.1,28.8,4.5,12.1,16.4,19.3,31.4,19.3s2,0,3,0c14.1-.9,22-7.8,25.7-22.1,4-15.4,6.5-29.2,7.7-42.1,2-21,1.2-41.2-2.4-60-2.8-14.8-11.4-24.3-25-27.5h-.2ZM276.8,85.4c-.5,8.1-.9,16.5-2.2,24.6-1.1,7.1-3.5,14.2-6.8,20-4.3,7.6-11.3,12.1-19,12.1s-.2,0-.3,0c-7.9-.1-15-5-19.2-12.9-3.6-6.9-5.7-14.4-6.1-21.1-.9-18.8-.7-37.5-.4-56.6.2-11.6,4.1-20.3,12.3-27.2,4.7-3.9,10.4-6,16-6s4.2.3,6.2.9c7,2.1,12.4,7.5,14.8,14.9,2.1,6.8,3.1,14.3,4,21.5.2,1.6.4,3.3.6,4.9.4,3.1.3,6.2.2,9.5v7.6h.4c-.2,2.6-.3,5.2-.5,7.8Z" fill="#dcffeb"/>
  <path d="M537.1,144.2c-14.6,2.3-28.2,0-38.4-2.3-.6-.1-.8-.3-.8-.3h0c0-.2-.1-.8-.1-1.8V32.6h0c1.4,0,2.5,0,3.6-.3,1.5-.2,3-.5,4.6-.7,5.5-.8,11.2-1.7,16.9-3,2.2-.6,8.7-2.3,8.7-9.6v-2.3l-2.2-.6c-.2,0-.3,0-.4-.1-.5-.2-1.3-.4-2.3-.2-1,.1-1.9.4-2.8.7-9,3.1-16.8,3.9-24.5,2.6l-.9-.2c-.8-.1-1.7-.3-2.3-.4,0-.4,0-1,.2-1.7.8,0,1.7,0,2.6-.2,1.5-.2,3-.3,4.6-.5,6.2-.7,12.6-1.4,18.8-2.4,5.3-.8,8.4-4.1,7.9-8.5l-.3-2.7h-45l-.4,2.5c0,.4-.1.7-.2,1.1-.3,1.5-.5,3-.4,4.5.1,3.5.3,7.1.5,10.6.3,5.2.5,10.5.6,15.7.1,12.9,0,25.9,0,38.5v28.9c0,9.5.2,19.2.4,28.5.1,5.7.2,11.4.3,17.1,0,2.5.3,8.2,6.6,8.8,2.8.3,5.6.6,8.4.9,8.2.9,16.6,1.8,25,2h.6c10.2,0,12.9-7.4,14.1-13.9l.8-4.2-4.2.7h0Z" fill="#dcffeb"/>
  <path d="M472.1,4l-2.7.7c-2,.5-4.9,1.5-6.4,4-1.1,1.8-1.3,4.1-.5,6.9,2.8,10.7,3.4,21.7,1.7,33.3-5.9-12.1-11.7-24.1-17.7-36.6-3-6.2-7.1-8.8-12-7.5h-.2c-1.7.6-3.3,1.9-2.9,11.4.2,3.4.5,6.8.8,10.1.5,5.4,1,11,1,16.4-.1,8.3-.6,16.7-.9,24.9-.4,8.2-.8,16.7-1,25.1-.2,14.1-.2,28.4-.2,42.2s-.5,19.1,0,25.2,1.6,18.4,1.5,19.8c0,0,3.2-9.6,4.2-14.7s5.7-44.3,5.9-61.1c0-8.9.1-17.7.2-26.6,0-13.1.1-26.5.3-39.8,0-.9,0-1.7.2-2.6,6.8,12.8,12.7,24.9,18,36.7,2,4.7,2.6,9.9,2.8,13.4.7,16.2,1.3,32.7,1.9,48.6.4,10.8.8,21.5,1.3,32.3,0,2.2.2,4.3.4,6.4.1,1.4.2,2.7.3,4.1,0,0,.2,1.4.2,2.8,0,8,3.6,20.5,3.6,20.5,0,0,3.6-19.2,3.6-23.5v-17.7c0-14.5,0-29.5-.1-44.3,0-6.9-.4-13.8-.6-20.6-.7-18.5-1.5-37.5,1.8-56.2,1.7-9.5.5-19.9-3.3-30.9l-.9-2.6h-.3Z" fill="#dcffeb"/>
  <path d="M413.2,8.2l8.2-6.4-10.4,1.1c-13.7,1.4-26.3,2.7-38.9,4l-3.2.3.2,2.9c.2,2.5.4,5.1.6,7.5.5,5.8,1,11.2,1,16.7-.5,32.3-1.3,65.1-2.1,96.9,0,2-.2,4.1-.3,6.1-.2,2.8-.4,5.6-.4,8.4,0,6.4,3.1,10.6,8.4,11.2,8.5.9,18.4,1.9,28.2,2.1h.6c4.9,0,8.6-1.3,11.3-4,3.1-3.1,4.5-7.9,4.3-14.6l-.2-7.6-5,5.7c-4,4.6-8.8,5-15.6,4.3-2.9-.3-6-.7-8.9-1.1-2.4-.3-4.9-.7-7.3-1-.8,0-1.5,0-2.1.4v-3.3c0-33.5-.1-67-.2-99.4v-6.9c.6,0,1.2,0,1.8,0,1,0,2.1,0,3.2,0,4,0,8.1.3,12.1.7,9.2.9,16.8-3.1,19.2-10.3l1.4-4.3-4.5.3c-10.5.7-21.1,1.5-32,2.2v-2.4c10.3-.2,20.9-1.9,30.7-9.5h-.1Z" fill="#dcffeb"/>
  <path d="M160,12.6c4.6,28.3,5,59.2,1.3,94.7-1.7,15.8-1,28.6,2.2,40.3,1.7,6.7,6,8.2,9.2,8.2h3.1c9.3-.1,18.9-.2,28.4-1,3.4-.2,5.8-1.4,7.2-3.5,1.6-2.3,1.7-5.4.5-9.5l-1-2.9-2.9,1c-3.7,1.3-29.3-.3-32.8-1.9-.2-.3-.5-1-.5-1.5-.6-26.3-1.1-53.2-1.5-79.9v-26.4c.6,0,1.1,0,1.7.2,2.2,0,4.3.3,6.5.5,5.4.4,10.9.8,16.4.9,5.3,0,8.8-3.1,11.5-6.8.9-.4,1.4-1,1.6-2.2v-.2l3.2-4.8-6.6.9c-.8.1-1.4.3-1.8.7h-2.9c-9.1,0-18.2-.1-27.2-.3-1.9,0-3.1-.2-3.5-3.1.8,0,1.5-.1,2.2-.1l23.2-.9c7.3-.4,9.5-4.9,10.1-8.6l.6-3.7-20.1,1.3c-8.5.5-17,1.1-25.5,1.6l-3,.2.2,4c0,1.2.1,2,.3,2.9h0Z" fill="#dcffeb"/>
  <path d="M46,11.7c-1.3-2.9-3.6-5-6.4-5.9-11.8-3.7-23.5-3.3-34.8,1.1-2.2.9-3.8,3.7-4,5.8-.4,4.3-.6,8.6-.6,12.9v11.9C0,57.2-.1,77.5.2,97.5c.3,20.2.7,40.8,1.1,60.7.3,13.5.5,26.9.8,40.4,0,0-.5.1,0,2.9s4.8,12.1,4.8,12.1l2.8-37.9c1.5-44.1,3-88.2,4.5-132.6,1.7-.2,3.4-.4,5.2-.5,12.3-1.2,21.1-7.5,26.3-18.8,1.8-4,1.9-8.5.3-12.1ZM35.5,18.4c-.2.3-.3.7-.5,1.1-.5,1-1.4,3.2-2,3.5-4.9,2.4-9.9,4.3-15.2,6.3l-2.2.8c-.5.2-.9.2-1,0-.1,0-.4-.4-.6-1.2-.7-3.1-1.2-6.5-1.6-10.9v-.7s.3-.3,1.3-.3c1.7-.1,3.3-.3,5-.4,1.6-.2,3.3-.3,5.2-.5,1.1.1,2.4.3,3.7.5,2.3.3,4.8.7,7.3,1,.4,0,.7.1.8.2,0,.1,0,.3-.2.5Z" fill="#dcffeb"/>
  <path d="M82.2,9.7c-2-3.9-4.9-5.2-6.9-5.7-3.1-.7-6.5.2-9.7,2.6-5.3,4.1-8.6,9.3-9.5,15.5-.9,5.1-1.6,10-2.1,15.1-.6,6.5-1.2,13-1.7,19.4-.8,10.1-1.7,20.5-2.9,30.7-3.2,27.9-3.4,75.8-3.2,83.5s4.4,11.5,4.4,11.5c3.3-36.9,8.2-85.2,11.3-121.1.4-4.6.8-8.6,2.1-9.7,1.3-1.1,5.5-1,10.1-.8h1.5c1.8.2,4.7.4,5.3,1,.6.6,1,3.7,1.2,5.4,0,1.2.3,2.5.5,3.6s.3,2.2.4,3.3c1.4,15.8,2.7,31.5,4.1,47.3,1.4,15.7,2.7,31.4,4.1,47.1,0,0-.4.1,0,3s1,10.3,1,10.3c0,0,3.4-4.2,4.3-6.9s1.1-5.5,1.1-5.5c.3-1.3.3-2.5.3-3.5,1.4-42.2-2-85.3-10.4-131.8-.8-4.5-2.6-9.5-5.1-14.4h-.2ZM78.9,38.7c-1.2,0-2.5,0-3.7-.2-3.4-.2-6.6-.4-9.8-.7,0,0,0,0-.2,0-.8-10.4,1.2-17.1,6.6-22.1,5.6,4.5,8.2,13,7.1,23.1Z" fill="#dcffeb"/>
  <path d="M362.4,128.8l-5.4,3.6c-3.9,2.5-7.5,4.9-11.1,7.2-1.6,1-3.2,2-4.8,3.1-4.5,3.1-9.1,3.3-13.6.5-13.9-8.5-21.2-19.7-21.7-33.4-.7-16.6-.5-31.5.4-45.6.5-8.6,2.5-17.6,5.7-26.9,2.2-6.1,6-12.1,10.7-16.5,3.2-3.1,6.9-4.6,10.7-4.4,4.2.2,8.3,2.6,11.7,6.6,1,1.2,4.1,3.3,6.5,1.9,1.6-.9,3.3-2.9,3.5-5.2.5-3.9-.6-7.7-3-10.7-2.9-3.6-7.4-5.8-12.6-6.2-18.8-1.5-33.8,9.8-38.3,29-6.5,28.6-7.7,58.1-3.9,90.4,2.5,21.2,15.5,34.5,34.8,35.7h1.6c13.3,0,26.6-10.7,28.1-22.9l.8-6.4v.2Z" fill="#dcffeb"/>
  <path d="M152.3,140.8l-3.4.2c-9.5.7-18.8,1.3-27.8,1.9h-1.3c0-.1,0-.5,0-1.1,0-8.4,0-16.8,0-25.3,0-20.7.2-42.1.6-63.1,0-6.4.7-13.1,1.3-19.5.4-4.8.9-9.8,1.2-14.7.4-6.6-2.6-12.1-9.2-16.6l-3.8-2.6-.9,4.5c-.2,1.2-.5,2.4-.8,3.5-.5,2.1-1,4-1.1,6.1,0,1.7.2,3.2.4,4.6.2.9.4,1.8.4,2.6.2,7,.4,14.1.6,21,.5,16,1.1,32.5.6,48.7-.2,5.7,0,11.5,0,17,.2,11.9.5,24.3-2,36.2-.7,3.6-.2,6.5,1.6,8.7,2,2.4,5.2,3.6,9.7,3.6h2c5.4-.1,10.5-.2,15.5.3,1.4.1,2.8.3,4.2.3,3,0,5.9-.5,8-2.3,3-2.5,3.6-6.8,3.8-10.6l.2-3.4h.2Z" fill="#dcffeb"/>
  <path d="M162.5,214.3c-1-1.8-1.5-3-1.6-3.5,0-.2,0-.7.5-1.7.2-.7.5-1.8.3-2.6-.6-2.1-3.8-3.1-10.3-3.1s-1.4.6-1.5,4.9v5.2c0,.7,0,2.3-.2,4.9,0,1.4,0,2.6.2,3.3.6,1.6,3.1,2.3,7.7,2.3s3.7-.7,4.8-2c1-1.1,1.5-2.5,1.5-4s-.4-2-1.4-3.7h0ZM152.2,208.2v-.2h5.3c.4.3.5.5.6.6l.2.4c-.4.3-1,.5-1.9.7-.7.2-1.3.2-1.7.2h-2.6v-1.6h0ZM159.9,218.9c-.1.2-.2.3-.2.3h-.2c-.7.4-5,.4-6.4.4s-.5,0-.6-.1v-4.8h5.7c.4.4.9,1,1.5,1.8h0v.2c.5.7.9,1.2,1.1,1.5-.3.2-.6.4-.8.7h-.1Z" fill="#dcffeb"/>
  <path d="M182.3,203.6l-.2-.2h-.3c-.4.2-.7.4-.9.5l-.2.2c-.5.4-1,.8-1.3,1.3l-2.1,2.2c-.6.8-1.3,1.5-2,2.3-.4.5-.9,1-1.5,1.5l-.4.4c-.6-.6-1.1-1.3-1.8-1.8-.7-.7-1.4-1.3-2.1-1.9-.6-.6-1.2-1.2-1.7-1.8-.4-.5-.7-1-.9-1.5h.4l-1-1-.3.2v-.2h-.5v.2c-.2,0-.4.3-.5.6,0,.2-.2.5-.2.9v1c.1.6.4,1.2.6,1.6.4.6.8,1.2,1.3,1.8,1.2,1.5,2.7,3.1,4.3,4.4.3.3.6.6.8.9v.3h0c0,.3.1.6.2.8,0,.2.1.4.2.7.3.6.3,1.2.3,1.9v2.8c0,.5,0,1.2.2,1.8l.5.5h.5c.3,0,.5-.2.6-.3.2-.3.4-.6.4-1,.1-.5.1-1,.1-1.5v-4.7c0-.8,0-.9-.2-1.3l.6-.6c.4-.4.7-.8,1.1-1.2.8-.8,1.5-1.6,2.2-2.5.3-.4.6-.7,1-1,.1-.1.3-.2.4-.4l1.4-1.4c.2-.2.4-.5.7-.7h0v-.3c0-.1.2-.3.3-.6.2-.6.1-1.2,0-1.9-.1-.3-.2-.7-.5-1h.5Z" fill="#dcffeb"/>
  <path d="M226.4,220.1v-1.7c-.1-.7-.1-1.1-.1-1.6s-.1-.6-.2-.9c0-.3-.1-.6-.1-.7h0c-.2-.9-.2-1.9,0-3v-1c.3-1,.4-1.7.4-2.3.1-1.7,0-3.3-.4-4.9v-.6c-.1,0-.7.2-.7.2-1,.4-1.9,1.3-2.7,2.7-.5,1.2-1,2.3-1.5,3.1-.5.9-1.3,2.1-2.4,3.5-1.2,1.6-2.1,2.8-2.5,3.5-.5.7-.8,1.4-1.1,2-.2-.1-.3-.3-.5-.5-.2-.4-.5-.7-.7-.9s-.2-.3-.3-.4c-.4-.6-1-1.3-2.2-2.3-1-1-1.7-1.7-2.1-2.2-.4-.4-.7-.9-1.1-1.6l-.2-.3c-.5-.8-.8-1.5-1.1-2h0v-.2c-1.2-1.9-2.3-3.3-3.4-4.5v-.2h-.4c-.6,0-.9.3-1,.5-.2.2-.2.5-.2.9-.2,3.7-.1,7.9.2,12.8v2c0,.2-.1.6-.3,1v.3c-.1,0-.1.2-.1.2v1.5c0,.4.3.7.5.9s.5.3.8.3c0,.1.1.3.1.4.1.3.2.7.6.7s0,0,0,0c.5,0,.5-.3.5-3,0-4.3,0-8.5-.2-12.5.7.9,1,1.4,1.2,1.7l.3.9c0,.4.3.7.4.9v.2l.7.7c.2.2.3.4.5.6.1.2.3.4.5.7s.4.6.6.9c.4.6,1.3,1.4,2.6,2.5.2.2.5.6,1,1.2.3.3.6.7,1,1.2.7.9,1.4,1.6,2.1,2.2.1.2.4.4.8.4s.9-.4.9-.9c.4-1.4,1.3-3.1,2.8-5.2,1.9-2.5,3.1-4.4,3.5-5.3l.8-1.6c-.3,2.8-.3,5,0,6.9l.3,1.9v1.7c-.1.8,0,1.5.2,2,.3.8.7.8,1.2.8h.3v-.2c.2,0,.4-.3.5-.6.2-.5.2-.9.2-1.5v-.2c-.2-.5-.2-1-.2-1.2h.2Z" fill="#dcffeb"/>
  <path d="M232.7,203.9l-.2-.3h-.3c-.6.2-1,.7-1.3,1.4v1.5h0c.2.8.2,1.3.2,1.3,0,.2,0,.6-.1,1.1v12c0,.2-.2.6-.2,1s0,1,.1,1.4c.2.5.6.8,1,.8s.8-.2.9-.5c.4-.5.4-1.2.4-2.1v-9.8l.2-1.6v-6l-.3.3c0-.2-.2-.3-.3-.5h0Z" fill="#dcffeb"/>
  <path d="M251.3,203.8h-.2c-.8-.2-1.4.3-1.9.9-.6.8-1,1.2-1.1,1.3l-.3.2c-.2.2-.5.4-.8.6-1.4.7-2.5,1.7-3.5,2.6-.4,0-.9.3-1.5.8h0c0-2.4-.2-4-.4-5s-.7-1.3-1.2-1.3-.7.2-.9.5c-.2.2-.3.5-.3.7-.1.5-.1,1.1,0,1.7,0,.3.1.6.2.9,0,.3.1.5.1.7.2,1.1.2,2.2,0,3.2-.3.4-.3.9-.3,1.2v1.1c-.2.7-.2,1.5-.2,2.4v4c-.3.4-.4.8-.4,1.1v1.5c.1.3.3.9.9,1,.5.2,1,0,1.4-.4.2-.3.4-.6.4-1.2v-5.8s.2,0,.3.1c.2,0,.5.3.9.7l2.3,2.2.8,1c.3.4.6.8,1.1,1.3l2.4,2.1.4.4h.2c.4,0,.7-.2.9-.4.2-.1.4-.4.4-.9.2-1,0-1.9-.4-2.5h-.2c0-.2-.2-.3-.3-.4s-.5-.4-.8-.6c-.6-.4-1.5-1.3-2.5-2.6-1-1.2-1.9-2.2-2.9-3.1.8-.5,1.6-1,2.5-1.6l2.2-1.6c1.5-1.1,2.3-1.9,2.8-2.6.3-.5.7-1.2.7-2s-.2-1.4-.5-2v-.2h-.3Z" fill="#dcffeb"/>
  <path d="M267.3,219.7h-.5c-2.8,0-5.4-.1-8,0,0-.4,0-.8-.1-1.3v-.3c0-.4-.1-.8-.2-1.1,0-.4-.1-.7-.1-.9v-.7h5.9c.1-.3.3-.4.4-.7.4-1,.4-1.9-.2-2.8v-.6h-.7l-3.7-.2h-1.8v-3.4l7.7.3h.3c.4,0,.7-.4.8-.8.3-.7.3-1.5,0-2.4-.1-.4-.3-.7-.6-.9h-.5l-2.5-.2h-6.8v.2h-.4c-.7.8-.7,1.6-.7,2.3v.4c.2.4.3.9.5,1.5v8.8c0,.3,0,1.2.3,2.8.2,1.1.2,1.9.2,2.6s0,1.2.6,1.6h.3l9.1-.2h1c.2-.3.3-.6.4-.9.2-.7.2-1.4,0-2,0-.5-.4-.9-.8-.9v-.2Z" fill="#dcffeb"/>
  <path d="M301.3,219.7c-.2-.2-.4-.3-.5-.5-.1,0-.2-.2-.3-.2-.3-.3-.6-.7-.9-.9-.2-.2-.3-.4-.4-.5-.5-.5-1.2-1-2-1.6-.7-.4-1.2-.8-1.5-1.1l-.3-.2c-.4-.4-.7-.7-1-1.1,2.6-2.2,4.3-3.7,5.5-4.5.7-.6,1.1-1,1.3-1.2h0c.4-.8.6-1.3.6-2s-.2-1.3-.6-2l-.3-.5-1.4,1.1c-.4.3-.9.7-1.4,1.2-.9.7-2,1.7-3.3,2.7l-1.4,1.1c-.6.6-1,.8-1.4,1-.3.2-.6.3-.8.4v-6.8l-.6.6c-.2-.3-.3-.5-.5-.8h-.1c-.5-.4-.9,0-1.2.3-.2.2-.2.6-.2,1,0,.7,0,1.7.3,3.1v2.9c-.1,1.2,0,2.3.3,3l.4,1v.2c0,.2.1.4.1.8s0,.5.1,1v.5c0,.5,0,1.3-.2,2.1v3.6h0c.3.6.8.6,1,.6h.4c.3-.4.6-1,.6-1.9.2-1,.3-2.2.3-3.5v-2.5h.1c0,.1.2.3.3.4s.2.3.4.5c.2.3.5.8,1.1,1.2.8.7,1.8,1.4,2.9,2.2.5.3.8.6.9.6h.1s.2.2.7,1c.6.7,1.2,1.3,1.8,1.8.3.3.7.3.9.3h.2v-.2c.2,0,.5-.3.5-.7.4-.9.4-1.8,0-2.7-.2-.3-.5-.6-.8-.9h.3Z" fill="#dcffeb"/>
  <path d="M318.3,203.7h-6.8c-1.5-.2-2.9-.2-4.2-.2h-.4c-.2.4-.5.7-.5,1-.1.4-.1.9-.1,1.3v1.3c0,1,0,2.4-.2,4.3l-.6,6.3c-.2,1.5-.2,2.6,0,3.5.1.8.5,1.3.8,1.8.5.5.9.8,1.5,1h10.4c.4-.3.7-.7.7-1,.1-.5.1-1.1.1-1.6s-.2-1.1-.5-1.4c-.2-.2-.7-.4-1.3-.4h-7.7c-1.2,0-1.6-.3-1.7-.5v-.8c.1-.5.2-.8.2-1.1v-2.2h3.8l3.5.3c1.1-.1,1.6-.9,1.6-2.2-.1-1.4-1-2.3-2.2-2.3h0c-.9-.1-1.9-.2-2.9-.2h-3.5v-3h.2c.7,0,1.5.2,2.3.2h0l6.5.2h.4c.5,0,1-.4,1.3-1.2.4-.8.4-1.8,0-2.6-.1-.3-.3-.7-.7-.7v.2Z" fill="#dcffeb"/>
  <path d="M334.3,219.7h-.5c-2.8,0-5.4-.1-8,0,0-.4,0-.8-.1-1.3v-.3c0-.4-.1-.8-.2-1.1,0-.4-.1-.7-.1-.9v-.7h5.9c.1-.3.3-.4.4-.7.4-1,.4-1.9-.2-2.8v-.6h-.7l-3.7-.2h-1.8v-3.4l7.7.3h.3c.4,0,.7-.4.8-.8.3-.7.3-1.5,0-2.4-.1-.4-.3-.7-.6-.9h-.5l-2.5-.2h-6.8v.2h-.4c-.7.8-.7,1.6-.7,2.3v.4c.2.4.3.9.5,1.5v8.8c0,.3,0,1.2.3,2.8.2,1.1.2,1.9.2,2.6s0,1.2.6,1.6h.3l9.1-.2h1c.2-.3.3-.6.4-.9.2-.7.2-1.4,0-2,0-.5-.4-.9-.8-.9v-.2Z" fill="#dcffeb"/>
  <path d="M352.6,213.5c-.1,0-.2-.2-.4-.3-.2-.2-.5-.4-.9-.7l-.2-.2c-.3-.3-.7-.5-1.1-.5s-.2,0-.2,0h-5.8c-.4,0-.7-.2-.9-.4l-.7-.6c-.4-.3-.7-.5-.9-.6-.2-.2-.3-.3-.3-.5s.3-.6.8-.8c.8-.4,1.8-.7,2.9-.8h1.4c2.2-.2,4,0,5.4.8.6.4,1.1.4,1.3.2h.2c.1-.2.4-.4.4-.9.3-1,.2-2-.4-2.8-.4-.5-1-.9-1.9-1.1-2.1-.5-4.3-.7-6.5-.5-1.1.2-2.2.4-2.8.7-1.1.5-2,1.1-2.4,1.9-.6.8-.9,2.2-.9,3.9s.1,1.5.4,2.1c.2.3.6.8,1,1.4.9,1.1,1.8,1.7,2.7,2,.6.2,1.5.4,2.8.4h2.1c.6-.2,1.1-.2,1.3-.2.3,0,1,.2,2.2,1.3,0,0,.1.1.2.1,0,0,0,.1-.1.2-1,.9-2.1,1.5-3.1,1.9-.3,0-.5.1-.7.2-.3,0-.5.1-.7.1h-1.8c-.5,0-1-.2-1.4-.3-.2,0-.4,0-.5-.1-.5-.2-1.1-.5-1.5-.9s-.5-.5-1-.5-.8.2-.9.6c-.1.2-.3.5-.2.8-.1.8,0,1.7.3,2.2.2.3.6.7,1,1,1.2.8,2.9,1.3,5.1,1.4h.9c.6,0,1.1,0,1.5-.1.7-.1,1.4-.5,2.2-1h.1c1.3-.8,2.1-1.4,2.5-2,.8-.9,1.2-2.2,1.2-3.8s-.1-1.4-.3-2c-.2-.5-.5-1-1.1-1.5h-.3Z" fill="#dcffeb"/>
  <path d="M370.2,203.7h-6.8c-1.5-.2-2.9-.2-4.2-.2h-.4c-.2.4-.5.7-.5,1-.1.4-.1.9-.1,1.3v1.3c0,1,0,2.4-.2,4.3l-.6,6.3c-.2,1.5-.2,2.6,0,3.5,0,.6.3,1.1.8,1.8.5.5.9.8,1.5,1h10.4c.4-.3.7-.7.7-1,.1-.5.1-1.1.1-1.6s-.2-1.1-.5-1.4c-.2-.2-.7-.4-1.3-.4h-7.7c-1.2,0-1.6-.3-1.7-.5v-.8c.1-.5.2-.9.2-1.1v-2.2h3.8l3.5.3c1.1-.1,1.6-.9,1.6-2.2-.1-1.4-1-2.3-2.2-2.3h0c-.9-.1-1.9-.2-2.9-.2h-3.5v-3h.2c.7,0,1.5.2,2.3.2h0l6.5.2h.4c.5,0,1-.4,1.3-1.2.4-.8.4-1.8,0-2.6-.1-.3-.3-.7-.7-.7v.2Z" fill="#dcffeb"/>
  <path d="M391.1,203.7h-.3c-.7.2-1.3.6-1.5,1.2h0c-.3.3-.5.5-.7.6-.4.5-.7.8-.9,1l-1.2,1.2c0,.1-.2.2-.2.3-.2.2-.4.5-.6.8l-1.1,1.6c-.2.4-.6.8-.8,1-.2.1-.4.3-.6.5h0l-.4-.7-2.2-2.5c-.5-.5-1-1-1.4-1.5l-1.5-1.5h0c0-.2,0-.3-.2-.5h0c-.3-.6-.7-.9-.9-1-.4-.4-.8-.5-1-.4-.2,0-.6.1-.8.4-.3.3-.4.7-.4,1.1-.2.8,0,1.7.6,2.4l.5.5c.5.4.8.8,1.3,1.3.2.2.3.3.4.5.6.9,1.4,1.7,2.7,2.7.3.5.7.9,1.1,1.4.3.4.7.9,1,1.3v1.1h0c-.1,1.2-.1,2.3-.1,3.3v.8c0,.8,0,1.6.3,2.5.1.4.3.7.6.9h.2c.5,0,.9-.3.9-.7.3-1.1.4-2.3.3-3.6-.2-.9-.1-1.8,0-2.9,0-.5.1-1,.1-1.6.1,0,.2-.2.3-.3.2-.2.4-.3.5-.4.3-.2.5-.5.7-.8,0-.1.1-.2.3-.4.2-.3.4-.6.7-1.1.7-1.2,1.7-2.3,2.9-3.3.6-.6,1.1-1,1.1-1,.5-.5.8-.9.9-1.4,0-.1,0-.2.1-.3h0c.1-.9-.1-1.7-.7-2.3l-.2-.2h.2Z" fill="#dcffeb"/>
</svg>