<?xml version="1.0" encoding="utf-8"?>
<!-- Generator: Adobe Illustrator 29.5.1, SVG Export Plug-In . SVG Version: 9.03 Build 0)  -->
<svg version="1.1" baseProfile="tiny" id="Layer_1" xmlns="http://www.w3.org/2000/svg" xmlns:xlink="http://www.w3.org/1999/xlink"
	 x="0px" y="0px" viewBox="0 0 438.5 292.7" overflow="visible" xml:space="preserve">
<g>
	<path fill="#A00000" d="M71.3,43.8c0.5,0,1.1-0.6,1.1-1.1s-0.1-1.2-0.6-1.5c-0.4-0.2-1.1-0.1-1.5,0.1c-1.1,0.4,0.1,1.8,0.5,2.2
		C70.9,43.6,71.1,43.7,71.3,43.8z"/>
	<path fill="#A00000" d="M79.4,121.1c-0.1,0-0.3-0.1-0.4-0.1C79.3,121.4,79.5,121.7,79.4,121.1z M179.5,68.2c2.1,0.1,5.5,2.4,6.3-1
		c0.7-3,1.8-3.1,3.9-3.1c1.2,0,5,1.1,4.9-1.5c-2.6-1.2-4.9,0.5-7.6-0.5c-1.3-0.5-2.7-1.1-4-1.9c-0.2-0.1-1.1-1-1.3-0.9
		c-0.4,0.1-0.1,0.3-0.4,0.7c-0.4,0.7-0.3,1.5-0.9,2.1c-0.7,0.7-1.4,0-2-0.5c-0.3-0.3-0.7-0.6-0.6-1.1c0-0.4,0.2-0.7,0.3-1.1
		c0.1-0.5,0.2-1.3-0.5-1.3c-1,0-2.1-0.1-3.1-0.3c-0.7-0.1-1.2-0.4-1.9-0.4c-0.8,0-1.1,0.6-1.7,1.1c-0.8,0.8-2.9,0.1-3-1.1
		c0-0.2,0.1-0.6,0-0.8s-0.4-0.4-0.6-0.5c-0.7-0.4-2-0.9-1.9-1.9c0.1-0.9,1.2-1.7,2-1.9c0.8-0.1,1.5-0.3,2.2-0.5s1.6-0.3,2.1-0.8
		c1.1-1-0.7-1.9-1.5-2.1c-1-0.3-2.2,0-3.3,0.2c-0.9,0.1-1.7,0.2-2.6,0.3c-0.8,0.1-1.5-0.1-2.2-0.5c-0.7-0.3-1.5-0.3-2.3-0.3
		c-1,0-2,0.1-2.9,0.5c-0.3,0.1-0.6,0.3-0.8,0.5c-0.5,0.2-1,0.3-1.4,0.5c-0.8,0.3-1.6,0.4-2.5,0.3c-0.6-0.1-1.6-0.2-1.6-1
		c0-0.4,0.6-0.8,0.8-1c0.4-0.4,0.8-0.7,1.1-1.1c0.5-0.6-0.4-1.3-1-1.2c-0.3,0.1-0.6,0.3-0.8,0.5c-0.4,0.3-0.7,0.6-1.1,0.8
		c-0.6,0.4-1.2,0.8-1.8,1.1s-1.2,0.4-1.8,0.6c-0.4,0.1-0.8,0.3-1.2,0.3c-0.3,0-0.5,0.1-0.8,0.1c-1.2,0-2-0.6-3.1-0.9
		c-1-0.3-2.1-0.4-3.1,0c-0.4,0.1-0.8,0.2-1.2,0.2c-0.7,0-1.1,0.2-1.7,0.4c-0.3,0.1-0.6,0.1-0.8,0.2c-0.4,0.2-0.5,0.6-1,0.7
		c-0.8,0.2-1.8,0-2.6-0.2c-0.9-0.2-1.4-1.1-1.8-1.8c-0.4-0.6-1-1.3-1.5-1.8c-0.6-0.5-1.1-0.8-1.6-1.4c-0.6-0.7-1.2-1.3-1.8-2
		c-0.6-0.7-1.4-1.1-2.2-1.5c-0.5-0.2-0.9-0.5-1.4-0.6c-0.3,0-0.7,0-1,0c-0.7,0-1.3,0.3-1.8,0.8c-0.4,0.4-0.4,0.9-0.1,1.4
		s1,1,1.4,1.3c0.3,0.2,1,0.5,1.3,0.9c0.2,0.2,0.3,0.6,0.4,0.9c0.1,0.3,0.4,0.7,0.3,1.1c-0.2,0.6-0.9,0.4-1.4,0.4
		c-0.2,0-0.5,0.1-0.7,0.1c-0.6,0-1.3-0.4-1.8-0.6c-0.7-0.3-1.4-0.6-2.1-0.9c-3.5-1.4-6.4-1-10.1-3c-1.2-0.6-2.5-1.1-3.7-1.6
		c-0.5-0.2-0.9-0.4-1.4-0.4c-0.4,0-1.1,0-1.3-0.5c-0.2-0.5-0.3-0.9-0.7-1.4c-0.7-0.8-1.9-1.2-2.7-1.8c-1.6-1-3.1-2.4-4.4-3.8
		c-0.6-0.7-1.3-1.6-2.2-2.1c-0.5-0.2-1.1-0.4-1.6-0.4c-0.3,0-0.2,0.1-0.6,0.1c-0.2,0-0.4-0.1-0.6-0.1c-0.7-0.3-1.2-1.6-1.5-2.2
		c-0.3-0.8-0.5-1.8-0.9-2.6c-0.3-0.6-0.7-1.1-1.3-1.4c-0.6-0.3-1.3-0.6-1.9-0.9c-0.2-0.1-1.6-0.7-1.8-0.3c-0.1,0.2,0,0.6,0,0.8
		c-0.1,0.4-0.5,0.6-0.9,0.8c-0.2,0.1-0.3,0.1-0.4,0.3c-0.1,0.1-0.2,0.3-0.4,0.4c-0.4,0.1-1-0.8-1.2-1.1c-0.2-0.2-0.4-0.5-0.6-0.7
		c-0.3-0.2-0.5-0.3-0.8-0.6c-0.3-0.4-0.7-0.9-0.9-1.3c-0.3-0.5-0.4-1.2-0.7-1.7c-0.3-0.5-0.6-1-1-1.5c-0.4-0.6-0.7-1.1-1.1-1.5
		c-0.6-0.6-0.9-1-1.8-1.2c-0.3-0.1-0.8-0.2-1.1,0C66.7,16.7,67,17,66.5,17c-0.5-0.1-0.9-0.5-1.4-0.7c-0.2-0.1-0.4-0.1-0.7-0.2
		c-0.3-0.2-0.5-0.4-0.7-0.7c-0.4-0.8-0.6-1.5-0.6-2.4c0-0.7,0.1-1.4,0.1-2.1c0-0.2,0-0.5,0-0.7s0-0.4-0.1-0.5c0-0.1-0.1-0.1-0.1-0.1
		c-0.1-0.1-0.1-0.2-0.2-0.3c-0.1-0.2-0.2-0.5-0.3-0.7c-0.1-0.3-0.2-0.7-0.4-0.9c-0.4-0.6-1-0.7-1.7-0.9c-0.4-0.1-0.7-0.3-1.1-0.3
		s-0.7,0.1-1.1,0.2c-0.3,0.1-0.4,0.4-0.5,0.7c-0.1,0.4-0.3,0.9-0.3,1.3c0,0.6,0,1.2,0.1,1.7c0.1,0.4,0.3,0.9,0.6,1.2
		c0.3,0.2,0.5,0.5,0.7,0.7s0.5,0.5,0.7,0.8c0.1,0.2,0.1,0.4,0.2,0.5c0.1,0.2,0.2,0.3,0.2,0.6s0,0.7,0,1.1c0,0.6,0,1.3-0.3,1.9
		c-0.2,0.5-0.8,0.7-1,1.2c-0.1,0.2-0.3,0.6-0.4,0.9c-0.1,0.2,0.1,0.5,0.2,0.7c0.3,0.6,0.7,1,1.1,1.5c0.5,0.6,1,1.3,0.9,2.1
		c0,0.5-0.6,0.5-0.9,0.3c-0.3-0.3-0.6-0.7-1.1-0.8c-0.3,0-0.6,0.1-1,0.1c-0.7,0-1.4-0.4-2.1-0.7c-0.9-0.4-1.8-1-2.7-1.3
		C52.3,21.1,52,21,51.7,21c-1.1,0-2,0.8-2.5,1.7c-0.3,0.5-0.6,1.1-0.8,1.6c-0.1,0.3-0.2,0.6-0.3,0.9s-0.2,0.6-0.2,0.8
		c-0.1,0.7-0.2,1.5-0.3,2.2c-0.1,0.5,0,0.9,0.1,1.3c0,0.5,0,0.8-0.2,1.2c-0.1,0.2-0.3,0.9-0.7,0.8c-0.2,0-0.3-0.3-0.4-0.4
		c-0.5-0.7-0.8-1.5-1.5-2.1c-0.4-0.3-1-0.7-1.4-0.8s-0.5,0.3-0.7,0.6c-0.2,0.4-0.3,0.8-0.5,1.2c-0.1,0.2-0.2,0.4-0.2,0.7
		c0,0.2,0,0.1,0.1,0.3c0.1,0.1,0.2,0.2,0.3,0.2c0.3,0.2,0.5,0.4,0.7,0.6c0.3,0.4,0.6,0.8,0.9,1.1c0.1,0.1,0.2,0.1,0.4,0.2
		c0.2,0.2,0.4,0.4,0.5,0.6c0.5,0.6,0.9,1.2,0.5,1.9c-0.2,0.5-0.5,0.9-0.8,1.3c-0.1,0.1-0.2,0.3-0.4,0.3s-0.4-0.1-0.6-0.1
		c-0.5-0.2-1-0.6-1.6-0.8c-1.4-0.5-2.2-0.1-2,1.6c0,0.3,0.1,0.7,0.2,1c0.1,0.3,0.2,0.5,0.4,0.7c0.3,0.5,0.7,1.1,0.5,1.7
		c-0.2,0.7-0.7,1.4-0.7,2.1c0,0.3,0,0.6,0.1,0.8s0.3,0.7,0.3,0.9c-0.1,0.2-0.7,0.6-0.8,0.7c-0.2,0.2-0.4,0.3-0.7,0.4
		c-0.1,0.1-0.5,0.2-0.5,0.3s0.1,0.4,0.1,0.4c0.1,0.2,0.1,0.4,0.2,0.6c0.2,0.5,0.1,0.9-0.3,1.3c-0.2,0.2-0.5,0.5-0.6,0.8
		s0,0.5-0.2,0.7c-0.1,0.1-0.2,0.1-0.3,0.2c-0.2,0.1-0.5,0.3-0.7,0.5c-0.5,0.3-0.9,0.3-1.5,0.4c-0.3,0-0.5,0-0.8,0.2
		s-0.4,0.3-0.4,0.6s-0.1,0.6-0.3,0.9c-0.4,0.6-1,0.5-1.6,0.2c-0.1-0.1-0.3-0.1-0.4-0.2c-0.1-0.1-0.2-0.4-0.3-0.5
		c-0.1-0.2-0.1-0.4-0.2-0.5c-0.3-0.5-0.9-0.6-1.2-0.9c-0.2-0.2-0.4-0.4-0.6-0.6c-0.3-0.3-0.5-0.7-0.6-1.1c-0.1-0.3-0.3-0.5-0.4-0.8
		c-0.2-0.4-0.3-0.8-0.6-1.1c-0.3-0.4-0.9-0.8-1.4-0.5c-0.3,0.2-0.2,0.4-0.2,0.7s0.1,0.7,0.2,1c0.2,0.7,0.7,1.6,1.4,1.9
		c0.3,0.2,0.6,0.3,0.8,0.4c0.4,0.2,0.8,0.6,1.1,1c0.3,0.3,0.7,0.7,0.9,1.1c0.3,0.4,0.7,1.2,0.6,1.8s-1.2,0.6-1.2,1.2
		c0,0.3,0.1,0.7,0.3,0.9c0.2,0.3,0.3,0.6,0.3,1c0.1,0.5-0.3,0.9-0.6,1.3c-0.1,0.2-0.2,0.3-0.4,0.3c-0.3,0-0.4,0-0.7-0.1
		c-0.2-0.1-0.4-0.2-0.6-0.3c-0.2-0.2-0.4-0.4-0.6-0.7c-0.7-0.8-1.3-1.9-1.7-2.8c-0.1-0.2-0.1-0.4-0.2-0.6C26.1,55,26,54.9,26,54.7
		c-0.1-0.2-0.2-0.3-0.3-0.4c-0.1-0.2-0.2-0.5-0.3-0.7c-0.3-0.3-1-0.2-1.3,0c-0.3,0.1-0.4,0.2-0.5,0.5c-0.1,0.5-0.1,0.9,0.1,1.4
		c0.2,0.3,0.5,0.5,0.8,0.6c0.5,0.2,0.9,0.4,1.3,0.7s0.7,0.6,1,1c0.5,0.6,0.8,1.2,1.3,1.8c0.3,0.4,0.6,0.7,1,1
		c0.5,0.4,0.9,0.9,1.4,1.5c0.2,0.3,0.4,0.6,0.6,0.8c0.2,0.3,0.4,0.4,0.6,0.7c0.2,0.4,0.2,0.8,0.5,1.1c0.5,0.8,1.2,1.3,2,1.9
		c0.3,0.2,0.6,0.6,1,0.6c0.3,0,0.6-0.1,1-0.1c0.6,0,1.2,0.2,1.8,0.3c0.5,0.1,1,0,1.5,0.2c0.4,0.1,0.5,0.3,0.7,0.6
		c0.3,0.3,0.9,0.5,1.3,0.6c0.3,0.1,0.5,0.1,0.8,0.1c0.2,0,0.3,0.1,0.5,0.3c0.2,0.2,0.5,0.2,0.7,0.5c0.1,0.2,0,0.4,0.1,0.6
		c0,0.3,0.2,0.4,0.4,0.6c0.7,0.7,1.2,1.5,1.7,2.4c0.3,0.6,0.6,1.3,0.5,1.9c-0.5,0.2-0.9,0.5-1.4,0.8c-0.2,0.4-0.3,0.8-0.3,1.3
		c-0.2,0.4-0.5,0.6-0.6,1c-0.4,1.1-0.6,2.3-0.4,4c0.3,2.1,0,2.2-1.3,2.5c-1.4,0.3-4.7,0.2-4.9,2.3c-0.1,0.6,0.4,1.2,0.7,1.7
		c0.7,1.6-0.2,2.5-1.9,2.5s-3.9-0.4-5.5-1.1c-0.7-0.4-1-0.9-1.6-1.5c-0.6-0.7-1.5-1-2.3-1.4c-3.4-1.8-6.9-3.8-9.2-6.9
		c-1.9-2.7-3.1-5.9-4.8-8.8c-0.5-0.9-1.7-1.9-2.8-2.1c-0.5-0.1-1,0-1.5-0.1c-2-0.3-5.3-0.7-6.5,1.5c-0.5,0.9-0.1,1.7,0.3,2.5
		c1.1,1.9,2.5,3.6,4.1,5.1c1.3,1.2,2.5,2.4,4,3.3c0.4,0.2,0.9,0.5,1.1,0.8c0.3,0.5-0.4,1.2-0.9,1c-0.2-0.1-0.5-0.3-0.6-0.4
		c-0.3-0.3-0.5-0.2-0.8-0.3c-0.3-0.1-0.6-0.3-0.9-0.5c-0.3-0.2-0.8-0.4-1.1-0.5c-0.4-0.2-0.8-0.3-1.1-0.6c-0.5-0.5-1-1-1.5-1.5
		c-0.5-0.4-1-0.9-1.7-0.9c-0.3,0-0.9,0-1.2,0.2c-0.3,0.1-0.5,0.4-0.7,0.7c-0.6,0.6-1,1.4-0.8,2.3c0.2,1.4,0.9,2.5,2,3.3
		c1,0.7,2.2,1.1,3.3,1.5c0.6,0.2,1.1,0.4,1.7,0.6c1.2,0.2,2.2,0.6,3,1.5s2.1,1.6,3.3,2.1c0.9,0.4,1.5,1.2,2.3,1.7
		c0.8,0.6,1.4,0.7,2.3,1.1s1.5,1.4,2.2,2.1c0.3,0.3,2,2.4,2.3,2.4c-1.3,0.3-0.1,2.8-0.5,3.7c-0.2,0.5-1.5,0.1-2.1,0.1
		c-1.3,0-2.4,0-3.8-0.3c-2-0.5-4.7-1-5.8,0c-0.1,0.1-1.3,1.5-1,2.1c0.5,1,1.2,1.5,1.7,1.4c1.7,1.9,1.2,2.1,3.2,3.4
		c1.4,0.9,2.1,1.5,3.2,2.6c1.1,1,2.1,2,2.9,2.3c1.5,0.5,2.3-0.5,3.8,0c0.8,1.2,1.2,1.6,2.2,2.4c1.2,0.9,2.1,1.9,3,2.2s2.5,0.8,3,0.5
		c0.3-0.1,0.2-1.1,0.3-1.3c0.6-0.7,3.1-0.3,4.5,0c1.3,0.2,2.3,1,3.6,1.1c0.4,0,0.7,0.2,1.1,0.1c0.4,0,0.7-0.3,1.1-0.5
		c0.5-0.3,0.9-0.6,1.5-0.7c0.3-0.1,0.7-0.1,1,0c0.5,0.1,1,0.4,1.4,0.8c0.2,0.1,0.3,0.2,0.3,0.4c0.1,0.3,0.1,0.5,0.2,0.8
		c0.1,0.4,0.1,0.7-0.1,1.1c-0.2,0.5-0.6,0.8-0.7,1.3c0,0.2,0,0.3,0.1,0.4c0.2,0.3,0.2,0.5,0.1,0.8c-0.4,0.8-1.4,0.8-2.1,0.9
		c-0.5,0.1-0.9,0.2-1.3,0.4c-0.4,0.2-0.9,0.5-1,0.9c-0.1,0.2-0.1,0.5,0,0.7c0.1,0.1,0.1,0.1,0.2,0.1c0.2,0,0.3,0.1,0.4,0.2
		c0.2,0.1,0.4,0.1,0.5,0.4c0.1,0.2,0.2,0.4,0.1,0.5c-0.1,0.3-0.4,0.5-0.6,0.7c-0.1,0.1-0.4,0.3-0.4,0.5c0,0.1,0.1,0.1,0.1,0.2
		c0.1,0.2-0.1,0.4-0.1,0.6c0,0.3,0.2,0.6,0.1,1c-0.1,0.7-0.5,1.3-0.7,2c0,0.3-0.1,0.5,0.1,0.8c0.1,0.3,0.4,0.5,0.5,0.8
		c0.3,0.5,0.1,1,0,1.5c-0.1,0.6-0.1,1.1,0,1.6c0.1,0.4,0.1,0.9,0.1,1.3c0,0.1,0,0.3,0,0.4c0,0.3-0.2,0.5-0.3,0.8
		c-0.2,0.3-0.4,0.7-0.6,1l-0.2,0.2c0,0,0,0.2,0,0.3c0,0.3-0.1,0.6-0.2,1c-0.1,0.5-0.3,0.9-0.4,1.3c-0.2,0.5-0.4,0.9-0.6,1.3
		c-0.1,0.4-0.2,0.8-0.5,1.1c-0.6,0.6-1.3,1.2-1.9,1.8c-0.1,0.1-0.2,0.2-0.3,0.3c-0.3,0.4-0.6,0.9-0.8,1.4c-0.8,1.3-1.4,2.6-2.2,3.9
		c-0.8,1.4-2,2.5-3,3.7c-0.7,0.9-1.5,1.8-2.3,2.7c-0.4,0.4-0.8,0.8-1.2,1.2c-0.2,0.2-0.5,0.5-0.6,0.8s-0.1,0.7-0.1,1.1
		c0,0.3,0.1,0.6,0.3,0.8c0.3,0.3,0.7,0.3,1.1,0.5c0.3,0.2,0.6,0.3,0.9,0.5s0.7,0.3,1.1,0.2c0.1,0,0.2-0.1,0.3-0.2
		c0.2-0.1,0.5-0.2,0.7-0.3s0.4-0.4,0.6-0.6c0.3-0.3,0.6-0.6,0.9-0.9c0.4-0.4,0.8-0.9,1-1.5c0.2-0.4,0.4-0.8,0.6-1.2
		c0.4-0.7,0.8-1.4,1.2-2.1c0.2-0.3,0.4-0.6,0.6-0.9c0.3-0.5,0.4-1,0.6-1.5c0.2-0.5,0.4-0.8,0.7-1.2c0.2-0.2,0.4-0.5,0.6-0.7
		c0.1-0.1,0.3-0.2,0.5-0.2c0.1,0,0.1,0,0.1,0.1c0.1,0.2,0.2,0.3,0.3,0.5s0.2,0.4,0.2,0.7c0,0.5,0,1.1-0.1,1.6s-0.4,1-0.6,1.5
		c-0.6,1.3-1.3,2.6-2,3.8c-0.7,1.4-1.4,2.9-1.9,4.5c-0.1,0.2-0.2,0.3-0.2,0.4c-0.5,0.8-1.1,1.4-1.6,2.2c-0.4,0.8-0.8,1.7-1.2,2.5
		c-0.6,1.5-0.7,3.1-1.3,4.6c-1,2.7-2.5,5-3.8,7.5c-0.3,0.7-0.6,1.3-1,1.9c-0.6,0.9-0.9,1.9-1.5,2.8c-0.6,1-1.3,1.8-2,2.7
		c-0.7,0.8-1.1,1.7-1.8,2.4c-0.3,0.4-0.6,0.8-1,1.2c-0.8,0.7-1.8,1.2-2.7,1.7c-2.1,1.4-4.1,3-5.4,5.3c-0.5,0.8-1.3,2.3,0.1,2.6
		c0.4,0.1,0.7,0,1.1-0.1c1.6-0.3,3.4-0.8,4.9-1.6c0.4-0.2,0.9-0.5,1.2-0.7c0.3-0.3,0.5-0.7,0.8-1c0.4-0.5,0.8-1,1.3-1.4
		c0.9-0.9,1.9-1.7,2.6-2.7s1.2-2,1.8-3c0.7-1.3,1.1-2.8,2.2-3.8c0.5-0.5,1.1-0.9,1.3-1.6c0.2-0.7,0.1-1.4,0.7-2
		c1.2-1.1,0.7,1.8,0.6,2.3c-0.2,0.8-0.5,1.5-0.8,2.2c-0.3,0.8-0.9,1.5-1.3,2.3s-0.7,1.7-1,2.5c-0.2,0.6-0.6,1-0.9,1.5
		c-0.4,0.8-0.9,1.3-1.6,1.8c-0.5,0.3-0.9,0.7-1.4,1c-0.6,0.4-1.1,0.7-1.6,1.3c-0.6,0.6-1.1,0.9-1.5,1.7c-0.2,0.4-0.6,1-0.4,1.5
		c0.1,0.3,0.6,0.4,0.8,0.4c0.1,0,0.3,0,0.4,0c0.3,0,0.5,0.2,0.8,0.2c0.5,0.1,1-0.2,1.5-0.2c0.2,0,0.5,0,0.8,0c0.2,0,1.3-0.1,1.5-0.2
		c0.2-0.1,0.2-0.4,0.3-0.6c0.2-0.2,0.4-0.4,0.7-0.5c0.3,0.3,0.2,1.4,0.1,1.8c-0.2,0.6-0.4,1.2-0.6,1.8c-0.2,0.7-0.5,1.5-0.7,2.2
		c-0.2,0.9-0.9,1.8-1.3,2.6c-0.5,0.9-1.3,1.4-2.3,1.7c-0.7,0.2-1.3,0.5-2,0.6c-0.6,0.1-0.7,0.3-1.1,0.5c-0.7,0.3-1.1,0.2-1.3,0.9
		c-0.2,0.5-0.4,1.1,0.4,2c0.9,0.3,1.5,0,2.3,0.1c0.6,0.1,1.2,0.3,1.7,0.3c2.2,0.1,4.2-0.1,6.3-0.6c0.7-0.2,1.4-0.3,1.8-1
		c0.3-0.5,0.4-1.1,0.6-1.7c0.2-0.6,0.4-1.2,0.7-1.8c0.2-0.5,0.5-1.2,1.1-0.9c0.6,0.4,0.4,1.5,0.4,2.1c0,2-0.8,3.4-1.9,4.9
		c-0.3,0.4-0.7,0.7-0.7,1.2c-0.2,1.1,1,1.9,0.9,3.1c-0.1,1.3-1.3,3.6-1.6,4.9c-0.5,2.2-0.8,4.4-1.3,6.6c-0.4,1.7-1.6,4.3-1.1,6
		c0.9,3.1,5.7,2.5,7.4,0.6c2.5-2.7,2.6-6.2,2.7-9.6c0-1.7,0.1-3.4,0.5-5.1c0.3-1,0.6-3.8,1.5-4.5c1.2-0.8,2.4,1.9,3,2.7
		c1.8,2.3,4.6,3.5,7,0.9c1-1.1,1-2.5,1.1-3.9c0.1-2.3,0-4.7,0-7.1c0-1.1,0-2.1,0.2-3.2c0.1-0.6,0-1.3,0.1-1.9
		c0.1-0.5,0.2-1.5,0.4-1.9c0.2-0.3,0.3-0.2,0.5,0c0.8,0.6,0.7,2.1,0.9,3c0.3,1.4,0,2.6-0.2,4s-0.2,2.8-0.4,4.1
		c-0.1,0.7-0.1,1.4-0.2,2.2c-0.1,0.9-0.2,1.6-0.1,2.4c0.1,0.6,0.2,1.2,0.4,1.8c0.2,0.5,0.5,0.9,0.6,1.5c0.1,0.5,0.3,0.7,0.7,0.8
		c1.5,0.5,3.2,0.6,4.2,1.9c0.5,0.7,0.7,1.5,1,2.2c0.4,1.1,0.3,2.2,0.3,3.4c0,2.4,0,4.6-0.7,7c-0.4,1.5-1,2.4-0.7,4
		c0.2,1.3,0.3,2.4,0.3,3.7c0,1.9,0.7,3.7,0.6,5.5c0,1.9-0.6,3.7-0.6,5.6c0,2-0.5,4.8,0.5,6.7c1,1.9,2.2,2.2,4,1.4
		c1.3-0.6,2.6-1,3.5-2.2c1.8-2.4,2.1-7,1.4-9.8c-0.3-1.3-0.6-2.6-0.9-3.9c-0.6-3,0.3-6.2,0.5-9.2c0.1-1.7-0.3-5.5,2.3-4.7
		c1.6,0.5,3.6,2.6,5.2,1c1.2-1.1,1.5-3.3,1.9-4.8c0.6-2.4,0.3-5.3,2.5-6.9c0.9-0.7,2-1.2,2.9-1.9c1.5-1.3,1.2-2.1,0.4-3.8
		c-1.1-2.1-0.8-3.8-1.6-5.9c-0.3-0.8-0.9-1.7-0.9-2.4c0-1.1,0.8-1.9,0.8-3c0-0.6,0-1.1-0.1-1.7c-0.1-0.6-0.2-1.3-0.1-1.9
		c0.2-0.8,0.4-1.5,1-2.2c0.1-0.1,0.2-0.2,0.3-0.3c0,0,0.6-0.4,0.7-0.3c0.4,0.1,0.4,1.5,0.5,1.8c0,0.5,0,1.5,0.5,1.8
		c0.3,0.1,0.9,0,1.2-0.1c0.4-0.1,0.8-0.2,1.1-0.5c0.2-0.3,0.2-0.5,0.2-0.8c0-0.5,0.1-1,0.1-1.5c0.1-1.3-0.1-2.5-0.2-3.8
		c-0.1-0.9-0.1-2-0.5-2.8c-0.4-0.7-0.5-1.6-0.6-2.4c-0.2-1.4,0-2.9,0.2-4.3c0.2-1.3,0.7-2.6,1.2-3.9c0.4-1.3,1-3,0.6-4.4
		c-0.2-0.6-0.7-0.7-1.2-0.9c-0.4-0.2-0.9,0-1.3-0.3c-0.4-0.2-0.5-1.1-0.6-1.5c-0.2-0.7-0.1-1.8,0.1-2.5c0.2-0.6,0.5-1.1,0.5-1.8
		s0-1.5-0.1-2.2c-0.1-0.5-0.2-1-0.4-1.4c0-0.1-0.1-0.3-0.2-0.4c-0.3-0.1-0.8,0-1.2,0c-0.2-0.4,0-1.1,0-1.6c0-0.7-0.4-2.2,0.3-2.7
		c0.2-0.2,0.8-0.2,1.1-0.3c0.4-0.1,1.1-0.2,1.6-0.2c0.3,0,0.3,0.1,0.5,0.4c0.2,0.3,0.6,0.3,0.9,0.1c0.5-0.3,0.4-0.9,0.4-1.4
		c0-0.2,0.1-0.4,0.1-0.5c0-0.3-0.1-0.5-0.1-0.8c0-0.8,0.2-1.7,0.4-2.5c0.1-0.5,0.1-0.9,0.3-1.4c0.3-0.9,0.5-1.8,0.7-2.8
		c0.2-1.2,0.7-2.2,0.7-3.4c0-0.8,0.1-2.1-0.6-2.7c-0.7-0.6-1.4-0.4-1.7-1.4c-0.3-1,0.1-2.1,0.3-3c0.2-0.7,0.5-1.4,0.6-2.1
		c0.2-0.7,0.3-1.4,0.4-2.1c0.1-0.5,0.1-1.4-0.4-1.7c-0.2-0.1-0.4-0.1-0.5-0.2c-0.1-0.1-0.1-0.3-0.1-0.5c0.1-0.6,0.2-1.1,0.4-1.7
		c0.2-0.6,0.3-1.3,0.6-2c0.3-0.7,0.8-1.3,1-2.1c0.2-0.5,0.2-1,0.2-1.6c0-0.7-0.1-1.5,0.3-2.1c0.3-0.6,0.8-1.2,1.5-1.1
		c0.4,0.1,0.6,0.6,0.9,0.9c0.4,0.5,0.7,0.9,1.2,1.2c0.8,0.5,1.8,0.8,2.7,1.3c0.3,0.2,0.6,0.5,0.8,0.7c0.3,0.3,0.7,0.7,1.1,1
		c0.7,0.6,1,1.4,1.5,2.1c0.5,0.8,1.5,2.1,2.5,2.2c0.5,0.1,1.3-0.2,1.6-0.5c0.9-0.6,0.6-2.7,0.2-3.5c-0.2-0.3-0.4-0.6-0.6-0.9
		c-0.1-0.1-0.4-0.6-0.4-0.8c0-0.1,0.3-0.2,0.4-0.3c0.4-0.1,0.9,0.1,1.3,0.2c1.3,0.4,2.4,1.2,3.5,1.8c0.5,0.3,1,0.5,1.6,0.5
		c0.4,0,0.8,0.1,1.2,0.3c0.3,0.1,0.8,0.3,1.2,0.3c0.9-0.2,1.8-0.3,2.7-0.5c0.9-0.1,1.7-0.3,2.4-0.6c0.5-0.4,0.6-1,1.3-1.1
		c1.4-0.4,3.5,0.5,5.2,1.2c1.1,0.4,3.4,1.5,2.1-0.8c-1.1-1.9-2.7-3.3-4.4-4.6c-1.2-0.9-2.5-1.8-3.6-2.8c-0.6-0.5-1.3-1-2-1.5
		c-0.6-0.5-1.1-1.1-1-1.9c0-0.2,0.1-0.6,0.3-0.8c0.3-0.2,0.9-0.1,1.2-0.1c0.6,0,1.3-0.1,1.9,0s1,0.5,1.5,0.9
		c0.2,0.1,0.3,0.3,0.5,0.4c0.2,0.2,0.5,0.4,0.7,0.7c0.7,0.8,1.2,1.6,2.1,2.3c0.6,0.4,1.2,0.3,1.8,0.1c0.4-0.1,1-0.4,1.3-0.7
		c0.8-0.9-0.2-2.4-1-3c-0.4-0.3-2-2.2-0.8-2.4c0.3-0.1,0.6,0,0.9,0.1c0.1,0,0.2,0,0.4,0c0.1,0,0.2,0.1,0.3,0.1
		c0.6,0.3,1.5,0.3,2.2,0.5c0.2,0,0.3,0.1,0.4,0.2c0.4,0.4,0.6,1,1,1.4c0.3,0.4,0.6,0.7,0.9,1.1c0.2,0.3,0.5,0.8,1,0.9
		c0.6,0.1,1.3-0.4,1.8-0.7c0.5-0.4,0.8-1,1.1-1.5s0.3-0.8,0.1-1.3c-0.4-1.2-1.9-2-3.1-1.8c-0.2,0-0.4,0.2-0.6,0.1
		c-0.3,0-0.6-0.3-0.8-0.5c-0.3-0.2-0.6-0.5-0.9-0.7c-0.3-0.3-0.7-0.4-0.8-0.9c-0.1-0.6,0.1-1.2,0-1.8c-0.3-1.9-2.5-2.3-3.2-3.9
		c-0.7-1.5,0.5-1.3,0.9-1.8c-1.2-3.4-4.6-1.6-5.8-1.8c-1.5-0.2-3.2-1.7-4.8-2.3c-1.4-0.5-4.3-1.4-4.5,0.2c0,0.6,0.7,1.8,0.5,2.4
		c-0.2,0.4-0.2,0.5-0.7,0.4s-1.3-0.9-1.9-1.2c-0.9-0.4-2.1-0.7-2.8-0.7c-0.7-0.1-1.4,0.6-2.1,0.8c-0.4,0.1-0.8,0.1-1.2-0.1
		c-0.2-0.1-0.4-0.4-0.6-0.5s-0.3,0-0.6,0c-0.6,0-2-1-2.1-1.8s0.3-1.6,0.4-2.4c0.1-1,0.3-2,0-3c-0.2-0.6-0.8-1.7-1.3-2
		c-0.2-0.2-0.4-0.2-0.7-0.2c-0.9,0-2.2,0.1-2.9,0.7c-0.7,0.6,0,1.5,0.2,2.1c0.2,0.7,0.8,3-0.5,2.9s-2.4-1.6-3.4-2.3
		c-0.8-0.6-1.8-0.7-2.7-1.3c-0.3-0.2-0.5-0.5-0.8-0.6c-0.4-0.2-0.9-0.2-1.3-0.3c-0.7-0.2-1.6-0.7-2.2-1.3c-0.3-0.3-0.4-0.5-0.8-0.7
		c-0.2-0.1-0.5-0.2-0.7-0.2c-0.8-0.2-1.5-0.6-2.3-0.9c-0.7-0.3-2-0.7-2.2-1.5c-0.1-0.5,0-0.8,0.5-0.9c0.4-0.1,0.8-0.1,1.3-0.1
		c0.9-0.1,1.7-0.7,2.6-0.8c0.8-0.1,2.5,0.6,2.8-0.6c0.2-1.1-0.2-0.8-0.3-1.6c-0.1-2.1,1.8-1.7,0.6-4.5c-1-2.3-1.6-3-3.2-4.8
		c-1-1.1-2-2.7-3.1-3.6c-1.5-1.2-2.4-0.2-4-2.3c-1-1.3-1.5-2.7-1.1-3.3c1.1-1.6,6.2,1.2,8.4,2.2c1.3,0.6,2.1,1.1,2.9,0.7
		c1-0.5,0.9-0.8,0-2.8c-1.2-2.6-2.7-6.5-0.3-5.8c0.9,0.2,2,1.7,2.9,2.2c0.8,0.5,1.4,0.3,2.3,1.1c1.2,1.2,1.5,1.8,2.8,2.5
		c1.5,0.7,3,1.3,4.2,1.4c2.3,0.2,4.4,2.1,6.4,3c0.5,0.2,1.3,0.3,1.4,0.9c0.2,0.9-0.8,1.5-1.5,1.6c-1,0.2-2,0.5-1.8,1.7
		c0.3,1.3,1.9,0.8,2.9,0.8c1.3,0,2.3-0.2,3.5-0.4c1.3-0.2,2.3,0.2,3.6,0.5c1.5,0.3,2.3-0.8,3.3-1.6c1.9-1.4,3.3-0.7,5.4-0.2
		c1.2,0.3,2.1,1,3.1,1.5c1,0.4,1.9,0.6,2.9,0.7s1.9,0.6,2.8,0.7c0.6,0.1,1,0,1.5,0.3c0.4,0.3,0.7,0.7,1.1,1c1.1,0.7,2.3,1.2,3,0.8
		c1-0.5,1.2-2,2.8-1.4c1.1,0.4,2.1,1.9,3.2,2.3c0.6,0.2,1.7,0.7,2.2,0.8c1,0.1,1.3-1.5,2.1-1.6c1-0.2,2.6,1.7,3.7,2.8
		c1.3,1.3,4.4,2.6,5.4,2.4c0.6-0.1,0.3-1,1.3-0.6c0.4,0.2,1.3,1.2,1.8,1.5c1.9,1.3,3.6,2.7,5.3,2.7c1.5,0,3-0.3,4.5,0
		c1.8,0.3,3.5,1.5,5.3,2c1.3,0.4,2.5,1,3.8,1.4c1.2,0.3,1.9-0.3,2.9-0.8c1.9-1,3.8-0.2,6.2,0.7c1.7,0.6,3.4,1.4,4.7,0.5
		c0.9-0.7,1.7-2.3-0.2-3.9c-1.1-0.9-2,0.6-3.4-0.9c-0.9-0.9-1.8-2.3-2.7-3.3c-0.9-0.9-1.2-1.1-1.5-2.7c0-0.3,0.1-1.8,0.1-1.9
		c0.4-0.7,2,0.5,2.6,0.6c0.7,0.2,1.7,0.3,2.1-0.3c0.4-0.7,0.1-1.6,0.8-2c0.4-0.2,1.2,0,1.8,0c2,0,3.9,0.1,5.5-1
		c-0.3-0.9-2.1-0.5-2.9-1.1c-1.3-0.9-2.3-3-3.5-4.1c-0.5-0.5-1.8-1.5-2.3-1.5c-0.1,0-0.6,1.2-0.7,1.3c-1,0.7-2.7,0.3-3.9-0.6
		c-0.1-0.1-0.3-0.2-0.4-0.3c-1.2-0.8-3.4-2-4.8-1.1c-0.6,0.4-1,1-1.6,1.4c-0.7,0.5-1.6,1-2.5,0.8c-0.2-0.1-0.2-0.1-0.2-0.4
		c0-0.5,0.3-0.4,0.6-0.8c0.3-0.3,0.2-1-0.3-1c-0.9,0.1-1.8,0.4-2.8,0.2c-0.6-0.1-1-0.1-1.7,0c-1.1,0.2-1.8,1-3,1
		c-0.5,0-0.8-0.2-1.2-0.5c-0.3-0.2-0.4-0.3-0.4-0.7c0-0.4,0.1-0.8,0-1.2c0-0.2-0.1-0.2-0.3-0.3c-0.1-0.1-0.1-0.2-0.3-0.3
		c-0.3-0.2-0.7-0.2-1.1-0.3c-0.7,0-1.4,0-2.1-0.1c-0.3,0-0.3,0-0.5-0.3c-0.2-0.4-0.3-0.8-0.3-1.2c0-0.2-0.1-0.6,0-0.8
		c0.2-0.2,0.6,0,0.8,0c0.5,0.1,1.2,0.3,1.7,0.1c0.5-0.1,1-0.4,1.4-0.6c0.5-0.2,1.1-0.5,1.4-1c0.1-0.2,0.3-0.5,0.1-0.7
		s-0.6-0.1-0.8-0.2c-0.5,0-2.7-0.5-2.3-1.3c0.2-0.5,1.1-0.4,1.5-0.4c0.5,0.1,1.1,0.2,1.6,0.3c0.3,0.1,0.5,0.2,0.7,0.5
		c0.1,0.2,0.2,0.6,0.4,0.7s0.3,0.1,0.5,0c0.8-0.1,1.7-0.2,2.6-0.1c0.6,0,1.1,0.1,1.6,0.3c0.3,0.1,0.5,0.3,0.7,0.3
		c0.8,0.3,2,0.5,2.9,0.5c1,0,1.8-0.2,1.2-2.3c0.6-0.6,2.3-0.9,3.1-1C177.9,68,178.8,68.2,179.5,68.2z M100.1,60.5
		c-0.1,0.4-0.4,0.8-0.6,1.2c-0.3,0.4-0.4,0.6-0.9,0.8c-0.5,0.1-0.9,0-1.4-0.2c-0.4-0.1-0.8-0.3-1.2-0.6c-0.8-0.5-1.5-1-2.1-1.6
		c-0.3-0.4-0.7-0.6-1.1-1c-0.6-0.6-1-1.2-1.4-1.9c-0.5-0.9-1.1-1.8-1.6-2.6c-0.5-1-1.2-2-1.6-3.1c-0.1-0.3-0.2-0.6-0.3-0.9
		c0-0.4,0.1-0.8,0.4-1.1c0.3-0.4,0.6-0.7,1-1c0.1-0.1,0.3-0.2,0.4-0.3c0.1,0,0.2,0,0.4,0c-0.1-0.1,0.2-0.1,0.5,0
		c0.2,0,0.3,0.1,0.4,0.1c0.5,0,1,0.8,1.3,1.2c0.3,0.6,0.6,1.1,1.1,1.6c0.6,0.6,1.2,1.2,1.8,1.9c0.5,0.5,1.4,1.4,1,2.2
		c-0.3,0.5-1,0.2-1.4,0.1c-0.3,0-0.4,0.1-0.6,0.2c0.7,0.7,1.3,1.3,2.2,1.7c0.4,0.2,0.9,0.3,1.3,0.5c0.7,0.3,1.2,0.8,1.7,1.4
		C99.8,59.4,100.2,60,100.1,60.5z M359.6,202.9c0-0.1-0.2-0.2-0.2-0.3c-0.1-0.3,0-0.5,0.1-0.9c0.1-0.7,0.1-1.5,0.1-2.1
		c0-0.7-0.2-0.8-0.3-1.4c-0.1-0.3,0-0.8,0-1.1c0-0.6-0.2-1-0.3-1.5c-0.1-0.7-0.1-1.6-0.2-2.4c-0.1-0.4-0.1-1.1-0.1-1.5
		c-0.1-0.5-0.6-1-0.7-1.4c-0.3-0.8-0.4-1.8-0.7-2.5c-0.4-0.9-0.9-1.8-1.4-2.7c-0.3-0.6-0.7-1.3-1.2-1.7c-0.8-0.7-1.4-1.3-1.8-2.4
		c-0.2-0.7-0.3-1.2-0.2-2.1c0.1-0.8,0.1-1.5,0.1-2.2c0-0.8,0.4-2,0.2-2.6c-0.2-0.5-0.6-0.6-1-0.8c-0.2-0.1-1.5-0.5-1.6-1
		s0.3-0.9,0.4-1.3c0.2-0.9,0.2-1.3-0.3-1.6c-0.7-0.4-2.4,0.1-2.7-1.1c-0.4-1.4-0.8-2.7-1.5-3.9c-0.4-0.8-1.1-1.3-1.5-2.2
		c0.7-0.5,1.4-0.5,2.1-0.5c0.2-0.1,0.4,0,0.6,0.1c0,0.2,0.1,0.3,0.2,0.3c0.2,0.1,0.6,0,0.7-0.3c0.3-0.7-0.6-1.7-0.9-1.9
		c-0.5-0.3-1.4-0.6-1.2-1.7c-1.5-0.8-3.1-1.6-4.3-3c-0.5-0.5-1.7-0.9-1.7-1.9c0-0.3,0.1-0.7,0.1-1.1c0-1-0.2-0.3-0.6-1
		c-0.5-0.7,0-2-0.5-2.9c-0.5-1-1.5-1.8-2.4-1.8c-0.6,0-1.3,0.2-1.8,0c-0.7-0.2-1.1-1.1-1.6-1.7c-0.2-0.2-0.4-0.6-0.6-0.7
		c-0.3-0.2-0.8-0.1-1.1,0c-0.1,0-0.2,0-0.4,0c-0.2,0-0.3,0.2-0.3,0.5c-0.4,0.4-0.5,0.8-1,0.4c-0.2-0.2-0.3-0.5-0.4-0.8
		c-1.1-2.1-2.7-3.5-4.6-2.6c-0.4,0.2-0.7,0.6-1.1,0.3c-0.3-0.2-0.3-0.8-0.5-1.1c-0.6-0.9-1.4-1.8-2.2-2.1c-0.4-0.1-0.8-0.2-1.2,0.2
		c-0.3,0.3-0.4,1-0.8,1.2c-0.7,0.3-0.7-0.7-0.7-1.4c-0.5,0-1.1-1.5-1.3-2c-0.2-0.4-0.2-0.9-0.5-1.2c-0.3-0.5-0.6-0.8-0.9-1.3
		c-0.4-0.6-0.8-1.2-1.4-1.3s-1,0.3-1.5-0.3c-0.8-1.1-0.5-3.1-1.5-4c-0.5-0.5-0.9-0.8-1.5-0.8c-0.5,0-1,0.3-1.4-0.4
		c-0.4-0.7-0.6-1.7-1-2.4c-0.4-0.8-0.8-1.7-0.8-2.8c0-1,0.3-0.8,0.5-1.5c0.2-0.8-0.2-1.8-0.4-2.4c-0.2-0.8-0.3-1.5-0.3-2.4
		c0.1-2.7,2-1.6,2.9-3.1c0.3-0.5,0.5-1.4,0.7-2c0.5-1.1,0.4-1.3,1.3-1.5c0.6-0.1,1.3-0.2,1.6-1.2c0.2-0.6,0.1-1.3,0.4-1.8
		c0.9-1.8,2.6,0.8,3.3,0.9c0.8,0.2,1.8-0.1,2.5-0.5c0.5-0.3,0.8-0.8,1.2-1.3c0.9-0.8,3-0.6,2.9,1.6c-0.1,1-0.5,1.1-0.9,1.8
		c-0.3,0.5-1,1.8-0.6,2.4c0.1,0.3,1,0.5,1.3,0.5c0.6,0.2,1.3-0.1,1.8,0.2c0.8,0.3,0.8,1.3,1.3,2c0.4,0.5,1.9,0.7,2.4,0.8
		s0.9,0.1,1.4,0c0.7-0.2,1.4,0,2,0.1s0.7,0.5,1.2,1c0.4,0.4,0.8,0.6,1.3,0.7c0.8,0.2,1.6-0.2,2.4,0.1c0.5,0.2,0.9,0.4,1.5,0.3
		c1.6-0.1,0.9-1.8,0.2-2.8c-0.4-0.5-0.7-1.1-0.9-1.8c-0.2-0.8-0.1-0.7,0.4-1.4c-0.1-0.5-0.3-1.2-0.5-1.7c-0.3-0.8-0.1-0.5-0.8-0.9
		c-0.8-0.5-1.3-1.4-1.7-2.6c-0.4-1.1-0.6-2.2-0.9-3.3c-0.3-1.1-0.7-1.8-0.6-3.3c0-1.2,0.5-1.8,0.5-3c0-0.9,0.2-0.7-0.3-1.6
		c-0.3-0.6-0.9-1.2-0.9-2.2c0.1-2,2.4-0.2,3-1.3c-0.1-0.5-0.4-0.9-0.6-1.3c-0.3-0.7-0.6-1.4-1.1-2c-1-1.3-2.2-2.1-3.5-2.6
		c-0.3-0.1-0.5-0.4-0.8-0.5c-0.4-0.2-0.7,0-1.1-0.2c-2.6-1.5-5.5-1.2-8.3-1.2c-2.3,0-4.4,0.2-6.5-1c-1.6-0.8-3.1-2.3-4.8-2
		c-2,0.3-4,2.2-5.9,3.6c-1.5,1.1-3.3,2-4.9,2.5c-2.5,0.8-5.6-0.3-7.9,1.8c-1,0.9-1.5,2.2-2.3,3.7c-1.6,2.9-4.2,4.1-6.3,5.6
		c-0.6,0.4-1.1,1.2-1.6,1.5c-0.3,0.2-0.5-0.3-0.7,0.5c-0.2,1.1,0.8,1.5,1.2,2c0.6,0.8,0.4,1.4,0.2,2.3c-0.2,1.5-0.7,2.8-1.1,4.1
		c-0.5,1.5-0.7,2.7-0.8,4.5c-0.2,2.1,0.3,3.3,0.7,5.3c0.2,0.9,0.2,2.7-0.3,3.3c-0.4,0.5-1.3,0.1-1.8-0.3c-0.3-0.2-0.4-0.6-0.7-0.7
		c-0.4-0.2-0.8,0-1.3-0.1c-0.4,1,0.4,2,0.7,2.7c0.5,1,0.8,1.7,0.6,3c-0.1,0.7-0.2,1.2-0.1,1.9c0.1,1.3,0.6,3.7,1.2,4.7
		c0.2,0.3,0.5,0.5,0.7,0.7c0.7,0.7,1.5,1.6,2.1,2.5c1,1.3,2.2,1.9,3.2,3.2c0.5,0.6,1,1.1,1.3,1.8c0.4,0.8,0.6,1.7,0.8,2.6
		c0.4,1.4,0.8,3,1.4,4.3c0.4,0.9,0.9,1.6,1.5,2.3c0.6,0.8,0.8,1.4,1.6,1.8c1.1,0.5,2.2,0.6,3.2,1.4c0.4,0.3-0.5-0.9-0.1-1.1
		c0.5,1.1,1,2.9,1.7,3.7c0.3,0.4,0.7,0.5,1,0.8c0.5,0.3,0.9,0.7,1.5,0.8c1.3,0.1,2.6-0.1,4-0.1c0.7,0,1.4-0.2,2.1,0
		c1.7,0.5,2.8,1.7,4.1,3c0.7,0.6,1.3,1.2,2,1.7c0.5,0.4,1.2,0.8,1.4,1.5c0.4,1,0.1,1.8,0.3,2.8c0.2,1.5,1.4,2.5,1.7,3.9
		c0.2,1,0,2.3-0.1,3.3c0,1.3,0.4,2.2,1.1,3c0.5,0.5,0.6,0.4,1.2,0.5c0.5,0.1,1,0.2,1.5,0.3c0.4,0.1,1,0.1,1.4,0.3
		c0.5,0.3,1.1,1,1.3,1.7c0.3,0.8,0.3,2,0.9,2.5c0.4,0.5,1,0.3,1.5,0.6c0.3,0.1,0.6,0.6,0.8,0.8c0.4,0.4,0.5,0.5,0.5,1.2
		c0,0.5,0,1.1,0.1,1.5c0.1,0.5,0.1,0.9,0.3,1.5c0.3,1.2,0.8,1.8,0.6,3.1c-0.1,0.9-0.2,1.9-0.3,2.8c-0.1,1.1,0,2.2-0.8,2.9
		c-0.4,0.4-1,0.4-1.4,0.7c-0.4,0.2-0.5,0.5-0.8,0.8c-0.6,0.7-1,1-1.8,0.9c-1.1-0.1-2-0.3-3-0.9c-0.4-0.2-0.9-0.5-1.3-0.8
		c-0.2-0.2-0.5-0.6-0.8-0.7c-0.2-0.1-0.5,0-0.8-0.1s-0.5-0.2-0.9-0.2c-1.2,0-0.4,0.2-1.5-0.4c-0.7-0.4-1.5-1.3-2.1-2
		c-0.7-0.8-1.3-1.8-2.2-2.3c-0.8-0.4-1.7-0.5-2.6-0.8c-1.1-0.3-2.3-0.6-3.4-0.8c-0.8-0.1-2.6-0.9-2.8,0.7c-0.1,0.6-0.1,1.2-0.6,1.4
		c-0.3-0.5-1.3-0.2-1.6-0.1c-0.8,0.1-1.5,0.5-2.2,0.6c-1.7,0.2-3-0.1-4.6,0.7c-0.8,0.4-0.7,0.6-0.5,1.5c0.1,0.4,0.3,0.7,0.1,1
		c-0.5,0.6-1.5-0.3-2.1-0.4c-0.1-0.1-0.2-0.1-0.4,0c-0.7-0.2-1.3-0.5-1.9-0.8c-1.3-0.6-2.7-1.1-3.9-1.9c-0.3-0.2-0.4-0.3-0.8-0.4
		c-0.5-0.2-1-0.7-1.5-0.8c-0.4,0-0.8,0.1-0.9,0.6c-0.2,0.5,0,0.4,0.2,0.8c0.6,1.2,1.4,2,1.9,3.1c0.5,1.2,1.2,2.3,1.5,3.6
		c0.3,0.9,0.3,1.9,0.6,2.8c0.1,0.2,0.3,0.5,0.4,0.7c0.3,0.7,0.5,1.4,0.7,2.1c0.1,0.2,0.7,1.6,0.6,2c0,0-0.5,0.3-0.6,0.3
		c-0.2,0.1-0.5-0.1-0.7,0c-0.1,0.1-0.4,0.3-0.3,0.5c0.1,0.4,0.4,0.2,0.6,0.3c1.3,0.4,2.6,1.3,3.3,2.8c0.2,0.4,0,0.7,0.2,1
		c0.2,0.4,0.6,0.7,0.9,1c0.7,0.7,1.3,1.2,2,1.7c0.5,0.4,1.7,1.8,1.8,2.8c0.1,0.4,0.5,1.3,0.1,1.6c-0.3,0.3-0.9-0.3-1.4-0.1
		c-0.1,0.3,0.3,1,0.5,1.2c0.5,0.5,1.2,0.6,1.7,0.9c1,0.5,1.9,1.5,3.1,1.7c0.9,0.2,3.1,0.1,2.9,1.8c0,0.2-0.2,0.2-0.2,0.4
		s0.2,0.2,0.2,0.4c0.1,0.3,0.3,0.9,0.5,1.1c0.3,0.3,0.9,0.1,1.3,0.1c1.3-0.1,2.5,0.5,3.7,0.8c1.1,0.2,2.7,0.1,3.5,1
		c1,1.2,0,1.5-0.6,2.3c-0.3,0.4-0.5,0.7-0.3,1.2c0.5,1.1,2.8,1.6,3.9,1.9c2,0.7,3.9,1.5,5.8,2.3c1.7,0.7,4.9,1.1,5.7,3.2
		c0.3,0.8,0.5,1.7,0.7,2.5c0.3,1,0.6,2.1,0.7,3.1c0.1,1.9,0.2,3.9,0,5.8c-0.1,1.5-0.7,2.9-1,4.3c-0.3,1.2-0.8,3,0.3,4
		c0.4,0.4,1.1,0.5,1.6,0.6c0.7,0.1,1.6,0.2,2.3,0.1c0.6,0,1.1-0.3,1.4-0.8c0.9-1.6-0.1-4.2-0.1-5.9c0-0.6,0-1.2,0-1.8
		c0-1.2,0.3-2.3,0.4-3.5c0.1-0.9,0.4-1.7,0.4-2.6c0-1.6-0.3-3.3-0.5-4.9c-0.1-1.1-0.3-2.3,0.2-3.4c0.3-0.8,1.1-1.5,1.8-2.1
		c1.1-1,2.3-1.7,3.6-2.5c0.8-0.5,1.6-1.1,2.2-1.8c0.8-0.9,2-3.2,3.5-3.3c0.9-0.1,2.3,0.4,3,1c0.5,0.5,0.8,1.3,1.1,1.8
		c0.2,0.4,0.4,0.7,0.5,1.1c0,0.4-0.2,1.1-0.3,1.6c-0.1,0.7-0.2,1.4-0.3,2.1c-0.3,1.4-0.3,2.9-0.5,4.4c-0.1,0.8,0,1.5,0.2,2.3
		c0.1,0.7,0,1.3,0,2c0,0.9,0.2,1.9,0.6,2.7s1.7,1.9,2.6,2.2c0.9,0.4,1.2,0,1.6-0.8c0.4-0.7,0.4-1.4,0.6-2.2c0.2-1.2,0.3-2.3,0.3-3.5
		c0-2.9-0.9-5.8-1.8-8.6c-0.7-2.3-0.6-4.7-0.6-7.1c0-0.4,0-0.9,0-1.3c0.1-0.6,0.4-1.1,0.4-1.8c0-1.1-0.6-2.9,0.8-3.4
		c1-0.3,2.1,0.4,3.1,0.1c1.3-0.3,2.4-1.7,3.2-2.7c0.5-0.6,1-1.2,1.5-1.8c0.4-0.4,0.7-0.8,1-1.2c0.1-0.3-0.3-0.4-0.4-0.5
		c-0.5-0.3-0.7-0.1-1.3,0c-0.9,0.2-4.3,0.3-3.8-1.3c0.1-0.3,0.5-0.5,0.6-0.7c0.9-0.8,2-1.2,2.9-1.5c0.8-0.2,1,0.1,1.7,0.2
		c0.5,0,0.8-0.3,1.2-0.5c0.4-0.2,0.7-0.5,1.1-0.6s0.7,0.1,1.1,0c-0.1-0.9-0.3-1.5-0.3-2.5c0-0.6,0.1-1.5,0.4-2.2
		C359.5,203.4,359.6,203.3,359.6,202.9z M437.5,161.9c-0.3-0.7-0.8-1.2-1.2-1.8c-0.5-0.7-1.1-1.5-1.3-2.4c-0.1-0.3-0.1-0.6-0.2-0.9
		c0-0.2-0.1-0.3-0.1-0.5s0-0.3-0.1-0.5s0-0.4,0.1-0.6c0.2-0.8,0.4-1.5,0.3-2.3c-0.1-0.6-0.1-1.1,0-1.6c0.3-1.3,0.2-2.7,0.1-4
		c0-0.2,0-0.3,0-0.4c-0.3-2.1-0.8-3.6-1.7-5.1c-0.6-1-1.1-2-1-3.7c0.4-0.4,1.9-0.5,2,0.1c0.9-2.5,1.6-4,1.4-6.4
		c-0.1-1.4-0.3-2.8-0.5-4.2c-0.1-0.7-0.5-1.9-0.2-3c-1.1,0.4,0.7-2.9,0.3-3.6c-0.4-0.6-0.8-1-1.1-1.7c-0.4-1.1-0.5-2.5-1.2-3.3
		s-0.9-1.4-0.7-3.2c0.2-2.6,0.8-3.2,2.4-3.7c0.5-1,0.5-1.6,0.4-2.4c-0.1-1.5-0.6-3.1-0.9-4.5c-0.4-1.8-0.3-3.8-0.4-5.9
		c-0.2-2.4-0.5-3.3-1.6-4.5c-1.1-1.3-1.2-3.1-1.6-5.3c-0.7-3.6-3.5-7.3-2.5-11.2c1.2,0.2,2.3,0.8,3.5-0.1c1.3-0.9,1.4-3.3,0.8-4.6
		c-0.4-1-1-1.3-1.7-2c-1.3-1.3-2-3.5-2.7-5.1c-0.8-1.7-1.4-3.5-1.6-5.4c-0.1-1.3-0.1-2.6-0.4-3.9c-0.2-0.9-0.5-1.7-0.9-2.5
		c-0.6-1.4-1.5-2.7-2.2-4c-0.8-1.5-1.1-4-2.5-5.1s-2.2-3-3.9-2.8c-1,0.1-1.2-0.1-1.3,2.1c-0.1,1.6,0.3,3.3,0.5,4.5
		c-0.6-0.4-1.1-1.5-1.6-2.3c-0.3-0.6-0.7-2.3-1.2-2.6c-1.2-0.4-0.9,1.2-1.5,2.5c-0.6,1.2-1.2,1.1-1.7,1c-1-0.2-1.8-0.8-2.4-1.6
		c-0.5-0.7-0.8-1.5-1.7-0.5c-0.8,1-0.7,1.8-0.7,3c0,1.5-0.5,4.1-0.1,5.1c-0.1-0.2-1.6-3-1.6-3.2c-0.5,1.1-0.7,1.7-1.1,3.1
		c-0.4,0.1-0.7-0.1-0.9-0.7c-1.2-1.1-2.4-1.9-3.8-2.5c-0.9-0.1-1.6-0.7-2.1-1.9c-0.2-0.7-0.4-1.2-0.7-1.6c-2.4-1.6-1.5,5.8-1.3,7
		c0.4,1.9,0.7,3.9,1.1,5.7c0,1.1,0.3,1.9,0.7,2.4c0.6,0.7,1.2,1.4,1.7,2.2c0.2,0.5,0.4,3.3,0.2,4c-0.3,1.2-1,1.5-1.5,2.1
		c-0.1,3.7,2.1,4.9,2.5,8.1c0.1,1,0.1,2,0,3.1c-0.2,1.7-0.7,3.5-0.9,5.2c-0.2,2.4,0.5,3.6,0.9,5.4c0.3,1.9,0.6,4.1,0.8,6.2
		c0.3,3.2,1.4,6.2,2,8.9c0.8,3.3,1.5,7.2,1.6,10.9c0,1.3,0.1,3.4-0.4,4.8c-0.4,1.3-2.1,3.7-2.9,4.3c-0.7,0.5-2.1,0.7-2.5,0.9
		c-1.6,0.5-3.1,1.5-4.6,2.1c-0.3,0.1-0.5,0-0.8,0.2c-0.8,0.5-2,2.1-2.9,2.7c0-0.1,0-0.3,0.1-0.4c-0.5,0.2-0.4,0.8-0.8,1.1
		c-0.7-2.4-2.5-3.2-3-5.9c-0.2-0.8-0.7-2.5-0.5-3.5c0.1-0.8,0.3-0.7,0.6-1.5c1-2.4-0.3-4.9-0.8-6.6c-0.4-1.3-0.6-2.6-1.1-3.8
		c-0.4-1-1.4-2.1-0.9-3.9c1-0.9,4.8,6.3,4.2,0.5c-0.3-3.2-0.3-6.6-1-9.7c-0.3-1.4-0.7-1.6-1.3-2.5c-1.2-1.8-1.8-4.6-3-6.4
		c-0.8-1.2-1.8-0.7-1.7-2.8c0.1-1.8,0.8-3.2,0.4-4.9c-0.1-0.6-0.5-1.3-0.8-1.8c-1-1.9-1.9-3.2-2.5-6c-0.7-3.4-1.5-6.5-2.3-9.9
		c-0.7-3.1-0.8-6.6-1.8-9.5c-0.9-2.6-2.2-6.1-3.9-7.2c-0.9-0.6-1.9-0.5-2.7-1.5c-1.6-1.9-3.9-5.5-3.9-9.9c-0.7,1-0.8,2.6-0.9,4
		c-0.1,0.6-0.2,1.3-0.2,1.9c-0.1,0.6,0,1,0.3,1.2c-0.3,2.6-1.2,1.3-1.9-0.2c-0.6-1.5-0.9-3.1-2.1-1.8c-2,2.2-0.3,4.5-0.2,6.9
		c-1.4,0.8-2.3-0.3-3.3-1.2c-0.4-0.4-1-0.7-1.5-0.4c-1.1,0.5-0.6,0.6-0.5,2c0.1,1.2,0.5,5.4-0.2,6.5s-0.9,2.4-0.9,1
		c-0.7,0.4-0.7-0.6-1.2-0.9c-0.5-0.2-1.1-0.2-1.5-0.4c-1-0.4-1.5-1.5-2.5-2c-0.5-0.3-0.8-0.2-1.2-0.7c-0.4-0.5-0.3-0.9-0.9-1
		c0.2,0-1.3,0.9-1.3,0.8c-0.6,0.9-0.5,0.9-0.4,2.6c0.1,1.2-0.2,2.9,0,4c0.2,0.9,0.8,1,1.1,1.6c0.3,0.5,0.6,0.8,0.3,1.9
		c-0.5,1.7-0.6,0.3-1,0.1c-1.1-0.4-2.2-0.8-3.3-1c-1.3-0.3-3.8,1.1-4.8-0.1c1.1-1.7,1.8-2.3,1.9-5.2c0.1-1.5-0.1-3.1-0.1-4.6
		c-1.1-1-3.1-0.1-4.4-0.1c-1.8,0-3,0.9-4.7,2.3c-1.2,1.1-2.7,2.6-4.1,2c-1.1-0.5-1.1-2.5-0.3-4.3c1-2.1,3.4-3.6,4.8-4.8
		c2.6-2.4,5.5-2,8-4.8c0.4-0.5,2.1-1.7,2.2-2.6c0.1-0.8-1.8-4.8-2.1-5.2c-1-1.3-4,1.7-5.1,2.5c-1.8,1.2-4.4,3.5-6.2,2.5
		c0.1-1.4,2.7-3.6,3.4-4.3c1.2-1.2,2.5-2.6,3.5-4.4c0.4-0.7,1.4-2.5,1.6-3.6c0.2-2.1-1.1-1.1-1.8-1.5c0.3-1.8,2.1-2.3,3-2.9
		c1.2-0.8,2.6-1.7,3.5-3.9c0.3-0.8,1.5-3.5,1.3-4.5c-0.2-0.7-2.4-0.2-2.8-0.2c-2.1,0-4.3,1.8-6.3,0.7c-1.2-0.6-2-2.1-0.8-4.6
		c0.6-1.1,1.5-1,2-2.4c0.6-1.6,0.1-4.5-0.6-5c-0.6-0.4-1.9,0.1-2.5,0c-1.9,0-3.5,0.1-4.5,4.1c-0.5,1.8-0.8,3.5-1.4,5.3
		c-0.3,1-1.2,3.7-1.6,4.5c-0.5,1-1,0.5-1.4,2.1c-0.8,2.7-1,3.1-2.5,4.9c-1.2,1.4-2.2,2.6-3.4,3.8c-0.9,0.9-1.6,0.8-2.5,1.8
		c-0.8,1-1.4,2.3-2.3,3.1c-1.1,0.9-2.4,1.4-3.7,1.8c-2.6,1-4.9-0.8-7.3,1.5c-1.1,1.1-2.1,2.9-3.4,3.5c-1.1,0.5-2.4,0.2-3.5,0.2
		c-1.2,0-1.4,0.4-2.3,1.8c-1.4,2-1.7,1.2-3.3,1.8c-0.8,0.3-1.7,0.9-2.4,1.6c-1,1-1.9,1.1-2.9,2c-3.8,3.5-8.9,4.5-13.4,3.3
		c-3.9-1-7.7-0.7-11.6-0.7c-0.9,0-2.1-0.4-2.9-0.1c-1,0.4-2.1,1.9-2.9,2.6c-3.9,3.5-9.1,4.5-13.9,2.8c-2-0.7-3.7-2.4-5.4-1.4
		c-2.1,1.3-4.3,2.7-6.9,1.8c-1.6-0.6-3.2-1.3-4.8-1.6c-1.7-0.3-3.9-1.8-5.4-1.6c-0.5,2.6-4.4,2.3-5.9,3.4c-0.9,0.7,1.3,4.2,0.2,4.2
		c-1.4,0-2.3,0.2-3.6,0.7c-1.5,0.6-3.6-0.6-4.8,1c0.7,1,1.1,0.6,1.8,1c0.8,0.5,1.7,1.6,2.5,2.4c1,1,2.5,2.2,1.8,4.2
		c-0.4,1.1-1.4,0.9-2.2,0.6c-1-0.4-1.5-0.8-2.5-0.4s-2.6,0.4-2,2.9c-0.8,0.6-2-0.4-2.6,0.7c-0.5,0.8-0.7,2.8-0.9,4.1
		c-0.2,1.5-0.3,2.4,0.8,3.6c1,1,2.5,0.5,3.4,0.6c1.2,0.1,2.5,0.1,3.8,0.8c0.2,1.4-0.9,1.5-0.7,2.8c0.7,0.3,1.7-0.3,2.3,1.1
		c0.6,1.2-0.1,2.9-0.5,3.5c-0.7,1.3-2.1,1.7-2.8,3c-0.5,0.9-0.8,5,0.3,6c-0.5,1.3-2,0.7-2.3,2.4c-0.2,1,0.1,2.1-0.1,3.1
		c1.8,1.4,3.9,0.8,5.4,0.3c0.9-0.3,1.5-1.3,2.6-0.9c1,0.4,1.5,1.4,1,2.5c-0.9,1.7-3.4,1-4.9,1c-1.6,0-3.5,1.3-3.2,4.2
		c0.1,0.9,0.6,3.1,1.1,3.7c0.8,0.9,2,0.4,3,1.1c0.3,1.6-0.5,1.7-0.8,2.8c-0.1,0.5,0.1,1.9,0.3,2.1c-0.6,0.5-0.8,2.5-0.9,3.4
		c-0.1,0.8-0.2,1.6-0.3,2.3c-0.2,0.8-0.7,2-0.8,2.9c-0.1,3.1,3,3.6,4.3,3.6c1.8,0,1.7,2.2,2.4,4.3c0.4,1.1,0.6,1.6,0.7,2.6
		c0,0.8-0.3,1.4-0.3,2.1c-0.2,1.5,0.2,3.4,0.7,5c0.6,2,1.3,2.6,2.4,4.1c-0.2,0.9-0.5,2.1-0.9,3s-1,1.5-1.4,2.5
		c-0.5,1.4-0.7,2.7-0.6,4.5c0.1,1.7,0.7,3.3,1,4.9c0.3,1.8-0.5,2.8-0.7,4.4c-0.3,2,0.7,3.2,2.2,4c1.4,0.8,3.4,2.8,3.5,4.9
		c0.1,1.9-0.7,3.5-0.4,5.4c0.1,0.7,0.4,1.4,0.5,2.1c0.3,1.3,1.4,2.8,1.5,4c0,0.4-0.4,0.9-0.4,1.5c0,1.1,0.5,2.2,1.3,2.9
		c-0.5,0.4-1.7-3.3-2-2.6c-0.4,0.8-0.6,1.3,0.2,2.2c0.9,1.1,2.3,1.3,3.1,2.5c1.8,2.7,0.6,6.2,0.5,8.5c0,0.6-0.3,1.5-0.2,2.2
		c0.3,1.4,2.1,2.1,2.9,2.5c1,0.6,1.1,0.5,1.4,1.6c0.2,0.9,0.6,1.8,0.5,2.7c0,1.3-0.5,2.5-0.5,3.9c0.1,1,0.3,1.5,0.1,2.4
		c-0.2,0.7-0.2,1.2,0,2s1.1,1.6,1.2,2.3c-0.2,0.2-0.3,0.5-0.4,0.8c-0.1,0.3-0.1,0.7-0.1,1.1c0.2,0.7,1,1.5,1.6,1.5
		c0.2,0.8,1,1.5,1.3,2.5c0.4,1.4,0.1,2.8,0.4,4.2c0.2,1.1,0.6,2.3,0.8,3.4c0.2,1.2,0.9,2.6,0.9,3.7c0,1.3-0.3,1.9,0.4,3.3
		s1.9,2,3.2,2.4c0.6,0.2,1.8,0.7,2.2,0.1c0.3-0.4,0.2-1.2,0.2-1.8c0.2-1.5,0.5-2.2,2-2.3c1.6-0.2,2.8,0.8,4.2,1.3
		c0.9,0.3,2.1,0.4,3,0.6c0.6,0.1,1.6,0.6,2.1,0.2c0.3-0.2,0.6-0.8,0.9-1.2c0.3-0.3,0.7-1.5,1.2-1.7c0.2-0.1,0.8,0.3,1,0.4
		c2.4,0.9,5.7,1.4,7.6-0.1c0.6-0.5,1.2-1.1,2-1.3c0.7-0.2,1.5-0.2,2.3-0.4c0.9-0.2,1.8,0.2,2.7,0.1c0.2-0.9,1.7-1,2.1-1.8
		c0.3-0.5,0.2-1.3,0.6-1.7c0.4-0.5,1-0.2,1.5-0.3c1-0.1,1.9-0.6,2.7-1.2c0.4-0.3,0.3-0.6,0.6-1c0.3-0.4,0.7-0.4,1.2-0.4
		c1.1-0.2,1.7-0.4,2.6-0.9c0.9-0.6,1.4-1.1,2-1.9c0.6-0.8,1.4-0.5,2-1.1c0.5-0.5,0.6-1.1,0.9-1.8c0.4-0.9,0.5-0.9,1.3-1.1
		c0.5-0.2,0.7-0.5,1.1-0.9s0.8-0.5,1.3-0.8c0.7-0.5,0.7-1.1,0.2-1.8c-0.4-0.6-0.8-0.6-1.4-0.5c-1,0.3-1.1,0.8-2.1,0.4
		c-1-0.4-1.9-0.9-2.8-1.4c-0.3-0.2-1.2-0.7-1.4-0.5c1.4-1.3-1-3.8,0.8-4.6c0.7-0.3,1.3,0,1.9-0.4c0.5-0.3,1.1-1.1,1.4-1.6
		c0.2-0.3,0.2-0.6,0.4-0.9c-0.4-0.6-0.7-1.2-1.3-1.3c-0.5-0.2-0.9-0.2-1.4-0.4c-0.3-0.2-0.4,0.1-0.5-0.4c-0.2-0.5,0.1-0.6,0.2-0.9
		c0.2-0.6,0.6-1.4,1-1.8c0.3-0.3,0.7-0.5,1-0.9c0.5-0.7,0.6-1.1,0.6-2c0-1.2,1.2-3.5-0.7-2.8c-0.8,0.3-3,3.7-3.8,2.3
		c-0.3-0.4,0.3-1.9,0.4-2.4c0.1-1.1-0.2-1.2-1-1.1c-0.7,0.1-1.5,0.4-2.2,0.7c-1.1,0.4-1.9,1.6-2.9,2.3s-2.4,0.7-3.5,1
		c-0.9,0.2-1.7,0.4-2.6,0.5c-1.4,0.1-2.8,0.4-4.2,0.5c0-0.4,0.2-0.7,0.2-1.1c-0.8-0.4-1.7,0-2.3,0.4c-0.8,0.5-1.7,0.9-2.6,1.3
		c-0.7,0.3-1.2,0.9-1.9,1.3c-1,0.6-1.5-0.3-2.1-1.7c-0.3-0.7-0.5-1.4-0.7-2.1c-0.2-0.6-0.8-1.5-0.8-2.1c1-0.7,0.9-2.1,0.7-3.5
		c-0.2-1.3-0.2-1.6-1-2.6c-0.9-1.2-1.7-1.4-2.7-2.2c-0.8-0.7-0.7-0.9-0.9-2c-0.2-1-0.3-0.6-0.9-1.1c-2.2-1.8-2.1-5.7-2.4-8.3
		c0.5-0.1,0.9-0.4,1.4-0.6c0.7-0.4,1.5-0.3,2.3-0.7c1.3-0.6,2.6-1.4,3.9-2.2s2.8-0.7,4.1-1.6c0.9-0.6,2-1.2,2.8-2.1
		c-0.1-0.6-1-1.6-1.4-1.8c-0.2-0.2-0.7-0.3-0.9-0.5s-0.4-1-0.5-1.2c0.7-1.5,2-2.9,3.4-3.2c0.5-0.1-1.2-0.3-0.8-0.5s1,0,1.4,0
		c0.8,0,1.6,0,2.4,0c2.3-0.1,4-0.8,5.7-2.7c0.9-1,1.9-1.7,2.9-2.1c0.8-0.3,1.6-1,2.3-1.7c0.5-0.5,1.9-2.1,2-3.1c0.1-1.3,0-0.7-0.6-1
		c-0.5-0.3-1.2-0.6-1.7-0.5s-0.9,0.5-1.5,0.6c-0.9,0-1.6-0.5-2.5-1c-1.8-1.1-0.7-2.6-1.5-4.8c-0.4,0-1.1-0.4-1.2-1.1
		c-0.1-0.7,0.8-1.4,1-1.7c1.5-2.1,4.1-4.4,3.7-8.4c-2.3-0.9-4.3-2.8-6.6-1.1c-1.7,1.2-2.8,3.7-4.5,5c-0.5,0.4-1.1,0.8-1.6,1
		c-0.1,0.2-0.1,0.4-0.2,0.5c-1.3,1.2-2.9,1.6-4.4,2c-2,0.5-4.6,0.4-6.2,2.1c-0.6,0.6-1.2,0.9-2,1.2c-1.7,0.7-3,2.8-5.2,2
		c-1.7-0.6-2.1-3.5-2.3-5.4c-0.1-0.8-0.2-1.4-0.2-2.3c0-1.1-0.3-1.3-0.7-2.4c-1.4-3.2-0.5-6.1-1.5-9.4c-0.5-1.5-1.2-3.5-1.8-5
		c-0.6-1.5-1.2-3.1-1.6-4.7c-0.2-0.7-0.3-1.4-0.4-2c-0.4-3,0.6-4.8,0.4-7.6c-0.1-1.1-0.2-2.8-0.6-3.9c-0.9-3.3-2.6-8-0.2-9.6
		c1.4-0.9,4,0.2,5.5-0.1c0.8-0.1,4.8-1.1,4.8-2.8c2.8,0,2.7,1.3,5.1,0.3c0.8-0.3,1.8-0.5,2.8-0.4c1.4,0.1,2.6,1.7,4,2
		s3.3,0.5,4.3-0.6c1.1-1.2,2.3-2.2,3.7-2.8c2.2-0.9,4.7,1.4,6.9,0.5c1-0.4,2-1.1,3.2-0.7c0.4,0.2,0.8,0.6,1.3,0.7
		c0.6,0.2,1-0.3,1.6-0.5c1.1-0.4,2.4-0.9,3.5-0.9c1,0,1.9,0.4,1.8-1.8c-0.2-3.9-2.5-4-4.1-4.5c-1.3-0.4-2.5,0.2-3.7-0.1
		c-1.3-0.3-3-1.2-4.1-2.4c0-3.5,2.9-4.3,4.4-4.3c1.6-0.1,3.1,0.1,4.7,0.4c2.1,0.4,4.3-0.5,6.3-1.4c0.8-0.3,1.7-0.9,2.6-0.6
		c1.8,0.5,3.4,3,5.3,1.9c0.7-0.4,1.3-1.3,2-1.7c1.1-0.6,2-0.8,3-1.7c1-0.9,2-1.7,3.1-2.4c1.8-1.2,3.8-0.5,5.8-0.7
		c0.9-0.1,1.8-0.4,2.6-1.2c0.5-0.5,0.9-1.4,1.4-1.8c2.7-2.2,6-1,8.6-3.3c1.7-1.5,3-2.3,4.8-1.7c1.3,0.4,2.6,0.5,3.9,0.9
		s2.4,1.5,3.7,2.1c1,0.5,1.7,0.8,2.6,2c0.6,0.9,1.1,2.2,1.9,2.6c0.6,0.3,1.3,0.1,1.9,0.1c1.8,0.1,0.6-0.4,2.3,0.2
		c1.6,0.6,3.5,0.6,5,1.4c1.2,0.7,2.8,1.7,3.6,3.3c0.5,1,0.7,2.4,1.2,3.4c0.6,1.3,1.4,2.3,1.9,3.7c0.7,2,1.3,4.2,2,6.2
		c0.7,1.7,1.8,3.5,2.2,5.4c-0.8,0.4-1.4-1.1-2.3-0.6c-0.4,0.2,0.9,4.4,1,4.6c0.7,1.7,1.5,3.3,2.3,4.7c0.9,1.6,2.2,2.6,3.1,4.1
		c0.6,1.1,1,2.5,1.1,4.1c0.2,3.2,0,6.1,1.3,8.4c0.5,0.9,1.6,1.7,0.8,3.3c-0.4,0.9-1.3,1.1-1.9,1.6c-1.9,1.4-1,3.8-0.2,5.3
		c1.4,2.4,3.6,3.3,3.4,6.2c-0.1,2.5-0.5,4.9-0.9,7.4c-0.6,3.4-0.8,7.1-2,10.4c-0.6,1.5-1,2.9-0.9,4.6c0.1,1.3,0.8,3.6,2.5,3.4
		c0.7-0.1,1-0.6,1.5-0.9c0.7-0.5,1.7-0.8,2.1-1.5c1.2-2.1-3-8.2,0.4-9c3.9-0.9,3.1,6,3,8c0,1.5,0.2,2.9,0.5,4.4
		c0.5,2.3,1.6,4.4,2.1,6.7c0.2,1.1,0.5,3.8,1.2,4c0.2,2,0.1-0.3,0.2,1.7c-0.1-0.1-0.3-0.2-0.4-0.3c-0.8,1.6,0,4.1,0.3,5.3
		c0.6,2.5,2.2,4.7,1.6,7.8c-0.3,1.8-0.4,3.4-0.5,5.2c-0.1,1.3-0.1,2.4-0.1,3.7c0,1.4-0.2,2.9-0.2,4.3c0,2.1,0,4.5,0.5,6.3
		c0.5,2,1.4,3.7,1.9,5.6c0.5,1.7,0.5,3,0.4,5c0,1.4,0.1,2.6,0.3,3.9c0.1,1.1,0,2.2,0.1,3.3s0.2,2.3,0.5,3.3c0.2,1,0.7,1.6,0.8,2.5
		c0.1,0.9-0.1,1.9,0,2.6c0,0.1,0.1,0.5,0.1,0.6c0,0.4-0.4,1.4-0.3,1.7c0.2,0.4,0.4-0.1,0.7,0.2c0.1,0.2,0.1,0.6,0.1,0.8
		c-0.1,0.6-0.4,1.3-0.4,2c-0.1,0.6-0.1,1.2-0.2,1.8c-0.3,1.2-0.3,2.2-0.3,3.3c0,0.7-0.2,2.2,0.7,2.2c0.6-0.6,1-1.7,1.4-2.5
		c0.3-0.6,0.5-1.7,1.1-2c0.4-0.2,0.7,0,0.9,0.2c0.7,0.3,1.4,1.1,2.2,1.2c0.7-0.8,1.2-1.7,2.1-1.8c0.8-0.1,1.5-0.5,2.3-1
		c-0.1,0.6,0.2,1.3,0.5,1.6c0.7,0.6,1.7-1.6,2.1-2.3c0.3-0.6,0.4-1.3,1.1-1.5c0.8-0.2,1.1,0.6,1.4,1s0.9,1,1.5,0.6
		c0.5-0.3,0.8-1.3,0.9-1.7c0.3-0.8,0.2-1.4,0.2-2.2c0-1,0.2-2.4,0.5-3.5c0.3-1,1.1-2.2,1.7-3.1c0.6-1,1.3-2,1.8-3
		c0.2-0.5,0.3-0.9,0.5-1.4c0.3-0.7,0.7-1.2,0.9-2c0.3-1.3,0-1.8-0.2-2.8c-0.3-1-1.6-1.3-1.7-2.3c-0.1-0.7,0.3-1.6,0.3-2.3
		c0-1.1-1-1.8-0.8-3c0.2-1.5,1.3-3.4,1.4-5c0-0.3-0.2-0.3,0-0.7c0.2-0.8,0.6-0.7,0.6-1.5c0-1.3-0.4-2.6-0.7-3.8
		c-0.3-1.4-0.5-2.9-0.8-4.2c-0.4-1.2-0.5-2.7-1.1-3.8c-0.3-0.6-1-1-0.8-2c0.1-1,0.3-1.4,0.3-2.6c0-1.2,0.2-2.2-0.4-2.9
		c-1.1-1.4-2.9-1.3-4.5-1.5c0.4-1.9,0.7-3.9,0.6-5.7c-0.1-2.4,0-5.1-0.2-7.5c-0.1-1.3-0.5-2.9,0.7-4c0.8-0.7,1.7-0.8,2.4-0.9
		c0,0.1,0.6-1,0.6-1c1,0.4,1.9-0.7,3-1.5c0.5-0.4,1.5-1.5,2.1-1.4c0.7,0.1,0.6,1.3,0.9,1.9c0.5,0.8,1.5,0.6,2.4,0.4
		c1.7-0.3,2.1-0.7,3.6-2.3c1.5-1.7,2.8-0.8,3.3,0.8c-2.6,4.4-0.5,6.7-0.2,10.2c0.1,1.2,0.2,2.4,0,3.7c-0.1,0.8-0.4,1.7-0.5,2.5
		c-0.1,0.9,0.2,1.7,0.3,2.5c-0.7,0.4-0.8-0.1-1.1,1.1c-1.1,3.4,0,7,0.8,9.2c0.5,1.3,1.2,2.5,1.3,4.2c0,0.6-0.1,1.3-0.2,1.9
		c-0.1,1.2,0.3,2.1,0.6,3.1c0.3,1.1,0.4,2.1,0.9,3.1c0.5,1.1,1.2,2,1.5,3.2c0.3,1,0.2,2.3,0.1,3.5c0,2.5,0.2,4.8,0.3,7.1
		c0,1-0.3,2.2-0.3,3.3s-0.3,2.1-0.4,3.2c-0.3,2.4-0.2,4.8,0.1,6.8c0.2,1.1,0.2,3,1.5,2.9c0.9-0.1,2-1.2,2.2-2.2
		c0.2-0.9-0.4-0.7-0.5-1.2c0.5-0.3,2.2,0.1,2.2,0.2c0.5,0.1,0.7,0.3,1,0.6c0.2,0.2,0.6,1.1,1,0.9c1.1-0.6,1-4.4,1.4-5.1
		c0.7,0.4,1,1.5,1.6,2.1s1.4,1,1.9,1.7c0.2,0.3,0.4,0.6,0.7,0.8c0.6,0.5,1.1,0.3,1.6-0.8s0.4-1.8,0.1-2.7c-0.2-0.7-1.7-2.2-0.9-3.2
		c0.5-0.6,1.1,0.1,1.6,0c2.2-0.3,2.5-3.3,2.9-5c1.1-0.8,1.3,1.7,2-0.5c0.2-0.7,0.2-1.4,0.2-2.1c0.1-1.3,0.4-2.6,0.5-3.9
		c0.2-1.9-0.3-3.4-0.3-5.2c0-1.3,0.2-2.9,0.5-4.4c0.5-2.4,0.6-4.7,0.9-7.2c0.3-2.7,0.3-5.2,0-7.7c-0.2-1.9-0.4-3.9-0.6-5.9
		c-0.1-1-0.1-2.1-0.3-3.1c-0.2-0.8-0.3-1.8-0.5-2.6s-0.6-1.1-0.6-2.1c0-2,0-4,0.1-5.9c0-1,0.2-2.1,0-3.1c-0.1-0.4-0.3-0.8-0.5-1.2
		c-0.2-0.6,0-1.2-0.1-1.7c0-0.3-0.1-0.7-0.3-1c-0.2-0.3-0.5-0.5-0.7-0.8c-0.3-0.5-0.6-1-0.8-1.5c-0.2-0.4-0.4-0.8-0.5-1.2
		c-0.2-0.3-0.3-0.6-0.4-0.9c-0.1-0.4,0-0.7,0.2-1c0.4-0.4,0.9-0.9,1.5-1.1c0.4-0.2,0.7-0.3,1.1-0.1c0.3,0.2,0.4,0.3,0.5,0.6
		c0.4,0.8,0.8,1.6,1.3,2.3c0.6,0.9,1.3,1.9,1.7,2.9c0.2,0.5,0.3,0.5,0.8,0.5c0.6-0.1,0.9-0.2,1.2-0.7
		C439.4,165.4,438.1,163.5,437.5,161.9z M381.4,85.6c-0.1,0.3,0.2,0.7,0,1s-0.3,0.3-0.6,0.2c-0.4-0.2-0.1-0.6-0.4-0.7
		c-1.4-0.6-0.9,2.3-0.8,2.8c0.1,0.6,0.4,1.1,0.5,1.7c0.1,0.3-0.1,0.6,0,0.9s0.3,0.4,0.4,0.6c0.1,0.3-0.1,0.7,0,1s0.3,0.5,0.4,0.9
		c0.1,0.6,0,1.5-0.1,2.1c0,0.2-0.2,0.5-0.3,0.8c-0.1,0.5,0,1.1,0,1.6c0,0.7,0.5,1.5,0.4,2.2c-0.3,1.5-1.9,0.8-2.5-0.1
		c-0.7-1.1-0.8-2.4-1.3-3.5c-0.2-0.5-0.5-1-0.6-1.4c0-0.1-0.1-0.3-0.1-0.4c-0.7-1-0.9-2.5-1.4-3.6s-1-2.2-1-3.4c0-1.3,0.5-2.7,0.7-4
		c0.2-1,0.4-1.9,1.4-2.4c0.6-0.4,2.7-1.7,3.5-1.4c0.3,0.1,1.1,0.8,1.3,1c0.2,0.3,0.5,1.3,0.6,1.7c0.1,0.5-0.3,1.4,0.3,1.8
		C381.6,85.2,381.5,85.4,381.4,85.6z M376.4,95.3c0.1,0.2,0.2,0.3,0.3,0.4C376.4,94.9,376.3,95,376.4,95.3z M208.6,214.7
		c-1-0.1-2.1-0.5-3.2-0.3c-0.3,0-0.6,0.2-1,0.2s-0.8-0.3-1.2-0.4c-1.1-0.4-2.6-1-3.5-0.4c-0.5,0.3-0.9,0.6-1.5,0.6
		c-1.2,0.2-2.8,0-4.1-0.5c-0.6-0.2-1.3-0.2-2-0.3c-2.1-0.2-4.4,1.1-6.5-0.3c-0.6-0.4-1-0.4-1.6-0.5c-1.3-0.1-2.4,0.2-3.6,0.5
		c-0.6,0.2-0.8,0.3-1.3,0.1c-0.4-0.2-0.6-0.7-1-0.9c-0.3-0.2-0.6-0.1-0.8-0.1c-1.5,0-3.1-0.8-4.6-0.8c-0.5,0-0.9,0.1-1.4,0.1
		c-0.3,0-0.6,0-1,0c-0.6,0-1.1-0.1-1.7-0.2c-0.8-0.2-1.4-0.8-1.7-1.7c-0.4-1-0.3-1.9-0.4-2.8c-0.1-0.5-0.2-1-0.1-1.4
		c0.2-0.8,0.6-1.4,1-2.1c0.3-0.7,0.7-1.3,0.9-2c0.1-0.2,0.2-0.5,0.2-0.7c-0.2-0.8-1.2-1.3-1.2-2c0-0.5,0.2-1,0.2-1.5
		c0.1-0.7,0.1-1.4,0.2-2.1c0.1-1.2,0.3-2.5,0.6-3.7c0.1-0.5,0.6-0.9,0.4-1.5c-0.2-0.5-0.5-1-0.8-1.4s-0.7-0.8-0.9-1.2
		s-0.2-1.1-0.2-1.5s0.2-0.8,0.3-1.3c0.1-0.7,0.1-1.3,0.1-2c0-0.5,0.2-1,0.2-1.5c0-1.1,0.1-2.1,0-3.2c-0.1-0.9,0-1.2,0.4-1.9
		c0.5-0.8,1.1-1.4,1.3-2.4c0.1-0.7,0-1.5,0.4-2.1c0.5-0.7,1.1-1.3,1.4-2.1c0.1-0.3,0.3-0.7,0.2-1.2c-0.1-0.2-0.2-0.3-0.3-0.5
		c-0.2-0.7-0.3-1.7-1.1-1.9c-0.3-0.1-0.6,0.2-0.9,0.2c-0.4,0-0.9-0.1-1.3-0.2c-0.2-1.1,0-2.2,0.2-3.2c0.1-0.7,0.2-1.2,0.5-1.8
		c0.1-0.2,0.2-0.5,0.3-0.7c0-0.6-0.5-1-0.7-1.5c-0.6-1.3-0.5-2.9-0.1-4.4c0.2-0.8,0.6-1.4,1-2.1c0.5-1,1.2-1.8,1.8-2.7
		c1.2-1.6,1.8-3,1.3-4.7c-0.2-0.8-0.8-1.5-1-2.3c-0.1-0.4,0-0.8-0.1-1.2c0-0.8-0.2-1.5-0.1-2.3c0.1-1.3,1.2-2.6,1.6-3.8
		c0.4-1.6-0.1-3.3-0.3-4.9c-0.2-1.7-0.5-3.2-0.8-4.9c-0.3-1.3,0.3-2.8,0.5-4.1c0.3-1.5-0.1-2.9-0.3-4.3c-0.2-0.9-0.1-1.6,0.5-2.4
		c0.7-1,1-2,1.2-3.1s0.6-3.8-1.1-4.1c-0.7-0.1-1.4-0.3-2.2-0.1c-0.8,0.3-1.3,0.6-1.7,1.1c-1.3,1.5-0.8,2.9-0.5,4.3
		c0.4,1.5-0.2,3.1-0.3,4.7c-0.1,1.8,0.2,3.6-0.3,5.4c-0.1,0.3-0.2,0.9-0.5,1c-0.1,0.1-0.2,0-0.4,0c-0.3,0.1-0.5,0.3-0.6,0.7
		c-0.2,0.6-0.1,1.3-0.3,1.9c-0.2,0.4-0.2,0.4-0.6,0.5c-0.2,0-1,0.5-1.3,0.4c-0.3-0.2-0.5-0.7-0.7-1s-0.3-0.7-0.5-1
		c-0.1-0.2-0.9-0.6-0.9-0.8c0-0.5,0.1-1,0.2-1.5c0.1-0.9,0.4-1.7,0.7-2.6c0.4-1.3,0.5-2.6,0.5-3.9c-0.1-1-0.4-2.2-1.3-2.9
		c-0.5-0.3-1.1-0.5-1.6-0.8c-0.6,0.6-1.2,1.2-1.5,1.9c-0.3,0.8-0.1,1.4-0.1,2.2s-0.4,1.7-1,2.4c-0.3,0.3-1.2,1.1-1.6,0.9
		c-0.2-0.1-0.4-1-0.4-1.2c0-0.7,0.3-1.4,0.4-2.1c0.3-1.3,0.9-2.6,1.3-3.9c0.3-1,0.3-2,0.2-3c-0.1-0.6-0.3-1.7-0.9-2.1
		c-1.1-0.6-3.4,0.6-4.3,1.3c-0.5,0.4-0.7,0.8-0.7,1.3c0,1,0,1.9-0.2,3c-0.3,1.3-0.6,2.7-1.9,3.8c-0.4,0.3-0.9,0.6-1.4,0.6
		c-1.2,0-1.7-0.7-2-1.6c-0.2-0.6-0.5-1.2-0.7-1.8c-0.2-0.7,0.1-1.6,0.2-2.4c0.6-2.5,0.8-4.9,0.3-7.2c-0.1-0.6-0.2-0.8-1.1-0.7
		c-0.7,0.1-1.5,0.3-2.2,0.6c-0.8,0.3-1.4,0.5-2.1,0.9c-1.1,0.8-1.3,1.9-1.5,2.9c-0.5,2.5-0.3,4.8,0.4,7.1c0.3,1.1,1.1,2,1.7,2.9
		c0.6,0.9,0.9,1.9,0.9,3c0.1,2.8-1.8,5.6-1.9,8.4c0,1,0,2-0.1,3c-0.2,1.8-0.6,3.5-1.1,5.3c-0.1,0.6-0.2,1-0.2,1.6
		c0,0.7-0.3,1.6-0.3,2.4c0,0.7,0.2,1.4,0.2,2c0.1,1.3-0.5,2.2-0.9,3.1c-0.2,0.3-0.2,0.9-0.3,1.3c-0.2,0.7-0.2,1,0,1.8
		c0.2,0.9,0.1,1.6,0,2.4c-0.1,0.9-0.1,1.9-0.1,2.9c0,0.6,0.3,1.3,0.3,1.9c0,0.5-0.2,1-0.2,1.5c0,0.4,0,0.6-0.1,1
		c-0.2,0.5-0.4,1-0.7,1.5c-0.4,0.8-0.8,1.6-1,2.5c-0.2,0.8-0.4,1.5-0.5,2.3c-0.1,0.3-0.1,0.6-0.2,1c0,0.3-0.3,0.9-0.2,1.2
		c0.2,0.3,0.7,0.5,0.5,1c0,0-0.3,0.2-0.4,0.2c-0.3,0.2-0.8,0.4-1,0.8c-0.2,0.3-0.1,0.6-0.2,1c-0.2,0.5-0.2,1-0.3,1.6
		c-0.2,1-0.4,1.9-0.6,2.9c-0.1,1-0.5,2-0.9,2.8c-0.2,0.3-0.2,1.2,0.3,1.5c0.3,0.2,0.6-0.1,0.8-0.1c0.4-0.1,0.9-0.2,1.3-0.2
		c0.1,0.2,0.2,0.3,0.2,0.5c0.2,0.6-0.1,1.2-0.2,1.6c-0.3,1.2-1.2,1.8-1.5,2.9c-0.2,0.6-0.4,1.2-0.4,1.9c0,0.4,0,0.7,0.2,1
		c0.5,0.7,2.1,1.2,2.7,1c0.3-0.1,0.4-0.4,0.7-0.3c0.2,0,0.7,0.2,0.9,0.3l0,0c0.2,0.3,0.2,0.9,0.2,1.2c-0.1,0.6-0.2,1.2-0.3,1.7
		c0,0.2,0,0.6-0.2,0.8c-0.1,0.2-0.3,0.1-0.4,0.3c-0.2,0.5-0.3,1.2-0.5,1.7c-0.2,0.6-0.3,1.1-0.5,1.7c-0.6,2.3-1.2,4.5-1.7,6.8
		c-0.1,0.6-0.3,1.2-0.4,1.8c-0.3,1.2-0.4,2.5-0.7,3.8c-0.1,0.6-0.2,1.1-0.3,1.6c0,0.1-0.1,0.2-0.1,0.2c0,0.5,0.1,0.9,0,1.3
		c-0.2,0.5-0.4,0.9-0.5,1.3c-0.1,0.3-0.2,0.8-0.5,1c-0.4,0.3-1.2,0.1-1.7-0.2c-0.8-0.3-1.5-0.6-2.3-0.8s-1.6-0.9-2.4-1
		c-0.2,0-0.4-0.1-0.7-0.2c-0.4-0.1-0.9-0.1-1.3-0.2c-0.2-0.1-0.6-0.3-0.8-0.5c-0.2-0.1-0.5-0.4-0.7-0.4c-0.1,0-0.3,0-0.5,0
		c-1.4-0.1-2.8-0.9-4.1-0.5c-0.4,0.1-0.5,0.2-0.3,0.7c0.1,0.4,0.2,0.7,0.4,1.1c-0.5,0.2-1,0.2-1.5,0.3c-0.4,0.1-0.5,0.1-0.9,0
		c-0.8-0.2-1.6-0.1-2.4-0.1c-0.5,0-1.3-0.1-1.7,0.2c-0.4-0.2-0.9-0.2-1.2-0.3c-0.9-0.2-2.4-0.4-3.5-0.8c-0.5-0.2-0.9-0.5-1.4-0.6
		c-0.6-0.2-1.2-0.3-1.6-0.2c-0.5,0.1-1.4,0.3-1.6,0.8c-0.2,0.3-0.3,1-0.1,1.5c0.2,0.5,0.7,1,1.1,1.4c0.9,0.8,1.7,0.8,2.6,0.5
		c0.3-0.1,0.4-0.2,0.7-0.1c0.5,0.1,1,0.2,1.5,0.4s1,0.3,1.5,0.4c0.5,0.1,0.8,0.4,0.9,1.1c0.2,0.7-0.4,1.3-0.7,1.7
		c-0.2,0.4-0.6,0.7-0.6,1.2c-0.1,1.5,2.3,2.6,3.4,2.9c1.4,0.4,2.7,0,4,0.4c1.3,0.3,2.6,0.7,3.9,1.2c0.4,0.2,1.1,0.4,1.3,1
		c-0.5,0-0.9,0-1.4-0.1c-0.7-0.1-1.4-0.1-2-0.3s-1.2-0.4-1.7-0.4c-0.9,0-1.6,0.5-2.1,1.2c-0.3,0.4-0.5,0.7-0.3,1.2
		c0.2,0.6,1,1.5,1.6,1.9s0.9,0.2,1.4,0.1c0.8-0.2,1.7-0.2,2.6,0.2c0.5,0.2,1.2,0.5,1.1,1.1c0,0.3-0.2,0.5-0.2,0.8
		c0,0.6,0.6,0.8,1.1,0.9c0.6,0.2,0.9-0.1,1.4-0.1c0.7,0,1.5,0.4,2.2,0.8c0.4,0.2,0.9,0.5,0.9,1c0.1,0.5-0.2,1.1-0.4,1.5
		c-0.2,0.3-0.3,0.7-0.4,1s-0.1,0.6-0.2,0.9c-0.1,0.5-0.5,0.7-1,0.8c-0.8,0.2-2.1-0.5-2.7,0c-0.3,0.2-0.1,0.5,0,0.9
		c0.1,0.3,0.2,0.6,0.4,0.9s0.4,0.4,0.6,0.7c0.4,0.3,0.7,0.7,1.1,0.8c0.7,0.3,1.1,0.2,1.7,0.2s1.9,0.4,2.4,0.1
		c0.3-0.2,0.2-0.5,0.6-0.6c0.3-0.1,0.9-0.2,1.2,0.2c0.2,0.2,0.4,0.6,0.6,0.9c0.5,0.6,1.5,1.3,2.2,1.4c0.7,0.2,0.7-0.4,1.2-0.7
		c0.4-0.3,1.1-0.4,1.6-0.6s1-0.3,1.5-0.5c0.3-0.1,0.8-0.3,1.1,0c0.3,0.2,0.4,0.8,0.5,1.1s0.2,0.6,0.2,0.8c0,0.3-0.2,0.5-0.3,0.8
		c-0.1,0.2-0.3,1.1-0.1,1.4c0.3,0.4,0.8,0,1-0.2c0.3-0.4,0.7-0.6,0.9-1c0.1-0.2,0-0.6,0.1-0.8c0.1-0.3,1.3-0.3,1.7-0.2
		s0.8,0.3,1.2,0.3c0.5,0.1,1.4,0,1.8,0.5c0.4,0.4,0.7,1.1,0.4,1.5c-0.3,0.5-0.8,0.9-1.2,1.5c-0.2,0.3-0.6,0.9-0.4,1.4
		c0,0.1,0.1,0.2,0.2,0.3c0.1,0.3-0.1,0.6-0.2,0.8c-0.3,0.6-0.5,1.3-0.7,2c-0.1,0.4-0.4,0.7-0.5,1.1c-0.1,0.7-0.2,1.5,0,2.3
		s1.2,1.7,1.9,1.5c1.7-0.3,3.8-0.4,4.7-1.9c0.3-0.6,0.4-1.4,0.7-2c0.1-0.2,0.2-0.4,0.3-0.5c0.4-0.3,1-0.3,1.5-0.5
		c1.2-0.5,1.3-2.1,1.7-3.2c0.1-0.2,0.1-0.5,0.1-0.7c0.1-0.3,0.3-0.5,0.4-0.8c0.3-0.7,0.5-1.4,1.1-1.8c0.3-0.2,0.6-0.6,1.1-0.7
		c0.4-0.1,0.9,0.1,1.3-0.2c0.3-0.3,0.8-0.7,1-1.1c0-0.1,0.1-0.3,0.2-0.4c0.3-0.2,1.1-0.1,1.4-0.1c1.3-0.1,2.8,0.5,4.1,1
		c1.1,0.4,2-0.1,2.9-0.4c0.3-0.1,0.5-0.2,0.9,0s0.7,0.5,1.1,0.6c0.3,0.1,0.4,0.2,0.7,0.4s0.6,0.5,0.9,0.5c0.1,0,0.2-0.1,0.3-0.2
		c0.9-0.5,1.8-0.8,2.6-1.3c0.7-0.4,0.9-0.3,1.9-0.1c1.3,0.2,2.5,0.5,3.8,0.7c0.6,0.1,1.2,0.1,1.7,0.2c0.5,0,0.9,0.4,1.4,0.5
		c0.5,0.2,1.5,0.3,1.9,0c0.5-0.4,0.7-1,1.5-1.2c0.7-0.2,1.6,0,2.4,0.1c0.9,0.2,1.8,0.3,2.6,0.4c0.5,0.1,1,0,1.5,0.2
		c0.3,0.1,0.8,0.2,1.1,0.3c0.4,0.1,0,0.2,0.4,0.1c0.5-0.1,0.5-0.5,0.8-0.9c0.1-0.2,0.3-0.2,0.6-0.3c0.4-0.1,0.6-0.3,1.1-0.3
		c0.1,0,0.2,0,0.4,0s0.3,0.1,0.5,0.1c0.4,0.1,0.7,0,1.1,0c1-0.2,2.1-0.4,3.1-0.5c0.7-0.1,1.5-0.2,2.2-0.2c0.1,0,0.3,0,0.4,0
		c0.2,0,0.6-0.1,0.7-0.2c0.4-0.4-0.1-1.3-0.3-1.7c-0.5-0.8-1.6-1-2.4-1.3c-0.2-0.1-0.4-0.2-0.6-0.3c-0.3-0.2-0.7-0.3-1-0.3
		c-0.4-0.2-0.6-1.1-0.7-1.5c0.3-0.2,0.7-0.2,1.1-0.2c0.2,0,0.9,0,1-0.2c-0.2-0.3-0.5-0.6-0.6-0.9c0.8-0.6,2-0.1,2.7-0.8
		c0.3-0.3,0.4-0.8,0.3-1.2c-0.1-0.3-0.2-0.5-0.4-0.7c-0.2-0.1-0.4-0.1-0.6-0.3c0.8-0.2,1.8-0.3,2.7-0.3c0.2,0,1.1,0.1,1.5-0.1
		c0.3-0.1,0.4-0.4,0.4-0.8c-0.1-0.5-0.3-1.2-0.8-1.4c-0.1-0.1-0.4-0.1-0.5-0.2c-0.2-0.2,0-0.5,0-0.7c0-0.4-0.4-0.9-0.7-1.2
		c-0.3-0.2-0.6-0.3-0.9-0.4c-0.4-0.2-0.4-0.2-0.5-0.6c-0.1-0.2,0-0.4-0.2-0.6c-0.2-0.2-0.6-0.1-0.7-0.1c-0.5,0.1-0.9,0.4-1.5,0.3
		c-0.5,0-1.1-0.3-1.6-0.4c-0.1,0-0.6,0-0.7-0.2c-0.1-0.1,0-0.6,0-0.7c0-0.4,0.2-0.5,0.5-0.6c0.7-0.3,1.5-0.7,2.3-0.6
		c1,0.2,1.9,0.1,2.7-0.3c0.3-0.2,0.6-0.3,1-0.3c0.3,0,0.7,0.2,1,0.2c0.6,0,1.6,0.1,2.1-0.4c0.2-0.2,0.3-0.8,0.3-1.2
		c0-0.3-0.1-0.3-0.2-0.6c-0.1-0.2-0.1-0.1-0.1-0.3s0.2-0.4,0.1-0.7c-0.5-0.3-0.8-0.5-1.2-1.1c-0.2-0.3-0.2-0.2-0.1-0.4
		c0.1-0.4,1.2-0.2,1.5-0.2c0.5,0,1,0.2,1.3-0.4c0.2-0.4,0.1-1,0.1-1.4C208.4,215.7,208.4,215.1,208.6,214.7z"/>
	<path fill="#A00000" d="M172.5,9.9c-0.5,0.5-0.8,1.1-1,1.8c-0.1,0.4-0.2,0.6-0.5,0.8c-0.3,0.3-0.5,0.6-0.6,1c0,0.2-0.1,0.4-0.2,0.6
		c0,0.1-0.1,0.2-0.1,0.3c0.1,0.3,0.8-0.2,0.8-0.2c0.2-0.1,0.3-0.2,0.4-0.3l0.1-0.1c0.1,0,0.5,0,0.5,0c0.2,0,0.6,0,0.8,0
		c-0.1,0.2-0.3,0.7,0,0.7c0.2,0.1,0.5-0.3,0.7-0.2l0.1,0.1c0.1,0.2,0.2,0.3,0.4,0.4c0.2,0.1,0.4,0,0.6,0c0.1,0,0.3-0.1,0.5-0.1
		l0.1,0.1c0.3,0.1,0.5,0.2,0.9,0.2c0.3,0,0.2,0,0.4-0.1c0.1,0,0.1,0,0.2,0.1c0.2,0.2,0.4,0.8,0.3,1.1c-0.1,0.3-0.3,0.6-0.4,1
		c-0.1,0.5-0.1,0.9-0.3,1.4c-0.1,0.2-0.1,0.4-0.1,0.6c0,0.3,0,0.6-0.1,0.9c-0.3,0.7-0.8,1.5-0.8,2.3c0,0.3-0.1,0.5-0.2,0.8
		c-0.2,0.6-0.4,1.2-0.7,1.8c-0.1,0.2-0.1,0.5-0.1,0.8s-0.1,0.6-0.3,0.9c-0.1,0.2-0.2,0.4-0.2,0.6c0,0.1,0,0.2,0,0.3
		s-0.1,0.2-0.2,0.4c0,0.1-0.6,1.2-0.1,1.1c0.1,0,0.2-0.1,0.3-0.1s0.1,0.2,0,0.3s-0.1,0.2-0.1,0.3c0,0.2-0.2,0.4-0.2,0.7
		c-0.1,0.2-0.1,0.4-0.1,0.7c0,0.2,0,0.5-0.1,0.7c-0.2,0.4-0.8,0.7-0.8,1.3c0,0.2,0.1,0.4,0.1,0.6c0.1,0.2,0.2,0.5,0.4,0.5
		c0.3,0,0.4-0.3,0.4-0.5c0,0,0-0.6,0.1-0.6c0.5,0.1,0.4,1,0.4,1.4c0,0.3,0,0.6,0,0.8c-0.1,0.3-0.3,0.8-0.2,1.1
		c0.2-0.3,0.3-0.5,0.5-0.8c0.4,0.4,0.3,1.4,0.2,1.9c0,0.1-0.1,0.3,0,0.4c0.2,0.2,0.3-0.2,0.4-0.4c0.2-0.3,0.3-0.4,0.4-0.7
		c0.1-0.5,0.1-0.9,0.2-1.4c0.1-0.9,0.8-1.5,1-2.3c0.1-0.3,0.2-0.5,0.2-0.8c0-0.3-0.1-0.5,0-0.8c0.1-0.2,0.2-0.4,0.3-0.6
		c0.1-0.1,0.1-0.3,0.2-0.3c0.1,0,0.3,0.2,0.4,0.3c0.1,0.1,0.1,0.1,0.2,0.2c0.1,0.2,0.1,0.5,0,0.8s-0.1,0.3,0.2,0.4
		c0.3,0.1,0.5,0.1,0.7-0.1c0.3-0.4,0.1-0.9-0.1-1.3c-0.1-0.3-0.3-0.8-0.3-1.1s0.1-0.5,0.2-0.8c0.2-0.7,0.5-1.4,0.5-2.1
		c0.1,0.1,0.1,0.3,0.2,0.4c0.1,0,0.3,0,0.4,0c0.1-0.1,0.1-0.5,0.1-0.6c0-0.3-0.1-0.5-0.1-0.8c0-0.5,0-0.9,0.1-1.4
		c0-0.4,0.1-0.8,0.1-1.2s0.1-0.8,0.1-1.1s0-0.7,0-1c0-0.4,0.1-0.7,0.2-1c0.2-0.7,0.5-1.4,0.6-2.1c0.1-0.4,0.1-0.8,0.4-1.1
		c0.1-0.1,0.2-0.3,0.3-0.2c0.2,0.1,0.2,0.3,0.2,0.6c0.1,0,0.3-0.1,0.4-0.2c0.2-0.1,0.2,0.1,0.4,0.1c0.3,0.1,0.6-0.1,0.9-0.1
		c0.5,0,1,0.1,1.4,0c-0.1,0.2,0.2,0.3,0.2,0.5c0.1,0.1,0.1,0.6,0.3,0.6c0,0.2,0.1,0.6,0.3,0.7c0.1,0,0.2,0,0.3,0.1s0.1,0.2,0.2,0.3
		c0.1,0.2,0.2,0.6,0.5,0.5c0.2-0.1,0.3-0.4,0.4-0.6c0.2-0.5,0.4-1,0.6-1.5c0.2-0.5,0.5-1.1,0.6-1.7c0.1-0.4,0.3-0.8,0.4-1.3
		c0-0.1,0-0.1,0-0.2c0-0.2-0.1-0.5-0.2-0.6c-0.1-0.2-0.2-0.1-0.4,0c-0.4,0.1-0.9,0.2-1.3,0.2c-0.3,0-0.5-0.1-0.7-0.2
		c-0.3-0.1-0.7-0.1-1-0.1c-0.4,0-0.7,0-1.1-0.1c-0.5,0-0.9-0.4-1.4-0.4s-1.1-0.1-1.6-0.3c-0.4-0.1-0.7-0.3-1.1-0.4
		c-0.3-0.1-0.6-0.2-0.9-0.2c-0.5-0.1-0.9-0.3-1.4-0.4c-0.4-0.1-0.8,0-1.2-0.2c-0.2-0.1-0.4-0.1-0.6-0.2c-0.2,0-0.4,0-0.6-0.1
		c-0.3-0.2-0.7-0.3-0.9-0.5c-0.1-0.1-0.2-0.2-0.2-0.3c-0.2-0.2-0.7-0.3-1-0.4c-0.2,0-0.4-0.1-0.5,0.1c0,0.1,0,0.2,0,0.3
		C172.3,10,172.3,10.1,172.5,9.9z"/>
	<path fill="#A00000" d="M191.7,13c-0.2,0.2-0.5,0.2-0.8,0.4c-0.2,0.2,0,0.6,0,0.9c0.1,0.3-0.1,0.6-0.1,1c-0.1,0.6-0.2,1.2-0.3,1.8
		c0,0.7,0,1.3,0,2s-0.1,1.3-0.2,2c0,0.3,0,0.6,0,0.9s-0.1,0.6-0.1,0.9c0,0.1,0,0.2-0.1,0.2c-0.1,0.1-0.3,0.1-0.4,0.1
		c-0.2,0-0.3,0.1-0.5,0.1c-0.1,0-0.2,0.2-0.3,0.2c-0.2,0-0.3,0-0.5,0.1c-0.1,0.1-0.3,0.1-0.4,0.2c-0.3,0.1-0.7,0.1-0.9,0.3
		c-0.2,0.1,0,0.3,0.1,0.3c0.2,0,0.4,0,0.6,0c0.1,0.3-0.1,0.4-0.3,0.5c-0.2,0.2-0.4,0.4-0.6,0.5c0.1,0.2,0.4,0.1,0.5,0.2
		c0.2,0.2,0,0.4-0.1,0.5c-0.3,0.2-0.7,0.4-1.1,0.6c-0.2,0.1-0.4,0.1-0.5,0.2c-0.3,0.2-0.5,0.3-0.4,0.7c0,0.2,0.1,0.2,0.3,0.2
		c0.1,0,0.1,0,0.2,0.1c0.1,0,0.2,0,0.4,0.1c0.3,0.2,0,0.3,0,0.5c0.1,0,0.2,0,0.3,0c0.2,0,0.5,0.1,0.7,0.1s0.4-0.1,0.7-0.2
		c0.1,0,0.2,0,0.3,0l0.1,0.1c0.1,0,0.3,0,0.4,0c0.1,0,0.1,0.1,0.2,0.2c0.1,0.1,0.2,0.1,0.2,0.2s-0.1,0.3-0.1,0.5s0.1,0.4,0.1,0.6
		c0,0.3-0.2,0.7-0.3,1.1s-0.2,0.8-0.3,1.2c-0.1,0.3-0.1,0.6-0.1,0.9c0,0.4-0.1,0.9-0.2,1.3c-0.1,0.4-0.1,0.7-0.2,1.1
		c-0.1,0.3-0.2,0.7-0.3,1c0,0.2,0,0.3,0,0.5s-0.1,0.4,0,0.6c0,0.1,0,0.3,0.1,0.3c0.1-0.2,0.3-1.1,0.6-1.1c0.1,0.6,0.1,1.2,0.1,1.9
		c0,0.4-0.2,1.7,0.6,1.5c0.1,0,0.4-0.2,0.5-0.3c0-0.1,0-0.3,0-0.4c0-0.2-0.1-0.4-0.1-0.6c0-0.5,0-1,0.1-1.6c0.1-0.3,0.1-0.6,0.2-0.8
		c0.3-0.6,0.3,0.8,0.4,0.8c0.1,0,0.4-0.3,0.5-0.5s0-0.4,0-0.6c0-0.2,0-0.5,0.1-0.7c0.1-0.1,0.2-0.3,0.3-0.4c0.1-0.1,0.2-0.3,0.2-0.5
		c0-0.1,0-0.3,0-0.4c0.2,0.1,0.2,0.3,0.3,0.5c0.2,0.3,0.3-0.2,0.3-0.3c0.2-0.6,0-1.4,0.3-2c0.1-0.2,0.2-0.5,0.2-0.7s0-0.4,0.1-0.5
		c0.1,0.1,0.1,0.4,0.3,0.5c0.1-0.5,0.2-1.1,0.3-1.7c0.1-0.4,0.1-0.9,0.1-1.3c0-0.2,0.1-0.3,0.1-0.4s0-0.2,0-0.3
		c0.2-0.1,0.6,0.1,0.7,0c0.1-0.1,0-0.2,0-0.2l0.2-0.1c0,0,0.3,0.3,0.4,0.2c0.1,0,0.1-0.1,0.2-0.2c0.1-0.1,0.2-0.2,0.3-0.2
		s0.1,0,0.2,0h0.1c0.1,0,0.2,0,0.4,0s0.5,0,0.7-0.1c0.1,0,0.2,0,0.3,0s0.3,0,0.5,0.1c0.1,0,0.1,0.1,0.1,0.1c0.2,0,0.3,0,0.5,0
		c0.1,0,0.1,0.1,0.2,0.1c0.1,0,0.2,0,0.2,0c0.2,0,0.2,0.1,0.2,0.3c0,0.1,0.1,0.1,0.1,0.2c0,0.2,0.1,0.3,0.2,0.5
		c0.1,0.4,0.3,0.8,0.3,1.3c0.1,0.4,0,0.9,0,1.4c0,0.5,0,1,0,1.5c0,0.7,0,1.3,0.1,2c0.1,0.8,0.1,1.5,0.1,2.2c0,0.2-0.1,0.4,0.1,0.5
		c0.1,0,0.1-0.1,0.2,0.1c0,0.1,0.1,0.2,0.1,0.3c0.1,0.1,0.1,0.3,0.2,0.4c0.1,0.2,0.1,0.3,0.2,0.5c0.1,0.3,0.2,0.5,0.2,0.9
		c0,0.1-0.1,0.8,0.2,0.8c0.1,0,0.2-0.2,0.2-0.2c0.1-0.1,0.1-0.3,0.1-0.5c0-0.3-0.1-0.7-0.1-1c0.2-0.1,0.3-0.6,0.6-0.5
		c0.2,0,0.1,0.3,0.3,0.3c0.3,0,0.2-0.3,0.3-0.5c0.1-0.1,0.2,0,0.3,0s0.3,0,0.5-0.1c0.1-0.1,0.2-0.3,0.3-0.4c0-0.1,0.1-0.1,0.1-0.2
		c0.1,0,0,0,0.1,0c0.1,0.1,0.2,0.2,0.3,0.3c0.1,0.2,0.2,0.3,0.2,0.5c0,0.1,0.1,0.1,0.1,0.2v0.1c0.1,0.2,0.2,0.1,0.3,0.1
		s0.2,0.3,0.2,0.4c0,0.1,0,0.2,0,0.2c0,0.1,0.1,0.1,0.1,0.2c0.1,0.1,0.2,0.2,0.3,0.1c0.1-0.1,0.2-0.3,0.2-0.5c0-0.3-0.1-0.7,0.2-0.9
		c0.1-0.1,0.3-0.1,0.5-0.2c0.1-0.1,0.2-0.2,0.2-0.4c0-0.3,0-0.7-0.2-1c-0.2-0.4-0.4-0.8-0.5-1.2c-0.1-0.2-0.1-0.3-0.1-0.4
		c0-0.2-0.1-0.5-0.1-0.8c0.1,0.1,0.1,0.4,0.2,0.5c0.2,0,0.6-0.4,0.6-0.5s0-0.2,0-0.3c-0.1-0.4-0.2-0.8-0.3-1.2
		c0-0.1-0.1-0.2-0.1-0.3c0-0.3-0.1-0.5-0.2-0.8c-0.1-0.3-0.2-0.6-0.3-0.9s-0.1-0.7-0.2-1c-0.1-0.3-0.3-0.7-0.3-1.1
		c0-0.2,0-0.3,0.1-0.5c0-0.1,0.1-0.3,0.1-0.3c0.1-0.1,0.2,0,0.4,0c0.1,0,0.2,0,0.4-0.1c0.1-0.1,0.2-0.2,0.3-0.4c0.1-0.1,0-0.2,0-0.3
		c0.2-0.1,0.2,0,0.3-0.2c0.1-0.1,0.1-0.2,0.2-0.3c0.1-0.1,0.1-0.1,0.2-0.2c0.1-0.2,0-0.3-0.1-0.3s-0.2-0.1-0.3-0.2
		c0.1-0.1,0.1-0.3,0.1-0.5c-0.1-0.3-0.4-0.2-0.7-0.2c-0.1,0-0.3-0.1-0.4-0.1c-0.1,0-0.2,0-0.3,0s-0.2-0.1-0.3-0.1c0,0,0,0,0-0.1
		c0-0.2-0.1-0.4-0.1-0.5c-0.1-0.2-0.1-0.4-0.1-0.7c0-0.5,0-1.1-0.1-1.6s-0.2-1-0.3-1.5c-0.1-0.4-0.1-0.8-0.1-1.3
		c0-0.4-0.1-0.9-0.2-1.3c-0.1-0.6-0.1-1.1-0.1-1.7c0-0.4-0.1-0.7-0.2-1c0-0.3-0.2-0.6-0.1-1c0-0.2,0-0.4,0-0.7
		c0-0.2-0.1-0.2-0.3-0.3c-0.1,0-0.2,0-0.3,0s-0.3,0-0.3,0.1c-0.1,0.1,0,0.4-0.2,0.4c-0.1,0-0.3,0-0.4-0.1c-0.1-0.1-0.1-0.2-0.2-0.3
		c-0.1-0.3-0.2-0.5-0.3-0.8c0-0.2-0.1-0.5-0.1-0.7s0-0.4-0.1-0.6c-0.2-0.4-0.3,0-0.4,0.2c-0.1,0.5-0.1,1-0.1,1.5
		c0,0.3,0,0.5,0.1,0.8c0,0.2,0.2,0.6-0.2,0.6c-0.3,0-0.4-0.5-0.5-0.6c-0.1-0.2-0.3-0.3-0.4-0.4c-0.1-0.1-0.2-0.2-0.3-0.3h-0.1
		c-0.2,0-0.2-0.1-0.4,0c0,0-0.2,0.1-0.2,0.2c0-0.1-0.1-0.3-0.2-0.3c-0.3,0-0.3,0.4-0.2,0.5c0.1,0.3,0.2,0.7,0.3,1.1
		c0.1,0.4,0,0.7,0,1.1c0,0.3,0.1,0.6,0.2,0.9c0.1,0.3,0.1,0.7,0.1,1c0,0.2,0,0.5,0.1,0.7c0,0.2,0,0.5,0.1,0.7
		c0.1,0.3,0.2,0.6,0.2,0.9c0,0.4,0,0.8,0,1.3c0,0.1,0,0.3,0,0.4c0,0.2,0.1,0.3,0.1,0.5s0,0.3,0,0.5s0,0.3,0.1,0.5
		c0.1,0.3,0,0.4-0.3,0.4c-0.4,0.1-0.8-0.2-1.2-0.1c-0.1,0-0.2,0.1-0.2,0.1s0,0.1-0.1,0c-0.3-0.1-0.5-0.2-0.8-0.2
		c-0.4-0.1-0.7-0.1-1.1-0.2c-0.1-0.1-0.2-0.2-0.4-0.1c-0.1,0-0.2,0.1-0.3,0.1c-0.2,0.1-0.5,0-0.7-0.1c-0.1-0.1,0-0.2,0-0.3
		c0-0.2-0.1-0.5-0.1-0.7c0-0.6-0.2-1.1-0.2-1.7c-0.1-0.6,0.5-1.1,0.5-1.8c0-0.4-0.1-0.9-0.2-1.3c-0.1-0.6-0.1-1.3-0.1-1.9
		c0-0.7-0.1-1.4-0.3-2.1c0-0.2,0-0.4,0-0.6c0-0.1,0-0.3-0.1-0.4h-0.1c-0.3-0.1-0.8,0.1-0.9,0.3c-0.1,0.1,0,0.3-0.1,0.4
		c-0.1,0-0.1-0.1-0.2-0.1c-0.1,0-0.2,0-0.2,0C191.8,12.9,191.7,13,191.7,13C191.6,13,191.8,13,191.7,13z"/>
	<path fill="#A00000" d="M206.4,13.4c0.1,0.4-0.4,0.1-0.5,0.3c-0.1,0.3,0.3,0.5,0.5,0.5c0,0.2,0.1,0.3,0.1,0.5s0,0.4,0.1,0.6
		c0.1,0.2,0.1,0.3,0.2,0.5l0.1,0.1c0.1,0.1,0.1,0.2,0.1,0.4c0.1,0.4,0.2,0.9,0.3,1.4c0.1,0.3,0.2,0.5,0.2,0.7c0.1,0.5,0.2,1,0.4,1.5
		c0.2,0.4,0.2,0.9,0.3,1.3c0.1,0.5,0.3,0.9,0.4,1.4c0.1,0.3,0,0.4-0.1,0.6c-0.1,0.1-0.3,0.6-0.2,0.7l0.4,0.2
		c0.2,0.1,0.3,0.2,0.2,0.4c-0.1,0.3-0.3,0.6-0.4,1c-0.1,0.2-0.1,0.3,0.1,0.4c0.1,0.1,0.2,0,0.2,0.1c0.1,0,0.1,0.1,0.2,0.2
		c0,0,0.1,0,0.2,0c0.1,0.1,0,0.2,0,0.3s0.1,0.1,0.1,0.2s0,0.3,0,0.4c0.1,0.1,0.2,0,0.2,0c0.1,0.1,0.2,0.1,0.2,0.2
		c0.2,0.3,0.2,0.6,0.3,0.9c0.1,0.4,0.1,0.9,0.2,1.3c0.1,0.3,0.2,0.6,0.3,0.8c0.2,0.6,0.4,1.2,0.6,1.8c0.1,0.4,0.2,0.8,0.3,1.2
		c0.1,0.3,0.2,0.5,0.3,0.8s0.2,0.6,0.1,0.8c0,0.2-0.2,0.3-0.2,0.4c-0.1,0.2-0.2,0.6-0.1,0.8c0.1,0.1,0.2,0.1,0.2,0.2
		c0,0.1,0,0.2,0,0.2c-0.1,0.3-0.1,0.3,0.1,0.5c0.2,0.1,0.2,0.3,0.5,0.2c0.2-0.1,0.4-0.3,0.6-0.4c0.4-0.1,1.1-0.2,1.5-0.2
		c0.8-0.1,1.5,0,2.3-0.1c0.5-0.1,0.7-0.1,1-0.4c0.2-0.2,0.3-0.5,0.6-0.6c0.3-0.2,0.7-0.3,1-0.4c0.3-0.1,0.5-0.2,0.8-0.3
		c0.7-0.3,1.4-0.8,2.1-1.1c0.8-0.3,1.5-0.7,2.3-1.1c0.8-0.4,1.6-0.7,2.4-1.1c0.2-0.1,0.6-0.2,0.7-0.4c0.1-0.2,0-0.2-0.2-0.2
		c-0.4-0.1-0.8-0.2-1.2,0.1c-0.1-0.4,0.5-0.5,0.6-0.7s0.1-0.4,0.1-0.6c0-0.1,0.1-0.3,0.1-0.4c0.1-0.1,0.3-0.1,0.5-0.2
		c0.2-0.2,0.4-0.5,0.5-0.9c0-0.1,0-0.5-0.1-0.6c-0.2-0.2-0.8,0.5-1.1,0.6c-0.4,0.2-1.1,0-1.5,0.3c-0.2,0.2-0.2,0.9-0.7,0.7
		c-0.3-0.1,0-0.6-0.1-0.8c-0.4,0.3-0.8,0.5-1.3,0.8c-0.8,0.4-1.6,0.5-2.4,0.9c-0.6,0.3-1.1,0.5-1.7,0.7c-0.5,0.1-0.9,0.2-1.3,0.4
		c-0.6,0.3-1,1-1.6,1c-0.1-0.5-0.4-0.9-0.6-1.4c-0.2-0.4-0.3-0.9-0.5-1.3c-0.2-0.3-0.4-0.7-0.5-1c-0.1-0.1-0.1-0.3-0.1-0.5
		c0-0.1,0.1-0.1,0.1-0.2s-0.3-0.3-0.3-0.4c-0.1-0.1-0.2-0.2-0.3-0.4c-0.1-0.1-0.1-0.2-0.2-0.3c-0.1-0.1-0.2-0.2-0.2-0.3
		c-0.1-0.4,0.5-0.3,0.7-0.4c0.1-0.1,0.3-0.3,0.4-0.3c0.2-0.1,0.3-0.3,0.5-0.4c0.3-0.2,0.6-0.3,1-0.4c0.5-0.1,1-0.2,1.4-0.3
		c0.3-0.1,0.6-0.4,0.9-0.5c0.3-0.1,0.6,0,0.9-0.1c0.1-0.1,0.3-0.2,0.4-0.3c-0.2-0.3-1,0-1.1-0.3c0.1-0.1,0.2-0.1,0.3-0.2l0.1-0.2
		c0.1-0.1,0.2-0.2,0.2-0.4c-0.1-0.1-0.3-0.1-0.4-0.1c-0.2-0.4,0.4-0.4,0.5-0.7c0.1-0.2,0-0.8,0-1c-0.5,0-1.1,0.2-1.7,0.3
		c-0.2,0-0.4,0.1-0.6,0.2c-0.2,0.1-0.4,0.2-0.7,0.3s-0.6,0.1-0.9,0.2c-0.3,0.1-0.5,0.2-0.8,0.2c-0.2,0-0.4,0-0.6,0.1
		c-0.3,0-0.7,0.3-1,0.2s-0.3-0.4-0.5-0.5c-0.1,0-0.2,0-0.3-0.1s-0.2-0.5-0.2-0.6c0-0.2,0-0.3-0.1-0.5c-0.1-0.5-0.3-1-0.4-1.5
		c-0.1-0.5-0.2-1.1-0.2-1.6c0-0.3-0.1-0.6-0.1-1c0-0.2-0.1-0.3,0-0.6c0.1-0.2,0.2-0.2,0.3-0.3c0.2-0.1,0.3-0.2,0.4-0.4
		c0.1-0.2,0.4-0.3,0.6-0.4c0.7-0.3,1.6-0.2,2.3-0.4c0.3-0.1,0.6-0.2,0.8-0.4c0.5-0.4,1-0.7,1.6-0.9c0.6-0.3,1.1-0.9,1.8-1
		c0.3-0.1,0.9-0.1,1.1-0.4c0.1-0.2,0.1-0.2,0-0.4c-0.5-0.6-1.4-0.3-2-0.2c-0.1-0.2,0.4-0.5,0.5-0.7S219,10,219,9.9
		c0.1-0.2,0.1-0.4,0.2-0.6c0-0.2,0.2-0.5,0.1-0.7c-0.2,0-0.5,0.3-0.7,0.3C218.4,9,218.2,9,217.9,9c-0.1,0-0.1-0.1-0.2-0.1
		c-0.2,0-0.4,0-0.6,0.1c-0.2,0-0.5,0.1-0.7,0.2c-0.3,0.1-0.5,0.3-0.8,0.5c-0.4,0.2-0.8,0.4-1.2,0.6c-0.3,0.1-0.6,0.3-0.9,0.4
		c-0.4,0.2-0.8,0.5-1.2,0.7c-0.2,0.1-0.5,0.2-0.7,0.3c-0.1,0.1-0.2,0.1-0.3,0.2c-0.2,0.1-0.4,0.1-0.6,0.2c-0.3,0.1-0.7,0.3-1,0.5
		c-0.3,0.1-0.7,0.2-1,0.3c-0.4,0.1-0.9,0.2-1.3,0.4c-0.2,0.1-0.4,0.1-0.6,0.1C206.6,13.2,206.2,13.2,206.4,13.4z"/>
	<path fill="#A00000" d="M376.7,95.8c-0.1-0.1-0.2-0.3-0.3-0.4C376.3,95,376.4,94.9,376.7,95.8z"/>
</g>
<g>
	<path fill="#A00000" d="M113.7,283.7c0.5,0.9,1,1.7,1.4,2.5c0.3,0.7,0.4,1.5,0.2,2.3c-0.2,0.9-0.5,1.7-0.9,2.5
		c-0.4,0.8-1.1,1.3-2,1.5c-0.7,0.1-1.3,0.2-2,0.2c-1.3,0-2.6,0-3.8,0c-0.9,0-1.7-0.1-2.6-0.1c-0.5,0-1,0-1.5,0.1
		c-0.4,0-0.6-0.1-0.6-0.5c0-0.4,0-0.7,0-1.1c0-3.6,0-7.3,0-10.9c0-1,0-2.1,0-3.2c0-0.2,0-0.3,0-0.5c0-0.3,0.2-0.5,0.4-0.6
		s0.5-0.2,0.7-0.2c1.9,0,3.8,0,5.7,0c0.6,0,1.2,0,1.7,0c1.3,0,2.5,0.7,3.3,1.7c0.3,0.5,0.6,1,0.8,1.5c0.1,0.2,0.1,0.4,0.1,0.6
		c0,1.4-0.3,2.8-0.9,4.1C113.7,283.7,113.7,283.7,113.7,283.7z M108.1,278.2L108.1,278.2c-0.9,0-1.7,0-2.6,0c-0.5,0-0.8,0.3-0.8,0.7
		c0,0.8,0,1.6,0,2.4c0,0.2,0,0.4,0.2,0.6s0.4,0.2,0.6,0.2c0.2,0,0.5,0,0.7,0c1.6,0.1,3.2,0,4.8-0.1c0.5-0.1,1-0.4,1.1-1
		c0.2-0.6,0.1-1.3-0.1-1.8c-0.1-0.7-0.8-1.2-1.6-1.1L108.1,278.2z M105,290.2c1.9,0,3.7,0.1,5.5,0.1c0.6,0.1,1.2-0.2,1.6-0.8
		c0.7-1,0.8-2.2,0.2-3.2c-0.3-0.6-0.9-1.1-1.6-1.1c-1.2,0-2.4,0-3.7,0c-0.7,0-1.3,0-2.1,0.1C104.8,286.9,104.8,288.6,105,290.2
		L105,290.2z"/>
	<path fill="#A00000" d="M127.1,292.6c-0.9,0.1-1.7,0.1-2.6,0.1c0-0.4,0-0.7,0-1c0-2,0-4.1,0-6.1c0-0.6-0.2-1.2-0.6-1.7
		c-0.7-1-1.3-2-2-3c-0.6-0.9-1.1-1.7-1.7-2.6c-0.4-0.7-0.8-1.4-1.2-2c0-0.3,0.3-0.5,0.6-0.5c0.6,0,1.1,0,1.7,0
		c0.3,0,0.7,0.2,0.8,0.5c0.6,0.9,1.1,1.9,1.8,2.8s1.1,1.9,1.8,2.7c0,0,0.1,0,0.2,0.1c0.4-0.5,0.7-1,1-1.5c0.2-0.3,0.4-0.6,0.6-0.8
		c0.4-0.6,0.8-1.3,1.2-1.9c0.3-0.5,0.6-0.9,0.9-1.4c0.2-0.3,0.5-0.5,0.9-0.5c0.5,0,1,0,1.5,0c0.3,0,0.3,0,0.7,0.4
		c0,0.2-0.1,0.3-0.2,0.4c-0.7,1.1-1.5,2.3-2.2,3.4c-0.7,1.1-1.4,2.2-2.1,3.3c-0.1,0.2-0.2,0.3-0.3,0.5c-0.3,0.4-0.5,0.9-0.5,1.5
		c0,2.2-0.1,4.5-0.1,6.7C127.1,292.2,127.1,292.3,127.1,292.6z"/>
	<path fill="#A00000" d="M159,282c-0.7,0.1-1.4,0.1-2,0c-0.5-0.1-0.7-0.2-0.8-0.9c0-0.9-0.4-1.8-1.1-2.3c-0.4-0.4-0.9-0.6-1.4-0.6
		c-0.5-0.1-1,0-1.5,0c-1.5,0.4-2.5,1.7-2.7,3.2c-0.3,1.5-0.3,3.1-0.1,4.6c0,0.4,0.1,0.8,0.1,1.2c0.3,1.1,1.2,2,2.3,2.4
		s2.3,0.1,3.2-0.6c0.4-0.2,0.7-0.5,1-0.9c0.4-0.5,0.3-0.5,0.3-1.3c-0.2,0-0.4-0.1-0.6-0.1c-0.7,0-1.4,0.1-2.2,0.1
		c-0.8,0.1-1.2-0.2-1.2-1.1c0-0.3,0-0.7,0-1c0-0.5,0.2-0.7,0.7-0.8c0.5-0.1,1-0.1,1.6,0c1.2,0.1,2.4,0.1,3.6,0c0.3,0,0.6,0,0.9,0
		c0.2,2.8,0.2,5.7,0.1,8.5c-0.7,0.2-1.4,0.3-2.1,0.2c-0.3,0-0.5-0.3-0.5-0.5c0-0.2-0.1-0.4-0.1-0.7c-0.7,0.3-1.3,0.6-1.9,0.7
		c-0.9,0.3-1.9,0.4-2.9,0.2c-0.3-0.1-0.5-0.1-0.8-0.1c-1.8-0.2-3.2-1.4-3.7-3.1c-0.5-1.3-0.7-2.7-0.7-4.2c0-1,0-2.1,0.1-3.1
		c0-1.4,0.4-2.8,1.2-3.9c1.1-1.6,2.8-2.6,4.8-2.6c1,0,2.1,0.1,3,0.3c1.4,0.4,2.4,1.4,2.9,2.8c0.1,0.4,0.3,0.7,0.4,1.1
		C159.1,280.3,159.1,281.2,159,282z"/>
	<path fill="#A00000" d="M171.6,275.8c0.3,0,0.5,0,0.7,0c0.3,0,0.5,0.1,0.6,0.4c0.5,1,0.9,2,1.4,3.1c0.3,0.6,0.5,1.2,0.8,1.9
		c0.1,0.3,0.2,0.5,0.4,0.8c0.6,1.4,1.2,2.9,1.8,4.3c0.3,0.7,0.6,1.5,0.9,2.2s0.7,1.4,1,2.2c0.2,0.5,0.4,0.9,0.5,1.4
		c0,0.1,0,0.3-0.1,0.4c-0.1,0.1-0.2,0.2-0.4,0.2c-0.5,0.1-1.1,0.1-1.7,0.1c-0.2,0-0.3-0.1-0.4-0.2c-0.1-0.1-0.2-0.2-0.2-0.3
		c-0.4-1-0.8-2.1-1.2-3.1c-0.1-0.2-0.1-0.3-0.2-0.5c-0.1-0.5-0.6-0.8-1.1-0.7c-0.8,0.1-1.7,0.1-2.5,0.1c-0.4,0-0.8,0-1.2-0.1
		c-0.7,0-1.3,0-2-0.1c-0.3,0-0.5,0.1-0.6,0.4c-0.2,0.4-0.3,0.8-0.5,1.2c-0.3,0.8-0.7,1.7-1,2.5c-0.3,0.7-0.4,0.8-1.2,0.7
		c-0.3,0-0.6,0-0.8,0c-0.8,0-0.9-0.2-0.7-1c0.1-0.5,0.3-1,0.6-1.5c0.3-0.5,0.5-1,0.7-1.6c0.8-1.9,1.7-3.8,2.4-5.7
		c0.4-1.1,0.9-2.2,1.4-3.2c0.4-0.9,0.7-1.8,1.1-2.7c0-0.1,0.1-0.2,0.1-0.2C170.5,276.1,170.9,275.5,171.6,275.8z M173.8,284.7
		c0-0.1,0-0.2,0-0.2c-0.4-1-0.8-2-1.2-3c-0.2-0.4-0.3-0.8-0.6-1.1c-0.2-0.3-0.5-0.3-0.7,0c0,0.1-0.1,0.2-0.1,0.2
		c-0.3,0.8-0.7,1.5-1,2.3c-0.2,0.6-0.5,1.2-0.7,1.8C171,285,172.4,284.9,173.8,284.7z"/>
	<path fill="#A00000" d="M195.9,282c-0.7,0.1-1.4,0.1-2,0c-0.5-0.1-0.7-0.2-0.8-0.9c0-0.9-0.4-1.8-1.1-2.3c-0.4-0.4-0.9-0.6-1.4-0.6
		c-0.5-0.1-1,0-1.5,0c-1.5,0.4-2.5,1.7-2.7,3.2c-0.3,1.5-0.3,3.1-0.1,4.6c0,0.4,0.1,0.8,0.1,1.2c0.3,1.1,1.2,2,2.3,2.4
		s2.3,0.1,3.2-0.6c0.4-0.2,0.7-0.5,1-0.9c0.4-0.5,0.3-0.5,0.3-1.3c-0.2,0-0.4-0.1-0.6-0.1c-0.7,0-1.4,0.1-2.2,0.1
		c-0.8,0.1-1.2-0.2-1.2-1.1c0-0.3,0-0.7,0-1c0-0.5,0.2-0.7,0.7-0.8c0.5-0.1,1-0.1,1.6,0c1.2,0.1,2.4,0.1,3.6,0c0.3,0,0.6,0,0.9,0
		c0.2,2.8,0.2,5.7,0.1,8.5c-0.7,0.2-1.4,0.3-2.1,0.2c-0.3,0-0.5-0.3-0.5-0.5c0-0.2-0.1-0.4-0.1-0.7c-0.7,0.3-1.3,0.6-1.9,0.7
		c-0.9,0.3-1.9,0.4-2.9,0.2c-0.3-0.1-0.5-0.1-0.8-0.1c-1.8-0.2-3.2-1.4-3.7-3.1c-0.5-1.3-0.7-2.7-0.7-4.2c0-1,0-2.1,0.1-3.1
		c0-1.4,0.4-2.8,1.2-3.9c1.1-1.6,2.8-2.6,4.8-2.6c1,0,2.1,0.1,3,0.3c1.4,0.4,2.4,1.4,2.9,2.8c0.1,0.4,0.3,0.7,0.4,1.1
		C196,280.3,196.1,281.2,195.9,282z"/>
	<path fill="#A00000" d="M215.3,275.8c0,0.8,0,1.5,0,2.2c0,0.5-0.2,0.6-0.7,0.6c-0.1,0-0.2,0-0.3,0c-2.8,0-5.7,0.1-8.5,0.1
		c-0.2,0-0.4,0-0.7,0.1c-0.2,1.2-0.2,2.4-0.2,3.6c0.1,0.1,0.2,0.1,0.4,0.1c1.6,0,3.2,0,4.7,0.1c0.1,0,0.2,0,0.2,0
		c0.6,0,0.7,0.1,0.8,0.7c0,0.5,0,1,0,1.5c0,0.2,0,0.3,0,0.6c-0.2,0-0.5,0.1-0.7,0.1c-1.5,0-3,0-4.5,0h-0.8c0,0.2-0.1,0.4-0.1,0.6
		c0,1,0,2,0,3c0,0.6,0.1,0.7,0.7,0.7c1.4,0,2.7,0,4.1,0c1.6,0,3.2,0,4.7,0.1c0.6,0,0.8,0.1,0.8,0.7c0,0.7,0,1.3,0,2
		c-0.2,0.1-0.5,0.1-0.7,0.1c-3.9,0-7.7,0-11.6,0c-0.6,0-0.7-0.1-0.7-0.7c0-2.9,0-5.7,0-8.6c0-2.2,0-4.5,0-6.7c0-1,0-1,1-1
		c3.7,0,7.4,0,11.1,0C214.6,275.7,214.9,275.7,215.3,275.8z"/>
	<path fill="#A00000" d="M239.9,275.9c1-0.4,1.8-0.1,2.8-0.1c0,0.4,0,0.7,0,1c0,2.5-0.1,5-0.1,7.5c0,1.1,0.1,2.1,0,3.2
		c0,1.5-0.7,2.9-1.9,3.7c-0.7,0.5-1.4,0.8-2.2,1.2c-0.7,0.3-1.4,0.4-2.2,0.3c-0.6,0-1.2-0.1-1.7-0.2c-0.4-0.1-0.7-0.2-1.1-0.4
		c-1.5-0.6-2.6-1.9-3-3.4c-0.3-1.1-0.4-2.2-0.3-3.3c0-3.1,0-6.2,0-9.2c0-0.1,0-0.2,0-0.3c0.9-0.5,1.7-0.1,2.7-0.1
		c0,0.3,0.1,0.6,0.1,0.9c0,1.5-0.1,2.9-0.1,4.4c0,1.7,0,3.4,0,5c0,0.9,0.3,1.8,0.9,2.4c0.3,0.4,0.7,0.7,1.1,0.8c1,0.4,2.1,0.4,3.1,0
		c1.2-0.5,2-1.6,2-2.9c0-2.1,0-4.2,0-6.3C239.9,278.8,239.9,277.4,239.9,275.9z"/>
	<path fill="#A00000" d="M261.8,292.7c-0.4,0-0.7,0-0.9,0c-3.7,0-7.4,0-11.2,0c-0.1,0-0.3,0-0.4,0c-0.1,0-0.3,0-0.3-0.1
		c-0.1-0.1-0.1-0.2-0.1-0.3c0-1.1,0-2.1,0-3.2c0-0.8,0-1.7,0-2.5c0-2.1,0-4.3,0-6.4c0-1.3,0-2.6,0-3.8c0-0.6,0.1-0.6,0.6-0.6
		c0.4,0,0.9,0,1.3,0.1l0.8,0c0.1,2.4-0.1,4.7-0.1,7c0.1,2.3-0.1,4.5,0.1,6.9c0.4,0,0.7,0,1,0c2.8,0,5.6,0.1,8.4,0.1
		c0.8,0,0.9,0.1,0.9,0.9C261.8,291.3,261.8,291.9,261.8,292.7z"/>
	<path fill="#A00000" d="M279.3,292.7c-0.4,0-0.7,0-0.9,0c-3.7,0-7.4,0-11.2,0c-0.1,0-0.3,0-0.4,0c-0.1,0-0.3,0-0.3-0.1
		c-0.1-0.1-0.1-0.2-0.1-0.3c0-1.1,0-2.1,0-3.2c0-0.8,0-1.7,0-2.5c0-2.1,0-4.3,0-6.4c0-1.3,0-2.6,0-3.8c0-0.6,0.1-0.6,0.6-0.6
		c0.4,0,0.9,0,1.3,0.1l0.8,0c0.1,2.4-0.1,4.7-0.1,7c0.1,2.3-0.1,4.5,0.1,6.9c0.4,0,0.7,0,1,0c2.8,0,5.6,0.1,8.4,0.1
		c0.8,0,0.9,0.1,0.9,0.9C279.3,291.3,279.3,291.9,279.3,292.7z"/>
	<path fill="#A00000" d="M283.8,275.7c0.2,0,0.3,0,0.5-0.1c0.5,0,1,0.1,1.5,0.1c0.3,0,0.6,0,0.8,0c0.4,0,0.7,0.3,0.8,0.6
		c0.3,0.8,0.6,1.6,0.8,2.4c0.6,1.8,1.2,3.6,1.8,5.4c0.3,1,0.6,1.9,1,2.9c0.1,0.3,0.3,0.6,0.5,0.9c0.2-0.5,0.3-0.8,0.5-1.2
		c1.2-3.4,2.4-6.7,3.6-10.1c0.3-0.9,0.6-1.1,1.5-0.9c0.3,0,0.7,0,1,0c0.3,0,0.5,0,0.9,0c0,0.3,0.1,0.6,0.1,0.9
		c0,2.8-0.1,5.5-0.1,8.3c0,2.2,0,4.4,0,6.6c0,0.3,0,0.7,0,1c-0.7,0.1-1.5,0.2-2.2,0.1c-0.1,0-0.3,0-0.3-0.1
		c-0.1-0.1-0.1-0.2-0.1-0.3c0-1,0-2.1,0-3.1c0-1.2,0-2.4,0-3.6c0-1.1,0-2.1-0.1-3.2c-0.1,0.2-0.1,0.3-0.2,0.5
		c-0.7,1.9-1.3,3.8-2,5.7c-0.4,1.2-0.8,2.5-1.3,3.7c-0.2,0.6-0.2,0.6-0.9,0.6c-0.3,0-0.6,0-0.9,0c-0.2,0-0.4,0-0.5-0.1
		c-0.2-0.1-0.3-0.3-0.3-0.5c-0.4-1.2-0.7-2.4-1.1-3.6c-0.4-1.1-0.8-2.2-1.1-3.3c-0.4-1-0.7-2-1-3.1c-0.1-0.2-0.2-0.4-0.3-0.5v10.7
		c-0.8,0.2-1.6,0.2-2.3,0.1c-0.2-0.1-0.3-0.2-0.3-0.4c0-1,0-2,0-3.1c0-0.2,0-0.4,0-0.7c0-2.8,0-5.6,0-8.4c0-1.2,0-2.5,0-3.7
		C283.8,276.1,283.8,275.9,283.8,275.7z"/>
	<path fill="#A00000" d="M311.3,275.8c0.3,0,0.5,0,0.7,0c0.3,0,0.5,0.1,0.6,0.4c0.5,1,0.9,2,1.4,3.1c0.3,0.6,0.5,1.2,0.8,1.9
		c0.1,0.3,0.2,0.5,0.4,0.8c0.6,1.4,1.2,2.9,1.8,4.3c0.3,0.7,0.6,1.5,0.9,2.2s0.7,1.4,1,2.2c0.2,0.5,0.4,0.9,0.5,1.4
		c0,0.1,0,0.3-0.1,0.4c-0.1,0.1-0.2,0.2-0.4,0.2c-0.5,0.1-1.1,0.1-1.7,0.1c-0.2,0-0.3-0.1-0.4-0.2c-0.1-0.1-0.2-0.2-0.2-0.3
		c-0.4-1-0.8-2.1-1.2-3.1c-0.1-0.2-0.1-0.3-0.2-0.5c-0.1-0.5-0.6-0.8-1.1-0.7c-0.8,0.1-1.7,0.1-2.5,0.1c-0.4,0-0.8,0-1.2-0.1
		c-0.7,0-1.3,0-2-0.1c-0.3,0-0.5,0.1-0.6,0.4c-0.2,0.4-0.3,0.8-0.5,1.2c-0.3,0.8-0.7,1.7-1,2.5c-0.3,0.7-0.4,0.8-1.2,0.7
		c-0.3,0-0.6,0-0.8,0c-0.8,0-0.9-0.2-0.7-1c0.1-0.5,0.3-1,0.6-1.5c0.3-0.5,0.5-1,0.7-1.6c0.8-1.9,1.7-3.8,2.4-5.7
		c0.4-1.1,0.9-2.2,1.4-3.2c0.4-0.9,0.7-1.8,1.1-2.7c0-0.1,0.1-0.2,0.1-0.2C310.2,276.1,310.6,275.5,311.3,275.8z M313.5,284.7
		c0-0.1,0-0.2,0-0.2c-0.4-1-0.8-2-1.2-3c-0.2-0.4-0.3-0.8-0.6-1.1c-0.2-0.3-0.5-0.3-0.7,0c0,0.1-0.1,0.2-0.1,0.2
		c-0.3,0.8-0.7,1.5-1,2.3c-0.2,0.6-0.5,1.2-0.7,1.8C310.7,285,312.1,284.9,313.5,284.7z"/>
	<path fill="#A00000" d="M336.4,292.7c-0.7,0-1.5,0-2.2,0c-0.4,0-0.8-0.3-1-0.7c-0.6-1.1-1.3-2.1-1.9-3.1c-1.5-2.5-3-5-4.6-7.5
		c-0.1-0.1-0.2-0.2-0.3-0.2v11.4c-0.7,0.1-1.5,0.2-2.2,0.1c-0.1,0-0.3,0-0.3-0.1c-0.1-0.1-0.1-0.2-0.1-0.3c0-1.1,0-2.1,0-3.2
		c0-0.9,0-1.8,0-2.8c0-2.1,0-4.1,0-6.2c0-1.3,0-2.5,0-3.8c0-0.6,0.1-0.7,0.8-0.6c0.4,0,0.8,0.1,1.2,0.1c0.5,0,1,0.2,1.2,0.7
		c1,1.6,2,3.2,3,4.8c1.1,1.8,2.2,3.5,3.2,5.3c0.1,0.2,0.3,0.4,0.5,0.7c0-0.3,0.1-0.5,0.1-0.8c0-2,0-4.1,0-6.1c0-1.4,0-2.7,0-4.1
		c0-0.5,0.1-0.6,0.7-0.6c0.6,0,1.3,0.1,1.9,0.1C336.6,276.5,336.6,291.8,336.4,292.7z"/>
</g>
</svg>
