<?xml version="1.0" encoding="utf-8"?>
<svg version="1.2" baseProfile="tiny" id="Layer_1" xmlns="http://www.w3.org/2000/svg" xmlns:xlink="http://www.w3.org/1999/xlink"
	 x="0px" y="0px" viewBox="0 0 325.3 45.2" xml:space="preserve" fill="#ffffff">
<path d="M24.2,17.5V7.7c-2.3-1.1-4.8-1.6-7.5-1.6c-2.3,0-4.4,0.4-6.5,1.4c-2.1,0.9-4,2.1-5.5,3.7S2,14.6,1.2,16.5
	c-0.8,2-1.2,4.1-1.2,6.3c0,4.8,1.7,8.8,5.1,12c1.7,1.5,3.5,2.6,5.5,3.4c2,0.9,4.2,1.2,6.3,1.2c1.3,0,2.5-0.1,3.7-0.3
	c1.1-0.3,2.3-0.7,3.6-1.1v-9.9c-0.8,1-1.9,1.8-3.1,2.5c-1.3,0.5-2.6,0.8-4,0.8c-2.5,0-4.6-0.8-6.2-2.3c-1.5-1.7-2.3-3.7-2.3-6.2
	c0-2.5,0.7-4.6,2.3-6.3c1.5-1.6,3.5-2.5,6.1-2.5c1.4,0,2.8,0.3,4.1,0.9C22.3,15.5,23.4,16.4,24.2,17.5z"/>
<path d="M60.2,13.7c-1.7-2.5-3.7-4.3-6.4-5.7c-2.7-1.4-5.5-2-8.6-2.1c-3.1,0.1-6,0.7-8.6,2.1c-2.6,1.4-4.7,3.2-6.4,5.7
	c-1.7,2.4-2.4,5.3-2.5,8.5c0.1,3.4,0.8,6.4,2.3,9.1c1.5,2.6,3.5,4.6,6.1,6.1c2.7,1.4,5.7,2.2,9.1,2.3c3.4,0,6.4-0.8,9-2.3
	c2.7-1.5,4.8-3.5,6.3-6.1c1.5-2.7,2.2-5.7,2.3-9.1C62.7,19,61.8,16.1,60.2,13.7z M40.7,15.1c1.3-0.8,2.8-1.2,4.5-1.2
	c1.7,0,3.2,0.4,4.5,1.2c1.3,0.8,2.4,1.8,3.3,3c0.8,1.3,1.1,2.7,1.1,4.1c0,1.9-0.3,3.5-1.1,4.9c-0.9,1.5-2,2.5-3.3,3.3
	c-1.3,0.8-2.8,1.2-4.5,1.3c-1.7-0.1-3.2-0.5-4.5-1.3c-1.3-0.8-2.4-1.8-3.2-3.3c-0.8-1.4-1.2-3-1.3-4.9c0.1-1.4,0.5-2.8,1.3-4.1
	C38.3,16.9,39.4,15.9,40.7,15.1z"/>
<path d="M86.1,38.6l7.6-18.2h0.1l2.3,18.2h8.2L99.5,7h-8.2l-6.8,16.9L78.2,7H70l-5.3,31.6h8.1l2.7-18.2l0,0l7.3,18.2H86.1z"/>
<path d="M116.1,38.6V7h-8.3v31.6H116.1z"/>
<path d="M160.7,0h-14.5l-6.9,11.7L132.4,0H118l14.4,21.1l-17.7,24.1h14.2l10.4-14.7l9.5,14.7h14.1l-16.7-24.1L160.7,0z"/>
<path d="M188.8,13.7c-1.7-2.5-3.8-4.3-6.5-5.7c-2.6-1.4-5.5-2-8.5-2.1c-3.1,0.1-6,0.7-8.6,2.1c-2.7,1.4-4.8,3.2-6.4,5.7
	c-1.7,2.4-2.5,5.3-2.6,8.5c0.1,3.4,0.9,6.4,2.4,9.1c1.4,2.6,3.5,4.6,6.1,6.1c2.6,1.4,5.6,2.2,9.1,2.3c3.4,0,6.4-0.8,9-2.3
	c2.6-1.5,4.7-3.5,6.2-6.1c1.5-2.7,2.2-5.7,2.3-9.1C191.2,19,190.4,16.1,188.8,13.7z M178.2,15.1c1.4,0.8,2.5,1.8,3.3,3
	c0.8,1.3,1.2,2.7,1.2,4.1c0,1.9-0.4,3.5-1.2,4.9c-0.8,1.5-1.9,2.5-3.3,3.3c-1.3,0.8-2.8,1.2-4.4,1.3c-1.7-0.1-3.2-0.5-4.6-1.3
	c-1.3-0.8-2.4-1.8-3.1-3.3c-0.9-1.4-1.3-3-1.3-4.9c0-1.4,0.4-2.8,1.3-4.1c0.7-1.2,1.8-2.2,3.1-3c1.4-0.8,2.9-1.2,4.6-1.2
	C175.4,13.9,176.9,14.3,178.2,15.1z"/>
<path d="M203.3,31.6V7h-8.2v31.6h18.1v-7H203.3z"/>
<path d="M247,31.3c1.5-2.7,2.2-5.7,2.3-9.1c-0.1-3.2-0.9-6.1-2.5-8.5c-1.7-2.5-3.8-4.3-6.5-5.7c-2.6-1.4-5.5-2-8.5-2.1
	c-3.1,0.1-6,0.7-8.6,2.1c-2.7,1.4-4.8,3.2-6.4,5.7c-1.7,2.4-2.5,5.3-2.6,8.5c0.1,3.4,0.9,6.4,2.4,9.1c1.4,2.6,3.5,4.6,6.1,6.1
	c2.6,1.4,5.6,2.2,9.1,2.3c3.4,0,6.4-0.8,9-2.3C243.4,35.9,245.5,33.9,247,31.3z M231.8,13.9c1.6,0,3.1,0.4,4.4,1.2
	c1.4,0.8,2.5,1.8,3.3,3c0.8,1.3,1.2,2.7,1.2,4.1c0,1.9-0.4,3.5-1.2,4.9c-0.8,1.5-1.9,2.5-3.3,3.3c-1.3,0.8-2.8,1.2-4.4,1.3
	c-1.7-0.1-3.2-0.5-4.6-1.3c-1.3-0.8-2.4-1.8-3.1-3.3c-0.9-1.4-1.3-3-1.3-4.9c0-1.4,0.4-2.8,1.3-4.1c0.7-1.2,1.8-2.2,3.1-3
	C228.6,14.3,230.1,13.9,231.8,13.9z"/>
<path d="M284.1,27.4c0.4-2,0.6-4.2,0.6-6.4h-16.3v6.4h6.7c-0.2,1.8-1,3.2-2.2,4.1c-1.1,0.9-2.7,1.4-4.5,1.4c-1.8,0-3.3-0.5-4.5-1.5
	c-1.3-0.9-2.2-2.2-2.8-3.6c-0.7-1.6-1-3.2-1-4.8c0-1.6,0.3-3.2,0.9-4.8c0.6-1.4,1.6-2.7,2.8-3.7s2.7-1.5,4.5-1.5
	c1.6,0,3.1,0.5,4.3,1.4c1.1,0.9,2,2.1,2.5,3.6l7.8-3.2c-1.3-3-3.2-5.3-5.7-6.7c-2.4-1.5-5.3-2.2-8.5-2.2c-3.5,0.1-6.5,0.7-9,2.1
	c-2.6,1.5-4.6,3.4-6,6c-1.5,2.5-2.1,5.5-2.2,8.9c0.1,3.4,0.7,6.3,2.1,8.8c1.5,2.5,3.5,4.4,6,5.9c2.5,1.3,5.5,2.1,8.8,2.1
	c2.7,0,5.1-0.5,7.4-1.5c2.2-1,4.1-2.6,5.6-4.8C282.8,31.5,283.7,29.5,284.1,27.4z"/>
<path d="M316.6,7h-9.9l-5.9,8.5L294.9,7H285l11.7,16.4v15.2h8.2V23.4L316.6,7z"/>
<path d="M318.5,4.3h-1.1V3.7h3v0.6h-1.1v3.1h-0.8V4.3z M324.6,4.5L324.6,4.5l-1.1,2.9h-0.5l-1.1-2.9h0v2.9h-0.7V3.7h1.1l1,2.6l1-2.6
	h1.1v3.7h-0.7V4.5z"/>
</svg>
