<?xml version="1.0" encoding="utf-8"?>
<svg version="1.2" baseProfile="tiny" xmlns="http://www.w3.org/2000/svg" xmlns:xlink="http://www.w3.org/1999/xlink" x="0px" y="0px"
	 viewBox="0 0 535.5 193.3" fill="#ffffcc" stroke="#ffffcc" stroke-width="4">
<path d="M211.1,79.6c1.2-15.1,1.7-30.2,4-45.1c1.1-7.1,4.9-14.2,9-20.2c7.5-11,18.5-15.6,31.8-12.5c13.2,3.1,20.3,12.4,22.7,25.1
	c3.8,19.6,4.3,39.5,2.4,59.2c-1.3,14-4.1,28-7.6,41.6c-3.5,13.7-10.8,19.1-23,19.9c-14.5,0.9-26.9-5.1-31.4-17.3
	c-3.3-8.9-4.7-18.6-5.9-28.1c-0.9-7.4-0.2-15-0.2-22.5C212.4,79.7,211.7,79.6,211.1,79.6z M277.4,69.5c-0.2,0-0.4,0-0.6,0
	c0-4.8,0.5-9.7-0.1-14.5c-1.2-9-2-18.3-4.7-26.9c-5.8-18.4-27-23.5-41.7-11.2c-9.4,7.9-13.2,17.8-13.4,29.4
	c-0.3,18.9-0.5,37.9,0.4,56.8c0.4,7.5,2.9,15.5,6.4,22.3c9.9,19,33.3,19.5,43.7,0.9c3.6-6.4,6-13.8,7.1-21
	C276.3,93.4,276.5,81.4,277.4,69.5z"/>
<path d="M534.5,142c-1.5,7.9-4.5,11.7-11.7,11.5c-11.1-0.3-22.1-1.8-33.2-2.9c-3.5-0.3-3.8-3-3.9-5.9c-0.2-15.2-0.7-30.3-0.7-45.5
	c-0.1-22.5,0.1-44.9-0.1-67.4c-0.1-8.8-0.8-17.6-1.1-26.4c-0.1-1.6,0.3-3.2,0.6-5c13.4,0,26.4,0,39.8,0c0.3,2.9-2.1,4.7-5.4,5.2
	c-7.7,1.2-15.5,2-23.3,2.9c-1.6,0.2-3.2,0.2-4.8,0.3c-1.2,7.4-1.1,7,5.1,8.1c9,1.6,17.6,0.2,26-2.7c0.8-0.3,1.6-0.5,2.4-0.6
	c0.3-0.1,0.6,0.1,1.3,0.3c0.1,4.5-3.5,5.9-6.5,6.7c-6.9,1.6-14,2.5-21.1,3.6c-1.6,0.3-3.2,0.2-6.2,0.4c0,17,0,33.8,0,50.6
	c0,19.8,0,39.7,0,59.5c0,2.6,0.2,4.3,3.3,5C507.9,142.6,520.8,144.2,534.5,142z"/>
<path d="M462.7,51.9c3.1-14.3,3.2-28.3-0.4-42.2c-1.1-4.3,0.4-6.2,4.8-7.3c3.4,9.7,4.9,19.7,3.2,29.4c-4.5,25.8-1.5,51.5-1.2,77.3
	c0.3,20.6,0.1,41.3,0.1,61.9c-0.5,0-0.9,0-1.4,0c-0.2-3.5-0.6-6.9-0.7-10.4c-1.1-27-2-53.9-3.2-80.9c-0.2-4.9-1.1-10.1-3-14.5
	c-6.7-15-14.1-29.7-22.2-44.6c-0.6,3.9-1.7,7.8-1.7,11.7c-0.3,22.1-0.3,44.3-0.5,66.4c-0.2,20.3-1.4,40.5-5.8,60.5
	c0.1-1.5,0.2-3,0.2-4.4c0.1-22.5-0.1-44.9,0.2-67.4c0.3-16.6,1.6-33.3,1.9-49.9c0.1-8.9-1.3-17.8-1.8-26.7c-0.1-2.9,0-8,0.9-8.3
	c4.3-1.1,6.8,2.2,8.6,5.9c5.9,12.3,11.8,24.5,17.8,36.8C459.7,47.5,461.3,49.6,462.7,51.9z"/>
<path d="M414.6,135.4c0.3,10.8-3.8,15.7-13.1,15.5c-9.3-0.2-18.6-1.1-27.9-2.1c-4.4-0.5-5.7-4.4-5.7-8.2c-0.1-4.8,0.6-9.6,0.7-14.5
	c0.8-32.3,1.6-64.6,2.1-96.9c0.1-8.1-1-16.2-1.6-24.5c12.7-1.3,25.4-2.6,39.2-4c-9.9,7.7-20.6,8.9-31.9,8.9c0,2.7,0,5.1,0,8.6
	c12-0.8,23.7-1.6,35.2-2.4c-2,5.9-8.2,9.1-16.1,8.3c-5.1-0.5-10.3-0.6-15.4-0.8c-1.5-0.1-2.9,0.2-4.9,0.4c0,3.4,0,6.5,0,9.6
	c0.1,33.1,0.2,66.3,0.2,99.4c0,3.8,1.2,5.5,4.8,5.9c5.4,0.6,10.9,1.6,16.3,2.1C402.9,141.4,409.3,141.4,414.6,135.4z"/>
<path d="M159.6,3.4c14.1-0.9,27.9-1.8,41.9-2.7c-0.7,4.5-3.6,5.9-7.3,6.1c-7.7,0.3-15.3,0.6-23,0.9c-1.8,0.1-3.5,0.3-5.4,0.4
	c0,5.1,1,8.7,6.6,8.8c9.1,0.2,18.2,0.3,27.3,0.3c1.5,0,2.9-0.4,5.1-0.7c-2.7,4-5.6,7.1-10,7c-7.6-0.2-15.2-0.9-22.8-1.4
	c-1.3-0.1-2.6-0.3-4.9-0.6c0,10.2-0.1,20,0,29.8c0.4,26.6,0.9,53.3,1.5,79.9c0,1.4,0.8,3.4,1.9,4c3.7,2.2,31.3,3.7,35.4,2.2
	c1.7,5.5,0.5,8.7-5,9.1c-10.4,0.9-20.9,0.9-31.3,1c-3.6,0-5.4-2.4-6.3-5.9c-3.5-12.9-3.5-26.1-2.1-39.2c3.4-32,3.9-63.8-1.3-95.6
	C159.7,6.1,159.7,5.2,159.6,3.4z"/>
<path d="M8.2,35.3c-1.8,53-3.6,105.5-5.4,158.1c-0.3,0-0.5,0-0.8,0C1.4,159.7,0.6,126,0.1,92.3c-0.3-24-0.1-48,0-71.9
	c0-4.2,0.2-8.4,0.6-12.6c0.1-1.2,1.1-2.9,2.1-3.3c10.8-4.2,21.8-4.4,32.8-1c4.9,1.5,7,8,4.3,13.9c-4.7,10.2-12.7,16-23.9,17.1
	C13.4,34.7,10.8,35,8.2,35.3z M20.9,8.1C16.7,8.4,13.6,8.8,10.4,9C7.6,9.2,6,10.5,6.3,13.3c0.4,3.8,0.9,7.5,1.7,11.2
	c0.6,2.8,2.6,4.4,5.6,3.3c6-2.3,12-4.5,17.7-7.3c1.9-0.9,2.9-3.8,3.9-6c1.2-2.7,0-4.5-3-4.9C28.1,9.1,24,8.5,20.9,8.1z"/>
<path d="M91.1,153.2c-2.7-31.5-5.5-63-8.2-94.5c-0.2-2.3-0.7-4.6-0.9-6.9c-0.9-7.9-1.5-8.5-9.3-9.2c-0.5,0-1-0.1-1.5-0.1
	C58,41.8,56.9,42.8,55.8,55.7c-3.2,36.6-6.4,73.2-9.7,109.9c-0.1-27.8,0-55.5,3.2-83.2c1.9-16.7,3-33.5,4.6-50.2
	c0.5-5,1.2-9.9,2.1-14.8c0.9-5.7,3.8-10.2,8.4-13.7c4.6-3.4,9.4-3,12.1,2.1c2.2,4.2,4,8.9,4.8,13.5c7.9,43.4,11.9,87.1,10.4,131.2
	c0,1-0.1,2-0.2,3C91.3,153.3,91.2,153.2,91.1,153.2z M78.4,36.7c2.4-13.7-1.5-25-9.8-30c-9,6.8-10.3,16.4-9.4,26.7
	c0.1,0.8,1.6,2.1,2.6,2.2C67.3,36.1,72.7,36.3,78.4,36.7z"/>
<path d="M355.6,129.7c-1.3,11.1-14.6,21-26.5,20.2c-17.6-1.1-29.6-13.1-32-33.1c-3.6-30-2.9-59.8,3.8-89.4
	C305,9.7,318.9-0.7,336,0.7c8.2,0.7,13.8,6.5,12.9,13.6c-0.1,1.1-1.1,2.4-2,2.9c-0.5,0.3-2.1-0.5-2.8-1.3
	c-7.4-8.9-18.3-10.5-26.7-2.4c-5,4.8-9.1,11.2-11.4,17.7c-3.1,8.8-5.3,18.3-5.9,27.7c-1,15.3-1,30.6-0.4,45.9
	c0.6,16.1,9.7,27.6,23.1,35.8c5.5,3.4,11.4,3.2,16.9-0.6C344.8,136.7,350,133.4,355.6,129.7z"/>
<path d="M146.1,138.9c-0.5,8.9-3.2,10.9-12.7,9.9c-5.9-0.6-11.9-0.4-17.9-0.3c-6.3,0-9.6-2.8-8.4-8.8c3.7-17.8,1.5-35.8,2-53.7
	c0.7-23.3-0.7-46.6-1.2-69.9c-0.1-2.3-1-4.6-0.8-6.9c0.2-2.9,1.2-5.7,1.9-9.2c5.9,4.1,8.2,8.6,7.9,14c-0.6,11.5-2.3,22.9-2.5,34.3
	c-0.5,29.5-0.5,58.9-0.7,88.4c0,3,1.3,4.3,4.2,4.1C127.2,140.2,136.5,139.6,146.1,138.9z"/>
</svg>
