<?xml version="1.0" encoding="utf-8"?>
<svg version="1.1" baseProfile="tiny" xmlns="http://www.w3.org/2000/svg" x="0px" y="0px" viewBox="0 0 363.6 70.3" overflow="visible" fill="#ffffcc">
<g>
	<path d="M22.1,18.5c-3.4,2.6-8.2,4.1-14.4,4.4c-0.3,1.5-0.9,3.6-1.7,6.4c-0.3,0.7-0.7,1.3-1.3,1.9c-0.9,0.8-1.8,1.2-2.7,1.2
		c-0.6,0-1.1-0.2-1.5-0.5C0.2,31.5,0,31,0,30.4c0-0.6,0.3-1.5,0.9-2.6c0.5-0.9,1-2.3,1.7-4.1c1.8-5.1,3.3-9.7,4.4-14
		c0.1-0.7,0.2-1.8,0.5-3.2c0.3-1,0.8-1.8,1.7-2.6c0.9-0.8,1.8-1.1,2.8-1.1c0.3,0,0.5,0,0.7,0.1c2.5-0.7,4.7-1.1,6.6-1.1
		c2.3,0,4.3,0.6,5.9,1.8C27.2,5,28.1,6.8,28.1,9c0,0.6-0.1,1.3-0.3,2C27.1,13.6,25.2,16.1,22.1,18.5z M21.9,8.6
		c-0.9-0.4-2.1-0.5-3.6-0.5c-1.6,0-3.5,0.2-5.7,0.6c-0.8,2.2-1.8,4.9-2.8,8c5.1-0.1,9-1.5,11.9-4c1.1-0.9,1.6-1.8,1.6-2.5
		C23.3,9.4,22.8,8.9,21.9,8.6z"/>
	<path d="M42.8,31c-0.8,0.9-1.6,1.4-2.4,1.4c-1.1,0-1.7-0.7-1.8-2.1c0.1-1.8,0.1-3.2,0.2-4.4l-10.6,0.9l-1.8,3
		c-0.9,1.2-2.1,1.8-3.5,1.8c-0.6,0-1.1-0.2-1.5-0.6c-0.4-0.4-0.6-0.9-0.6-1.5s1.4-2.9,4.2-6.8c1.6-2.2,3.3-4.4,4.9-6.7
		c3.6-5.3,5.7-8.6,6.2-9.9c0.6-1.4,1.2-2.5,1.9-3.2c0.9-0.9,2-1.3,3.3-1.3c1.3,0,2,0.8,2,2.5c0,0.6-0.1,1.6-0.2,2.9
		c-0.1,1.3-0.2,2.4-0.2,3.1c0,4.1,0.1,8.3,0.4,12.4c0.1,0.8,0.2,1.8,0.4,3c0.3,0.7,0.4,1.4,0.4,2C44.1,28.8,43.7,29.9,42.8,31z
		 M38.3,11.3c-1.9,2.7-4.2,6-6.9,10.1l7.3-0.5C38.6,17.1,38.5,13.9,38.3,11.3z"/>
	<path d="M60.9,21.4c0.7,0.4,1.5,0.9,2.5,1.5c1,0.6,1.8,1,2.6,1.1c1.3,0.3,2,1.1,2,2.5c0,1-0.4,2-1.1,3c-0.8,1.1-1.7,1.7-2.6,1.7
		c-0.7,0-1.4-0.4-2.1-1.3c-1.7-2-4.6-4.1-8.6-6.5c-0.2,0.6-0.4,1.6-0.7,3c-0.3,1.3-0.5,2.2-0.8,2.9c-0.3,0.8-0.9,1.5-1.7,2.1
		c-0.8,0.6-1.6,0.8-2.5,0.8c-1.3,0-2-0.6-2-1.8c0-0.6,0.3-1.5,1-2.7c0.5-0.9,1-2.3,1.7-4.1c2.1-5.8,3.6-10.5,4.4-14
		c0.1-1,0.2-2,0.5-3.1c0.2-0.9,0.8-1.8,1.7-2.6c0.9-0.8,1.9-1.1,2.9-1.1c0.2,0,0.4,0,0.5,0.1c2.4-0.6,4.5-1,6.3-1
		c2.3,0,4.4,0.6,6.2,1.8c2,1.3,3,3.1,3,5.4c0,3-1.5,5.8-4.5,8.2C67.2,19.1,64.3,20.5,60.9,21.4z M58.9,8c-0.9,2.4-2,5.3-3.1,8.7
		c3.6-0.1,6.8-1,9.6-2.6c2.6-1.4,3.9-2.9,3.9-4.2c0-1.6-1.8-2.3-5.3-2.3C62.6,7.5,60.9,7.7,58.9,8z"/>
	<path d="M86,21.4c0.7,0.4,1.5,0.9,2.5,1.5c1,0.6,1.8,1,2.6,1.1c1.3,0.3,2,1.1,2,2.5c0,1-0.4,2-1.1,3c-0.8,1.1-1.7,1.7-2.6,1.7
		c-0.7,0-1.4-0.4-2.1-1.3c-1.7-2-4.6-4.1-8.6-6.5c-0.2,0.6-0.4,1.6-0.7,3c-0.3,1.3-0.5,2.2-0.8,2.9c-0.3,0.8-0.9,1.5-1.7,2.1
		c-0.8,0.6-1.6,0.8-2.5,0.8c-1.3,0-2-0.6-2-1.8c0-0.6,0.3-1.5,1-2.7c0.5-0.9,1-2.3,1.7-4.1c2.1-5.8,3.6-10.5,4.4-14
		c0.1-1,0.2-2,0.5-3.1c0.2-0.9,0.8-1.8,1.7-2.6c0.9-0.8,1.9-1.1,2.9-1.1c0.2,0,0.4,0,0.5,0.1c2.4-0.6,4.5-1,6.3-1
		c2.3,0,4.4,0.6,6.2,1.8c2,1.3,3,3.1,3,5.4c0,3-1.5,5.8-4.5,8.2C92.2,19.1,89.3,20.5,86,21.4z M84,8c-0.9,2.4-2,5.3-3.1,8.7
		c3.6-0.1,6.8-1,9.6-2.6c2.6-1.4,3.9-2.9,3.9-4.2c0-1.6-1.8-2.3-5.3-2.3C87.7,7.5,86,7.7,84,8z"/>
	<path d="M119.6,12.4c-2.1,2.2-4.7,5.2-8,9c-0.5,1.6-1,3.3-1.4,5.1c-0.1,0.6-0.3,1.3-0.6,2.2c-0.3,0.7-0.7,1.3-1.4,1.9
		c-0.9,0.7-1.8,1.1-2.8,1.1c-0.6,0-1.1-0.2-1.4-0.5c-0.4-0.4-0.5-0.8-0.5-1.4c0-0.6,0.3-1.5,0.9-2.7c0.6-1.1,1.3-2.9,2.2-5.4
		c-2-6.6-3.5-10.7-4.6-12.2c-0.6-0.9-1-1.7-1-2.6c0-1.1,0.5-2.1,1.5-3.1c0.7-0.6,1.5-1,2.5-1c1.4,0,2.3,0.9,2.6,2.6
		c0.4,1.9,1.4,5.3,3,10l3.7-4.2c2.1-2.4,3.4-4,3.8-4.7c1.5-2.7,3.5-4,6-4c0.6,0,1.1,0.2,1.5,0.5c0.4,0.3,0.7,0.8,0.7,1.3
		c0,0.7-1,2.1-3,4.2C122.1,9.8,120.9,11.1,119.6,12.4z"/>
	<path d="M148.1,14.3c-0.9,0-1.6-0.3-2.2-0.8c-0.6-0.6-0.8-1.3-0.7-2.2c0-0.3,0.1-0.7,0.1-1c0-1-0.4-2.5-1.1-4.7
		c-0.1-0.3-0.2-0.7-0.2-1.1c0-0.9,0.4-1.6,1.1-2.1c0.7-0.4,1.5-0.6,2.4-0.6c2,0,3,0.8,3,2.4c0,0.4-0.1,0.9-0.2,1.6
		c-0.2,0.7-0.2,1.3-0.2,1.6c0,0.6,0.2,1.3,0.5,2.2s0.5,1.6,0.5,2c0,0.8-0.3,1.4-0.9,1.9C149.7,14,148.9,14.3,148.1,14.3z"/>
	<path d="M181.2,7.5l-1.1,2.8c-2.4,6.6-4,11.6-4.9,15.1c-0.1,0.6-0.3,1.6-0.6,2.8c-0.2,0.9-0.8,1.8-1.6,2.5
		c-0.8,0.7-1.7,1.1-2.6,1.1c-1.2,0-1.9-0.6-1.9-1.9c0-0.3,0.1-0.6,0.2-1c-2.8-6.9-5.7-12.3-8.8-16.3c-2.1,5.8-3.5,9.9-4.1,12.4
		c-0.1,0.7-0.3,1.8-0.6,3.2c-0.2,1-0.8,1.9-1.6,2.6c-0.9,0.8-1.8,1.1-2.8,1.1c-1.3,0-2-0.7-2-2c0-0.6,0.3-1.5,1-2.6
		c0.4-0.7,1.2-2.9,2.5-6.5c1.7-4.8,2.8-8.4,3.5-10.8c0.3-1.1,0.4-1.8,0.4-2.2c0.1-1.7,0.7-3.1,2-4.2c1-0.8,1.9-1.2,2.9-1.2
		c1.1,0,1.8,0.6,1.8,1.8c3.7,5.5,6.7,11.2,9,16.9c1.6-4.6,2.8-8.4,3.6-11.4c0.3-1.1,0.4-1.8,0.4-2.1c0-1,0.2-1.8,0.4-2.4
		c0.2-0.6,0.7-1.2,1.4-1.8c0.9-0.8,1.8-1.2,2.7-1.2c1.3,0,1.9,0.6,1.9,1.7C182.3,4.5,181.9,5.7,181.2,7.5z"/>
	<path d="M192.9,5.8c-1.3,1.5-2,2.4-2.3,2.7c-0.8,1.1-1.4,2.1-1.8,3.1c-0.3,0.8-0.9,1.5-1.6,1.9c-0.8,0.5-1.6,0.7-2.5,0.7
		c-1.4,0-2.2-0.5-2.2-1.6c0-0.7,0.4-1.6,1.1-2.5c0.6-0.7,1.3-1.4,1.9-2.2c0.5-0.7,0.8-1.5,1.1-2.6c0.6-2.4,2.2-3.6,4.6-3.6
		c1.7,0,2.6,0.6,2.6,1.8C193.9,4.4,193.5,5.1,192.9,5.8z"/>
	<path d="M230,13.1c-0.6,0-1.2-0.2-1.7-0.5c-0.5-0.4-0.8-0.9-0.8-1.5c0-0.2,0.1-0.5,0.2-0.9c0.1-0.4,0.2-0.7,0.2-0.9
		c-0.8-0.6-1.8-1-3-1c-3.1,0-6,1.4-8.9,4.3c-2.9,2.9-4.3,5.9-4.3,8.9c0,1.4,0.4,2.6,1.2,3.4c0.8,0.9,1.9,1.3,3.3,1.3
		c1,0,2-0.2,3.2-0.6c1.1-0.4,2.1-0.9,2.9-1.5c0.5-0.4,1.2-1,2.2-1.8c0.9-0.7,1.7-1,2.6-1c0.6,0,1,0.2,1.4,0.7
		c0.4,0.4,0.6,0.9,0.6,1.5c0,0.8-0.7,1.8-2.2,3.2c-3.7,3.4-7.4,5.2-11,5.2c-3.5,0-5.9-1.5-7.4-4.5c-0.7-1.5-1.1-3.2-1.1-5
		c0-1.4,0.2-2.8,0.6-4.2c1-3.9,3.1-7.4,6.2-10.5c3.5-3.5,7.1-5.2,10.9-5.2c1.8,0,3.3,0.4,4.5,1.2c1.1,0.7,2.1,1.9,3.1,3.5
		c0.4,0.7,0.6,1.3,0.6,2c0,1-0.4,1.8-1.1,2.6S231,13.1,230,13.1z"/>
	<path d="M251.3,31c-0.8,0.9-1.6,1.4-2.4,1.4c-1.1,0-1.7-0.7-1.8-2.1c0.1-1.8,0.1-3.2,0.2-4.4l-10.6,0.9l-1.8,3
		c-0.9,1.2-2.1,1.8-3.5,1.8c-0.6,0-1.1-0.2-1.5-0.6c-0.4-0.4-0.6-0.9-0.6-1.5s1.4-2.9,4.2-6.8c1.6-2.2,3.3-4.4,4.9-6.7
		c3.6-5.3,5.7-8.6,6.2-9.9c0.6-1.4,1.2-2.5,1.9-3.2c0.9-0.9,2-1.3,3.3-1.3c1.3,0,2,0.8,2,2.5c0,0.6-0.1,1.6-0.2,2.9
		c-0.1,1.3-0.2,2.4-0.2,3.1c0,4.1,0.1,8.3,0.4,12.4c0.1,0.8,0.2,1.8,0.4,3c0.3,0.7,0.4,1.4,0.4,2C252.6,28.8,252.2,29.9,251.3,31z
		 M246.9,11.3c-1.9,2.7-4.2,6-6.9,10.1l7.3-0.5C247.2,17.1,247,13.9,246.9,11.3z"/>
	<path d="M269.4,21.4c0.7,0.4,1.5,0.9,2.5,1.5c1,0.6,1.8,1,2.6,1.1c1.3,0.3,2,1.1,2,2.5c0,1-0.4,2-1.1,3c-0.8,1.1-1.7,1.7-2.6,1.7
		c-0.7,0-1.4-0.4-2.1-1.3c-1.7-2-4.6-4.1-8.6-6.5c-0.2,0.6-0.4,1.6-0.7,3c-0.3,1.3-0.5,2.2-0.8,2.9c-0.3,0.8-0.9,1.5-1.7,2.1
		c-0.8,0.6-1.6,0.8-2.5,0.8c-1.3,0-2-0.6-2-1.8c0-0.6,0.3-1.5,1-2.7c0.5-0.9,1-2.3,1.7-4.1c2.1-5.8,3.6-10.5,4.4-14
		c0.1-1,0.2-2,0.5-3.1c0.2-0.9,0.8-1.8,1.7-2.6c0.9-0.8,1.9-1.1,2.9-1.1c0.2,0,0.4,0,0.5,0.1c2.4-0.6,4.5-1,6.3-1
		c2.3,0,4.4,0.6,6.2,1.8c2,1.3,3,3.1,3,5.4c0,3-1.5,5.8-4.5,8.2C275.7,19.1,272.8,20.5,269.4,21.4z M267.4,8c-0.9,2.4-2,5.3-3.1,8.7
		c3.6-0.1,6.8-1,9.6-2.6c2.6-1.4,3.9-2.9,3.9-4.2c0-1.6-1.8-2.3-5.3-2.3C271.1,7.5,269.4,7.7,267.4,8z"/>
	<path d="M312.5,7.5l-1.1,2.8c-2.4,6.6-4,11.6-4.9,15.1c-0.1,0.6-0.3,1.6-0.6,2.8c-0.2,0.9-0.8,1.8-1.6,2.5
		c-0.8,0.7-1.7,1.1-2.6,1.1c-1.2,0-1.9-0.6-1.9-1.9c0-0.3,0.1-0.6,0.2-1c-2.8-6.9-5.7-12.3-8.8-16.3c-2.1,5.8-3.5,9.9-4.1,12.4
		c-0.1,0.7-0.3,1.8-0.6,3.2c-0.2,1-0.8,1.9-1.6,2.6c-0.9,0.8-1.8,1.1-2.8,1.1c-1.3,0-2-0.7-2-2c0-0.6,0.3-1.5,1-2.6
		c0.4-0.7,1.2-2.9,2.5-6.5c1.7-4.8,2.8-8.4,3.5-10.8c0.3-1.1,0.4-1.8,0.4-2.2c0.1-1.7,0.7-3.1,2-4.2c1-0.8,1.9-1.2,2.9-1.2
		c1.1,0,1.8,0.6,1.8,1.8c3.7,5.5,6.7,11.2,9,16.9c1.6-4.6,2.8-8.4,3.6-11.4c0.3-1.1,0.4-1.8,0.4-2.1c0-1,0.2-1.8,0.4-2.4
		c0.2-0.6,0.7-1.2,1.4-1.8c0.9-0.8,1.8-1.2,2.7-1.2c1.3,0,1.9,0.6,1.9,1.7C313.7,4.5,313.3,5.7,312.5,7.5z"/>
	<path d="M333.4,7.9c-0.4,0-0.9,0-1.6-0.1s-1.2-0.1-1.6-0.1c-0.8,0-3.4,0.2-8,0.7c-0.7,1.7-1.4,3.6-2.1,5.7l5.5-0.3
		c2-0.1,3.8-0.4,5.4-0.9c0.6-0.1,1-0.2,1.3-0.2c0.9,0,1.5,0.3,2.1,0.9c0.5,0.6,0.8,1.3,0.8,2.2c0,1-0.3,1.8-1,2.4
		c-0.7,0.6-1.5,0.9-2.6,0.9c-0.4,0-0.9,0-1.7-0.1c-0.7-0.1-1.3-0.1-1.7-0.1c-1.1,0-4.5,0.3-10.1,0.8c-1.1,3.1-1.8,5.4-2.1,7l5.7-0.3
		c2.2-0.2,4.1-0.5,5.6-0.9c0.6-0.1,1-0.2,1.2-0.2c0.8,0,1.4,0.3,1.9,0.9c0.5,0.6,0.8,1.3,0.8,2c0,0.3,0,0.5-0.1,0.7
		c-0.4,1.6-1.5,2.4-3.3,2.4c-0.4,0-1.1,0-1.9-0.1s-1.5-0.1-1.9-0.1c-2.2,0-5.8,0.3-10.8,0.8c-0.7,0.4-1.3,0.6-1.9,0.6
		c-1.4,0-2.1-0.6-2.1-1.8c0-0.7,0.3-1.6,1-2.9c0.4-0.8,1-2.1,1.7-4.1c1.9-5.3,3.3-9.7,4.2-13.1c0.3-1.1,0.5-1.9,0.5-2.3
		c0-1,0.2-1.8,0.5-2.4c0.3-0.6,0.8-1.2,1.5-1.8c0.9-0.7,1.9-1.1,2.9-1.1c0.4,0,0.7,0.1,1,0.2l5.1-0.3c2-0.2,3.7-0.4,5-0.8
		c0.5-0.1,0.9-0.2,1.2-0.2c0.8,0,1.5,0.3,2,0.8c0.5,0.6,0.8,1.2,0.8,2c0,1-0.3,1.7-0.9,2.3C335.1,7.6,334.3,7.9,333.4,7.9z"/>
	<path d="M356.8,12.4c-2.1,2.2-4.7,5.2-8,9c-0.5,1.6-1,3.3-1.4,5.1c-0.1,0.6-0.3,1.3-0.6,2.2c-0.3,0.7-0.7,1.3-1.4,1.9
		c-0.9,0.7-1.8,1.1-2.8,1.1c-0.6,0-1.1-0.2-1.4-0.5c-0.4-0.4-0.5-0.8-0.5-1.4c0-0.6,0.3-1.5,0.9-2.7c0.6-1.1,1.3-2.9,2.2-5.4
		c-2-6.6-3.5-10.7-4.6-12.2c-0.6-0.9-1-1.7-1-2.6c0-1.1,0.5-2.1,1.5-3.1c0.7-0.6,1.5-1,2.5-1c1.4,0,2.3,0.9,2.6,2.6
		c0.4,1.9,1.4,5.3,3,10l3.7-4.2c2.1-2.4,3.4-4,3.8-4.7c1.5-2.7,3.5-4,6-4c0.6,0,1.1,0.2,1.5,0.5c0.4,0.3,0.7,0.8,0.7,1.3
		c0,0.7-1,2.1-3,4.2C359.3,9.8,358.1,11.1,356.8,12.4z"/>
</g>
<g>
	<path d="M85,52.7c-0.2,0-0.5,0-0.9-0.1c-0.4-0.1-0.7-0.1-0.9-0.1c-0.5,0-2.1,0.1-4.9,0.4c-0.4,0.9-0.9,2.3-1.5,4.3
		c1.8-0.1,2.9-0.1,3.3-0.2c1.2-0.1,2.3-0.3,3.3-0.5c0.3-0.1,0.6-0.1,0.8-0.1c0.5,0,0.9,0.2,1.3,0.5c0.3,0.4,0.5,0.8,0.5,1.3
		c0,0.6-0.2,1.1-0.6,1.4c-0.4,0.4-0.9,0.5-1.5,0.5c-0.2,0-0.6,0-1-0.1c-0.4,0-0.8-0.1-1-0.1c-0.8,0-2.8,0.2-6.1,0.5l-0.6,2
		c-0.1,0.2-0.2,0.7-0.4,1.7c-0.1,0.7-0.3,1.2-0.5,1.6c-0.2,0.3-0.4,0.7-0.8,1c-0.5,0.4-1.1,0.6-1.6,0.6c-0.8,0-1.2-0.4-1.2-1.2
		c0-0.3,0.3-1.1,0.8-2.3c0.6-1.5,1-2.2,1-2.4c0.2-0.7,0.6-1.8,1-3.2c0.3-1.1,0.6-2,0.8-2.7c0.5-1.6,0.7-2.5,0.7-2.8
		c0-1.1,0.4-2,1.2-2.6c0.6-0.4,1.1-0.7,1.8-0.7c0.2,0,0.4,0.1,0.6,0.2l3.1-0.2c1.2-0.1,2.2-0.3,3-0.5c0.3-0.1,0.6-0.2,0.8-0.2
		c0.5,0,0.9,0.2,1.1,0.5c0.3,0.3,0.4,0.8,0.4,1.2c0,0.6-0.2,1-0.6,1.4C86.1,52.6,85.6,52.7,85,52.7z"/>
	<path d="M94.1,61c0.4,0.3,0.9,0.6,1.5,0.9s1.1,0.6,1.6,0.7c0.8,0.2,1.2,0.7,1.2,1.5c0,0.6-0.2,1.2-0.7,1.8c-0.5,0.7-1,1-1.6,1
		c-0.4,0-0.8-0.3-1.2-0.8c-1-1.2-2.7-2.5-5.2-3.9c-0.1,0.3-0.3,0.9-0.4,1.8c-0.2,0.8-0.3,1.3-0.5,1.7c-0.2,0.5-0.5,0.9-1,1.3
		c-0.5,0.3-1,0.5-1.5,0.5c-0.8,0-1.2-0.4-1.2-1.1c0-0.4,0.2-0.9,0.6-1.6c0.3-0.5,0.6-1.4,1-2.5c1.2-3.5,2.1-6.3,2.7-8.4
		c0.1-0.6,0.1-1.2,0.3-1.9c0.1-0.6,0.5-1.1,1-1.5c0.6-0.5,1.1-0.7,1.7-0.7c0.1,0,0.2,0,0.3,0c1.4-0.4,2.7-0.6,3.7-0.6
		c1.4,0,2.6,0.4,3.7,1.1c1.2,0.8,1.8,1.9,1.8,3.2c0,1.8-0.9,3.5-2.7,4.9C97.8,59.6,96.1,60.5,94.1,61z M92.9,53
		c-0.6,1.4-1.2,3.1-1.9,5.2c2.1-0.1,4.1-0.6,5.8-1.5c1.6-0.9,2.4-1.7,2.4-2.5c0-0.9-1.1-1.4-3.2-1.4C95.1,52.7,94.1,52.8,92.9,53z"
		/>
	<path d="M109,52c-0.8,1.7-1.6,3.7-2.4,6c-0.9,2.7-1.5,4.7-1.8,6.2c-0.1,0.6-0.2,1.1-0.3,1.4c-0.2,0.5-0.5,0.9-1,1.2
		c-0.5,0.4-1,0.5-1.5,0.5c-0.4,0-0.6-0.1-0.9-0.3s-0.3-0.5-0.3-0.8c0,0,0.4-1.1,1.3-3.2c0.9-2.2,1.3-3.3,1.4-3.4
		c0.2-0.7,0.6-2.1,1-4.1c0.4-1.8,0.8-3.2,1.1-4c0.2-0.4,0.5-0.7,0.9-1.1c0.6-0.5,1.1-0.7,1.7-0.7c0.8,0,1.1,0.4,1.1,1.1
		C109.3,51,109.2,51.5,109,52z"/>
	<path d="M122.5,52.9c-0.2,0-0.5,0-0.9-0.1c-0.4,0-0.7-0.1-0.9-0.1c-0.5,0-2.1,0.1-4.8,0.4c-0.4,1-0.8,2.1-1.2,3.4l3.3-0.2
		c1.2-0.1,2.3-0.3,3.3-0.5c0.3-0.1,0.6-0.1,0.8-0.1c0.5,0,0.9,0.2,1.2,0.5c0.3,0.4,0.5,0.8,0.5,1.3c0,0.6-0.2,1.1-0.6,1.4
		c-0.4,0.4-0.9,0.5-1.5,0.5c-0.2,0-0.6,0-1-0.1c-0.4,0-0.8-0.1-1-0.1c-0.7,0-2.7,0.2-6,0.5c-0.6,1.8-1.1,3.3-1.3,4.2l3.4-0.2
		c1.3-0.1,2.5-0.3,3.3-0.5c0.3-0.1,0.6-0.1,0.7-0.1c0.5,0,0.8,0.2,1.2,0.5c0.3,0.4,0.5,0.8,0.5,1.2c0,0.2,0,0.3-0.1,0.4
		c-0.3,1-0.9,1.4-2,1.4c-0.3,0-0.6,0-1.1-0.1c-0.5-0.1-0.9-0.1-1.1-0.1c-1.3,0-3.5,0.2-6.5,0.5c-0.4,0.2-0.8,0.4-1.2,0.4
		c-0.9,0-1.3-0.4-1.3-1.1c0-0.4,0.2-1,0.6-1.7c0.2-0.5,0.6-1.3,1-2.4c1.1-3.2,2-5.8,2.5-7.9c0.2-0.7,0.3-1.1,0.3-1.4
		c0-0.6,0.1-1.1,0.3-1.5s0.5-0.7,0.9-1.1c0.6-0.4,1.1-0.7,1.7-0.7c0.2,0,0.4,0,0.6,0.1l3.1-0.2c1.2-0.1,2.2-0.3,3-0.5
		c0.3-0.1,0.6-0.1,0.7-0.1c0.5,0,0.9,0.2,1.2,0.5c0.3,0.3,0.4,0.7,0.4,1.2c0,0.6-0.2,1-0.6,1.4S123.1,52.9,122.5,52.9z"/>
	<path d="M142.6,52.7l-0.7,1.7c-1.4,3.9-2.4,7-2.9,9c-0.1,0.4-0.2,0.9-0.4,1.7c-0.1,0.6-0.5,1.1-1,1.5s-1,0.7-1.6,0.7
		c-0.7,0-1.1-0.4-1.1-1.1c0-0.2,0-0.4,0.1-0.6c-1.7-4.1-3.4-7.4-5.3-9.8c-1.3,3.5-2.1,6-2.4,7.4c-0.1,0.4-0.2,1.1-0.4,1.9
		c-0.1,0.6-0.5,1.1-1,1.6c-0.5,0.5-1.1,0.7-1.7,0.7c-0.8,0-1.2-0.4-1.2-1.2c0-0.3,0.2-0.9,0.6-1.6c0.2-0.4,0.7-1.7,1.5-3.9
		c1-2.9,1.7-5,2.1-6.5c0.2-0.6,0.3-1.1,0.3-1.3c0-1,0.4-1.9,1.2-2.5c0.6-0.5,1.2-0.7,1.7-0.7c0.7,0,1.1,0.4,1.1,1.1
		c2.2,3.3,4,6.7,5.4,10.1c1-2.7,1.7-5,2.2-6.9c0.2-0.6,0.3-1.1,0.3-1.2c0-0.6,0.1-1.1,0.3-1.4s0.4-0.7,0.9-1.1
		c0.5-0.5,1.1-0.7,1.6-0.7c0.8,0,1.2,0.3,1.2,1C143.3,50.9,143.1,51.6,142.6,52.7z"/>
	<path d="M156.4,60.5c-3.1,3.9-6.9,6.1-11.2,6.7c-0.6,0-1.2,0.1-2,0.1l-0.6,0.1c-0.8,0-1.1-0.3-1.1-1c0-0.2,0.3-1.2,1-2.7
		c0.4-0.9,0.7-1.9,1.1-2.8c0.9-2.4,1.5-4.5,2-6.3c0.2-0.7,0.3-1.2,0.3-1.5c0.1-1.1,0.5-2,1.3-2.6c0.6-0.5,1.2-0.7,1.8-0.7
		c0.3,0,0.5,0.1,0.7,0.3c1.4-0.3,2.7-0.4,3.8-0.4c2.2,0,3.7,0.6,4.5,1.7c0.7,1,1.1,2,1.1,3.2C159,56.3,158.1,58.3,156.4,60.5z
		 M152.1,53.3c-0.9,0-1.9,0.1-3.1,0.2c-1.6,4.1-2.7,7.5-3.3,10.1c1.5-0.1,3-0.6,4.5-1.5c1.4-0.8,2.7-1.7,3.8-2.9
		c1.3-1.3,2-2.5,2-3.6C156.1,54.1,154.8,53.3,152.1,53.3z"/>
	<path d="M172.1,53.9c-0.4,0-0.8-0.2-1.3-0.6c-0.5-0.4-0.9-0.6-1.2-0.6c-0.7,0-1.6,0.1-2.8,0.4c-1.4,0.3-2.2,0.7-2.3,1.1
		c-0.1,0.4,0.4,0.8,1.5,1.1c4.8,1.5,7.2,3.3,7.2,5.5c0,0.3,0,0.5-0.1,0.8c-0.5,1.8-2,3.3-4.4,4.5c-2.1,1-4.2,1.5-6.3,1.5
		c-1,0-1.9-0.1-2.6-0.4c-1-0.4-1.5-0.9-1.5-1.8c0-0.2,0-0.4,0.1-0.6c0.1-0.5,0.4-0.9,0.8-1.2c0.4-0.3,0.9-0.4,1.4-0.4
		c0.3,0,0.6,0.1,0.9,0.2c0.5,0.3,0.9,0.5,1.1,0.6c0.2,0.1,0.6,0.1,1.2,0.1c1.1,0,2.2-0.2,3.3-0.5c1.5-0.4,2.4-1,2.6-1.8
		c0-0.1,0-0.2,0-0.4c0-0.5-0.9-1.1-2.7-1.8c-0.7-0.2-2-0.7-3.9-1.3c-1.9-0.6-2.9-1.6-2.9-2.7c0-0.2,0-0.5,0.1-0.7
		c0.2-0.9,0.7-1.7,1.4-2.4c0.6-0.7,1.4-1.2,2.3-1.6c3.3-1.3,6-2,8.3-2c0.6,0,1.1,0.2,1.5,0.6s0.6,0.9,0.6,1.5c0,0.8-0.3,1.5-1,2
		C173.1,53.7,172.6,53.9,172.1,53.9z"/>
	<path d="M197.4,52.7c-0.2,0-0.5,0-0.9-0.1c-0.4-0.1-0.7-0.1-0.9-0.1c-0.5,0-2.1,0.1-4.9,0.4c-0.4,0.9-0.9,2.3-1.5,4.3
		c1.8-0.1,2.9-0.1,3.3-0.2c1.2-0.1,2.3-0.3,3.3-0.5c0.3-0.1,0.6-0.1,0.8-0.1c0.5,0,0.9,0.2,1.3,0.5c0.3,0.4,0.5,0.8,0.5,1.3
		c0,0.6-0.2,1.1-0.6,1.4c-0.4,0.4-0.9,0.5-1.5,0.5c-0.2,0-0.6,0-1-0.1c-0.4,0-0.8-0.1-1-0.1c-0.8,0-2.8,0.2-6.1,0.5l-0.6,2
		c-0.1,0.2-0.2,0.7-0.4,1.7c-0.1,0.7-0.3,1.2-0.5,1.6c-0.2,0.3-0.4,0.7-0.8,1c-0.5,0.4-1.1,0.6-1.6,0.6c-0.8,0-1.2-0.4-1.2-1.2
		c0-0.3,0.3-1.1,0.8-2.3c0.6-1.5,1-2.2,1-2.4c0.2-0.7,0.6-1.8,1-3.2c0.3-1.1,0.6-2,0.8-2.7c0.5-1.6,0.7-2.5,0.7-2.8
		c0-1.1,0.4-2,1.2-2.6c0.6-0.4,1.1-0.7,1.8-0.7c0.2,0,0.4,0.1,0.6,0.2l3.1-0.2c1.2-0.1,2.2-0.3,3-0.5c0.3-0.1,0.6-0.2,0.8-0.2
		c0.5,0,0.9,0.2,1.1,0.5c0.3,0.3,0.4,0.8,0.4,1.2c0,0.6-0.2,1-0.6,1.4C198.5,52.6,198,52.7,197.4,52.7z"/>
	<path d="M211.7,64.3c-2.3,2.1-4.7,3.1-7.3,3.1c-2.1,0-3.7-0.8-4.7-2.5c-0.6-1-0.8-2-0.8-3.2c0-0.7,0.1-1.5,0.3-2.4
		c0.7-2.6,2.1-4.9,4.3-6.8c2.3-2.1,4.7-3.1,7.3-3.1c2.1,0,3.7,0.8,4.7,2.5c0.6,1,0.8,2,0.8,3.3c0,0.8-0.1,1.5-0.3,2.3
		C215.3,60,213.9,62.3,211.7,64.3z M210.5,53c-1.8,0-3.6,0.7-5.3,2.1c-1.7,1.4-2.9,3-3.3,4.8c-0.1,0.5-0.2,0.9-0.2,1.3
		c0,0.9,0.3,1.6,0.8,2.1c0.5,0.5,1.3,0.8,2.2,0.8c1.8,0,3.6-0.7,5.4-2.2c1.7-1.4,2.8-3,3.3-4.8c0.1-0.5,0.2-0.9,0.2-1.3
		c0-0.6-0.1-1-0.3-1.5C212.6,53.4,211.7,53,210.5,53z"/>
	<path d="M224.9,61c0.4,0.3,0.9,0.6,1.5,0.9s1.1,0.6,1.6,0.7c0.8,0.2,1.2,0.7,1.2,1.5c0,0.6-0.2,1.2-0.7,1.8c-0.5,0.7-1,1-1.6,1
		c-0.4,0-0.8-0.3-1.2-0.8c-1-1.2-2.7-2.5-5.2-3.9c-0.1,0.3-0.3,0.9-0.4,1.8c-0.2,0.8-0.3,1.3-0.5,1.7c-0.2,0.5-0.5,0.9-1,1.3
		c-0.5,0.3-1,0.5-1.5,0.5c-0.8,0-1.2-0.4-1.2-1.1c0-0.4,0.2-0.9,0.6-1.6c0.3-0.5,0.6-1.4,1-2.5c1.2-3.5,2.1-6.3,2.7-8.4
		c0.1-0.6,0.1-1.2,0.3-1.9c0.1-0.6,0.5-1.1,1-1.5c0.6-0.5,1.1-0.7,1.7-0.7c0.1,0,0.2,0,0.3,0c1.4-0.4,2.7-0.6,3.7-0.6
		c1.4,0,2.6,0.4,3.7,1.1c1.2,0.8,1.8,1.9,1.8,3.2c0,1.8-0.9,3.5-2.7,4.9C228.6,59.6,226.9,60.5,224.9,61z M223.7,53
		c-0.6,1.4-1.2,3.1-1.9,5.2c2.1-0.1,4.1-0.6,5.8-1.5c1.6-0.9,2.4-1.7,2.4-2.5c0-0.9-1.1-1.4-3.2-1.4C225.9,52.7,224.9,52.8,223.7,53
		z"/>
	<path d="M251.8,66.7c-0.3,0-0.6,0-1.2-0.1c-0.5-0.1-0.9-0.1-1.2-0.1c-1.1,0-3.3,0.2-6.4,0.5c-0.4,0.2-0.8,0.3-1.1,0.3
		c-0.8,0-1.3-0.4-1.3-1.1c0-0.4,0.2-0.9,0.6-1.7c1.1-2,2.3-5.5,3.6-10.4c0.2-0.7,0.3-1.1,0.3-1.3c0-1,0.4-1.9,1.1-2.5
		c0.5-0.5,1.1-0.7,1.6-0.7c0.8,0,1.2,0.4,1.2,1.1c0,0.3-0.1,0.8-0.4,1.3c-0.5,1.2-1.3,3.1-2.2,5.8c-0.8,2.4-1.3,4.1-1.6,5
		c-0.1,0.5-0.2,0.8-0.3,1.1c0.9,0,1.9-0.1,3.2-0.1c1.6-0.1,2.7-0.2,3.5-0.4c0.3-0.1,0.6-0.1,0.8-0.1c0.4,0,0.8,0.2,1.1,0.5
		s0.5,0.7,0.5,1.2c0,0.1,0,0.3-0.1,0.4C253.4,66.2,252.8,66.7,251.8,66.7z"/>
	<path d="M263,52c-0.8,1.7-1.6,3.7-2.4,6c-0.9,2.7-1.5,4.7-1.8,6.2c-0.1,0.6-0.2,1.1-0.3,1.4c-0.2,0.5-0.5,0.9-1,1.2
		c-0.5,0.4-1,0.5-1.5,0.5c-0.4,0-0.6-0.1-0.9-0.3s-0.3-0.5-0.3-0.8c0,0,0.4-1.1,1.3-3.2c0.9-2.2,1.3-3.3,1.4-3.4
		c0.2-0.7,0.6-2.1,1-4.1c0.4-1.8,0.8-3.2,1.1-4c0.2-0.4,0.5-0.7,0.9-1.1c0.6-0.5,1.1-0.7,1.7-0.7c0.8,0,1.1,0.4,1.1,1.1
		C263.3,51,263.2,51.5,263,52z"/>
	<path d="M276.5,52.7c-0.2,0-0.5,0-0.9-0.1c-0.4-0.1-0.7-0.1-0.9-0.1c-0.5,0-2.1,0.1-4.9,0.4c-0.4,0.9-0.9,2.3-1.5,4.3
		c1.8-0.1,2.9-0.1,3.3-0.2c1.2-0.1,2.3-0.3,3.3-0.5c0.3-0.1,0.6-0.1,0.8-0.1c0.5,0,0.9,0.2,1.3,0.5c0.3,0.4,0.5,0.8,0.5,1.3
		c0,0.6-0.2,1.1-0.6,1.4c-0.4,0.4-0.9,0.5-1.5,0.5c-0.2,0-0.6,0-1-0.1c-0.4,0-0.8-0.1-1-0.1c-0.8,0-2.8,0.2-6.1,0.5l-0.6,2
		c-0.1,0.2-0.2,0.7-0.4,1.7c-0.1,0.7-0.3,1.2-0.5,1.6c-0.2,0.3-0.4,0.7-0.8,1c-0.5,0.4-1.1,0.6-1.6,0.6c-0.8,0-1.2-0.4-1.2-1.2
		c0-0.3,0.3-1.1,0.8-2.3c0.6-1.5,1-2.2,1-2.4c0.2-0.7,0.6-1.8,1-3.2c0.3-1.1,0.6-2,0.8-2.7c0.5-1.6,0.7-2.5,0.7-2.8
		c0-1.1,0.4-2,1.2-2.6c0.6-0.4,1.1-0.7,1.8-0.7c0.2,0,0.4,0.1,0.6,0.2l3.1-0.2c1.2-0.1,2.2-0.3,3-0.5c0.3-0.1,0.6-0.2,0.8-0.2
		c0.5,0,0.9,0.2,1.1,0.5c0.3,0.3,0.4,0.8,0.4,1.2c0,0.6-0.2,1-0.6,1.4C277.5,52.6,277,52.7,276.5,52.7z"/>
	<path d="M291,52.9c-0.2,0-0.5,0-0.9-0.1c-0.4,0-0.7-0.1-0.9-0.1c-0.5,0-2.1,0.1-4.8,0.4c-0.4,1-0.8,2.1-1.2,3.4l3.3-0.2
		c1.2-0.1,2.3-0.3,3.3-0.5c0.3-0.1,0.6-0.1,0.8-0.1c0.5,0,0.9,0.2,1.2,0.5c0.3,0.4,0.5,0.8,0.5,1.3c0,0.6-0.2,1.1-0.6,1.4
		c-0.4,0.4-0.9,0.5-1.5,0.5c-0.2,0-0.6,0-1-0.1c-0.4,0-0.8-0.1-1-0.1c-0.7,0-2.7,0.2-6,0.5c-0.6,1.8-1.1,3.3-1.3,4.2l3.4-0.2
		c1.3-0.1,2.5-0.3,3.3-0.5c0.3-0.1,0.6-0.1,0.7-0.1c0.5,0,0.8,0.2,1.2,0.5c0.3,0.4,0.5,0.8,0.5,1.2c0,0.2,0,0.3-0.1,0.4
		c-0.3,1-0.9,1.4-2,1.4c-0.3,0-0.6,0-1.1-0.1c-0.5-0.1-0.9-0.1-1.1-0.1c-1.3,0-3.5,0.2-6.5,0.5c-0.4,0.2-0.8,0.4-1.2,0.4
		c-0.9,0-1.3-0.4-1.3-1.1c0-0.4,0.2-1,0.6-1.7c0.2-0.5,0.6-1.3,1-2.4c1.1-3.2,2-5.8,2.5-7.9c0.2-0.7,0.3-1.1,0.3-1.4
		c0-0.6,0.1-1.1,0.3-1.5s0.5-0.7,0.9-1.1c0.6-0.4,1.1-0.7,1.7-0.7c0.2,0,0.4,0,0.6,0.1l3.1-0.2c1.2-0.1,2.2-0.3,3-0.5
		c0.3-0.1,0.6-0.1,0.7-0.1c0.5,0,0.9,0.2,1.2,0.5c0.3,0.3,0.4,0.7,0.4,1.2c0,0.6-0.2,1-0.6,1.4S291.6,52.9,291,52.9z"/>
</g>
</svg>
