<?xml version="1.0" encoding="utf-8"?>
<svg version="1.2" baseProfile="tiny" id="Layer_1" xmlns="http://www.w3.org/2000/svg" xmlns:xlink="http://www.w3.org/1999/xlink"
	 x="0px" y="0px" viewBox="0 0 468.7 279.7" fill="#ffffcc">
<path d="M125.2,114.2c-6.9-21-4.9-40.6,4.7-59.6c4.8-9.5,11.8-16.9,20.5-22.7c7.7-5.1,16.4-4.8,22.2,0.5c3.8,3.4,4,5.5,0,8.3
	c-3.5,2.4-7.7,5.2-11.5,5.2c-10.2,0-17,5.5-23,12.3c-13.1,14.7-16.9,31.6-11,50.6c0.2,0.8,0.7,1.5,1.1,2.2c0.2,0.4,0.6,0.8,1.1,1.5
	c10.4-3.1,18-9.5,23.1-19c1.4-2.6,2.8-5.3,4.7-7.6c3.4-4.1,8.4-5.9,13-4.1c2.5,1,4.6,5.1,5.4,8.2c1.2,4.9-2.3,8.3-6.2,10.4
	c-9.8,5.3-19.8,10.2-29.7,15.3c-1.9,1-3.9,1.8-5.8,2.7c4.3,10.4,14.7,17.3,26.6,16.5c14.2-1,26.9-5.8,36.1-17.8
	c-17.5-22.8-12.1-45,1.5-66.9c7-11.3,15.7-20.7,29.1-24.4c11.5-3.1,19,0.2,24.6,10.5c2.9,5.5,0.3,10.5-5.8,10.2
	c-5.7-0.3-11.6-1.2-17-2.8c-9.2-2.7-17.3-1.8-23.7,5.6c-8.7,10.1-13.9,21.9-15.6,35.1c-1.5,11.2,5,19.9,9.3,30
	c8.8-7.3,13.5-15.9,15.6-26.2c0.4-1.8,0.8-3.6,0.8-5.4c0-4.4,1.9-6.9,6.5-7c4.9,0,8.1,2.5,8.5,7.3c0.5,6.8-1.6,12.9-6.3,17.8
	c-5.8,6.2-11.7,12.2-17.6,18.3c8.4,6.5,17.6,6.5,24.6-1.6c4.7-5.4,7.5-12.4,11.5-18.5c1.4-2.1,3.3-4.5,5.5-5.4
	c3.1-1.3,5.1,1.4,6.6,3.9c3.9,6.3,3.6,12.3-1.7,17.8c-12.8,13.2-28.8,18.4-46.6,8.8c-3.5-1.9-5.7-1.6-8.8,0.7
	c-15,10.8-31.8,14.1-49.8,10.6c-7.2-1.4-12.9-5.5-16.7-11.7c-1.6-2.6-3.2-3.7-6.3-3.6c-13.3,0.5-24.2-4.8-33.3-14.4
	c-5-5.3-10.3-10.4-15.4-15.7c-2-2.2-3.9-3.4-6.9-1.8c-1,0.5-2.3,0.9-3.4,0.7c-6.8-1.2-9.3,3.4-12.3,8.3
	c-10.2,17.2-20.7,34.2-31.3,51.1c-4.6,7.3-9.6,8.9-16.4,5.8c-5.4-2.5-7.3-7.3-4-12.2c2.1-3,5.1-5.9,8.4-7.4
	c20.1-8.8,33.5-24.1,43.8-42.8c1.2-2.2,1.1-3.6-0.4-5.7c-4.9-6.6-2.5-12.3,5.8-13.4c3.1-0.4,4.2-1.8,5.1-4.4
	C68,56.8,67.5,45.8,61.8,35c-2-3.7-4.4-4.7-8.1-3.2c-2.9,1.2-5.7,2.5-8.6,3.9c-5.8,2.8-11.5,6-17.5,8.6c-4.9,2.1-6,1.1-5.5-4.1
	c1-10.6,9.3-18.8,21.1-20.8c10.8-1.8,20.6,3.1,25,13c4.6,10.3,2.7,20.9,0.7,31.4c-0.2,1.1-0.8,2.2-0.9,3.4c-0.2,2.2-1.1,5.4,0,6.5
	c2.7,2.8,5.8,4.6,10.5,2.2c16.6-8.5,29.8-20.3,36.9-37.7c2.2-5.4,2.5-11.6,3.3-17.5c0.9-6.4,0.4-13.3,5.8-18c2.1-1.8,6-3.2,8.4-2.5
	c2,0.6,3.7,4.5,4.1,7.2c0.4,3.3,0.2,7.3-1.3,10.2c-3.5,6.7-7.5,13.3-12.1,19.3c-6.5,8.4-13.6,16.4-20.7,24.4
	c-7.1,8-14.4,15.8-22.3,24.4c6.4,10,14.6,21,26.9,28C113.1,116.8,119.1,116.4,125.2,114.2z"/>
<path d="M337.8,29.6c6.8,3.5,13.7,6.5,19.9,10.5c8.4,5.3,12.7,13,10.6,23.4c-1,4.7-2.5,5.9-6.3,3.3c-4.1-2.9-7.9-6.6-10.6-10.7
	c-5.1-7.8-10.8-14.7-20.1-18.9c-7.8,14.8-11.3,29.7-4.1,45.4c6.3,13.8,18.3,19,32.6,18.6c4.5-0.1,9-2.8,13.3-4.7
	c2.2-1,3.8-3.6,6.1-4.2c2.7-0.8,6.6-1.3,8.6,0.1c2.9,2,4.1,5.9,2.3,9.8c-3.2,7.1-8.9,10.7-16.4,11.4c-32.8,3-58.7-25.4-52.9-58.1
	c0.6-3.4,1.4-6.8,2.5-10.2c1-3.2,2.5-6.2,3.8-9.2c-9.8-8.4-33.3-8.5-42.6-0.1c-8.4,7.5-7.9,24,1.1,30.7c2.6,2,5.7,3.3,8.8,4.7
	c11.9,5.1,20.1,13.4,23.4,26.1c1.7,6.5,0.1,12.2-4.5,17c-9.3,9.9-23.4,12.9-35.8,7.7c-7.5-3.1-11.2-10.7-8.8-17.8
	c2.1-6.1,6.4-7.7,11.6-3.9c4.7,3.4,9.3,7.1,13.4,11.2c3.9,3.8,8,3.5,12.4,2.2c4.6-1.4,7.1-4.7,7.7-9.4c1.7-12-5.3-22.9-17.1-26.5
	c-1.6-0.5-3.2-0.8-4.8-1.2c-13-3.5-19.7-12.2-18.9-24.5c0.9-14.5,10.4-27,22.9-27.4c10.2-0.3,20.4,1.8,30.6,3.4
	c3.7,0.6,6,0.2,8.5-2.9c6.5-8.1,14.6-13,25.7-10.8c7,1.4,14.2,2,20.9,4.2c8.3,2.8,11.1,12.7,6.7,20.3c-1.9,3.3-3.9,2.3-5.8-0.1
	c-3.6-4.6-7.1-9.2-10.9-13.7c-1.1-1.3-2.8-2.3-4.4-2.8C354.5,18.6,345.3,21,337.8,29.6z"/>
<path d="M216.5,179.2c-4.9,5.1-8.9,9.3-8.5,16.7c0.2,4.2-2.2,9-4.6,12.7c-1.1,1.7-5.2,2.3-7.8,2c-3.4-0.4-3.1-3.7-2.3-6
	c1.4-4.3,2.8-8.8,5.3-12.4c1.6-2.4,2.4-4.1,1.4-6.6c-1.6-4.2-3.1-8.3-5.1-13.6c-1.1,2.1-1.8,3.1-2.3,4.3c-9.4,23.2-22.6,44-40.3,62
	c-7.9,8-15.3,16.6-23,24.9c-1.3,1.4-3.1,2.6-4.8,3.6c-4,2.5-8.5,1.5-12-2.5c-3.2-3.6-3.2-6.6,0.6-10.5c3.5-3.5,7.4-6.7,11.4-9.7
	c25.1-18.9,49.2-38.8,63-68.1c2.3-4.9,4.6-9.7,1.7-15.5c-1.5-3.1-1.8-7.2-1.6-10.7c0.1-2.6,1.6-5.3,3.2-7.5c2.1-2.8,5.3-3.7,8.4-1.6
	c3.2,2.2,2.7,5.2,1.2,8.4c-4.7,10.2-2,27.6,5.6,35c5-6.2,11.4-11.1,10.1-20.9c-0.6-4.7,1.7-10,3.3-14.8c1.3-3.8,5.2-4.8,8.3-3.2
	c1.8,0.9,3.4,4.5,3.1,6.7c-0.5,4-1.4,8.6-3.9,11.7c-4.7,5.8-4.5,12.3-4.6,18.9c-0.2,22.9,3.4,45.4,8.3,67.8c1.3,6,2.3,12.1,2.5,18.2
	c0.3,7.6-2.5,11.4-6.9,11.4c-6.1,0-10-4.4-9.9-11.9c0.2-17,0.7-34,0.8-50.9c0.1-11.6-0.1-23.2-0.1-34.9
	C217.3,181.4,216.9,180.8,216.5,179.2z"/>
<path d="M452.2,77.5c-2.7,2.2-4.8,4.1-7.1,5.8c-13.9,10.6-31.4,4.5-37.9-8.1c-7.3-14.2-8.7-28.9-4.7-44.1c1.9-7.2,4.4-14.3,6.8-21.4
	c1.5-4.4,5-5.9,9.5-4.6c4.3,1.2,5.5,4.2,4.5,8.1c-0.9,3.3-2.3,6.6-3.9,9.6c-6,11.1-10.3,22.7-11.5,35.3c-1,11.5,3.4,21,12.1,24
	c12.1,4.1,24.3,2,29-11.8c2-5.8,2.6-12,4.3-17.9c2.2-7.6,4.8-15.1,7.6-22.5c0.6-1.5,2.8-2.4,4.3-3.5c0.9,1.6,2.4,3.1,2.7,4.9
	c2.5,15-1.3,28.6-9.6,41.2c-1.8,2.7-2.9,6.4-3.1,9.6c-0.9,26.4-8.2,50.9-23.1,72.8c-10,14.7-24.5,23.3-42,26.2
	c-2.5,0.4-6-0.8-7.9-2.5c-2.7-2.5-2.8-6.1-0.8-9.6c3.3-6,8.3-8.9,14.9-9.3c4-0.2,8,0.1,12-0.4c10.5-1.4,18.6-6.8,24.3-15.7
	c10.4-16.2,15.2-34.2,17.7-53C450.9,86.3,451.5,82.3,452.2,77.5z"/>
<path d="M317.6,266.2c-4.5-0.8-9.2-1.3-13.6-2.5c-4.3-1.2-6.7-4.2-5.7-9c1-4.9,5.3-9.3,9.8-9.2c3.1,0.1,6.4,0.6,9.2,1.9
	c19.2,8.6,37.7,5.9,55.7-3.2c4.9-2.5,9.8-5.1,14-8.5c12-9.7,10.8-29.9-2.2-38.5c-1.4-0.9-3.4-1.2-5.1-1.5
	c-5.3-0.9-10.5-1.5-15.8-2.4c-11.6-1.9-18.6-9.8-23.9-19.4c-3.2-5.9,1.1-23.6,7-28.3c10.5-8.2,22.2-14.1,35.4-16.6
	c3.4-0.6,7.5-0.2,10.7,1.1c2.6,1.1,5.7,4,6.3,6.6c1.1,4.5-1.3,8.4-5.7,10.6c-6.7,3.4-13.6,2.2-20.5,0.4c-8.5-2.2-16.1-1-22.5,5.6
	c-7.9,8.2-7.3,18.3,2,26.7c6.4,5.7,13.9,9.1,22.6,9.3c15.8,0.5,26.5,12.4,25.1,28.4c-1.2,13.3-9.5,22.3-20,29
	C361.5,258.9,340.5,265.4,317.6,266.2z"/>
<path d="M33,183c-0.5-16.7,5.9-30,18.9-40c12.7-9.8,27.3-13.6,43.2-11.4c8.1,1.1,14.5,5.6,19.4,12.1c4,5.3,3.7,9.8-0.6,14.4
	c-4.5,4.9-8.3,5.1-13.1,0.5c-4.5-4.3-8.5-9-13.3-12.8c-2.6-2.1-6.4-3.8-9.7-3.9c-17.2-0.5-38.4,11.2-38.6,36.4
	c-0.1,15,3.4,29.1,9.8,42.4c4.4,9.1,11.5,14.8,22.2,15.4c11.9,0.7,21.1-3.6,27.2-14c1.4-2.4,3-4.8,4.9-6.9c4.7-5,6.6-5.2,12.5-1.7
	c8,4.8,8.7,7.6,3.8,15.6c-7.6,12.5-24,19-40.2,16c-26.9-4.9-40.9-20.5-44.9-49.9C33.9,191.1,33.4,187,33,183z"/>
<path d="M309.7,238.3c-6.4-1.2-12.6-1.7-18.4-3.4c-11.6-3.5-17.6-11.9-18.7-23.9c-2-22.1,12.3-47.3,32.7-56.1
	c5.2-2.2,11.2-2.8,16.9-3.2c6.4-0.5,9.5,1.8,9.5,5.5c0.1,4.9-5.5,11-10.4,11.1c-1.6,0-3.3-0.4-4.9-0.8c-12-3.3-23.1,1.2-29.6,11.9
	c-5.9,9.8-9.1,20.3-7.8,31.9c1.2,10.7,6,16.4,16.6,18.2c5.5,1,11.3,1.3,16.9,1c5.6-0.3,10.2-2.9,13.9-7.6
	c4.9-6.2,10.2-12.3,16.1-17.6c2.5-2.3,7-3.2,10.6-3.3c6.3-0.1,9.1,5.6,5.5,10.8c-7.3,10.4-17,17.8-29.2,21.6
	C323.1,236.3,316.2,237.1,309.7,238.3z"/>
<path d="M245.8,253.8c2.7-14.7,5.4-29.4,8-44.1c2.9-16.2,2.3-31.7-7.1-46.1c-4-6.1-4.5-13.1-1.7-20.1c2.2-5.6,6.3-8.2,11.5-7.1
	c5.1,1.2,7.5,4.8,6.7,11.1c-0.9,7.6-3.2,15.1-3.2,22.7c0.2,23.4,1.2,46.8,2.2,70.2c0.2,4.7,2.9,9.3,3.2,14c0.2,4.1-0.7,8.6-2.2,12.4
	c-2,5-6.8,5.2-11.5,4.6c-4.9-0.6-4.7-4.7-5.2-7.9c-0.5-3.1-0.1-6.3-0.1-9.5C246.3,253.9,246,253.9,245.8,253.8z"/>
<path d="M147.7,201.7c-15.3,0.9-25-13-25.2-21.4c-0.1-9.5,12.6-22.7,21.8-22.7c11.2,0,24.2,11,24.1,20.5
	C168.4,191,159.1,201.7,147.7,201.7z M147.1,192c6-0.9,9.7-3.2,11.7-8.1c1.9-4.8,0.4-8.6-3.2-12.1c-6.3-6-16.9-4.3-22.4,3.6
	c-3.9,5.7-3.7,8,2.3,11.6C139,189.1,143.2,190.3,147.1,192z"/>
</svg>
