<?xml version="1.0" encoding="UTF-8" standalone="no"?>
<svg
   xmlns:svg="http://www.w3.org/2000/svg"
   xmlns="http://www.w3.org/2000/svg"
   version="1.1"
   viewBox="0 0 808.14537 694.81717"
   width="808.14539"
   height="694.8172"
>
  <g transform="matrix(-1,0,0,1,920.34654,-338.53374)">
    <g transform="matrix(0.56129,0,0,0.56129,627.62,182.54)" style="fill:none;stroke:#ffffcc">
      <path
         d="m -502.86,1372.4 507.14,2.8571"
         id="path2"
         style="stroke-width:90" />
      <path
         transform="matrix(0.6829,0,0,0.6829,-239.07,380.47)"
         d="m -400,1456.6 c 0,85.999 -69.716,155.71 -155.71,155.71 -85.999,0 -155.71,-69.716 -155.71,-155.71 0,-85.999 69.716,-155.71 155.71,-155.71 85.999,0 155.71,69.716 155.71,155.71 z"
         id="path4"
         style="stroke-width:150" />
      <path
         transform="matrix(0.6829,0,0,0.6829,493.78,381.9)"
         d="m -400,1456.6 c 0,85.999 -69.716,155.71 -155.71,155.71 -85.999,0 -155.71,-69.716 -155.71,-155.71 0,-85.999 69.716,-155.71 155.71,-155.71 85.999,0 155.71,69.716 155.71,155.71 z"
         id="path6"
         style="stroke-width:150" />
      <path
         d="m 128.57,1249.5 140,-834.29 C 322.8,321.36 395.03,293.59 516.43,314.51"
         id="path8"
         style="stroke-width:90" />
      <path
         d="m 157.58,1091.8 -887.92,1.0102 c -29.602,-3.0486 -56.553,-21.672 -68.69,-54.548 l -87.883,-447.5 c -7.4296,-31.105 24.235,-83.412 64.65,-89.904 l 1088,-71.39"
         id="path10"
         style="stroke-width:90" />
      <path
         d="m -628.31,688.71 c 2.6937,0 5.3875,0 0,0 z"
         id="path12"
         style="stroke-width:1.5px" />
      <path
         d="m 50.508,640.22 -688.93,46.47"
         id="path14"
         style="stroke-width:105;stroke-linecap:round" />
      <path
         d="m 52.299,881.67 -690.49,1.9651"
         id="path16"
         style="stroke-width:105;stroke-linecap:round" />
    </g>
  </g>
</svg>
