<?xml version="1.0" encoding="UTF-8"?>
<svg xmlns="http://www.w3.org/2000/svg" xmlns:xlink="http://www.w3.org/1999/xlink" version="1.2" >
<font id="Atland BB">
<font-face  font-family="Atland BB" units-per-em="1000" ascent="727" descent="-273" font-style="normal" font-weight="400" font-stretch="normal" cap-height="676" x-height="695" underline-position="0" underline-thickness="0" />
<missing-glyph  horiz-adv-x="503" d="M440 0 L440 843 L62 843 L62 0 L440 0 Z M126 780 L377 780 L377 62 L126 62 L126 780 Z " />
<glyph glyph-name="space" unicode="&#x20;" horiz-adv-x="315" d="" />
<glyph glyph-name="exclam" unicode="&#x21;" horiz-adv-x="341" d="M281 325 C281 332 277 336 269 336 C261 336 235 332 227 332 C252 393 264 512 264 689 C264 697 261 701 256 701 C243 701 225 688 204 663 C183 638 173 620 173 607 C173 452 167 355 154 315 C127 286 114 263 114 245 C114 225 130 215 163 215 C196 215 220 224 236 242 C266 274 281 302 281 325 L281 325 Z M285 117 C285 123 282 126 276 126 C267 126 235 122 226 122 C215 122 200 123 179 124 C158 125 143 126 133 126 C118 126 100 112 81 85 C62 58 52 36 52 21 C52 14 56 10 64 9 C98 6 129 4 156 4 C190 4 217 12 236 27 C254 42 269 67 281 102 C284 108 285 113 285 117 L285 117 Z " />
<glyph glyph-name="quotedbl" unicode="&#x22;" horiz-adv-x="435" d="M370 577 C370 650 362 686 347 686 C335 686 319 673 298 646 C277 619 267 599 267 585 C267 573 269 555 273 532 C278 509 280 492 280 480 C280 466 276 447 268 422 C260 398 256 380 256 368 C256 359 259 355 264 355 C270 355 279 359 290 367 C300 375 307 382 312 389 C351 442 370 504 370 577 L370 577 Z M175 576 C175 649 167 685 151 685 C140 685 123 672 102 645 C81 618 71 598 71 583 C71 572 73 554 78 531 C83 508 86 491 86 479 C86 464 82 445 73 421 C64 397 60 379 60 367 C60 358 62 354 67 354 C73 354 82 358 95 366 C104 374 112 381 117 388 C156 441 175 503 175 576 L175 576 Z " />
<glyph glyph-name="numbersign" unicode="&#x23;" horiz-adv-x="718" d="M677 286 C677 293 674 297 667 298 C656 300 613 301 540 301 L540 324 C540 345 540 361 541 374 C549 374 558 374 568 373 L591 373 C620 373 634 383 658 428 C671 451 677 468 677 478 C677 484 674 488 667 489 C613 492 572 494 544 493 C544 504 544 521 545 542 C546 563 547 580 547 592 C547 617 546 634 544 643 C539 663 528 673 511 673 C496 673 480 659 461 632 C442 605 433 585 433 570 C433 563 457 552 457 519 L457 506 C456 500 456 496 456 493 C354 491 286 489 253 488 C253 499 254 516 255 539 C256 562 257 580 257 592 C257 617 256 634 253 643 C248 663 237 673 220 673 C205 673 189 659 170 632 C151 605 142 585 142 570 C142 563 165 553 165 517 L165 501 C164 494 164 488 164 485 C127 482 106 479 100 476 C88 471 74 453 58 424 C46 402 40 386 40 377 C40 370 43 366 50 366 C50 366 87 367 160 370 L160 332 C159 315 159 302 159 293 C129 293 108 290 97 283 C86 276 73 259 58 231 C46 210 40 195 40 186 C40 179 43 175 50 175 C50 175 86 176 159 179 C159 58 170 -3 193 -3 C210 -3 229 9 249 33 C269 58 279 79 279 97 C279 100 277 103 273 105 C266 110 261 122 258 141 C257 149 255 163 254 182 C319 184 385 185 450 185 C450 60 462 -3 485 -3 C502 -3 521 9 540 33 C559 58 569 79 569 97 C569 100 568 103 565 105 C553 112 546 138 544 183 C565 182 578 181 585 181 C604 181 620 186 631 196 C638 203 648 217 659 238 C671 260 677 276 677 286 L677 286 Z M452 376 C451 350 450 325 450 302 L249 297 L249 373 C318 375 385 376 452 376 L452 376 Z " />
<glyph glyph-name="dollar" unicode="&#x24;" horiz-adv-x="602" d="M550 290 C550 339 520 371 460 386 C449 388 389 393 280 401 C209 406 166 423 151 450 C149 453 148 457 148 462 C148 477 163 490 194 499 C217 506 239 509 260 509 C291 509 321 501 349 485 C377 470 390 462 387 462 C400 462 416 475 436 501 C456 527 466 547 466 562 C466 581 448 597 411 610 C382 621 356 626 333 626 L343 703 C348 735 350 761 350 782 C350 795 347 801 341 801 C334 801 322 793 306 778 C292 765 282 754 275 744 C266 729 259 708 256 680 C254 657 252 634 249 611 C204 598 161 566 120 516 C77 465 56 415 56 368 C56 329 91 303 160 291 L355 275 C424 268 459 249 459 217 C459 175 425 154 356 154 C316 154 275 162 234 177 C185 195 154 219 141 250 C139 255 136 257 133 257 C120 257 103 244 82 217 C61 191 50 171 50 157 C50 122 77 93 131 70 C170 55 212 46 258 44 C257 41 253 16 246 -31 C242 -62 240 -87 240 -107 C240 -119 243 -125 249 -125 C257 -125 269 -118 284 -103 C299 -89 309 -77 314 -68 C324 -54 330 -35 333 -12 C336 9 338 29 340 49 C394 60 442 93 483 148 C528 206 550 253 550 290 L550 290 Z " />
<glyph glyph-name="percent" unicode="&#x25;" horiz-adv-x="762" d="M714 280 C714 320 694 353 655 378 C621 400 583 411 540 411 C508 411 478 402 449 385 C484 450 520 515 556 580 C615 687 644 747 644 760 C644 769 640 773 632 773 C620 773 607 765 593 748 C573 727 547 686 515 625 L446 490 C445 533 428 568 395 597 C362 626 324 641 281 641 C223 641 170 615 123 564 C76 513 52 458 52 399 C52 356 69 322 104 295 C135 271 173 259 218 259 C264 259 307 275 347 307 L228 94 C165 -24 133 -89 133 -102 C133 -109 138 -112 147 -112 C166 -112 187 -92 210 -52 C260 37 297 105 321 150 C327 113 347 84 380 62 C411 42 446 32 485 32 C546 32 599 58 645 110 C691 162 714 219 714 280 L714 280 Z M623 181 C623 158 602 146 560 146 C524 146 491 156 461 177 C427 200 410 230 410 265 C410 287 425 298 455 298 C521 298 568 281 596 246 C614 223 623 202 623 181 L623 181 Z M356 406 C356 383 335 371 293 371 C256 371 223 381 193 402 C160 427 144 456 144 490 C144 513 158 524 187 524 C254 524 301 507 328 473 C347 450 356 428 356 406 L356 406 Z " />
<glyph glyph-name="ampersand" unicode="&#x26;" horiz-adv-x="743" d="M701 434 C701 444 696 449 687 449 C676 449 663 440 648 422 C637 417 625 415 613 415 C595 415 573 421 546 432 C519 444 505 450 502 450 C489 450 473 437 456 411 C439 385 429 364 428 349 C427 342 427 333 427 322 C427 307 428 285 431 254 C434 224 435 202 435 188 C435 167 433 149 430 133 C420 129 405 127 385 127 C261 127 184 154 153 209 C148 219 145 228 145 235 C145 252 161 265 193 275 L266 293 C275 296 286 304 299 318 C306 326 314 338 324 354 C339 375 346 389 346 398 C346 404 342 408 334 409 C275 419 238 427 223 434 C181 450 160 478 160 518 C160 534 174 546 202 555 C221 560 244 563 269 563 C338 563 371 547 404 490 C406 486 409 484 414 484 C429 484 446 497 465 522 C485 547 495 567 495 582 C495 586 495 589 494 592 C472 651 422 680 345 680 C270 680 208 656 157 608 C133 585 113 557 97 524 C78 490 69 457 69 426 C69 373 95 337 146 317 C121 294 99 268 81 238 C61 205 51 174 51 146 C51 110 69 82 104 62 C167 27 230 10 293 10 C367 10 425 36 466 89 C503 136 522 197 522 273 C522 284 522 294 521 305 C528 304 536 303 543 303 C607 303 657 339 693 410 C698 420 701 428 701 434 L701 434 Z " />
<glyph glyph-name="quotesingle" unicode="&#x27;" horiz-adv-x="237" d="M175 576 C175 649 167 685 151 685 C140 685 123 672 102 645 C81 618 71 598 71 583 C71 572 73 554 78 531 C83 508 86 491 86 479 C86 464 82 445 73 421 C64 397 60 379 60 367 C60 358 62 354 67 354 C73 354 82 358 95 366 C104 374 112 381 117 388 C156 441 175 503 175 576 L175 576 Z " />
<glyph glyph-name="parenleft" unicode="&#x28;" horiz-adv-x="378" d="M341 782 C341 791 339 795 334 795 C331 795 328 795 325 794 C298 783 262 748 218 689 C183 642 155 597 134 555 C75 439 45 323 45 208 C45 45 101 -83 212 -176 C237 -196 253 -206 260 -206 C275 -206 291 -193 310 -168 C329 -143 339 -122 339 -106 C339 -99 333 -90 321 -81 C313 -74 304 -68 295 -63 C243 -20 203 35 174 104 C147 168 133 235 133 306 C133 450 191 596 292 696 C325 729 341 757 341 782 L341 782 Z " />
<glyph glyph-name="parenright" unicode="&#x29;" horiz-adv-x="390" d="M348 377 C348 542 293 670 182 763 C157 784 141 794 134 794 C119 794 102 781 82 754 C63 728 53 707 53 692 C53 686 59 679 70 670 L98 651 C149 609 190 553 219 483 C247 418 261 350 261 279 C261 208 247 137 219 68 C191 -1 152 -60 102 -109 C69 -141 52 -168 52 -191 C52 -202 54 -208 59 -208 C61 -208 64 -207 67 -206 C96 -195 132 -160 176 -102 C209 -55 237 -11 260 31 C319 146 348 262 348 377 L348 377 Z " />
<glyph glyph-name="asterisk" unicode="&#x2a;" horiz-adv-x="711" d="M667 348 C667 353 665 357 662 360 C620 387 587 406 563 418 L464 477 C523 508 561 528 576 539 C623 572 647 606 647 640 C647 649 644 653 638 653 C633 653 596 634 527 597 L404 528 C404 541 404 561 405 587 C406 613 407 633 407 646 C407 667 404 678 398 678 C383 678 365 666 345 641 C326 616 316 595 316 578 L316 563 L230 614 C182 642 155 656 150 656 C135 656 118 643 99 616 C80 590 71 569 71 553 C71 548 72 545 75 542 C84 532 111 515 156 490 L246 442 L135 379 C90 348 67 315 67 280 C67 271 70 267 76 267 C83 267 120 286 189 324 L314 394 C311 305 310 256 310 246 C310 222 313 210 318 210 C334 210 352 223 371 249 C389 274 399 295 400 312 C401 322 401 335 401 351 C518 280 580 245 589 245 C604 245 620 258 639 284 C658 310 667 331 667 348 L667 348 Z " />
<glyph glyph-name="plus" unicode="&#x2b;" horiz-adv-x="661" d="M617 385 C617 392 614 397 607 398 C591 400 548 401 479 401 L392 400 C392 416 393 440 396 471 C399 502 401 526 401 541 C401 606 387 639 360 639 C347 639 331 626 312 599 C293 572 284 552 284 537 C284 528 309 519 309 495 C309 485 308 469 306 447 C305 425 304 409 304 398 L134 392 C115 390 95 370 74 332 C63 310 57 294 57 285 C57 278 60 275 65 275 C94 275 134 276 184 278 C240 281 279 282 301 283 L301 257 C300 240 300 225 300 213 C300 108 313 56 339 56 C354 56 371 69 391 94 C411 119 421 140 421 155 C421 158 421 160 420 162 C405 181 397 200 394 219 C393 228 392 249 392 284 C408 284 432 283 465 282 C498 281 522 280 537 280 C553 280 570 293 589 320 C608 347 617 368 617 385 L617 385 Z " />
<glyph glyph-name="comma" unicode="&#x2c;" horiz-adv-x="282" d="M218 144 C218 169 214 182 205 182 C189 182 168 164 143 127 C132 112 126 92 125 65 L121 1 C118 -16 107 -41 89 -73 C72 -105 63 -124 63 -130 C63 -141 68 -147 77 -147 C86 -147 96 -142 105 -132 C138 -98 165 -55 186 -4 C207 47 218 97 218 144 L218 144 Z " />
<glyph glyph-name="&amp;#x2d;" unicode="&#x2d;" horiz-adv-x="617" d="M595 384 C595 391 591 396 584 398 C571 401 536 402 478 402 C458 402 415 401 349 400 L230 398 C183 398 143 396 112 392 C97 390 81 376 62 349 C43 323 34 302 34 285 C34 278 39 275 50 275 C81 275 126 276 186 279 C247 282 292 284 323 284 C344 284 376 283 419 282 C462 281 494 280 516 280 C531 280 548 293 567 319 C586 345 595 367 595 384 L595 384 Z " />
<glyph glyph-name="&amp;#x2010;" unicode="&#x2010;" horiz-adv-x="617" d="M595 384 C595 391 591 396 584 398 C571 401 536 402 478 402 C458 402 415 401 349 400 L230 398 C183 398 143 396 112 392 C97 390 81 376 62 349 C43 323 34 302 34 285 C34 278 39 275 50 275 C81 275 126 276 186 279 C247 282 292 284 323 284 C344 284 376 283 419 282 C462 281 494 280 516 280 C531 280 548 293 567 319 C586 345 595 367 595 384 L595 384 Z " />
<glyph glyph-name="period" unicode="&#x2e;" horiz-adv-x="389" d="M319 117 C319 123 316 126 311 126 C300 126 271 122 260 122 C241 122 200 126 185 126 C160 126 139 117 122 99 C111 85 101 63 90 34 C87 28 86 24 86 21 C86 14 91 10 100 9 C134 6 164 4 190 4 C258 4 291 31 315 102 C318 108 319 113 319 117 L319 117 Z " />
<glyph glyph-name="slash" unicode="&#x2f;" horiz-adv-x="402" d="M460 763 C460 770 457 773 451 773 C428 773 406 753 383 712 C289 543 220 415 175 329 L-32 -54 C-44 -77 -50 -93 -50 -102 C-50 -109 -45 -112 -36 -112 C-17 -112 3 -92 26 -52 C120 117 189 245 234 331 C327 501 396 629 443 714 C454 736 460 752 460 763 L460 763 Z " />
<glyph glyph-name="zero" unicode="0" horiz-adv-x="787" d="M764 412 C764 481 730 540 661 591 C632 613 593 634 544 654 C491 677 448 689 417 689 C404 689 393 687 384 682 C313 649 240 590 166 505 C85 411 44 329 44 260 C44 199 70 143 121 90 C166 44 219 9 281 -14 C301 -20 320 -23 338 -23 C359 -23 382 -19 407 -10 C492 21 571 76 644 157 C724 245 764 330 764 412 L764 412 Z M675 321 C675 288 660 255 630 224 C597 191 563 163 527 139 C481 108 441 92 408 92 C353 92 294 119 231 174 C167 231 135 287 135 341 C135 382 158 427 204 474 C240 509 282 540 330 567 C337 568 343 568 349 568 C388 568 436 560 493 544 C565 523 620 471 657 390 C669 365 675 342 675 321 L675 321 Z " />
<glyph glyph-name="one" unicode="1" horiz-adv-x="311" d="M264 97 C264 100 262 103 259 105 C248 112 242 133 239 166 C234 211 232 264 232 326 C232 361 234 413 237 483 C240 553 242 605 242 640 C242 661 241 663 220 663 C182 663 157 662 145 660 C118 655 97 642 81 623 C59 593 48 569 48 551 C48 542 51 538 56 538 C64 538 98 547 113 547 C117 547 123 547 132 546 L150 546 C145 412 143 313 143 248 C143 81 155 -3 179 -3 C195 -3 213 9 233 33 C254 58 264 79 264 97 L264 97 Z " />
<glyph glyph-name="two" unicode="2" horiz-adv-x="596" d="M563 143 C563 150 560 154 554 154 C549 154 540 150 529 143 C518 136 512 133 509 133 C497 133 471 129 459 129 C439 129 408 132 367 137 C326 142 295 145 274 145 C246 145 221 142 200 136 C243 173 286 209 328 246 C381 294 421 337 448 376 C483 429 501 481 501 533 C501 580 482 617 443 646 C408 671 367 684 318 684 C272 684 228 671 186 644 C147 620 114 587 87 545 C68 518 58 499 58 488 C58 477 63 472 74 472 C85 472 97 480 109 496 C127 518 141 533 152 541 C175 558 204 566 239 566 C351 566 407 525 407 444 C407 415 398 390 380 369 C338 321 284 271 219 220 C168 179 124 123 85 52 C70 27 63 10 63 1 C63 -5 65 -8 69 -9 L70 -10 C73 -11 76 -12 79 -12 C82 -12 95 -5 118 10 C142 25 170 32 203 32 C222 32 252 29 292 23 C333 18 363 15 384 15 C445 15 491 32 524 65 C550 92 563 118 563 143 L563 143 Z " />
<glyph glyph-name="three" unicode="3" horiz-adv-x="627" d="M588 301 C588 368 542 412 451 432 C467 451 481 474 493 502 C506 533 513 559 513 581 C513 616 498 644 469 663 C443 681 411 690 374 690 C216 690 114 632 67 515 C65 508 64 503 64 499 C64 492 67 488 74 488 C86 488 100 497 116 514 C136 534 150 546 159 550 C191 564 231 571 278 571 C373 571 420 543 420 487 C420 464 397 449 350 442 L251 434 C231 431 211 411 190 374 C179 353 173 337 173 327 C173 320 176 316 183 316 C190 316 204 316 226 317 C248 318 266 318 279 318 C424 318 496 278 496 198 C496 191 496 185 495 179 C491 152 468 131 426 116 C393 105 360 100 325 100 C292 100 261 106 230 118 C209 126 192 136 179 148 C170 157 158 172 143 194 C139 199 135 202 130 202 C117 202 101 189 80 164 C59 139 49 119 49 105 C49 102 50 98 52 94 C87 20 150 -17 240 -17 C327 -17 406 14 477 75 C551 140 588 216 588 301 L588 301 Z " />
<glyph glyph-name="four" unicode="4" horiz-adv-x="566" d="M560 275 C560 283 557 288 552 290 C513 297 479 301 451 302 C451 331 452 374 455 431 C458 489 459 532 459 560 C459 626 448 659 425 659 C407 659 389 646 371 619 C354 594 345 573 345 556 C345 550 349 545 356 541 C363 538 367 529 367 514 C367 492 366 458 363 412 C361 366 360 332 360 309 C262 309 218 309 228 310 C193 308 162 302 135 292 C194 419 223 534 223 636 C223 670 219 687 211 687 C198 687 181 674 160 649 C140 624 130 604 130 591 C130 537 126 489 119 447 C106 370 77 290 33 208 C22 187 17 173 17 165 C17 154 21 149 28 149 C37 149 50 158 65 175 C92 187 143 193 218 193 C268 193 315 191 359 187 C359 61 371 -2 395 -2 C412 -2 431 10 451 34 C471 58 481 79 481 97 C481 100 479 103 475 106 C468 111 463 122 460 139 C458 148 456 160 455 177 C472 175 481 174 483 174 C498 174 515 187 533 214 C551 239 560 259 560 275 L560 275 Z " />
<glyph glyph-name="five" unicode="5" horiz-adv-x="586" d="M553 314 C553 395 491 436 367 436 C306 436 236 426 155 406 C160 427 162 449 162 472 C162 491 160 512 157 535 C178 534 201 533 228 533 C320 533 380 541 408 557 C453 582 476 616 478 659 L479 663 C479 670 477 673 473 673 C471 673 467 672 460 669 C431 656 378 650 301 650 C282 650 254 652 215 655 C176 658 148 660 129 660 C111 660 93 647 74 622 C56 597 48 576 49 557 L49 551 C50 535 54 507 60 467 C65 431 68 403 68 382 C68 355 65 329 58 304 C57 299 56 296 56 293 C56 288 59 285 64 285 C67 285 71 286 76 287 C160 306 233 316 295 316 C344 316 380 312 403 305 C444 291 464 264 464 224 C464 191 446 164 411 141 C380 120 348 110 314 110 C283 110 245 121 200 143 C156 166 134 177 135 177 C120 177 103 164 84 139 C65 114 56 92 56 75 C56 57 82 39 135 21 C180 5 216 -3 243 -3 C318 -3 389 31 454 100 C520 169 553 240 553 314 L553 314 Z " />
<glyph glyph-name="six" unicode="6" horiz-adv-x="600" d="M562 238 C562 287 543 327 506 356 C471 384 429 398 380 398 C276 398 195 364 137 296 C134 318 132 342 132 367 C132 429 141 475 160 506 C183 545 224 565 283 565 C316 565 347 556 376 537 C405 518 419 509 418 509 C431 509 448 522 467 549 C486 576 496 596 496 610 C496 615 494 620 491 625 C464 662 421 680 362 680 C265 680 185 637 124 551 C69 474 42 384 42 281 C42 186 59 115 94 66 C134 11 200 -17 292 -17 C336 -17 376 -6 412 15 C452 37 486 68 515 109 C546 154 562 197 562 238 L562 238 Z M477 156 C477 117 438 98 361 98 C249 98 180 141 153 226 C156 247 178 262 220 271 C249 277 280 280 313 280 C385 280 436 249 467 188 C474 176 477 165 477 156 L477 156 Z " />
<glyph glyph-name="seven" unicode="7" horiz-adv-x="539" d="M560 656 C560 667 557 673 552 673 C543 673 529 665 510 648 C491 631 464 623 429 623 C380 623 335 631 294 647 C241 666 199 675 169 675 C140 675 114 668 91 654 C70 641 48 621 27 594 C5 563 -6 538 -6 517 C-6 508 -3 503 2 503 C23 503 45 521 67 558 C76 559 86 560 97 560 C126 560 167 551 220 533 C274 515 315 506 344 506 C355 506 366 507 378 509 C246 355 180 208 180 67 C180 17 184 -8 192 -8 C206 -8 223 5 244 31 C265 57 275 79 275 98 C275 107 273 130 273 139 C273 207 298 281 347 362 C373 405 419 465 485 542 C535 601 560 639 560 656 L560 656 Z " />
<glyph glyph-name="eight" unicode="8" horiz-adv-x="633" d="M607 227 C607 295 567 342 486 368 C537 421 562 478 562 538 C562 587 534 624 477 651 C430 674 380 685 326 685 C261 685 201 659 145 606 C89 554 61 496 61 432 C61 381 86 343 137 316 C71 264 38 204 38 136 C38 82 70 42 133 15 C179 -5 234 -15 297 -15 C314 -15 331 -14 346 -12 C409 -5 466 21 519 65 C578 114 607 168 607 227 L607 227 Z M470 441 C470 412 429 398 348 398 C327 398 308 399 292 401 C258 406 227 420 200 442 C168 467 152 494 152 524 C152 540 170 552 207 561 C232 566 257 569 280 569 C322 569 362 558 401 537 C447 512 470 480 470 441 L470 441 Z M517 139 C469 120 444 111 443 111 C419 104 392 101 362 101 C319 101 279 107 241 118 C195 133 163 156 145 186 C135 201 130 214 130 225 L130 230 C170 259 221 274 284 274 C347 274 404 260 453 231 C473 219 487 206 496 192 C502 184 509 166 517 139 L517 139 Z " />
<glyph glyph-name="nine" unicode="9" horiz-adv-x="613" d="M565 392 C565 442 558 493 544 546 C518 643 441 691 312 691 C266 691 226 681 191 660 C153 637 120 606 92 565 C60 520 44 478 44 438 C44 389 63 350 101 319 C136 290 177 276 226 276 C328 276 410 311 471 381 C474 356 475 331 475 307 C475 244 465 197 445 167 C420 130 378 111 319 111 C296 111 274 116 254 125 C240 132 226 141 211 152 C198 162 191 167 189 167 C176 167 159 154 139 128 C120 102 110 81 110 66 C110 61 112 56 116 51 C144 14 187 -4 246 -4 C342 -4 421 39 482 126 C537 203 565 292 565 392 L565 392 Z M455 452 C442 414 390 395 298 395 C257 395 226 399 205 408 C180 420 159 441 143 472 C134 488 130 504 130 520 C130 540 144 555 171 565 C190 572 212 575 238 575 C275 575 316 569 359 556 C403 543 435 509 455 452 L455 452 Z " />
<glyph glyph-name="colon" unicode="&#x3a;" horiz-adv-x="389" d="M332 337 C332 343 329 346 323 346 C312 346 282 341 273 341 C264 341 251 342 234 343 C217 345 205 346 197 346 C172 346 151 336 135 317 C124 305 114 284 103 255 C100 248 99 242 99 239 C99 233 103 230 112 229 C147 225 177 223 203 223 C238 223 264 231 283 247 C301 262 316 286 328 320 C331 327 332 333 332 337 L332 337 Z M319 117 C319 123 316 126 311 126 C300 126 271 122 260 122 C241 122 200 126 185 126 C160 126 139 117 122 99 C111 85 101 63 90 34 C87 28 86 24 86 21 C86 14 91 10 100 9 C134 6 164 4 190 4 C258 4 291 31 315 102 C318 108 319 113 319 117 L319 117 Z " />
<glyph glyph-name="semicolon" unicode="&#x3b;" horiz-adv-x="389" d="M332 337 C332 343 329 346 323 346 C312 346 282 341 273 341 C264 341 251 342 234 343 C217 345 205 346 197 346 C172 346 151 336 135 317 C124 305 114 284 103 255 C100 248 99 242 99 239 C99 233 103 230 112 229 C147 225 177 223 203 223 C238 223 264 231 283 247 C301 262 316 286 328 320 C331 327 332 333 332 337 L332 337 Z M247 144 C247 169 243 182 234 182 C218 182 197 164 172 127 C161 112 155 92 154 65 L150 1 C147 -16 137 -41 120 -73 C103 -105 94 -124 94 -130 C94 -141 98 -147 107 -147 C116 -147 125 -142 135 -132 C168 -98 194 -55 215 -4 C236 47 247 97 247 144 L247 144 Z " />
<glyph glyph-name="less" unicode="&#x3c;" horiz-adv-x="583" d="M561 -46 C561 19 515 97 422 190 C351 261 275 320 196 367 C260 413 321 474 380 550 C439 626 480 700 504 772 C508 783 510 793 510 801 C510 810 508 815 503 815 C476 815 452 789 429 738 C392 658 351 592 304 539 C262 494 198 449 112 406 C101 401 86 386 66 362 C47 338 37 321 37 310 C37 304 40 299 46 294 C83 271 112 254 131 243 C188 206 246 164 303 116 C372 55 421 -12 451 -83 C454 -96 458 -107 462 -118 C469 -137 474 -146 478 -146 C491 -146 508 -133 529 -106 C550 -79 561 -59 561 -46 L561 -46 Z " />
<glyph glyph-name="equal" unicode="&#x3d;" horiz-adv-x="693" d="M665 496 C665 504 662 509 656 510 C647 513 592 514 491 514 C458 514 421 514 381 513 C336 512 290 512 244 512 C190 511 145 509 108 504 C93 502 77 488 58 462 C39 436 30 415 30 398 C30 391 38 387 54 387 C63 387 76 387 93 388 C112 389 125 390 130 390 C253 395 350 397 421 397 C439 397 467 396 504 395 C541 394 569 393 588 393 C603 393 620 406 638 432 C656 459 665 480 665 496 L665 496 Z M665 260 C665 268 662 272 656 273 C647 276 586 277 473 277 C444 277 414 277 381 276 C336 275 290 275 244 275 C191 274 145 272 108 268 C93 266 76 252 57 225 C39 199 30 178 30 161 C30 154 38 150 53 150 C62 150 75 150 92 151 C112 152 125 153 130 154 C239 158 332 160 410 160 C430 160 460 159 499 158 C538 157 568 156 588 156 C603 156 620 169 638 195 C656 221 665 243 665 260 L665 260 Z " />
<glyph glyph-name="greater" unicode="&#x3e;" horiz-adv-x="579" d="M548 357 C548 364 545 369 539 374 C502 397 473 414 454 425 C395 462 338 504 282 552 C213 612 163 678 134 751 C131 764 127 776 123 787 C116 806 111 815 107 815 C95 815 78 801 57 774 C36 747 25 727 25 714 C25 647 71 568 163 477 C233 406 308 347 388 300 C255 205 152 71 81 -103 C76 -115 73 -125 73 -132 C73 -141 75 -146 80 -146 C95 -146 111 -136 127 -117 C140 -103 150 -87 157 -69 C194 11 235 77 281 129 C308 159 337 184 369 205 C390 219 425 238 474 262 C485 267 500 282 519 305 C538 329 548 346 548 357 L548 357 Z " />
<glyph glyph-name="question" unicode="&#x3f;" horiz-adv-x="555" d="M515 625 C515 666 467 687 372 687 C349 687 313 684 266 679 C219 674 184 671 161 671 C146 671 130 657 111 630 C92 603 83 582 83 565 C83 558 92 555 110 555 C138 555 180 557 235 562 C291 567 333 570 361 570 C399 570 418 562 418 547 C418 532 381 498 308 447 L163 345 C152 336 142 323 131 306 C118 286 111 271 111 261 C111 252 116 247 125 245 C147 239 193 236 264 236 C326 236 373 237 406 240 C427 241 448 261 467 299 C478 321 484 337 484 346 C484 353 481 356 476 356 C351 356 288 356 288 356 C439 455 515 545 515 625 L515 625 Z M456 117 C456 123 453 126 448 126 C435 126 416 125 389 123 C362 122 342 121 329 121 C312 121 287 122 252 123 C217 125 192 126 175 126 L155 126 C140 125 123 112 104 85 C86 59 77 38 77 21 C77 14 80 10 87 9 C102 6 169 4 286 4 C325 4 356 6 379 9 C398 12 418 32 439 69 C450 93 456 109 456 117 L456 117 Z " />
<glyph glyph-name="at" unicode="&#x40;" horiz-adv-x="929" d="M877 469 C877 502 871 534 858 567 C801 709 700 780 553 780 C428 780 321 735 233 644 C182 590 139 530 106 465 C69 391 50 321 50 255 C50 166 87 91 162 29 C233 -28 314 -57 403 -57 C488 -57 565 -19 634 58 C659 87 672 110 672 127 C672 140 668 147 660 147 C653 147 641 139 625 124 C605 103 587 88 571 79 C544 64 513 56 478 56 C425 56 370 71 314 102 C201 161 144 236 143 328 L143 339 C142 436 174 514 239 575 C304 634 385 663 483 663 C558 663 624 640 679 593 C735 546 770 486 783 411 C785 400 786 391 786 383 C786 356 776 343 756 343 C736 343 714 353 690 373 C672 388 656 414 642 451 C625 495 612 522 604 533 C584 558 557 571 522 571 C453 571 390 550 334 509 C271 463 240 407 240 341 C240 302 253 264 280 227 C309 187 342 167 380 167 C397 167 416 175 435 190 C450 204 466 221 482 242 C502 269 512 289 512 302 C512 313 506 319 493 319 C490 319 482 313 470 301 C459 290 447 284 436 284 C416 284 393 301 366 335 C339 369 326 396 326 416 C326 429 341 439 372 444 C393 449 414 451 436 451 C475 451 503 440 522 418 C533 405 546 376 563 333 C588 264 626 230 678 230 C715 230 754 250 795 289 C832 324 856 361 867 400 C874 423 877 446 877 469 L877 469 Z " />
<glyph glyph-name="A" unicode="A" horiz-adv-x="694" d="M703 97 C703 102 701 107 698 112 C665 157 623 223 574 310 C521 405 480 480 449 537 L415 605 C402 633 390 655 379 670 C374 677 368 681 361 681 C348 681 331 670 309 649 C287 628 275 611 272 598 C275 589 277 580 277 569 C277 536 248 462 190 345 C144 249 104 175 71 124 C67 118 54 107 31 90 C12 74 2 63 2 56 C2 32 15 7 36 7 C51 7 69 13 89 26 C109 39 119 53 119 67 C119 70 119 75 118 82 C117 88 117 93 118 96 C119 101 120 105 123 109 C291 116 427 122 532 128 C546 103 560 79 573 54 C597 16 614 -3 624 -3 C639 -3 655 10 674 35 C693 60 703 81 703 97 L703 97 Z M187 226 C269 383 315 473 326 498 C373 411 408 347 433 305 C452 268 464 246 469 238 L187 226 Z " />
<glyph glyph-name="B" unicode="B" horiz-adv-x="720" d="M684 289 C684 363 618 402 486 407 C554 470 588 532 588 593 C588 633 571 658 538 669 C525 674 491 676 438 676 C357 676 267 670 170 657 C163 666 156 670 148 670 C133 670 112 653 86 620 C61 587 48 563 48 546 C48 538 52 534 61 534 C62 534 71 535 87 538 C90 529 92 517 92 502 C92 470 91 422 88 357 C86 292 85 244 85 211 C85 112 89 49 97 23 C96 22 96 20 96 18 C96 5 105 -2 124 -2 C131 -2 138 -1 143 2 C244 -3 297 -5 303 -5 C386 -5 454 7 506 31 C548 51 585 82 618 125 C647 164 668 209 680 258 C683 269 684 279 684 289 L684 289 Z M496 511 C484 476 441 449 368 430 C311 415 247 407 176 407 C179 470 180 518 181 549 C183 549 214 552 274 558 C311 562 343 564 368 564 C453 564 496 546 496 511 L496 511 Z M595 194 C595 163 565 140 505 125 C465 114 422 109 376 109 C352 109 321 110 282 113 L188 120 C179 139 175 191 175 275 C249 288 318 294 381 294 C524 294 595 261 595 194 L595 194 Z " />
<glyph glyph-name="C" unicode="C" horiz-adv-x="727" d="M690 212 C690 223 685 229 674 229 C667 229 659 224 649 214 C632 196 615 178 599 159 C582 144 559 132 531 124 C486 111 443 104 402 104 C345 104 293 118 244 146 C193 175 157 215 136 266 C125 289 120 310 120 331 C120 383 153 432 230 505 C277 548 311 569 334 569 C350 569 385 546 438 501 C491 456 522 434 530 434 C545 434 562 447 581 474 C600 499 609 519 609 535 C609 542 601 550 586 561 C575 568 565 576 555 583 L484 647 C452 672 424 685 400 685 C380 685 350 672 310 645 C278 623 251 601 228 579 C99 454 35 341 35 240 C35 162 66 99 129 52 C186 9 254 -12 335 -12 C469 -12 578 44 662 155 C681 180 690 199 690 212 L690 212 Z " />
<glyph glyph-name="D" unicode="D" horiz-adv-x="716" d="M683 414 C683 587 568 674 337 674 C253 674 190 668 147 656 C130 652 112 638 93 614 C75 590 66 569 66 552 C66 543 70 539 78 539 C75 539 89 542 120 547 C115 534 113 511 113 478 C113 453 115 415 119 364 C123 314 125 276 125 250 C125 195 110 142 79 91 C76 87 75 82 75 77 C75 58 88 39 113 21 C136 4 157 -4 178 -4 C380 -4 527 67 619 210 C662 276 683 344 683 414 L683 414 Z M592 329 C592 250 557 194 487 159 C442 137 373 122 279 114 C251 111 237 110 238 110 C231 110 226 111 223 113 C208 123 200 189 200 311 C200 378 205 460 214 557 C233 558 253 559 272 559 C361 559 433 544 488 513 C557 474 592 412 592 329 L592 329 Z " />
<glyph glyph-name="E" unicode="E" horiz-adv-x="678" d="M635 380 C635 388 632 393 626 394 C611 397 573 398 513 398 C425 398 309 395 166 388 C166 393 163 448 158 551 C185 552 213 553 242 553 C297 553 360 551 430 547 C436 546 447 545 463 542 C477 539 488 538 496 538 C504 538 511 539 518 541 C534 546 551 560 570 584 C589 608 598 628 598 644 C598 651 594 656 586 658 C555 667 474 672 344 672 C245 672 178 669 141 664 C123 661 105 649 87 626 C70 603 61 583 61 564 C61 515 65 443 73 346 C81 249 85 177 85 129 C85 116 83 96 80 70 C77 44 76 25 76 12 C76 1 80 -4 88 -4 L414 -4 C474 -4 514 0 533 8 C565 20 590 50 608 98 C610 105 611 111 611 114 C611 120 607 123 599 123 C585 123 565 121 539 117 C513 114 493 112 480 112 L170 112 C173 138 175 167 175 200 C175 220 174 245 173 275 C252 278 329 279 404 279 C417 279 443 278 482 277 C513 276 539 276 558 277 C573 278 590 291 608 316 C626 342 635 363 635 380 L635 380 Z " />
<glyph glyph-name="F" unicode="F" horiz-adv-x="647" d="M616 381 C616 388 613 393 608 394 C589 397 542 399 467 399 C440 399 337 395 159 388 C162 461 164 515 164 551 C192 552 221 553 250 553 C305 553 366 551 431 547 C443 546 478 535 493 535 C502 535 509 537 516 541 C532 552 549 568 567 589 C588 613 599 632 599 645 C599 652 595 656 588 658 C561 666 491 670 376 670 C290 670 214 668 147 664 C142 668 136 670 130 670 C115 670 99 657 80 630 C62 604 53 583 53 568 C53 563 75 543 75 530 C75 495 73 441 70 368 C67 295 66 241 66 204 C66 63 79 -7 105 -7 C120 -7 137 6 157 31 C178 56 188 77 188 93 C188 93 172 115 168 134 C162 163 159 204 159 257 L159 274 C242 277 320 279 394 279 C410 279 434 279 466 278 C499 277 523 277 538 277 C554 277 572 290 591 317 C608 343 616 364 616 381 L616 381 Z " />
<glyph glyph-name="G" unicode="G" horiz-adv-x="745" d="M709 381 C709 388 705 392 697 392 C512 392 406 387 378 376 C364 371 349 356 332 333 C315 310 307 290 307 275 C307 267 311 263 318 263 C321 263 324 264 327 265 C352 271 380 274 413 274 C436 274 470 274 515 275 L615 275 C604 203 591 159 578 142 C569 128 542 118 499 111 C469 106 439 104 409 104 C352 104 300 118 253 146 C202 175 165 215 143 266 C133 288 128 310 128 331 C128 371 153 418 202 473 C249 524 294 555 335 567 C337 568 339 568 341 568 C356 568 389 555 440 530 C491 505 519 493 523 493 C538 493 555 506 574 533 C593 558 603 579 603 596 C603 604 588 616 557 633 L498 662 C467 679 441 687 420 687 C410 687 400 685 391 682 C314 655 238 597 162 506 C81 410 41 323 41 244 C41 171 65 114 114 72 C181 15 259 -13 346 -13 C413 -13 477 3 539 36 C601 69 648 114 680 170 C689 187 694 208 694 234 C694 251 696 276 701 308 C706 341 709 365 709 381 L709 381 Z " />
<glyph glyph-name="H" unicode="H" horiz-adv-x="695" d="M660 94 C660 97 658 100 654 103 C644 110 637 132 634 171 C631 210 630 254 630 304 C630 337 631 386 634 452 C637 519 639 569 639 602 C639 647 628 670 605 670 C589 670 571 657 552 631 C533 606 524 585 524 568 C524 563 528 558 535 553 C542 548 546 529 546 495 C546 484 545 468 544 445 C543 423 542 407 542 397 C477 398 347 395 152 388 C152 408 153 438 155 479 C157 520 158 550 158 571 C158 602 157 622 156 631 C151 657 141 670 125 670 C109 670 92 657 73 632 C54 607 45 585 45 567 C45 558 49 553 56 553 C63 542 67 531 67 520 C67 485 66 432 63 361 C60 290 59 237 59 201 C59 63 71 -6 96 -6 C113 -6 132 6 151 29 C171 53 181 74 181 93 C181 93 164 115 160 134 C154 162 151 203 151 257 L151 274 C251 278 324 280 370 280 C389 280 417 279 455 278 C493 277 521 277 540 277 L540 243 C539 222 539 204 539 188 C539 59 551 -6 575 -6 C593 -6 612 6 631 30 C650 54 660 75 660 94 L660 94 Z " />
<glyph glyph-name="I" unicode="I" horiz-adv-x="661" d="M615 113 C615 120 612 125 606 127 C592 130 556 132 498 132 C475 132 439 131 389 130 C386 141 384 155 383 171 C380 213 378 261 378 315 C378 345 379 384 381 433 C384 495 386 533 386 548 C492 546 542 545 535 545 C551 545 568 558 586 584 C605 611 614 633 614 650 C614 657 611 661 605 663 C591 666 555 668 497 668 C508 668 465 667 368 666 L334 665 C231 664 163 661 132 657 C117 655 100 641 81 614 C63 587 54 566 54 550 C54 543 59 540 69 540 C98 540 134 541 179 543 L288 548 C293 540 296 527 296 508 C296 477 295 431 292 370 C289 309 288 264 288 233 C288 184 288 149 289 128 C221 128 169 126 133 121 C118 119 101 105 82 78 C64 51 55 30 55 14 C55 7 60 4 70 4 C99 4 139 5 188 7 C247 10 286 11 307 12 C320 12 358 11 422 10 C476 9 514 9 536 9 C552 9 569 22 587 48 C606 75 615 96 615 113 L615 113 Z " />
<glyph glyph-name="J" unicode="J" horiz-adv-x="680" d="M666 649 C666 656 662 660 655 662 C645 665 611 667 552 667 C419 667 330 663 286 656 C271 653 255 639 236 612 C217 586 208 565 208 549 C208 542 213 539 224 539 C252 539 294 541 350 544 C407 547 450 549 479 548 L510 548 C531 390 541 284 541 231 C541 156 491 118 392 118 C331 118 274 134 221 165 C160 202 129 249 129 306 C129 321 138 359 138 375 C138 383 135 387 130 387 C125 387 118 384 107 377 C62 349 39 299 39 226 C39 157 69 102 129 60 C181 23 243 4 315 4 C399 4 470 32 528 88 C587 144 619 214 624 299 C626 322 627 346 627 372 C627 434 622 496 613 558 C623 566 634 580 647 601 C660 622 666 638 666 649 L666 649 Z " />
<glyph glyph-name="K" unicode="K" horiz-adv-x="714" d="M694 106 C694 112 683 115 662 115 C641 115 627 116 621 117 C544 136 411 224 221 379 C262 404 313 434 374 469 C457 514 507 536 524 536 C527 536 536 534 539 534 C552 534 569 549 589 578 C606 606 615 627 615 641 C615 650 610 655 601 655 C555 655 407 578 156 424 L159 499 C161 532 162 556 162 573 C162 638 150 670 127 670 C112 670 95 657 76 631 C57 606 47 585 47 568 C47 565 51 559 58 552 C65 545 69 531 69 508 C69 477 68 431 65 369 C63 307 62 261 62 230 C62 73 75 -6 100 -6 C117 -6 135 6 154 30 C173 54 183 75 183 94 C183 94 167 115 163 134 C157 162 154 202 154 254 C203 214 263 169 334 118 C395 75 432 49 447 40 C496 11 538 -3 573 -3 C601 -3 625 6 646 23 C657 33 667 46 678 61 C689 79 694 94 694 106 L694 106 Z " />
<glyph glyph-name="L" unicode="L" horiz-adv-x="554" d="M561 111 C561 119 557 123 549 123 C540 123 523 121 498 117 C473 114 454 112 441 112 L257 111 C221 111 189 111 162 112 C151 136 146 200 146 303 C146 333 147 377 149 436 C152 495 153 540 153 569 C153 601 152 622 150 632 C146 657 134 670 114 670 C102 670 86 657 67 630 C48 603 38 583 38 568 C38 563 62 543 62 520 C62 500 61 473 60 439 C57 400 56 372 56 356 C55 302 54 257 54 220 C54 121 58 54 67 20 C71 5 80 -3 94 -4 C101 -5 125 -5 164 -5 L235 -5 C270 -6 298 -6 319 -6 C394 -5 448 -1 481 6 C497 10 514 24 533 49 C552 74 561 94 561 111 L561 111 Z " />
<glyph glyph-name="M" unicode="M" horiz-adv-x="837" d="M814 126 C814 131 811 133 806 133 L793 133 C790 134 788 139 785 147 C775 179 768 240 763 331 C762 339 760 403 757 524 C755 570 754 613 754 654 C754 669 750 676 742 676 C730 676 717 668 704 653 C669 614 624 543 568 440 C519 349 482 271 457 208 C429 255 390 311 340 377 C267 471 226 526 215 541 C183 586 164 622 159 649 C157 658 154 662 150 662 C138 662 122 649 101 623 C80 598 69 578 67 565 C64 524 62 494 62 473 C59 394 57 320 57 249 C57 79 70 -6 96 -6 C112 -6 130 6 150 31 C170 56 180 77 180 94 C180 98 178 101 174 104 C157 116 149 184 149 308 L149 399 C244 279 342 162 409 15 C411 10 415 7 420 7 C429 7 442 18 461 41 C478 60 489 76 494 88 C497 95 498 105 499 118 C500 135 502 151 507 167 C532 259 584 370 664 501 C665 402 669 307 676 216 L684 102 C691 41 704 11 721 11 C734 11 753 26 777 57 C802 88 814 111 814 126 L814 126 Z " />
<glyph glyph-name="N" unicode="N" horiz-adv-x="744" d="M694 548 C694 630 675 671 638 671 C620 671 601 659 582 634 C563 609 554 587 554 567 C554 560 557 556 563 556 C564 556 565 556 566 557 L570 557 C590 556 600 515 600 435 C600 410 599 372 596 322 C594 273 593 236 593 211 C410 377 277 507 193 602 C172 633 158 656 150 672 C148 678 145 681 140 681 C131 681 118 670 101 649 C72 612 57 575 57 538 C57 533 57 524 58 511 L58 478 L58 387 C58 124 74 -8 106 -8 C119 -8 136 5 157 31 C178 57 188 78 188 93 C188 96 186 99 183 103 C177 109 172 118 169 130 C167 137 165 148 163 161 C154 228 150 323 150 446 C220 365 325 263 466 140 C529 78 576 31 607 -1 C610 -4 613 -6 616 -6 C629 -6 646 9 665 40 C683 69 692 90 692 105 C692 130 691 168 688 219 C686 270 685 308 685 333 C685 357 686 393 689 440 C692 488 694 524 694 548 L694 548 Z " />
<glyph glyph-name="O" unicode="O" horiz-adv-x="787" d="M764 412 C764 481 730 540 661 591 C632 613 593 634 544 654 C491 677 448 689 417 689 C404 689 393 687 384 682 C313 649 240 590 166 505 C85 411 44 329 44 260 C44 199 70 143 121 90 C166 44 219 9 281 -14 C301 -20 320 -23 338 -23 C359 -23 382 -19 407 -10 C492 21 571 76 644 157 C724 245 764 330 764 412 L764 412 Z M675 321 C675 288 660 255 630 224 C597 191 563 163 527 139 C481 108 441 92 408 92 C353 92 294 119 231 174 C167 231 135 287 135 341 C135 382 158 427 204 474 C240 509 282 540 330 567 C337 568 343 568 349 568 C388 568 436 560 493 544 C565 523 620 471 657 390 C669 365 675 342 675 321 L675 321 Z " />
<glyph glyph-name="P" unicode="P" horiz-adv-x="646" d="M642 593 C642 632 623 658 584 670 C565 677 529 680 476 680 C399 680 295 671 164 653 C157 664 149 670 140 670 C121 670 100 653 76 620 C52 587 40 560 40 541 C40 534 43 530 50 530 C44 530 54 531 80 534 C81 527 82 518 82 507 C82 476 81 430 78 367 C75 304 74 258 74 227 C74 72 86 -6 111 -6 C128 -6 146 5 165 28 C184 51 194 72 194 90 C194 98 177 126 176 134 C170 157 167 197 167 253 C310 264 425 305 510 376 C598 450 642 522 642 593 L642 593 Z M552 514 C552 498 543 482 524 465 C455 399 336 366 167 366 C167 433 169 493 172 545 C279 556 357 562 406 562 C503 562 552 546 552 514 L552 514 Z " />
<glyph glyph-name="Q" unicode="Q" horiz-adv-x="776" d="M765 109 C765 122 761 129 753 129 C746 129 726 112 714 112 C693 112 663 128 626 160 C703 249 742 331 742 407 C742 494 690 566 586 624 C509 667 446 689 398 689 C368 689 322 663 259 611 C102 481 23 363 23 258 C23 197 49 141 101 90 C144 45 197 10 260 -14 C278 -20 296 -23 315 -23 C371 -23 440 6 522 64 C575 21 618 0 649 0 C672 0 697 12 724 37 C751 62 765 86 765 109 L765 109 Z M652 325 C652 282 629 238 583 195 C557 218 532 242 509 266 C478 298 454 322 439 339 L432 341 C417 341 399 328 380 303 C361 278 351 257 351 240 C351 229 389 187 466 114 C451 100 423 93 384 93 C330 93 272 121 209 177 C145 235 113 291 113 345 C113 384 137 427 184 475 C220 511 262 542 310 567 L320 567 C370 568 424 559 482 542 C523 529 562 501 598 458 C634 413 652 368 652 325 L652 325 Z " />
<glyph glyph-name="R" unicode="R" horiz-adv-x="714" d="M665 107 C665 115 661 119 652 119 C647 119 630 117 622 117 C593 117 539 139 461 184 C402 216 351 248 307 281 C399 302 478 340 543 395 C574 421 601 450 622 483 C648 523 661 560 661 593 C661 632 642 658 604 671 C583 677 547 680 495 680 C420 680 312 671 170 654 C163 664 155 669 146 669 C128 669 107 652 83 618 C60 585 48 559 48 540 C48 534 52 531 59 531 C58 531 68 532 87 535 C89 524 90 511 90 494 C90 477 89 452 86 419 C83 386 82 361 82 345 C67 324 60 306 60 292 C60 285 67 276 81 267 C81 178 81 127 82 116 C87 35 98 -6 117 -6 C134 -6 153 6 172 30 C191 54 201 75 201 94 C201 99 190 104 187 116 L182 134 C177 155 175 178 175 201 C367 66 491 -1 548 -1 C575 -1 601 10 626 33 C652 56 665 80 665 107 L665 107 Z M568 514 C568 502 562 490 550 478 C482 409 356 375 173 375 C173 436 175 493 178 545 C305 558 385 565 418 565 C518 565 568 548 568 514 L568 514 Z " />
<glyph glyph-name="S" unicode="S" horiz-adv-x="711" d="M668 275 C668 332 641 368 588 382 C551 391 486 399 392 404 C309 409 244 420 199 439 C170 450 156 462 156 475 C156 505 178 530 222 550 C257 567 292 575 327 575 C354 575 381 570 407 560 C426 553 444 543 461 530 C476 520 483 515 484 515 C497 515 513 528 532 555 C552 582 562 603 562 616 C562 622 560 627 557 632 C525 673 474 693 404 693 C324 693 255 669 197 620 C145 575 105 513 77 434 C72 417 69 403 69 392 C69 353 100 325 162 310 C197 301 241 294 294 291 L427 283 C526 274 575 242 575 187 C575 158 558 136 523 120 C496 108 465 102 432 102 C362 102 289 119 214 153 C186 166 165 189 152 221 C150 225 148 227 145 227 C132 227 115 214 94 187 C73 161 62 141 62 128 C62 80 101 43 180 17 C237 -2 296 -12 355 -12 C485 -12 584 61 651 207 C662 231 668 254 668 275 L668 275 Z " />
<glyph glyph-name="T" unicode="T" horiz-adv-x="515" d="M524 649 C524 656 521 661 516 662 C500 665 454 667 377 667 C252 667 158 663 94 656 C78 654 61 640 43 613 C25 586 16 565 16 549 C16 542 19 539 24 539 C44 539 74 540 113 543 C153 546 183 547 202 547 C216 547 223 534 223 508 C223 477 222 430 219 367 C216 305 215 258 215 227 C215 72 227 -6 251 -6 C268 -6 287 6 306 29 C326 52 336 73 336 92 C336 92 320 112 316 131 C309 166 305 225 305 308 C305 379 308 459 313 549 C328 549 350 548 380 547 C410 546 432 545 447 545 C464 545 481 558 499 585 C516 610 524 632 524 649 L524 649 Z " />
<glyph glyph-name="U" unicode="U" horiz-adv-x="675" d="M620 383 C620 411 617 457 610 521 C603 590 597 634 591 651 C589 658 585 661 580 661 C567 661 550 647 529 620 C509 593 500 573 501 559 L501 550 C502 525 508 479 519 414 C527 357 531 312 531 279 C531 218 523 177 508 156 C489 132 450 120 390 120 C228 120 147 191 147 334 C147 405 153 483 166 568 C173 616 176 639 176 636 C176 647 173 653 166 653 C151 653 134 640 115 614 C98 590 88 570 85 553 C68 470 59 380 59 282 C59 247 60 217 62 190 C67 127 94 79 142 46 C183 17 236 2 303 2 C410 2 492 40 547 116 C596 183 620 272 620 383 L620 383 Z " />
<glyph glyph-name="V" unicode="V" horiz-adv-x="664" d="M662 646 C662 657 656 663 645 666 C641 667 630 668 613 668 C602 668 594 665 589 659 C580 638 576 621 576 608 C559 573 546 547 536 529 C459 380 404 265 371 184 C324 243 277 322 230 420 C153 586 113 671 109 676 C107 678 105 679 103 679 C88 679 70 666 50 641 C31 616 21 595 21 578 C21 572 23 567 26 563 C77 489 126 400 173 296 C195 246 217 196 240 147 C267 90 294 42 319 4 C324 -3 328 -6 333 -6 C343 -6 358 9 377 38 C395 65 406 84 409 97 C427 165 444 216 460 250 L530 404 C561 470 587 520 608 553 C616 566 649 587 657 602 C660 628 662 643 662 646 L662 646 Z " />
<glyph glyph-name="W" unicode="W" horiz-adv-x="871" d="M899 650 C899 668 884 677 853 677 C820 677 801 661 796 629 C791 604 788 587 785 579 L723 402 C698 331 678 272 663 224 C636 303 608 381 580 460 C537 584 509 654 496 670 C493 675 488 677 483 677 C469 677 452 665 432 640 C413 616 403 596 403 579 L403 574 C344 409 305 293 284 224 C250 283 220 355 194 442 C151 583 125 659 117 670 C114 674 111 676 106 676 C91 676 72 663 50 638 C28 613 17 591 17 574 C17 570 22 559 32 541 L54 506 C83 451 112 383 139 301 L205 90 L221 37 C229 10 236 -3 243 -3 C255 -3 271 11 292 38 C311 63 321 83 324 97 C343 186 355 240 361 259 L442 499 C479 400 505 325 520 274 L566 140 C574 113 583 87 592 60 C606 18 616 -3 623 -3 C634 -3 650 10 669 36 C688 62 700 82 703 97 L720 178 C726 210 732 237 739 259 C802 444 837 547 845 566 C848 573 858 588 875 611 C891 632 899 645 899 650 L899 650 Z " />
<glyph glyph-name="X" unicode="X" horiz-adv-x="691" d="M648 81 C648 87 646 92 643 96 C608 133 581 161 562 179 C508 236 454 295 401 357 C443 413 480 464 511 509 C532 541 549 565 560 580 C564 585 572 591 585 597 C598 603 605 608 608 613 C614 621 617 634 617 652 C617 674 609 685 593 685 C580 685 564 679 545 666 C526 654 517 642 517 631 C517 627 520 617 520 613 C520 602 470 530 369 397 C296 486 232 568 179 644 C164 666 152 682 145 693 L140 695 C125 695 106 680 83 651 C60 622 49 600 49 583 C49 578 50 573 53 569 C106 509 148 465 177 437 L297 298 C198 168 143 101 130 97 C76 80 49 56 49 25 C49 16 56 6 71 -4 C86 -14 98 -19 108 -19 C113 -19 119 -17 124 -13 C135 -6 145 7 154 26 C165 49 173 64 178 69 C241 146 291 209 328 259 C373 202 436 122 516 19 L550 -27 L556 -29 C571 -29 590 -15 613 14 C636 43 648 66 648 81 L648 81 Z " />
<glyph glyph-name="Y" unicode="Y" horiz-adv-x="626" d="M629 629 C629 646 616 672 603 672 C594 672 582 669 566 663 C549 656 541 649 541 643 C541 639 545 628 545 624 C545 609 516 576 459 524 C400 471 360 445 341 445 C337 445 333 446 330 448 C271 479 207 529 139 600 C116 624 100 642 89 654 C86 656 83 657 79 657 C65 657 48 644 29 617 C10 591 0 571 0 556 C0 547 8 536 23 525 L60 504 C85 485 123 454 173 411 C235 359 265 330 264 324 C261 285 260 248 260 214 C260 69 277 -3 312 -3 C328 -3 345 10 362 37 C379 61 388 82 388 101 C388 104 384 112 375 127 C367 142 363 153 362 159 C356 189 353 236 353 301 L354 360 C388 390 414 413 431 430 C498 496 549 546 582 581 C602 596 629 610 629 629 L629 629 Z " />
<glyph glyph-name="Z" unicode="Z" horiz-adv-x="645" d="M598 645 C598 662 579 671 542 671 C411 671 281 660 154 638 C139 635 121 621 101 596 C82 571 72 550 72 533 C72 525 77 521 86 521 C86 521 106 524 147 529 C254 545 336 553 394 553 C421 553 447 552 473 550 C400 468 320 372 231 263 C210 234 188 206 167 178 C142 147 117 122 94 104 C65 80 50 57 50 34 C50 23 73 0 86 -1 C90 -2 100 -2 117 -2 C281 -2 403 6 482 21 C507 26 530 39 550 61 C570 83 580 106 580 131 C580 141 576 146 567 146 C563 146 539 135 532 134 C455 119 377 111 298 111 C261 111 222 112 182 115 C229 182 288 258 359 343 L548 562 C581 600 598 628 598 645 L598 645 Z " />
<glyph glyph-name="bracketleft" unicode="&#x5b;" horiz-adv-x="435" d="M400 -65 C400 -58 397 -54 392 -54 L153 -54 C148 63 145 185 145 313 C145 439 148 575 153 722 C246 725 293 726 294 726 C310 728 327 742 344 767 C362 792 371 813 371 830 C371 837 367 842 360 843 C359 844 353 844 341 844 C330 844 316 843 297 842 C276 841 261 840 253 840 L143 837 C125 835 107 822 89 799 C71 776 62 755 62 736 C62 716 63 690 64 657 C66 614 67 588 67 578 C70 488 71 392 71 291 C71 196 69 96 66 -11 C66 -20 65 -40 64 -73 C63 -100 62 -121 62 -138 C62 -160 66 -171 73 -171 L323 -171 C339 -171 356 -158 373 -131 C391 -104 400 -82 400 -65 L400 -65 Z " />
<glyph glyph-name="backslash" unicode="&#x5c;" horiz-adv-x="365" d="M356 -44 C356 -36 349 -13 336 26 L309 103 C245 290 189 479 142 670 C136 695 130 719 125 744 C115 785 107 805 101 805 C86 805 69 792 48 765 C28 738 18 718 18 703 C18 695 25 672 39 633 L67 556 C127 382 183 193 234 -12 L250 -85 C261 -124 269 -144 275 -144 C290 -144 307 -131 326 -105 C346 -79 356 -59 356 -44 L356 -44 Z " />
<glyph glyph-name="bracketright" unicode="&#x5d;" horiz-adv-x="435" d="M383 812 C383 833 379 843 372 843 L123 843 C108 843 91 829 72 802 C53 775 43 753 43 736 C43 729 46 726 53 726 L292 726 C298 603 301 478 301 349 C301 220 298 87 292 -50 C199 -53 153 -54 152 -54 C136 -56 119 -70 101 -95 C83 -120 74 -141 74 -158 C74 -165 78 -170 85 -171 C86 -172 92 -172 105 -172 C115 -172 129 -171 148 -170 C170 -169 185 -168 192 -168 L304 -165 C321 -163 339 -150 356 -127 C374 -104 383 -83 383 -64 C383 -45 382 -22 381 7 C380 47 379 71 379 78 C376 181 374 282 374 380 C374 481 375 581 378 682 C379 691 380 712 381 746 C382 773 383 795 383 812 L383 812 Z " />
<glyph glyph-name="asciicircum" unicode="&#x5e;" horiz-adv-x="555" d="M517 545 C517 551 515 556 511 559 C508 563 474 588 411 635 C348 682 314 707 310 709 C306 712 303 713 301 713 C293 713 223 658 92 549 C79 538 68 526 59 512 C48 495 42 480 42 467 C42 456 45 450 50 450 C59 450 90 471 142 512 C173 537 204 563 235 590 L341 510 C400 466 433 444 438 444 C453 444 469 457 488 483 C507 509 517 530 517 545 L517 545 Z " />
<glyph glyph-name="underscore" unicode="&#x5f;" horiz-adv-x="617" d="M595 50 C595 57 591 62 584 63 C571 66 536 68 478 68 C458 68 415 67 349 66 L230 64 C183 63 143 61 112 58 C97 56 81 42 62 15 C43 -11 34 -32 34 -49 C34 -56 39 -59 50 -59 C81 -59 126 -57 186 -54 C247 -51 292 -50 323 -50 C344 -50 376 -51 419 -52 C462 -53 494 -54 516 -54 C531 -54 548 -41 567 -15 C586 11 595 33 595 50 L595 50 Z " />
<glyph glyph-name="grave" unicode="&#x60;" horiz-adv-x="296" d="M288 707 C289 711 277 715 249 724 C235 729 225 732 218 733 L175 751 C156 759 142 765 133 768 C104 778 79 783 58 783 C43 783 26 780 9 774 C6 773 4 771 3 770 C2 767 7 764 18 760 C57 743 91 730 122 719 C169 702 205 693 232 693 C249 693 266 696 281 702 C285 703 287 705 288 707 L288 707 Z " />
<glyph glyph-name="a" unicode="a" horiz-adv-x="694" d="M703 97 C703 102 701 107 698 112 C665 157 623 223 574 310 C521 405 480 480 449 537 L415 605 C402 633 390 655 379 670 C374 677 368 681 361 681 C348 681 331 670 309 649 C287 628 275 611 272 598 C275 589 277 580 277 569 C277 536 248 462 190 345 C144 249 104 175 71 124 C67 118 54 107 31 90 C12 74 2 63 2 56 C2 32 15 7 36 7 C51 7 69 13 89 26 C109 39 119 53 119 67 C119 70 119 75 118 82 C117 88 117 93 118 96 C119 101 120 105 123 109 C291 116 427 122 532 128 C546 103 560 79 573 54 C597 16 614 -3 624 -3 C639 -3 655 10 674 35 C693 60 703 81 703 97 L703 97 Z M187 226 C269 383 315 473 326 498 C373 411 408 347 433 305 C452 268 464 246 469 238 L187 226 Z " />
<glyph glyph-name="b" unicode="b" horiz-adv-x="720" d="M684 289 C684 363 618 402 486 407 C554 470 588 532 588 593 C588 633 571 658 538 669 C525 674 491 676 438 676 C357 676 267 670 170 657 C163 666 156 670 148 670 C133 670 112 653 86 620 C61 587 48 563 48 546 C48 538 52 534 61 534 C62 534 71 535 87 538 C90 529 92 517 92 502 C92 470 91 422 88 357 C86 292 85 244 85 211 C85 112 89 49 97 23 C96 22 96 20 96 18 C96 5 105 -2 124 -2 C131 -2 138 -1 143 2 C244 -3 297 -5 303 -5 C386 -5 454 7 506 31 C548 51 585 82 618 125 C647 164 668 209 680 258 C683 269 684 279 684 289 L684 289 Z M496 511 C484 476 441 449 368 430 C311 415 247 407 176 407 C179 470 180 518 181 549 C183 549 214 552 274 558 C311 562 343 564 368 564 C453 564 496 546 496 511 L496 511 Z M595 194 C595 163 565 140 505 125 C465 114 422 109 376 109 C352 109 321 110 282 113 L188 120 C179 139 175 191 175 275 C249 288 318 294 381 294 C524 294 595 261 595 194 L595 194 Z " />
<glyph glyph-name="c" unicode="c" horiz-adv-x="727" d="M690 212 C690 223 685 229 674 229 C667 229 659 224 649 214 C632 196 615 178 599 159 C582 144 559 132 531 124 C486 111 443 104 402 104 C345 104 293 118 244 146 C193 175 157 215 136 266 C125 289 120 310 120 331 C120 383 153 432 230 505 C277 548 311 569 334 569 C350 569 385 546 438 501 C491 456 522 434 530 434 C545 434 562 447 581 474 C600 499 609 519 609 535 C609 542 601 550 586 561 C575 568 565 576 555 583 L484 647 C452 672 424 685 400 685 C380 685 350 672 310 645 C278 623 251 601 228 579 C99 454 35 341 35 240 C35 162 66 99 129 52 C186 9 254 -12 335 -12 C469 -12 578 44 662 155 C681 180 690 199 690 212 L690 212 Z " />
<glyph glyph-name="d" unicode="d" horiz-adv-x="716" d="M683 414 C683 587 568 674 337 674 C253 674 190 668 147 656 C130 652 112 638 93 614 C75 590 66 569 66 552 C66 543 70 539 78 539 C75 539 89 542 120 547 C115 534 113 511 113 478 C113 453 115 415 119 364 C123 314 125 276 125 250 C125 195 110 142 79 91 C76 87 75 82 75 77 C75 58 88 39 113 21 C136 4 157 -4 178 -4 C380 -4 527 67 619 210 C662 276 683 344 683 414 L683 414 Z M592 329 C592 250 557 194 487 159 C442 137 373 122 279 114 C251 111 237 110 238 110 C231 110 226 111 223 113 C208 123 200 189 200 311 C200 378 205 460 214 557 C233 558 253 559 272 559 C361 559 433 544 488 513 C557 474 592 412 592 329 L592 329 Z " />
<glyph glyph-name="e" unicode="e" horiz-adv-x="678" d="M635 380 C635 388 632 393 626 394 C611 397 573 398 513 398 C425 398 309 395 166 388 C166 393 163 448 158 551 C185 552 213 553 242 553 C297 553 360 551 430 547 C436 546 447 545 463 542 C477 539 488 538 496 538 C504 538 511 539 518 541 C534 546 551 560 570 584 C589 608 598 628 598 644 C598 651 594 656 586 658 C555 667 474 672 344 672 C245 672 178 669 141 664 C123 661 105 649 87 626 C70 603 61 583 61 564 C61 515 65 443 73 346 C81 249 85 177 85 129 C85 116 83 96 80 70 C77 44 76 25 76 12 C76 1 80 -4 88 -4 L414 -4 C474 -4 514 0 533 8 C565 20 590 50 608 98 C610 105 611 111 611 114 C611 120 607 123 599 123 C585 123 565 121 539 117 C513 114 493 112 480 112 L170 112 C173 138 175 167 175 200 C175 220 174 245 173 275 C252 278 329 279 404 279 C417 279 443 278 482 277 C513 276 539 276 558 277 C573 278 590 291 608 316 C626 342 635 363 635 380 L635 380 Z " />
<glyph glyph-name="f" unicode="f" horiz-adv-x="647" d="M616 381 C616 388 613 393 608 394 C589 397 542 399 467 399 C440 399 337 395 159 388 C162 461 164 515 164 551 C192 552 221 553 250 553 C305 553 366 551 431 547 C443 546 478 535 493 535 C502 535 509 537 516 541 C532 552 549 568 567 589 C588 613 599 632 599 645 C599 652 595 656 588 658 C561 666 491 670 376 670 C290 670 214 668 147 664 C142 668 136 670 130 670 C115 670 99 657 80 630 C62 604 53 583 53 568 C53 563 75 543 75 530 C75 495 73 441 70 368 C67 295 66 241 66 204 C66 63 79 -7 105 -7 C120 -7 137 6 157 31 C178 56 188 77 188 93 C188 93 172 115 168 134 C162 163 159 204 159 257 L159 274 C242 277 320 279 394 279 C410 279 434 279 466 278 C499 277 523 277 538 277 C554 277 572 290 591 317 C608 343 616 364 616 381 L616 381 Z " />
<glyph glyph-name="g" unicode="g" horiz-adv-x="745" d="M709 381 C709 388 705 392 697 392 C512 392 406 387 378 376 C364 371 349 356 332 333 C315 310 307 290 307 275 C307 267 311 263 318 263 C321 263 324 264 327 265 C352 271 380 274 413 274 C436 274 470 274 515 275 L615 275 C604 203 591 159 578 142 C569 128 542 118 499 111 C469 106 439 104 409 104 C352 104 300 118 253 146 C202 175 165 215 143 266 C133 288 128 310 128 331 C128 371 153 418 202 473 C249 524 294 555 335 567 C337 568 339 568 341 568 C356 568 389 555 440 530 C491 505 519 493 523 493 C538 493 555 506 574 533 C593 558 603 579 603 596 C603 604 588 616 557 633 L498 662 C467 679 441 687 420 687 C410 687 400 685 391 682 C314 655 238 597 162 506 C81 410 41 323 41 244 C41 171 65 114 114 72 C181 15 259 -13 346 -13 C413 -13 477 3 539 36 C601 69 648 114 680 170 C689 187 694 208 694 234 C694 251 696 276 701 308 C706 341 709 365 709 381 L709 381 Z " />
<glyph glyph-name="h" unicode="h" horiz-adv-x="695" d="M660 94 C660 97 658 100 654 103 C644 110 637 132 634 171 C631 210 630 254 630 304 C630 337 631 386 634 452 C637 519 639 569 639 602 C639 647 628 670 605 670 C589 670 571 657 552 631 C533 606 524 585 524 568 C524 563 528 558 535 553 C542 548 546 529 546 495 C546 484 545 468 544 445 C543 423 542 407 542 397 C477 398 347 395 152 388 C152 408 153 438 155 479 C157 520 158 550 158 571 C158 602 157 622 156 631 C151 657 141 670 125 670 C109 670 92 657 73 632 C54 607 45 585 45 567 C45 558 49 553 56 553 C63 542 67 531 67 520 C67 485 66 432 63 361 C60 290 59 237 59 201 C59 63 71 -6 96 -6 C113 -6 132 6 151 29 C171 53 181 74 181 93 C181 93 164 115 160 134 C154 162 151 203 151 257 L151 274 C251 278 324 280 370 280 C389 280 417 279 455 278 C493 277 521 277 540 277 L540 243 C539 222 539 204 539 188 C539 59 551 -6 575 -6 C593 -6 612 6 631 30 C650 54 660 75 660 94 L660 94 Z " />
<glyph glyph-name="i" unicode="i" horiz-adv-x="268" d="M212 94 C212 97 210 100 206 103 C196 110 190 132 187 171 C184 213 182 261 182 315 C182 347 183 395 186 458 C189 522 190 570 190 603 C190 648 177 670 152 670 C139 670 123 657 104 630 C85 603 76 583 76 568 C76 565 80 559 88 552 C96 545 100 530 100 508 C100 477 99 431 96 370 C93 309 92 264 92 233 C92 74 104 -6 128 -6 C145 -6 163 6 182 30 C202 54 212 75 212 94 L212 94 Z " />
<glyph glyph-name="j" unicode="j" horiz-adv-x="680" d="M666 649 C666 656 662 660 655 662 C645 665 611 667 552 667 C419 667 330 663 286 656 C271 653 255 639 236 612 C217 586 208 565 208 549 C208 542 213 539 224 539 C252 539 294 541 350 544 C407 547 450 549 479 548 L510 548 C531 390 541 284 541 231 C541 156 491 118 392 118 C331 118 274 134 221 165 C160 202 129 249 129 306 C129 321 138 359 138 375 C138 383 135 387 130 387 C125 387 118 384 107 377 C62 349 39 299 39 226 C39 157 69 102 129 60 C181 23 243 4 315 4 C399 4 470 32 528 88 C587 144 619 214 624 299 C626 322 627 346 627 372 C627 434 622 496 613 558 C623 566 634 580 647 601 C660 622 666 638 666 649 L666 649 Z " />
<glyph glyph-name="k" unicode="k" horiz-adv-x="714" d="M694 106 C694 112 683 115 662 115 C641 115 627 116 621 117 C544 136 411 224 221 379 C262 404 313 434 374 469 C457 514 507 536 524 536 C527 536 536 534 539 534 C552 534 569 549 589 578 C606 606 615 627 615 641 C615 650 610 655 601 655 C555 655 407 578 156 424 L159 499 C161 532 162 556 162 573 C162 638 150 670 127 670 C112 670 95 657 76 631 C57 606 47 585 47 568 C47 565 51 559 58 552 C65 545 69 531 69 508 C69 477 68 431 65 369 C63 307 62 261 62 230 C62 73 75 -6 100 -6 C117 -6 135 6 154 30 C173 54 183 75 183 94 C183 94 167 115 163 134 C157 162 154 202 154 254 C203 214 263 169 334 118 C395 75 432 49 447 40 C496 11 538 -3 573 -3 C601 -3 625 6 646 23 C657 33 667 46 678 61 C689 79 694 94 694 106 L694 106 Z " />
<glyph glyph-name="l" unicode="l" horiz-adv-x="554" d="M561 111 C561 119 557 123 549 123 C540 123 523 121 498 117 C473 114 454 112 441 112 L257 111 C221 111 189 111 162 112 C151 136 146 200 146 303 C146 333 147 377 149 436 C152 495 153 540 153 569 C153 601 152 622 150 632 C146 657 134 670 114 670 C102 670 86 657 67 630 C48 603 38 583 38 568 C38 563 62 543 62 520 C62 500 61 473 60 439 C57 400 56 372 56 356 C55 302 54 257 54 220 C54 121 58 54 67 20 C71 5 80 -3 94 -4 C101 -5 125 -5 164 -5 L235 -5 C270 -6 298 -6 319 -6 C394 -5 448 -1 481 6 C497 10 514 24 533 49 C552 74 561 94 561 111 L561 111 Z " />
<glyph glyph-name="m" unicode="m" horiz-adv-x="837" d="M814 126 C814 131 811 133 806 133 L793 133 C790 134 788 139 785 147 C775 179 768 240 763 331 C762 339 760 403 757 524 C755 570 754 613 754 654 C754 669 750 676 742 676 C730 676 717 668 704 653 C669 614 624 543 568 440 C519 349 482 271 457 208 C429 255 390 311 340 377 C267 471 226 526 215 541 C183 586 164 622 159 649 C157 658 154 662 150 662 C138 662 122 649 101 623 C80 598 69 578 67 565 C64 524 62 494 62 473 C59 394 57 320 57 249 C57 79 70 -6 96 -6 C112 -6 130 6 150 31 C170 56 180 77 180 94 C180 98 178 101 174 104 C157 116 149 184 149 308 L149 399 C244 279 342 162 409 15 C411 10 415 7 420 7 C429 7 442 18 461 41 C478 60 489 76 494 88 C497 95 498 105 499 118 C500 135 502 151 507 167 C532 259 584 370 664 501 C665 402 669 307 676 216 L684 102 C691 41 704 11 721 11 C734 11 753 26 777 57 C802 88 814 111 814 126 L814 126 Z " />
<glyph glyph-name="n" unicode="n" horiz-adv-x="744" d="M694 548 C694 630 675 671 638 671 C620 671 601 659 582 634 C563 609 554 587 554 567 C554 560 557 556 563 556 C564 556 565 556 566 557 L570 557 C590 556 600 515 600 435 C600 410 599 372 596 322 C594 273 593 236 593 211 C410 377 277 507 193 602 C172 633 158 656 150 672 C148 678 145 681 140 681 C131 681 118 670 101 649 C72 612 57 575 57 538 C57 533 57 524 58 511 L58 478 L58 387 C58 124 74 -8 106 -8 C119 -8 136 5 157 31 C178 57 188 78 188 93 C188 96 186 99 183 103 C177 109 172 118 169 130 C167 137 165 148 163 161 C154 228 150 323 150 446 C220 365 325 263 466 140 C529 78 576 31 607 -1 C610 -4 613 -6 616 -6 C629 -6 646 9 665 40 C683 69 692 90 692 105 C692 130 691 168 688 219 C686 270 685 308 685 333 C685 357 686 393 689 440 C692 488 694 524 694 548 L694 548 Z " />
<glyph glyph-name="o" unicode="o" horiz-adv-x="787" d="M764 412 C764 481 730 540 661 591 C632 613 593 634 544 654 C491 677 448 689 417 689 C404 689 393 687 384 682 C313 649 240 590 166 505 C85 411 44 329 44 260 C44 199 70 143 121 90 C166 44 219 9 281 -14 C301 -20 320 -23 338 -23 C359 -23 382 -19 407 -10 C492 21 571 76 644 157 C724 245 764 330 764 412 L764 412 Z M675 321 C675 288 660 255 630 224 C597 191 563 163 527 139 C481 108 441 92 408 92 C353 92 294 119 231 174 C167 231 135 287 135 341 C135 382 158 427 204 474 C240 509 282 540 330 567 C337 568 343 568 349 568 C388 568 436 560 493 544 C565 523 620 471 657 390 C669 365 675 342 675 321 L675 321 Z " />
<glyph glyph-name="p" unicode="p" horiz-adv-x="646" d="M642 593 C642 632 623 658 584 670 C565 677 529 680 476 680 C399 680 295 671 164 653 C157 664 149 670 140 670 C121 670 100 653 76 620 C52 587 40 560 40 541 C40 534 43 530 50 530 C44 530 54 531 80 534 C81 527 82 518 82 507 C82 476 81 430 78 367 C75 304 74 258 74 227 C74 72 86 -6 111 -6 C128 -6 146 5 165 28 C184 51 194 72 194 90 C194 98 177 126 176 134 C170 157 167 197 167 253 C310 264 425 305 510 376 C598 450 642 522 642 593 L642 593 Z M552 514 C552 498 543 482 524 465 C455 399 336 366 167 366 C167 433 169 493 172 545 C279 556 357 562 406 562 C503 562 552 546 552 514 L552 514 Z " />
<glyph glyph-name="q" unicode="q" horiz-adv-x="776" d="M765 109 C765 122 761 129 753 129 C746 129 726 112 714 112 C693 112 663 128 626 160 C703 249 742 331 742 407 C742 494 690 566 586 624 C509 667 446 689 398 689 C368 689 322 663 259 611 C102 481 23 363 23 258 C23 197 49 141 101 90 C144 45 197 10 260 -14 C278 -20 296 -23 315 -23 C371 -23 440 6 522 64 C575 21 618 0 649 0 C672 0 697 12 724 37 C751 62 765 86 765 109 L765 109 Z M652 325 C652 282 629 238 583 195 C557 218 532 242 509 266 C478 298 454 322 439 339 L432 341 C417 341 399 328 380 303 C361 278 351 257 351 240 C351 229 389 187 466 114 C451 100 423 93 384 93 C330 93 272 121 209 177 C145 235 113 291 113 345 C113 384 137 427 184 475 C220 511 262 542 310 567 L320 567 C370 568 424 559 482 542 C523 529 562 501 598 458 C634 413 652 368 652 325 L652 325 Z " />
<glyph glyph-name="r" unicode="r" horiz-adv-x="714" d="M665 107 C665 115 661 119 652 119 C647 119 630 117 622 117 C593 117 539 139 461 184 C402 216 351 248 307 281 C399 302 478 340 543 395 C574 421 601 450 622 483 C648 523 661 560 661 593 C661 632 642 658 604 671 C583 677 547 680 495 680 C420 680 312 671 170 654 C163 664 155 669 146 669 C128 669 107 652 83 618 C60 585 48 559 48 540 C48 534 52 531 59 531 C58 531 68 532 87 535 C89 524 90 511 90 494 C90 477 89 452 86 419 C83 386 82 361 82 345 C67 324 60 306 60 292 C60 285 67 276 81 267 C81 178 81 127 82 116 C87 35 98 -6 117 -6 C134 -6 153 6 172 30 C191 54 201 75 201 94 C201 99 190 104 187 116 L182 134 C177 155 175 178 175 201 C367 66 491 -1 548 -1 C575 -1 601 10 626 33 C652 56 665 80 665 107 L665 107 Z M568 514 C568 502 562 490 550 478 C482 409 356 375 173 375 C173 436 175 493 178 545 C305 558 385 565 418 565 C518 565 568 548 568 514 L568 514 Z " />
<glyph glyph-name="s" unicode="s" horiz-adv-x="711" d="M668 275 C668 332 641 368 588 382 C551 391 486 399 392 404 C309 409 244 420 199 439 C170 450 156 462 156 475 C156 505 178 530 222 550 C257 567 292 575 327 575 C354 575 381 570 407 560 C426 553 444 543 461 530 C476 520 483 515 484 515 C497 515 513 528 532 555 C552 582 562 603 562 616 C562 622 560 627 557 632 C525 673 474 693 404 693 C324 693 255 669 197 620 C145 575 105 513 77 434 C72 417 69 403 69 392 C69 353 100 325 162 310 C197 301 241 294 294 291 L427 283 C526 274 575 242 575 187 C575 158 558 136 523 120 C496 108 465 102 432 102 C362 102 289 119 214 153 C186 166 165 189 152 221 C150 225 148 227 145 227 C132 227 115 214 94 187 C73 161 62 141 62 128 C62 80 101 43 180 17 C237 -2 296 -12 355 -12 C485 -12 584 61 651 207 C662 231 668 254 668 275 L668 275 Z " />
<glyph glyph-name="t" unicode="t" horiz-adv-x="515" d="M524 649 C524 656 521 661 516 662 C500 665 454 667 377 667 C252 667 158 663 94 656 C78 654 61 640 43 613 C25 586 16 565 16 549 C16 542 19 539 24 539 C44 539 74 540 113 543 C153 546 183 547 202 547 C216 547 223 534 223 508 C223 477 222 430 219 367 C216 305 215 258 215 227 C215 72 227 -6 251 -6 C268 -6 287 6 306 29 C326 52 336 73 336 92 C336 92 320 112 316 131 C309 166 305 225 305 308 C305 379 308 459 313 549 C328 549 350 548 380 547 C410 546 432 545 447 545 C464 545 481 558 499 585 C516 610 524 632 524 649 L524 649 Z " />
<glyph glyph-name="u" unicode="u" horiz-adv-x="675" d="M620 383 C620 411 617 457 610 521 C603 590 597 634 591 651 C589 658 585 661 580 661 C567 661 550 647 529 620 C509 593 500 573 501 559 L501 550 C502 525 508 479 519 414 C527 357 531 312 531 279 C531 218 523 177 508 156 C489 132 450 120 390 120 C228 120 147 191 147 334 C147 405 153 483 166 568 C173 616 176 639 176 636 C176 647 173 653 166 653 C151 653 134 640 115 614 C98 590 88 570 85 553 C68 470 59 380 59 282 C59 247 60 217 62 190 C67 127 94 79 142 46 C183 17 236 2 303 2 C410 2 492 40 547 116 C596 183 620 272 620 383 L620 383 Z " />
<glyph glyph-name="v" unicode="v" horiz-adv-x="664" d="M662 646 C662 657 656 663 645 666 C641 667 630 668 613 668 C602 668 594 665 589 659 C580 638 576 621 576 608 C559 573 546 547 536 529 C459 380 404 265 371 184 C324 243 277 322 230 420 C153 586 113 671 109 676 C107 678 105 679 103 679 C88 679 70 666 50 641 C31 616 21 595 21 578 C21 572 23 567 26 563 C77 489 126 400 173 296 C195 246 217 196 240 147 C267 90 294 42 319 4 C324 -3 328 -6 333 -6 C343 -6 358 9 377 38 C395 65 406 84 409 97 C427 165 444 216 460 250 L530 404 C561 470 587 520 608 553 C616 566 649 587 657 602 C660 628 662 643 662 646 L662 646 Z " />
<glyph glyph-name="w" unicode="w" horiz-adv-x="871" d="M899 650 C899 668 884 677 853 677 C820 677 801 661 796 629 C791 604 788 587 785 579 L723 402 C698 331 678 272 663 224 C636 303 608 381 580 460 C537 584 509 654 496 670 C493 675 488 677 483 677 C469 677 452 665 432 640 C413 616 403 596 403 579 L403 574 C344 409 305 293 284 224 C250 283 220 355 194 442 C151 583 125 659 117 670 C114 674 111 676 106 676 C91 676 72 663 50 638 C28 613 17 591 17 574 C17 570 22 559 32 541 L54 506 C83 451 112 383 139 301 L205 90 L221 37 C229 10 236 -3 243 -3 C255 -3 271 11 292 38 C311 63 321 83 324 97 C343 186 355 240 361 259 L442 499 C479 400 505 325 520 274 L566 140 C574 113 583 87 592 60 C606 18 616 -3 623 -3 C634 -3 650 10 669 36 C688 62 700 82 703 97 L720 178 C726 210 732 237 739 259 C802 444 837 547 845 566 C848 573 858 588 875 611 C891 632 899 645 899 650 L899 650 Z " />
<glyph glyph-name="x" unicode="x" horiz-adv-x="691" d="M648 81 C648 87 646 92 643 96 C608 133 581 161 562 179 C508 236 454 295 401 357 C443 413 480 464 511 509 C532 541 549 565 560 580 C564 585 572 591 585 597 C598 603 605 608 608 613 C614 621 617 634 617 652 C617 674 609 685 593 685 C580 685 564 679 545 666 C526 654 517 642 517 631 C517 627 520 617 520 613 C520 602 470 530 369 397 C296 486 232 568 179 644 C164 666 152 682 145 693 L140 695 C125 695 106 680 83 651 C60 622 49 600 49 583 C49 578 50 573 53 569 C106 509 148 465 177 437 L297 298 C198 168 143 101 130 97 C76 80 49 56 49 25 C49 16 56 6 71 -4 C86 -14 98 -19 108 -19 C113 -19 119 -17 124 -13 C135 -6 145 7 154 26 C165 49 173 64 178 69 C241 146 291 209 328 259 C373 202 436 122 516 19 L550 -27 L556 -29 C571 -29 590 -15 613 14 C636 43 648 66 648 81 L648 81 Z " />
<glyph glyph-name="y" unicode="y" horiz-adv-x="626" d="M629 629 C629 646 616 672 603 672 C594 672 582 669 566 663 C549 656 541 649 541 643 C541 639 545 628 545 624 C545 609 516 576 459 524 C400 471 360 445 341 445 C337 445 333 446 330 448 C271 479 207 529 139 600 C116 624 100 642 89 654 C86 656 83 657 79 657 C65 657 48 644 29 617 C10 591 0 571 0 556 C0 547 8 536 23 525 L60 504 C85 485 123 454 173 411 C235 359 265 330 264 324 C261 285 260 248 260 214 C260 69 277 -3 312 -3 C328 -3 345 10 362 37 C379 61 388 82 388 101 C388 104 384 112 375 127 C367 142 363 153 362 159 C356 189 353 236 353 301 L354 360 C388 390 414 413 431 430 C498 496 549 546 582 581 C602 596 629 610 629 629 L629 629 Z " />
<glyph glyph-name="z" unicode="z" horiz-adv-x="645" d="M598 645 C598 662 579 671 542 671 C411 671 281 660 154 638 C139 635 121 621 101 596 C82 571 72 550 72 533 C72 525 77 521 86 521 C86 521 106 524 147 529 C254 545 336 553 394 553 C421 553 447 552 473 550 C400 468 320 372 231 263 C210 234 188 206 167 178 C142 147 117 122 94 104 C65 80 50 57 50 34 C50 23 73 0 86 -1 C90 -2 100 -2 117 -2 C281 -2 403 6 482 21 C507 26 530 39 550 61 C570 83 580 106 580 131 C580 141 576 146 567 146 C563 146 539 135 532 134 C455 119 377 111 298 111 C261 111 222 112 182 115 C229 182 288 258 359 343 L548 562 C581 600 598 628 598 645 L598 645 Z " />
<glyph glyph-name="braceleft" unicode="&#x7b;" horiz-adv-x="847" d="M716 621 C716 626 714 630 710 633 C696 645 673 659 640 676 L564 716 C561 717 537 732 492 760 C463 777 439 791 418 800 C415 801 412 802 409 802 C395 802 378 789 358 762 C339 735 329 714 329 699 C329 694 331 690 336 687 C346 679 398 649 491 596 C584 544 633 518 637 518 C652 518 668 531 687 558 C706 585 716 606 716 621 L716 621 Z M606 384 C606 391 603 396 596 398 C582 401 546 402 488 402 C469 402 426 401 359 400 L240 398 C193 398 154 396 123 392 C108 390 92 376 73 349 C55 323 46 302 46 285 C46 278 51 275 62 275 C92 275 137 276 197 279 C258 282 303 284 334 284 C355 284 386 283 429 282 C472 281 505 280 526 280 C542 280 559 293 578 319 C597 345 606 367 606 384 L606 384 Z M720 195 C720 206 717 212 712 212 C703 212 674 192 627 153 C567 104 507 54 446 5 C403 -30 377 -56 366 -73 C355 -91 350 -108 350 -125 C350 -132 352 -136 356 -136 C367 -136 396 -116 443 -77 C502 -28 560 22 623 70 C664 105 691 131 703 150 C714 167 720 182 720 195 L720 195 Z " />
<glyph glyph-name="bar" unicode="&#x7c;" horiz-adv-x="268" d="M212 -24 C212 -22 210 -20 206 -17 C196 -9 190 14 187 53 C184 96 182 183 182 315 C182 347 183 408 186 498 C189 588 190 649 190 681 C190 726 177 748 152 748 C139 748 123 735 104 708 C85 681 76 661 76 648 C76 644 80 638 88 631 C96 624 100 609 100 586 C100 555 99 496 96 409 C93 322 92 264 92 233 C92 -5 104 -124 128 -124 C145 -124 163 -112 182 -87 C202 -63 212 -42 212 -24 L212 -24 Z " />
<glyph glyph-name="braceright" unicode="&#x7d;" horiz-adv-x="853" d="M506 825 C506 836 504 842 499 842 C490 842 439 804 348 729 C283 676 228 631 185 593 C153 564 137 535 137 504 C137 496 139 492 144 492 C154 492 183 512 230 551 C287 602 347 651 408 699 C451 734 478 761 489 778 C500 796 506 812 506 825 L506 825 Z M811 421 C811 428 805 432 793 432 C763 432 718 430 658 427 C598 424 553 422 524 422 C502 422 469 423 426 424 C383 425 350 426 329 426 C314 426 297 413 278 386 C259 360 250 339 250 322 C250 315 254 310 261 309 C275 305 315 303 382 303 C409 303 447 304 497 306 C632 309 711 312 733 314 C750 316 767 330 784 356 C802 382 811 404 811 421 L811 421 Z M525 8 C525 13 523 17 520 20 C505 32 481 46 449 62 L373 103 C369 105 345 119 302 146 C273 163 249 177 228 186 C225 187 222 188 219 188 C204 188 188 175 169 148 C150 121 141 101 141 86 C141 80 143 75 147 72 C155 65 206 36 299 -17 C393 -70 442 -96 446 -96 C461 -96 477 -82 496 -55 C515 -28 525 -7 525 8 L525 8 Z " />
<glyph glyph-name="asciitilde" unicode="&#x7e;" horiz-adv-x="545" d="M502 408 C502 417 499 421 492 421 C480 421 432 389 349 325 C348 343 340 369 326 403 C311 445 298 466 286 466 C283 466 267 454 236 429 C204 401 185 385 178 381 C151 365 126 346 105 324 C76 296 61 270 60 246 L60 240 C59 233 62 229 67 229 C77 229 89 235 103 247 C154 289 192 319 219 338 C246 297 259 255 259 211 C259 200 262 195 269 195 C278 195 305 212 352 247 L441 314 C455 323 467 335 477 350 C494 373 502 393 502 408 L502 408 Z " />
<glyph glyph-name="exclamdown" unicode="&#xa1;" horiz-adv-x="341" d="M296 683 C296 690 292 693 283 694 C249 697 218 699 191 699 C158 699 131 691 111 676 C94 661 79 637 66 604 C63 597 62 591 62 586 C62 580 65 577 71 577 C82 577 111 581 122 581 C133 581 148 580 168 579 C189 578 204 577 215 577 C230 577 247 591 266 618 C286 645 296 667 296 683 L296 683 Z M233 458 C233 478 217 488 185 488 C152 488 128 479 111 462 C81 429 66 401 66 378 C66 371 70 367 79 367 C88 367 112 371 121 371 C97 310 85 192 85 15 C85 6 88 2 93 2 C105 2 122 14 143 39 C164 64 175 84 175 98 C175 251 181 348 193 388 C220 418 233 441 233 458 L233 458 Z " />
<glyph glyph-name="cent" unicode="&#xa2;" horiz-adv-x="529" d="M468 244 C468 258 461 265 448 265 C441 265 432 259 420 246 L395 219 C380 204 353 194 314 189 C311 227 310 269 310 315 C310 340 311 369 312 401 C337 380 353 369 360 369 C373 369 386 379 399 398 C412 415 418 430 418 441 C418 448 413 455 404 462 L382 479 C349 508 328 526 317 531 C318 557 318 581 318 603 C318 648 305 670 280 670 C267 670 251 657 232 630 C213 603 204 583 204 568 C204 560 225 552 226 520 C204 506 185 491 169 475 C89 396 49 325 49 262 C49 213 67 174 104 145 C135 118 175 103 222 100 C227 29 239 -6 256 -6 C273 -6 291 6 310 30 C330 54 340 75 340 94 C340 99 331 103 326 112 C374 129 415 159 449 203 C462 220 468 234 468 244 L468 244 Z M226 447 C221 292 219 221 219 233 L219 199 C176 215 146 242 129 281 C124 294 121 305 121 316 C121 345 138 368 174 405 C195 426 212 440 226 447 L226 447 Z " />
<glyph glyph-name="sterling" unicode="&#xa3;" horiz-adv-x="691" d="M663 167 C663 174 659 178 650 178 C631 178 617 168 607 149 C597 130 580 120 555 120 C532 120 498 127 453 141 C408 155 374 162 351 162 C316 162 277 152 236 133 C246 169 252 210 254 256 C339 258 392 260 412 262 C433 264 453 283 473 320 C484 343 490 359 490 368 C490 375 487 378 482 378 C480 378 401 375 246 370 C241 396 237 422 233 449 C228 480 226 506 226 527 C226 537 227 544 229 547 C236 558 263 564 312 564 C370 564 411 538 435 487 C437 484 439 482 442 482 C457 482 474 495 494 520 C514 545 524 565 524 580 C524 610 509 635 478 654 C451 671 421 680 390 680 C334 680 281 661 232 623 C183 585 154 539 144 485 C140 466 138 445 138 422 C138 404 139 386 142 367 C105 364 83 361 76 358 C65 353 52 336 36 307 C24 284 18 269 18 260 C18 252 21 248 27 248 C27 248 70 250 155 253 C160 167 163 127 163 132 C163 103 160 82 153 70 C136 42 128 21 128 6 C128 0 130 -3 135 -3 C138 -3 156 5 190 22 C224 39 255 47 282 47 C305 47 337 40 380 26 C423 12 455 5 478 5 C519 5 557 20 592 49 C622 76 645 110 660 152 C662 158 663 163 663 167 L663 167 Z " />
<glyph glyph-name="currency" unicode="&#xa4;" horiz-adv-x="838" d="M801 157 C801 168 796 174 785 174 C776 174 758 159 733 129 C712 104 658 92 570 92 C458 92 376 124 325 188 L367 188 C401 189 423 192 432 197 C443 204 456 221 471 249 C482 272 488 288 488 297 C488 304 480 308 463 308 C440 308 409 307 369 305 L275 301 C274 310 273 322 273 335 C273 348 274 363 275 378 L343 380 C387 381 413 383 420 385 C437 392 454 411 471 442 C482 464 488 480 488 489 C488 496 483 500 472 500 C454 500 429 499 398 498 C363 495 338 494 325 494 C370 548 426 575 494 575 C577 575 637 545 673 484 C676 480 680 478 684 478 C696 478 713 491 734 516 C755 541 766 560 766 573 C766 578 765 582 763 585 C734 654 671 689 573 689 C440 689 335 623 260 492 C178 489 137 488 136 488 C120 487 103 473 85 447 C67 421 58 400 58 383 C58 376 61 372 67 371 C67 371 74 371 87 371 C106 371 146 373 207 376 C196 345 190 319 187 297 C151 297 128 295 118 290 C105 283 91 265 74 235 C63 214 57 198 57 189 C57 182 65 179 80 179 C95 179 114 179 135 180 C165 182 183 183 188 183 C205 113 244 60 307 24 C361 -7 426 -23 502 -23 C622 -23 712 18 773 101 C792 126 801 145 801 157 L801 157 Z " />
<glyph glyph-name="yen" unicode="&#xa5;" horiz-adv-x="660" d="M648 621 C648 650 631 677 604 677 C571 677 559 666 556 641 C555 629 551 620 544 614 C525 598 496 577 457 551 C410 520 381 505 369 505 C362 505 356 507 349 510 C296 533 252 555 219 577 C191 596 165 615 142 633 C117 653 103 663 100 663 C85 663 67 650 48 623 C29 597 19 576 19 561 C19 555 21 551 24 548 C37 539 64 523 106 501 C141 484 168 465 189 444 C166 444 148 439 137 430 C128 422 118 407 105 384 C93 362 87 346 87 337 C87 330 90 326 97 326 C126 326 188 328 282 332 C281 309 281 285 282 262 C261 262 241 262 221 261 C203 260 189 256 180 248 C167 239 155 223 142 200 C130 177 124 161 124 152 C124 145 127 142 134 142 C153 142 178 143 209 144 C250 146 275 147 285 147 C285 48 300 -1 329 -1 C344 -1 361 10 380 33 C399 56 408 75 408 91 C408 96 405 105 398 118 C392 131 389 142 388 150 C403 150 419 150 438 151 C475 152 498 155 506 158 C519 165 533 183 549 212 C560 234 566 250 566 261 C566 268 563 271 558 271 C535 271 505 270 467 269 L375 265 C373 285 372 308 372 335 C389 335 408 335 427 336 C464 337 487 340 496 344 C511 351 526 369 541 398 C554 420 560 436 560 445 C560 452 557 456 550 456 C536 456 515 455 487 454 C459 453 438 452 425 452 C468 481 523 521 590 572 C593 575 603 579 619 586 C632 592 641 599 645 606 C647 609 648 614 648 621 L648 621 Z " />
<glyph glyph-name="copyright" unicode="&#xa9;" horiz-adv-x="979" d="M935 421 C935 506 896 578 817 639 C781 666 731 693 668 720 C599 750 546 765 507 765 C492 765 480 762 470 757 C414 732 350 685 279 617 C214 554 162 494 125 437 C83 371 62 308 62 248 C62 177 95 109 162 44 C218 -9 284 -50 361 -79 C384 -88 407 -92 428 -92 C489 -92 561 -62 644 -2 C723 54 790 122 845 201 C905 284 935 358 935 421 L935 421 Z M844 340 C844 279 813 219 751 160 C702 113 644 74 576 43 C547 29 520 22 495 22 C460 22 416 38 361 70 C317 97 278 126 244 157 C219 180 199 207 183 238 C165 273 156 305 156 336 C156 396 186 457 246 519 C293 567 349 609 416 644 C459 642 509 630 565 608 C646 577 707 545 748 514 C812 465 844 407 844 340 L844 340 Z M698 259 C698 266 695 270 689 270 C684 270 679 267 673 260 C652 235 636 212 601 203 C572 194 545 190 520 190 C485 190 452 199 423 217 C390 235 367 260 354 291 C348 306 345 319 345 332 C345 364 364 393 413 440 C442 467 463 481 478 481 C488 481 509 467 542 438 C575 410 595 396 600 396 C609 396 619 404 631 420 C643 436 649 449 649 459 C649 463 644 468 635 475 L615 489 L570 527 C550 543 533 551 520 551 C507 551 487 543 462 526 C443 513 426 499 411 486 C332 408 292 338 292 276 C292 227 311 188 350 159 C385 132 427 119 478 119 C562 119 630 154 681 223 C692 238 698 250 698 259 L698 259 Z " />
<glyph glyph-name="registered" unicode="&#xae;" horiz-adv-x="979" d="M935 421 C935 506 896 578 817 639 C781 666 731 693 668 720 C599 750 546 765 507 765 C492 765 480 762 470 757 C414 732 350 685 279 617 C214 554 162 494 125 437 C83 371 62 308 62 248 C62 177 95 109 162 44 C218 -9 284 -50 361 -79 C384 -88 407 -92 428 -92 C489 -92 561 -62 644 -2 C723 54 790 122 845 201 C905 284 935 358 935 421 L935 421 Z M844 340 C844 279 813 219 751 160 C702 113 644 74 576 43 C547 29 520 22 495 22 C460 22 416 38 361 70 C317 97 278 126 244 157 C219 180 199 207 183 238 C165 273 156 305 156 336 C156 396 186 457 246 519 C293 567 349 609 416 644 C459 642 509 630 565 608 C646 577 707 545 748 514 C812 465 844 407 844 340 L844 340 Z M671 198 C671 203 668 205 663 205 C661 205 658 205 654 204 L646 204 C629 204 597 217 550 243 C515 263 485 283 458 302 C513 314 560 336 600 369 C646 408 669 447 669 486 C669 510 658 525 635 532 C623 536 601 538 570 538 C526 538 462 533 377 523 C373 528 368 531 362 531 C352 531 340 521 326 501 C312 482 305 466 305 455 C305 452 307 450 312 450 C311 450 316 451 327 452 C328 445 329 437 329 428 C329 417 328 402 327 383 C326 364 325 349 325 339 C316 326 312 316 312 308 C312 303 316 298 324 293 C324 185 331 131 346 131 C355 131 366 138 378 152 C390 167 396 179 396 189 C396 191 395 193 393 194 C388 202 385 209 384 214 C381 226 380 240 380 255 C494 174 568 134 602 134 C617 134 633 141 648 154 C663 168 671 183 671 198 L671 198 Z M614 440 C614 433 611 426 604 417 C563 377 488 357 379 357 C379 393 380 427 382 458 C457 466 505 470 524 470 C584 470 614 460 614 440 L614 440 Z " />
<glyph glyph-name="plusminus" unicode="&#xb1;" horiz-adv-x="1006" d="" />
<glyph glyph-name="cedilla" unicode="&#xb8;" horiz-adv-x="287" d="M147 27 C147 32 124 49 109 49 C99 49 94 42 95 27 L95 -50 C91 -64 97 -71 114 -71 C117 -71 121 -70 125 -69 C140 -67 152 -66 162 -66 C186 -66 198 -71 198 -81 C198 -92 189 -102 171 -113 C154 -124 139 -129 128 -126 L104 -119 C93 -116 84 -114 77 -114 C67 -114 62 -117 62 -124 C62 -136 77 -155 86 -156 C105 -161 122 -163 139 -163 C168 -163 191 -156 208 -142 C223 -129 231 -114 231 -96 C231 -60 202 -32 147 -29 L147 27 Z " />
<glyph glyph-name="questiondown" unicode="&#xbf;" horiz-adv-x="555" d="M488 662 C488 669 485 674 480 675 C464 678 397 680 280 680 C241 680 210 678 187 675 C167 672 147 651 128 614 C116 591 110 575 110 566 C110 561 113 558 118 558 C131 558 151 559 177 560 C204 562 223 563 236 563 C254 563 280 562 314 560 C348 559 374 558 391 558 L410 558 C427 559 444 572 461 598 C479 625 488 646 488 662 L488 662 Z M482 118 C482 125 473 129 456 129 C427 129 385 126 329 121 C274 116 232 113 204 113 C166 113 147 121 147 137 C147 152 184 185 259 236 C353 303 401 338 402 339 C413 348 424 361 436 378 C449 397 455 413 455 424 C455 432 450 437 441 439 C418 444 372 447 303 447 C240 447 192 446 159 443 C139 442 119 422 100 385 C87 363 81 347 81 338 C81 331 84 327 91 327 C216 327 278 327 278 327 C127 228 51 139 51 59 C51 18 98 -3 193 -3 C217 -3 252 0 299 5 C346 10 381 13 404 13 C420 13 437 27 456 55 C473 82 482 103 482 118 L482 118 Z " />
<glyph glyph-name="Agrave" unicode="&#xc0;" horiz-adv-x="694" d="M494 707 C495 711 483 715 455 724 C442 729 432 732 425 733 L381 751 C362 759 348 765 339 768 C310 778 286 783 265 783 C249 783 232 780 215 774 C212 773 210 771 209 770 C208 767 213 764 224 760 C263 743 298 730 328 719 C375 702 412 693 440 693 C456 693 472 696 487 702 C491 703 493 705 494 707 L494 707 Z M703 97 C703 102 701 107 698 112 C665 157 623 223 574 310 C521 405 480 480 449 537 L415 605 C402 633 390 655 379 670 C374 677 368 681 361 681 C348 681 331 670 309 649 C287 628 275 611 272 598 C275 589 277 580 277 569 C277 536 248 462 190 345 C144 249 104 175 71 124 C67 118 54 107 31 90 C12 74 2 63 2 56 C2 32 15 7 36 7 C51 7 69 13 89 26 C109 39 119 53 119 67 C119 70 119 75 118 82 C117 88 117 93 118 96 C119 101 120 105 123 109 C291 116 427 122 532 128 C546 103 560 79 573 54 C597 16 614 -3 624 -3 C639 -3 655 10 674 35 C693 60 703 81 703 97 L703 97 Z M187 226 C269 383 315 473 326 498 C373 411 408 347 433 305 C452 268 464 246 469 238 L187 226 Z " />
<glyph glyph-name="Aacute" unicode="&#xc1;" horiz-adv-x="694" d="M494 770 C493 771 491 773 488 774 C471 780 455 783 440 783 C418 783 393 778 364 768 C355 765 341 759 322 751 L279 733 C267 730 231 718 218 713 C211 711 208 709 209 707 C210 705 212 703 216 702 C231 696 248 693 265 693 C292 693 328 702 375 719 C406 730 441 743 480 760 C490 764 495 767 494 770 L494 770 Z M703 97 C703 102 701 107 698 112 C665 157 623 223 574 310 C521 405 480 480 449 537 L415 605 C402 633 390 655 379 670 C374 677 368 681 361 681 C348 681 331 670 309 649 C287 628 275 611 272 598 C275 589 277 580 277 569 C277 536 248 462 190 345 C144 249 104 175 71 124 C67 118 54 107 31 90 C12 74 2 63 2 56 C2 32 15 7 36 7 C51 7 69 13 89 26 C109 39 119 53 119 67 C119 70 119 75 118 82 C117 88 117 93 118 96 C119 101 120 105 123 109 C291 116 427 122 532 128 C546 103 560 79 573 54 C597 16 614 -3 624 -3 C639 -3 655 10 674 35 C693 60 703 81 703 97 L703 97 Z M187 226 C269 383 315 473 326 498 C373 411 408 347 433 305 C452 268 464 246 469 238 L187 226 Z " />
<glyph glyph-name="Acircumflex" unicode="&#xc2;" horiz-adv-x="694" d="M487 733 C487 736 486 738 484 740 C483 742 466 755 433 779 C400 804 382 817 379 818 C378 819 377 819 375 819 C371 819 336 791 269 734 C251 721 242 707 242 692 C242 687 243 684 246 684 C249 684 281 708 342 756 C411 706 445 681 446 681 C454 681 463 688 472 701 C482 714 487 725 487 733 L487 733 Z M703 97 C703 102 701 107 698 112 C665 157 623 223 574 310 C521 405 480 480 449 537 L415 605 C402 633 390 655 379 670 C374 677 368 681 361 681 C348 681 331 670 309 649 C287 628 275 611 272 598 C275 589 277 580 277 569 C277 536 248 462 190 345 C144 249 104 175 71 124 C67 118 54 107 31 90 C12 74 2 63 2 56 C2 32 15 7 36 7 C51 7 69 13 89 26 C109 39 119 53 119 67 C119 70 119 75 118 82 C117 88 117 93 118 96 C119 101 120 105 123 109 C291 116 427 122 532 128 C546 103 560 79 573 54 C597 16 614 -3 624 -3 C639 -3 655 10 674 35 C693 60 703 81 703 97 L703 97 Z M187 226 C269 383 315 473 326 498 C373 411 408 347 433 305 C452 268 464 246 469 238 L187 226 Z " />
<glyph glyph-name="Atilde" unicode="&#xc3;" horiz-adv-x="694" d="M464 814 C464 817 462 819 459 819 C453 819 430 804 389 774 C388 782 385 795 378 812 C371 832 364 842 358 842 C357 842 349 836 335 823 L306 800 C268 779 249 757 248 734 L248 732 C247 728 248 726 251 726 C257 726 263 729 270 734 C295 755 313 770 326 779 C339 759 345 738 345 717 C345 712 347 709 350 709 C354 709 368 717 391 734 L435 768 C441 773 447 778 452 785 C460 797 464 807 464 814 L464 814 Z M703 97 C703 102 701 107 698 112 C665 157 623 223 574 310 C521 405 480 480 449 537 L415 605 C402 633 390 655 379 670 C374 677 368 681 361 681 C348 681 331 670 309 649 C287 628 275 611 272 598 C275 589 277 580 277 569 C277 536 248 462 190 345 C144 249 104 175 71 124 C67 118 54 107 31 90 C12 74 2 63 2 56 C2 32 15 7 36 7 C51 7 69 13 89 26 C109 39 119 53 119 67 C119 70 119 75 118 82 C117 88 117 93 118 96 C119 101 120 105 123 109 C291 116 427 122 532 128 C546 103 560 79 573 54 C597 16 614 -3 624 -3 C639 -3 655 10 674 35 C693 60 703 81 703 97 L703 97 Z M187 226 C269 383 315 473 326 498 C373 411 408 347 433 305 C452 268 464 246 469 238 L187 226 Z " />
<glyph glyph-name="Adieresis" unicode="&#xc4;" horiz-adv-x="694" d="M478 760 C478 784 457 806 433 806 C406 806 387 784 387 760 C387 733 406 713 433 713 C457 713 478 733 478 760 L478 760 Z M332 760 C332 784 312 806 287 806 C263 806 241 784 241 760 C241 733 263 713 287 713 C312 713 332 733 332 760 L332 760 Z M703 97 C703 102 701 107 698 112 C665 157 623 223 574 310 C521 405 480 480 449 537 L415 605 C402 633 390 655 379 670 C374 677 368 681 361 681 C348 681 331 670 309 649 C287 628 275 611 272 598 C275 589 277 580 277 569 C277 536 248 462 190 345 C144 249 104 175 71 124 C67 118 54 107 31 90 C12 74 2 63 2 56 C2 32 15 7 36 7 C51 7 69 13 89 26 C109 39 119 53 119 67 C119 70 119 75 118 82 C117 88 117 93 118 96 C119 101 120 105 123 109 C291 116 427 122 532 128 C546 103 560 79 573 54 C597 16 614 -3 624 -3 C639 -3 655 10 674 35 C693 60 703 81 703 97 L703 97 Z M187 226 C269 383 315 473 326 498 C373 411 408 347 433 305 C452 268 464 246 469 238 L187 226 Z " />
<glyph glyph-name="Aring" unicode="&#xc5;" horiz-adv-x="694" d="M703 97 C703 102 701 107 698 112 C665 157 623 223 574 310 C521 405 480 480 449 537 L389 654 C426 668 444 694 444 731 C444 778 405 813 357 813 C309 813 271 778 271 731 C271 698 287 673 318 658 C291 635 275 615 272 598 C275 589 277 580 277 569 C277 536 248 462 190 345 C144 249 104 175 71 124 C67 118 54 107 31 90 C12 74 2 63 2 56 C2 32 15 7 36 7 C51 7 69 13 89 26 C109 39 119 53 119 67 C119 70 119 75 118 82 C117 88 117 93 118 96 C119 101 120 105 123 109 C291 116 427 122 532 128 C546 103 560 79 573 54 C597 16 614 -3 624 -3 C639 -3 655 10 674 35 C693 60 703 81 703 97 L703 97 Z M407 731 C407 703 384 682 356 682 C327 682 304 703 304 731 C304 758 327 780 356 780 C384 780 407 758 407 731 L407 731 Z M187 226 C269 383 315 473 326 498 C373 411 408 347 433 305 C452 268 464 246 469 238 L187 226 Z " />
<glyph glyph-name="AE" unicode="&#xc6;" horiz-adv-x="1109" d="M1057 380 C1057 388 1054 393 1048 394 C1033 397 995 398 936 398 C848 398 732 395 589 388 C589 393 586 448 580 551 C608 552 636 553 665 553 C720 553 782 551 852 547 C919 543 948 541 941 541 C956 541 973 554 992 579 C1011 605 1020 627 1020 644 C1020 651 1016 656 1009 658 C978 667 897 672 767 672 C668 672 600 669 563 664 C552 663 540 657 528 647 C525 663 525 681 512 681 C499 681 476 670 445 649 C414 628 393 611 383 598 C384 589 381 580 376 569 C361 536 299 462 188 345 C98 249 25 175 -30 124 C-37 118 -56 107 -87 90 C-113 74 -128 63 -131 56 C-136 46 -138 37 -138 28 C-138 14 -132 7 -119 7 C-104 7 -84 13 -58 26 C-32 39 -16 53 -9 67 C2 91 9 105 14 109 C185 116 325 122 432 128 C435 103 438 79 440 54 C446 16 454 -3 464 -3 C472 -3 484 2 499 12 C499 1 503 -4 510 -4 L837 -4 C897 -4 937 0 956 8 C988 20 1012 50 1029 98 C1032 105 1033 111 1033 114 C1033 120 1029 123 1021 123 C1008 123 988 121 962 117 C936 114 916 112 901 112 L593 112 C596 138 598 167 598 200 C598 220 597 245 596 275 C674 278 751 279 827 279 C839 279 864 278 903 277 C936 276 962 276 981 277 C996 278 1013 291 1030 316 C1048 342 1057 363 1057 380 L1057 380 Z M131 226 C284 383 371 473 393 498 C400 411 406 347 411 305 C414 268 417 246 418 238 L131 226 Z " />
<glyph glyph-name="Ccedilla" unicode="&#xc7;" horiz-adv-x="727" d="M690 212 C690 223 685 229 674 229 C667 229 659 224 649 214 C632 196 615 178 599 159 C582 144 559 132 531 124 C486 111 443 104 402 104 C345 104 293 118 244 146 C193 175 157 215 136 266 C125 289 120 310 120 331 C120 383 153 432 230 505 C277 548 311 569 334 569 C350 569 385 546 438 501 C491 456 522 434 530 434 C545 434 562 447 581 474 C600 499 609 519 609 535 C609 542 601 550 586 561 C575 568 565 576 555 583 L484 647 C452 672 424 685 400 685 C380 685 350 672 310 645 C278 623 251 601 228 579 C99 454 35 341 35 240 C35 166 63 106 120 60 C171 18 234 -6 311 -11 L311 -50 C307 -63 317 -73 341 -69 C356 -67 369 -66 380 -66 C403 -66 414 -71 414 -81 C414 -91 405 -102 387 -113 C369 -124 355 -129 344 -126 L319 -119 C310 -116 302 -115 295 -115 C284 -115 279 -119 279 -126 C279 -137 294 -153 302 -156 C320 -161 337 -163 354 -163 C383 -163 407 -156 425 -142 C440 -129 448 -114 448 -96 C448 -60 416 -32 363 -29 L363 -11 C485 -3 585 52 662 155 C681 180 690 199 690 212 L690 212 Z " />
<glyph glyph-name="Egrave" unicode="&#xc8;" horiz-adv-x="678" d="M494 717 C495 721 483 725 455 733 C442 738 432 741 425 743 L381 761 C362 769 348 774 339 777 C310 788 286 793 265 793 C249 793 232 790 215 783 C212 782 210 780 209 779 C208 777 213 774 224 770 C263 753 298 740 328 729 C375 712 412 703 440 703 C456 703 472 706 487 712 C491 713 493 715 494 717 L494 717 Z M635 380 C635 388 632 393 626 394 C611 397 573 398 513 398 C425 398 309 395 166 388 C166 393 163 448 158 551 C185 552 213 553 242 553 C297 553 360 551 430 547 C496 543 525 541 518 541 C533 541 550 554 569 579 C588 605 598 627 598 644 C598 651 594 656 586 658 C555 667 474 672 344 672 C245 672 178 669 141 664 C123 661 105 649 87 626 C70 603 61 583 61 564 C61 515 65 443 73 346 C81 249 85 177 85 129 C85 116 83 96 80 70 C77 44 76 25 76 12 C76 1 80 -4 88 -4 L414 -4 C474 -4 514 0 533 8 C565 20 590 50 608 98 C610 105 611 111 611 114 C611 120 607 123 599 123 C585 123 565 121 539 117 C513 114 493 112 480 112 L170 112 C173 138 175 167 175 200 C175 220 174 245 173 275 C252 278 329 279 404 279 C417 279 443 278 482 277 C513 276 539 276 558 277 C573 278 590 291 608 316 C626 342 635 363 635 380 L635 380 Z " />
<glyph glyph-name="Eacute" unicode="&#xc9;" horiz-adv-x="678" d="M494 779 C493 780 491 782 488 783 C471 790 455 793 440 793 C418 793 393 788 364 777 C355 774 341 769 322 761 L279 743 C267 739 231 728 218 723 C211 721 208 719 209 717 C210 715 212 713 216 712 C231 706 248 703 265 703 C292 703 328 712 375 729 C406 740 441 753 480 770 C490 774 495 777 494 779 L494 779 Z M635 380 C635 388 632 393 626 394 C611 397 573 398 513 398 C425 398 309 395 166 388 C166 393 163 448 158 551 C185 552 213 553 242 553 C297 553 360 551 430 547 C496 543 525 541 518 541 C533 541 550 554 569 579 C588 605 598 627 598 644 C598 651 594 656 586 658 C555 667 474 672 344 672 C245 672 178 669 141 664 C123 661 105 649 87 626 C70 603 61 583 61 564 C61 515 65 443 73 346 C81 249 85 177 85 129 C85 116 83 96 80 70 C77 44 76 25 76 12 C76 1 80 -4 88 -4 L414 -4 C474 -4 514 0 533 8 C565 20 590 50 608 98 C610 105 611 111 611 114 C611 120 607 123 599 123 C585 123 565 121 539 117 C513 114 493 112 480 112 L170 112 C173 138 175 167 175 200 C175 220 174 245 173 275 C252 278 329 279 404 279 C417 279 443 278 482 277 C513 276 539 276 558 277 C573 278 590 291 608 316 C626 342 635 363 635 380 L635 380 Z " />
<glyph glyph-name="Ecircumflex" unicode="&#xca;" horiz-adv-x="678" d="M487 752 C487 756 486 759 484 761 C483 763 466 776 433 799 L379 838 C378 839 377 839 375 839 C371 839 336 811 269 754 C251 740 242 726 242 712 C242 706 243 703 246 703 C249 703 281 727 342 776 C411 725 445 700 446 700 C454 700 463 707 472 720 C482 733 487 744 487 752 L487 752 Z M635 380 C635 388 632 393 626 394 C611 397 573 398 513 398 C425 398 309 395 166 388 C166 393 163 448 158 551 C185 552 213 553 242 553 C297 553 360 551 430 547 C496 543 525 541 518 541 C533 541 550 554 569 579 C588 605 598 627 598 644 C598 651 594 656 586 658 C555 667 474 672 344 672 C245 672 178 669 141 664 C123 661 105 649 87 626 C70 603 61 583 61 564 C61 515 65 443 73 346 C81 249 85 177 85 129 C85 116 83 96 80 70 C77 44 76 25 76 12 C76 1 80 -4 88 -4 L414 -4 C474 -4 514 0 533 8 C565 20 590 50 608 98 C610 105 611 111 611 114 C611 120 607 123 599 123 C585 123 565 121 539 117 C513 114 493 112 480 112 L170 112 C173 138 175 167 175 200 C175 220 174 245 173 275 C252 278 329 279 404 279 C417 279 443 278 482 277 C513 276 539 276 558 277 C573 278 590 291 608 316 C626 342 635 363 635 380 L635 380 Z " />
<glyph glyph-name="Edieresis" unicode="&#xcb;" horiz-adv-x="678" d="M478 760 C478 784 457 806 433 806 C406 806 387 784 387 760 C387 733 406 713 433 713 C457 713 478 733 478 760 L478 760 Z M332 760 C332 784 312 806 287 806 C263 806 241 784 241 760 C241 733 263 713 287 713 C312 713 332 733 332 760 L332 760 Z M635 380 C635 388 632 393 626 394 C611 397 573 398 513 398 C425 398 309 395 166 388 C166 393 163 448 158 551 C185 552 213 553 242 553 C297 553 360 551 430 547 C496 543 525 541 518 541 C533 541 550 554 569 579 C588 605 598 627 598 644 C598 651 594 656 586 658 C555 667 474 672 344 672 C245 672 178 669 141 664 C123 661 105 649 87 626 C70 603 61 583 61 564 C61 515 65 443 73 346 C81 249 85 177 85 129 C85 116 83 96 80 70 C77 44 76 25 76 12 C76 1 80 -4 88 -4 L414 -4 C474 -4 514 0 533 8 C565 20 590 50 608 98 C610 105 611 111 611 114 C611 120 607 123 599 123 C585 123 565 121 539 117 C513 114 493 112 480 112 L170 112 C173 138 175 167 175 200 C175 220 174 245 173 275 C252 278 329 279 404 279 C417 279 443 278 482 277 C513 276 539 276 558 277 C573 278 590 291 608 316 C626 342 635 363 635 380 L635 380 Z " />
<glyph glyph-name="Igrave" unicode="&#xcc;" horiz-adv-x="661" d="M494 717 C495 721 483 725 455 733 C442 738 432 741 425 743 L381 761 C362 769 348 774 339 777 C310 788 286 793 265 793 C249 793 232 790 215 783 C212 782 210 780 209 779 C208 777 213 774 224 770 C263 753 298 740 328 729 C375 712 412 703 440 703 C456 703 472 706 487 712 C491 713 493 715 494 717 L494 717 Z M615 113 C615 120 612 125 606 127 C592 130 556 132 498 132 C475 132 439 131 389 130 C386 141 384 155 383 171 C380 213 378 261 378 315 C378 345 379 384 381 433 C384 495 386 533 386 548 C492 546 542 545 535 545 C551 545 568 558 586 584 C605 611 614 633 614 650 C614 657 611 661 605 663 C591 666 555 668 497 668 C508 668 465 667 368 666 L334 665 C231 664 163 661 132 657 C117 655 100 641 81 614 C63 587 54 566 54 550 C54 543 59 540 69 540 C98 540 134 541 179 543 L288 548 C293 540 296 527 296 508 C296 477 295 431 292 370 C289 309 288 264 288 233 C288 184 288 149 289 128 C221 128 169 126 133 121 C118 119 101 105 82 78 C64 51 55 30 55 14 C55 7 60 4 70 4 C99 4 139 5 188 7 C247 10 286 11 307 12 C320 12 358 11 422 10 C476 9 514 9 536 9 C552 9 569 22 587 48 C606 75 615 96 615 113 L615 113 Z " />
<glyph glyph-name="Iacute" unicode="&#xcd;" horiz-adv-x="661" d="M494 779 C493 780 491 782 488 783 C471 790 455 793 440 793 C418 793 393 788 364 777 C355 774 341 769 322 761 L279 743 C267 739 231 728 218 723 C211 721 208 719 209 717 C210 715 212 713 216 712 C231 706 248 703 265 703 C292 703 328 712 375 729 C406 740 441 753 480 770 C490 774 495 777 494 779 L494 779 Z M615 113 C615 120 612 125 606 127 C592 130 556 132 498 132 C475 132 439 131 389 130 C386 141 384 155 383 171 C380 213 378 261 378 315 C378 345 379 384 381 433 C384 495 386 533 386 548 C492 546 542 545 535 545 C551 545 568 558 586 584 C605 611 614 633 614 650 C614 657 611 661 605 663 C591 666 555 668 497 668 C508 668 465 667 368 666 L334 665 C231 664 163 661 132 657 C117 655 100 641 81 614 C63 587 54 566 54 550 C54 543 59 540 69 540 C98 540 134 541 179 543 L288 548 C293 540 296 527 296 508 C296 477 295 431 292 370 C289 309 288 264 288 233 C288 184 288 149 289 128 C221 128 169 126 133 121 C118 119 101 105 82 78 C64 51 55 30 55 14 C55 7 60 4 70 4 C99 4 139 5 188 7 C247 10 286 11 307 12 C320 12 358 11 422 10 C476 9 514 9 536 9 C552 9 569 22 587 48 C606 75 615 96 615 113 L615 113 Z " />
<glyph glyph-name="Icircumflex" unicode="&#xce;" horiz-adv-x="661" d="M478 752 C478 756 477 759 475 761 C473 763 456 776 423 799 L369 838 C368 839 367 839 365 839 C361 839 326 811 259 754 C241 740 232 726 232 712 C232 706 233 703 236 703 C239 703 271 727 332 776 C401 725 436 700 437 700 C444 700 453 707 463 720 C473 733 478 744 478 752 L478 752 Z M615 113 C615 120 612 125 606 127 C592 130 556 132 498 132 C475 132 439 131 389 130 C386 141 384 155 383 171 C380 213 378 261 378 315 C378 345 379 384 381 433 C384 495 386 533 386 548 C492 546 542 545 535 545 C551 545 568 558 586 584 C605 611 614 633 614 650 C614 657 611 661 605 663 C591 666 555 668 497 668 C508 668 465 667 368 666 L334 665 C231 664 163 661 132 657 C117 655 100 641 81 614 C63 587 54 566 54 550 C54 543 59 540 69 540 C98 540 134 541 179 543 L288 548 C293 540 296 527 296 508 C296 477 295 431 292 370 C289 309 288 264 288 233 C288 184 288 149 289 128 C221 128 169 126 133 121 C118 119 101 105 82 78 C64 51 55 30 55 14 C55 7 60 4 70 4 C99 4 139 5 188 7 C247 10 286 11 307 12 C320 12 358 11 422 10 C476 9 514 9 536 9 C552 9 569 22 587 48 C606 75 615 96 615 113 L615 113 Z " />
<glyph glyph-name="Idieresis" unicode="&#xcf;" horiz-adv-x="661" d="M478 760 C478 784 457 806 433 806 C406 806 387 784 387 760 C387 733 406 713 433 713 C457 713 478 733 478 760 L478 760 Z M332 760 C332 784 312 806 287 806 C263 806 241 784 241 760 C241 733 263 713 287 713 C312 713 332 733 332 760 L332 760 Z M615 113 C615 120 612 125 606 127 C592 130 556 132 498 132 C475 132 439 131 389 130 C386 141 384 155 383 171 C380 213 378 261 378 315 C378 345 379 384 381 433 C384 495 386 533 386 548 C492 546 542 545 535 545 C551 545 568 558 586 584 C605 611 614 633 614 650 C614 657 611 661 605 663 C591 666 555 668 497 668 C508 668 465 667 368 666 L334 665 C231 664 163 661 132 657 C117 655 100 641 81 614 C63 587 54 566 54 550 C54 543 59 540 69 540 C98 540 134 541 179 543 L288 548 C293 540 296 527 296 508 C296 477 295 431 292 370 C289 309 288 264 288 233 C288 184 288 149 289 128 C221 128 169 126 133 121 C118 119 101 105 82 78 C64 51 55 30 55 14 C55 7 60 4 70 4 C99 4 139 5 188 7 C247 10 286 11 307 12 C320 12 358 11 422 10 C476 9 514 9 536 9 C552 9 569 22 587 48 C606 75 615 96 615 113 L615 113 Z " />
<glyph glyph-name="Eth" unicode="&#xd0;" horiz-adv-x="831" d="M781 414 C781 587 666 674 436 674 C352 674 288 668 244 656 C227 652 210 638 192 614 C174 590 165 569 165 552 C165 543 169 539 177 539 C174 539 188 542 218 547 C213 534 211 511 211 478 C211 456 212 429 214 398 C160 398 116 396 82 392 C67 390 51 376 32 349 C14 323 5 302 5 285 C5 278 10 275 21 275 C23 275 90 277 222 282 C223 271 223 261 223 250 C223 195 208 142 178 91 C175 87 174 82 174 77 C174 58 186 39 211 21 C234 4 255 -4 276 -4 C477 -4 624 67 717 210 C760 276 781 344 781 414 L781 414 Z M690 329 C690 250 655 194 585 159 C540 137 471 122 377 114 C350 111 336 110 337 110 C329 110 324 111 321 113 C308 122 300 179 299 283 C317 283 348 283 392 282 C433 281 465 280 486 280 C502 280 519 293 537 319 C556 345 565 367 565 384 C565 391 562 396 555 398 C542 401 506 402 448 402 C443 402 400 401 319 400 L301 399 C303 444 307 497 313 557 C332 558 351 559 369 559 C460 559 532 544 586 513 C655 474 690 412 690 329 L690 329 Z " />
<glyph glyph-name="Ntilde" unicode="&#xd1;" horiz-adv-x="744" d="M513 744 C513 748 511 750 508 750 C502 750 479 735 439 704 C438 713 435 725 428 742 C420 763 413 774 407 774 C406 774 398 767 384 754 C367 740 358 732 355 731 C318 710 299 688 298 666 L298 663 C297 659 298 657 301 657 C306 657 312 660 318 666 C343 686 362 701 375 710 C388 691 394 670 394 649 C394 644 395 641 398 641 C403 641 417 649 440 666 L483 698 C490 703 496 709 501 716 C509 727 513 737 513 744 L513 744 Z M694 548 C694 630 675 671 638 671 C620 671 601 659 582 634 C563 609 554 587 554 567 C554 560 557 556 563 556 C564 556 565 556 566 557 L570 557 C590 556 600 515 600 435 C600 410 599 372 596 322 C594 273 593 236 593 211 C410 377 277 507 193 602 C172 633 158 656 150 672 C148 678 145 681 140 681 C131 681 118 670 101 649 C72 612 57 575 57 538 C57 533 57 524 58 511 L58 478 L58 387 C58 124 74 -8 106 -8 C119 -8 136 5 157 31 C178 57 188 78 188 93 C188 96 186 99 183 103 C177 109 172 118 169 130 C167 137 165 148 163 161 C154 228 150 323 150 446 C220 365 325 263 466 140 C529 78 576 31 607 -1 C610 -4 613 -6 616 -6 C629 -6 646 9 665 40 C683 69 692 90 692 105 C692 130 691 168 688 219 C686 270 685 308 685 333 C685 357 686 393 689 440 C692 488 694 524 694 548 L694 548 Z " />
<glyph glyph-name="Ograve" unicode="&#xd2;" horiz-adv-x="787" d="M563 717 C564 721 551 725 523 733 C510 738 500 741 493 743 L450 761 C431 769 417 774 407 777 C378 788 354 793 333 793 C318 793 302 790 284 783 C281 782 279 780 278 779 C277 777 282 774 293 770 C332 753 367 740 397 729 C444 712 481 703 508 703 C524 703 540 706 556 712 C560 713 562 715 563 717 L563 717 Z M764 412 C764 481 730 540 661 591 C632 613 593 634 544 654 C491 677 448 689 417 689 C404 689 393 687 384 682 C313 649 240 590 166 505 C85 411 44 329 44 260 C44 199 70 143 121 90 C166 44 219 9 281 -14 C301 -20 320 -23 338 -23 C359 -23 382 -19 407 -10 C492 21 571 76 644 157 C724 245 764 330 764 412 L764 412 Z M675 321 C675 288 660 255 630 224 C597 191 563 163 527 139 C481 108 441 92 408 92 C353 92 294 119 231 174 C167 231 135 287 135 341 C135 382 158 427 204 474 C240 509 282 540 330 567 C337 568 343 568 349 568 C388 568 436 560 493 544 C565 523 620 471 657 390 C669 365 675 342 675 321 L675 321 Z " />
<glyph glyph-name="Oacute" unicode="&#xd3;" horiz-adv-x="787" d="M494 770 C493 771 491 773 488 774 C471 780 455 783 440 783 C418 783 393 778 364 768 C355 765 341 759 322 751 L279 733 C267 730 231 718 218 713 C211 711 208 709 209 707 C210 705 212 703 216 702 C231 696 248 693 265 693 C292 693 328 702 375 719 C406 730 441 743 480 760 C490 764 495 767 494 770 L494 770 Z M764 412 C764 481 730 540 661 591 C632 613 593 634 544 654 C491 677 448 689 417 689 C404 689 393 687 384 682 C313 649 240 590 166 505 C85 411 44 329 44 260 C44 199 70 143 121 90 C166 44 219 9 281 -14 C301 -20 320 -23 338 -23 C359 -23 382 -19 407 -10 C492 21 571 76 644 157 C724 245 764 330 764 412 L764 412 Z M675 321 C675 288 660 255 630 224 C597 191 563 163 527 139 C481 108 441 92 408 92 C353 92 294 119 231 174 C167 231 135 287 135 341 C135 382 158 427 204 474 C240 509 282 540 330 567 C337 568 343 568 349 568 C388 568 436 560 493 544 C565 523 620 471 657 390 C669 365 675 342 675 321 L675 321 Z " />
<glyph glyph-name="Ocircumflex" unicode="&#xd4;" horiz-adv-x="787" d="M565 752 C565 756 564 759 562 761 C561 763 544 776 511 799 L458 838 C457 839 456 839 454 839 C450 839 414 811 347 754 C330 740 321 726 321 712 C321 706 322 703 325 703 C328 703 360 727 421 776 C490 725 524 700 524 700 C532 700 541 707 550 720 C560 733 565 744 565 752 L565 752 Z M764 412 C764 481 730 540 661 591 C632 613 593 634 544 654 C491 677 448 689 417 689 C404 689 393 687 384 682 C313 649 240 590 166 505 C85 411 44 329 44 260 C44 199 70 143 121 90 C166 44 219 9 281 -14 C301 -20 320 -23 338 -23 C359 -23 382 -19 407 -10 C492 21 571 76 644 157 C724 245 764 330 764 412 L764 412 Z M675 321 C675 288 660 255 630 224 C597 191 563 163 527 139 C481 108 441 92 408 92 C353 92 294 119 231 174 C167 231 135 287 135 341 C135 382 158 427 204 474 C240 509 282 540 330 567 C337 568 343 568 349 568 C388 568 436 560 493 544 C565 523 620 471 657 390 C669 365 675 342 675 321 L675 321 Z " />
<glyph glyph-name="Otilde" unicode="&#xd5;" horiz-adv-x="787" d="M542 814 C542 817 540 819 537 819 C531 819 508 804 468 774 C467 782 464 795 457 812 C450 832 443 842 438 842 C437 842 428 836 413 823 L384 800 C347 779 328 757 327 734 L327 732 C326 728 327 726 330 726 C335 726 341 729 348 734 C373 755 391 770 404 779 C417 759 424 738 424 717 C424 712 426 709 429 709 C434 709 447 717 470 734 C484 745 498 757 513 768 C520 773 525 778 530 785 C538 797 542 807 542 814 L542 814 Z M764 412 C764 481 730 540 661 591 C632 613 593 634 544 654 C491 677 448 689 417 689 C404 689 393 687 384 682 C313 649 240 590 166 505 C85 411 44 329 44 260 C44 199 70 143 121 90 C166 44 219 9 281 -14 C301 -20 320 -23 338 -23 C359 -23 382 -19 407 -10 C492 21 571 76 644 157 C724 245 764 330 764 412 L764 412 Z M675 321 C675 288 660 255 630 224 C597 191 563 163 527 139 C481 108 441 92 408 92 C353 92 294 119 231 174 C167 231 135 287 135 341 C135 382 158 427 204 474 C240 509 282 540 330 567 C337 568 343 568 349 568 C388 568 436 560 493 544 C565 523 620 471 657 390 C669 365 675 342 675 321 L675 321 Z " />
<glyph glyph-name="Odieresis" unicode="&#xd6;" horiz-adv-x="787" d="M546 760 C546 784 526 806 501 806 C476 806 456 784 456 760 C456 733 476 713 501 713 C526 713 546 733 546 760 L546 760 Z M400 760 C400 784 380 806 356 806 C331 806 311 784 311 760 C311 733 331 713 356 713 C380 713 400 733 400 760 L400 760 Z M764 412 C764 481 730 540 661 591 C632 613 593 634 544 654 C491 677 448 689 417 689 C404 689 393 687 384 682 C313 649 240 590 166 505 C85 411 44 329 44 260 C44 199 70 143 121 90 C166 44 219 9 281 -14 C301 -20 320 -23 338 -23 C359 -23 382 -19 407 -10 C492 21 571 76 644 157 C724 245 764 330 764 412 L764 412 Z M675 321 C675 288 660 255 630 224 C597 191 563 163 527 139 C481 108 441 92 408 92 C353 92 294 119 231 174 C167 231 135 287 135 341 C135 382 158 427 204 474 C240 509 282 540 330 567 C337 568 343 568 349 568 C388 568 436 560 493 544 C565 523 620 471 657 390 C669 365 675 342 675 321 L675 321 Z " />
<glyph glyph-name="multiply" unicode="&#xd7;" horiz-adv-x="484" d="M416 132 C416 141 407 154 389 171 C356 202 320 242 281 289 L338 368 C357 395 367 410 369 411 C383 420 391 426 392 427 C397 432 399 442 399 456 C399 474 391 483 376 483 C367 483 357 479 345 472 C330 463 323 453 323 443 C323 442 323 441 324 440 L324 437 C325 436 325 435 325 434 C325 429 300 393 249 326 C210 373 177 416 150 456 L128 487 L121 490 C109 489 96 480 81 461 C66 443 59 428 59 416 C59 407 72 389 99 362 C128 333 160 297 196 255 C145 186 116 151 111 149 C76 139 59 123 59 101 C59 82 87 65 103 65 C107 65 111 67 116 70 C134 91 145 108 149 119 L227 216 C251 187 283 145 324 91 C339 72 347 62 347 62 L354 59 C366 60 379 69 394 87 C409 106 416 121 416 132 L416 132 Z " />
<glyph glyph-name="Oslash" unicode="&#xd8;" horiz-adv-x="787" d="M764 412 C764 481 730 540 661 591 C648 601 632 611 611 622 C629 655 645 685 659 714 C670 736 676 752 676 763 C676 770 673 773 667 773 C645 773 623 753 600 712 C587 691 575 670 562 647 C501 675 452 689 417 689 C404 689 393 687 384 682 C313 649 240 590 166 505 C85 411 44 329 44 260 C44 210 62 162 98 117 C129 77 170 43 219 15 C194 -33 166 -85 166 -102 C166 -109 171 -112 180 -112 C199 -112 219 -92 242 -52 L268 -8 C294 -18 317 -23 338 -23 C359 -23 382 -19 407 -10 C492 21 571 76 644 157 C724 245 764 330 764 412 L764 412 Z M675 321 C675 288 660 255 630 224 C597 191 563 163 527 139 C481 108 441 92 408 92 C387 92 362 98 333 111 C385 209 424 282 451 331 L553 517 C596 489 631 447 657 390 C669 365 675 342 675 321 L675 321 Z M504 540 C454 445 416 375 391 329 L285 136 C242 162 208 193 181 228 C150 267 135 304 135 341 C135 382 158 427 204 474 C240 509 282 540 330 567 C337 568 343 568 349 568 C398 568 450 559 504 540 L504 540 Z " />
<glyph glyph-name="Ugrave" unicode="&#xd9;" horiz-adv-x="675" d="M494 688 C495 692 483 695 455 704 C442 709 432 712 425 714 L381 731 L339 747 C310 758 286 764 265 764 C249 764 232 760 215 753 C212 752 210 750 209 749 C208 746 213 743 224 739 C263 724 298 710 328 699 C375 682 412 674 440 674 C456 674 472 677 487 683 C491 684 493 686 494 688 L494 688 Z M620 383 C620 411 617 457 610 521 C603 590 597 634 591 651 C589 658 585 661 580 661 C567 661 550 647 529 620 C509 593 500 573 501 559 L501 550 C502 525 508 479 519 414 C527 357 531 312 531 279 C531 218 523 177 508 156 C489 132 450 120 390 120 C228 120 147 191 147 334 C147 405 153 483 166 568 C173 616 176 639 176 636 C176 647 173 653 166 653 C151 653 134 640 115 614 C98 590 88 570 85 553 C68 470 59 380 59 282 C59 247 60 217 62 190 C67 127 94 79 142 46 C183 17 236 2 303 2 C410 2 492 40 547 116 C596 183 620 272 620 383 L620 383 Z " />
<glyph glyph-name="Uacute" unicode="&#xda;" horiz-adv-x="675" d="M504 749 C503 750 501 752 498 753 C481 760 464 764 449 764 C428 764 403 758 374 747 L332 731 L289 714 L227 694 C221 692 218 690 219 688 C220 686 222 684 226 683 C241 677 257 674 274 674 C301 674 338 682 385 699 C416 710 450 724 489 739 C500 743 505 746 504 749 L504 749 Z M620 383 C620 411 617 457 610 521 C603 590 597 634 591 651 C589 658 585 661 580 661 C567 661 550 647 529 620 C509 593 500 573 501 559 L501 550 C502 525 508 479 519 414 C527 357 531 312 531 279 C531 218 523 177 508 156 C489 132 450 120 390 120 C228 120 147 191 147 334 C147 405 153 483 166 568 C173 616 176 639 176 636 C176 647 173 653 166 653 C151 653 134 640 115 614 C98 590 88 570 85 553 C68 470 59 380 59 282 C59 247 60 217 62 190 C67 127 94 79 142 46 C183 17 236 2 303 2 C410 2 492 40 547 116 C596 183 620 272 620 383 L620 383 Z " />
<glyph glyph-name="Ucircumflex" unicode="&#xdb;" horiz-adv-x="675" d="M487 733 C487 736 486 738 484 740 C483 742 466 755 433 779 C400 804 382 817 379 818 C378 819 377 819 375 819 C371 819 336 791 269 734 C251 721 242 707 242 692 C242 687 243 684 246 684 C249 684 281 708 342 756 C411 706 445 681 446 681 C454 681 463 688 472 701 C482 714 487 725 487 733 L487 733 Z M620 383 C620 411 617 457 610 521 C603 590 597 634 591 651 C589 658 585 661 580 661 C567 661 550 647 529 620 C509 593 500 573 501 559 L501 550 C502 525 508 479 519 414 C527 357 531 312 531 279 C531 218 523 177 508 156 C489 132 450 120 390 120 C228 120 147 191 147 334 C147 405 153 483 166 568 C173 616 176 639 176 636 C176 647 173 653 166 653 C151 653 134 640 115 614 C98 590 88 570 85 553 C68 470 59 380 59 282 C59 247 60 217 62 190 C67 127 94 79 142 46 C183 17 236 2 303 2 C410 2 492 40 547 116 C596 183 620 272 620 383 L620 383 Z " />
<glyph glyph-name="Udieresis" unicode="&#xdc;" horiz-adv-x="675" d="M478 720 C478 744 457 767 433 767 C406 767 387 744 387 720 C387 695 406 674 433 674 C457 674 478 695 478 720 L478 720 Z M332 720 C332 744 312 767 287 767 C263 767 241 744 241 720 C241 695 263 674 287 674 C312 674 332 695 332 720 L332 720 Z M620 383 C620 411 617 457 610 521 C603 590 597 634 591 651 C589 658 585 661 580 661 C567 661 550 647 529 620 C509 593 500 573 501 559 L501 550 C502 525 508 479 519 414 C527 357 531 312 531 279 C531 218 523 177 508 156 C489 132 450 120 390 120 C228 120 147 191 147 334 C147 405 153 483 166 568 C173 616 176 639 176 636 C176 647 173 653 166 653 C151 653 134 640 115 614 C98 590 88 570 85 553 C68 470 59 380 59 282 C59 247 60 217 62 190 C67 127 94 79 142 46 C183 17 236 2 303 2 C410 2 492 40 547 116 C596 183 620 272 620 383 L620 383 Z " />
<glyph glyph-name="Yacute" unicode="&#xdd;" horiz-adv-x="626" d="M494 739 C493 740 491 742 488 743 C471 750 455 753 440 753 C418 753 393 748 364 737 C355 734 341 729 322 721 L279 704 C267 700 231 689 218 684 C211 682 208 680 209 678 C210 676 212 674 216 673 C231 667 248 664 265 664 C292 664 328 673 375 690 C406 701 441 714 480 730 C490 733 495 736 494 739 L494 739 Z M629 629 C629 646 616 672 603 672 C594 672 582 669 566 663 C549 656 541 649 541 643 C541 639 545 628 545 624 C545 609 516 576 459 524 C400 471 360 445 341 445 C337 445 333 446 330 448 C271 479 207 529 139 600 C116 624 100 642 89 654 C86 656 83 657 79 657 C65 657 48 644 29 617 C10 591 0 571 0 556 C0 547 8 536 23 525 L60 504 C85 485 123 454 173 411 C235 359 265 330 264 324 C261 285 260 248 260 214 C260 69 277 -3 312 -3 C328 -3 345 10 362 37 C379 61 388 82 388 101 C388 104 384 112 375 127 C367 142 363 153 362 159 C356 189 353 236 353 301 L354 360 C388 390 414 413 431 430 C498 496 549 546 582 581 C602 596 629 610 629 629 L629 629 Z " />
<glyph glyph-name="Thorn" unicode="&#xde;" horiz-adv-x="529" d="M500 401 C500 414 498 427 494 438 C485 467 461 486 424 495 C364 511 298 519 227 519 C207 519 186 518 163 517 C163 533 165 577 165 597 C165 621 164 637 162 646 C157 664 145 673 128 673 C115 673 99 660 80 633 C62 606 53 586 53 571 C53 567 56 562 63 555 C70 549 74 535 74 513 C74 482 73 434 70 371 C68 308 67 260 67 229 C67 74 80 -4 105 -4 C120 -4 137 9 157 34 C178 60 188 81 188 97 C188 100 186 103 183 105 C176 110 171 121 168 138 C166 145 164 158 163 175 C248 176 317 192 371 222 C405 240 434 265 459 297 C486 333 500 368 500 401 L500 401 Z M406 326 C359 303 295 291 212 292 L159 292 L159 336 C159 361 159 384 160 403 C211 403 258 399 301 391 C366 378 401 356 406 326 L406 326 Z " />
<glyph glyph-name="germandbls" unicode="&#xdf;" horiz-adv-x="832" d="M792 300 C792 385 720 429 576 431 C645 492 679 550 679 604 C679 621 674 638 664 653 C647 682 620 701 585 710 C564 716 530 719 485 719 C380 719 278 703 181 671 C144 658 125 634 125 597 C125 582 126 561 128 534 C130 507 131 487 131 474 C131 447 130 406 128 351 C126 296 125 255 125 227 C125 198 126 171 127 146 C102 150 93 152 98 152 C82 152 65 138 47 111 C29 84 20 62 20 47 C20 44 21 41 22 39 C70 24 113 12 150 3 C154 0 158 -2 163 -2 C176 -2 193 12 216 40 C239 69 251 90 251 104 C251 113 239 115 231 116 C220 157 214 227 214 325 C214 382 217 468 223 583 C286 598 343 605 395 605 C490 605 551 584 578 543 C585 533 589 526 589 521 C589 518 581 510 566 497 C515 454 458 426 397 414 C384 411 367 396 347 369 C327 342 317 321 317 308 C317 301 320 298 327 298 C332 298 346 300 369 304 C412 311 455 314 496 314 C609 314 677 287 698 232 C701 226 702 221 702 216 C702 197 671 176 608 152 C551 130 510 119 485 119 C477 119 452 125 443 125 C428 125 411 112 392 86 C373 60 364 38 364 21 C364 10 381 4 414 4 C436 4 460 8 486 16 C567 41 634 73 686 114 C757 168 792 230 792 300 L792 300 Z " />
<glyph glyph-name="agrave" unicode="&#xe0;" horiz-adv-x="694" d="M494 707 C495 711 483 715 455 724 C442 729 432 732 425 733 L381 751 C362 759 348 765 339 768 C310 778 286 783 265 783 C249 783 232 780 215 774 C212 773 210 771 209 770 C208 767 213 764 224 760 C263 743 298 730 328 719 C375 702 412 693 440 693 C456 693 472 696 487 702 C491 703 493 705 494 707 L494 707 Z M703 97 C703 102 701 107 698 112 C665 157 623 223 574 310 C521 405 480 480 449 537 L415 605 C402 633 390 655 379 670 C374 677 368 681 361 681 C348 681 331 670 309 649 C287 628 275 611 272 598 C275 589 277 580 277 569 C277 536 248 462 190 345 C144 249 104 175 71 124 C67 118 54 107 31 90 C12 74 2 63 2 56 C2 32 15 7 36 7 C51 7 69 13 89 26 C109 39 119 53 119 67 C119 70 119 75 118 82 C117 88 117 93 118 96 C119 101 120 105 123 109 C291 116 427 122 532 128 C546 103 560 79 573 54 C597 16 614 -3 624 -3 C639 -3 655 10 674 35 C693 60 703 81 703 97 L703 97 Z M187 226 C269 383 315 473 326 498 C373 411 408 347 433 305 C452 268 464 246 469 238 L187 226 Z " />
<glyph glyph-name="aacute" unicode="&#xe1;" horiz-adv-x="694" d="M494 770 C493 771 491 773 488 774 C471 780 455 783 440 783 C418 783 393 778 364 768 C355 765 341 759 322 751 L279 733 C267 730 231 718 218 713 C211 711 208 709 209 707 C210 705 212 703 216 702 C231 696 248 693 265 693 C292 693 328 702 375 719 C406 730 441 743 480 760 C490 764 495 767 494 770 L494 770 Z M703 97 C703 102 701 107 698 112 C665 157 623 223 574 310 C521 405 480 480 449 537 L415 605 C402 633 390 655 379 670 C374 677 368 681 361 681 C348 681 331 670 309 649 C287 628 275 611 272 598 C275 589 277 580 277 569 C277 536 248 462 190 345 C144 249 104 175 71 124 C67 118 54 107 31 90 C12 74 2 63 2 56 C2 32 15 7 36 7 C51 7 69 13 89 26 C109 39 119 53 119 67 C119 70 119 75 118 82 C117 88 117 93 118 96 C119 101 120 105 123 109 C291 116 427 122 532 128 C546 103 560 79 573 54 C597 16 614 -3 624 -3 C639 -3 655 10 674 35 C693 60 703 81 703 97 L703 97 Z M187 226 C269 383 315 473 326 498 C373 411 408 347 433 305 C452 268 464 246 469 238 L187 226 Z " />
<glyph glyph-name="acircumflex" unicode="&#xe2;" horiz-adv-x="694" d="M487 733 C487 736 486 738 484 740 C483 742 466 755 433 779 C400 804 382 817 379 818 C378 819 377 819 375 819 C371 819 336 791 269 734 C251 721 242 707 242 692 C242 687 243 684 246 684 C249 684 281 708 342 756 C411 706 445 681 446 681 C454 681 463 688 472 701 C482 714 487 725 487 733 L487 733 Z M703 97 C703 102 701 107 698 112 C665 157 623 223 574 310 C521 405 480 480 449 537 L415 605 C402 633 390 655 379 670 C374 677 368 681 361 681 C348 681 331 670 309 649 C287 628 275 611 272 598 C275 589 277 580 277 569 C277 536 248 462 190 345 C144 249 104 175 71 124 C67 118 54 107 31 90 C12 74 2 63 2 56 C2 32 15 7 36 7 C51 7 69 13 89 26 C109 39 119 53 119 67 C119 70 119 75 118 82 C117 88 117 93 118 96 C119 101 120 105 123 109 C291 116 427 122 532 128 C546 103 560 79 573 54 C597 16 614 -3 624 -3 C639 -3 655 10 674 35 C693 60 703 81 703 97 L703 97 Z M187 226 C269 383 315 473 326 498 C373 411 408 347 433 305 C452 268 464 246 469 238 L187 226 Z " />
<glyph glyph-name="atilde" unicode="&#xe3;" horiz-adv-x="694" d="M464 814 C464 817 462 819 459 819 C453 819 430 804 389 774 C388 782 385 795 378 812 C371 832 364 842 358 842 C357 842 349 836 335 823 L306 800 C268 779 249 757 248 734 L248 732 C247 728 248 726 251 726 C257 726 263 729 270 734 C295 755 313 770 326 779 C339 759 345 738 345 717 C345 712 347 709 350 709 C354 709 368 717 391 734 L435 768 C441 773 447 778 452 785 C460 797 464 807 464 814 L464 814 Z M703 97 C703 102 701 107 698 112 C665 157 623 223 574 310 C521 405 480 480 449 537 L415 605 C402 633 390 655 379 670 C374 677 368 681 361 681 C348 681 331 670 309 649 C287 628 275 611 272 598 C275 589 277 580 277 569 C277 536 248 462 190 345 C144 249 104 175 71 124 C67 118 54 107 31 90 C12 74 2 63 2 56 C2 32 15 7 36 7 C51 7 69 13 89 26 C109 39 119 53 119 67 C119 70 119 75 118 82 C117 88 117 93 118 96 C119 101 120 105 123 109 C291 116 427 122 532 128 C546 103 560 79 573 54 C597 16 614 -3 624 -3 C639 -3 655 10 674 35 C693 60 703 81 703 97 L703 97 Z M187 226 C269 383 315 473 326 498 C373 411 408 347 433 305 C452 268 464 246 469 238 L187 226 Z " />
<glyph glyph-name="adieresis" unicode="&#xe4;" horiz-adv-x="694" d="M478 760 C478 784 457 806 433 806 C406 806 387 784 387 760 C387 733 406 713 433 713 C457 713 478 733 478 760 L478 760 Z M332 760 C332 784 312 806 287 806 C263 806 241 784 241 760 C241 733 263 713 287 713 C312 713 332 733 332 760 L332 760 Z M703 97 C703 102 701 107 698 112 C665 157 623 223 574 310 C521 405 480 480 449 537 L415 605 C402 633 390 655 379 670 C374 677 368 681 361 681 C348 681 331 670 309 649 C287 628 275 611 272 598 C275 589 277 580 277 569 C277 536 248 462 190 345 C144 249 104 175 71 124 C67 118 54 107 31 90 C12 74 2 63 2 56 C2 32 15 7 36 7 C51 7 69 13 89 26 C109 39 119 53 119 67 C119 70 119 75 118 82 C117 88 117 93 118 96 C119 101 120 105 123 109 C291 116 427 122 532 128 C546 103 560 79 573 54 C597 16 614 -3 624 -3 C639 -3 655 10 674 35 C693 60 703 81 703 97 L703 97 Z M187 226 C269 383 315 473 326 498 C373 411 408 347 433 305 C452 268 464 246 469 238 L187 226 Z " />
<glyph glyph-name="aring" unicode="&#xe5;" horiz-adv-x="694" d="M703 97 C703 102 701 107 698 112 C665 157 623 223 574 310 C521 405 480 480 449 537 L389 654 C426 668 444 694 444 731 C444 778 405 813 357 813 C309 813 271 778 271 731 C271 698 287 673 318 658 C291 635 275 615 272 598 C275 589 277 580 277 569 C277 536 248 462 190 345 C144 249 104 175 71 124 C67 118 54 107 31 90 C12 74 2 63 2 56 C2 32 15 7 36 7 C51 7 69 13 89 26 C109 39 119 53 119 67 C119 70 119 75 118 82 C117 88 117 93 118 96 C119 101 120 105 123 109 C291 116 427 122 532 128 C546 103 560 79 573 54 C597 16 614 -3 624 -3 C639 -3 655 10 674 35 C693 60 703 81 703 97 L703 97 Z M407 731 C407 703 384 682 356 682 C327 682 304 703 304 731 C304 758 327 780 356 780 C384 780 407 758 407 731 L407 731 Z M187 226 C269 383 315 473 326 498 C373 411 408 347 433 305 C452 268 464 246 469 238 L187 226 Z " />
<glyph glyph-name="ae" unicode="&#xe6;" horiz-adv-x="1109" d="M1057 380 C1057 388 1054 393 1048 394 C1033 397 995 398 936 398 C848 398 732 395 589 388 C589 393 586 448 580 551 C608 552 636 553 665 553 C720 553 782 551 852 547 C919 543 948 541 941 541 C956 541 973 554 992 579 C1011 605 1020 627 1020 644 C1020 651 1016 656 1009 658 C978 667 897 672 767 672 C668 672 600 669 563 664 C552 663 540 657 528 647 C525 663 525 681 512 681 C499 681 476 670 445 649 C414 628 393 611 383 598 C384 589 381 580 376 569 C361 536 299 462 188 345 C98 249 25 175 -30 124 C-37 118 -56 107 -87 90 C-113 74 -128 63 -131 56 C-136 46 -138 37 -138 28 C-138 14 -132 7 -119 7 C-104 7 -84 13 -58 26 C-32 39 -16 53 -9 67 C2 91 9 105 14 109 C185 116 325 122 432 128 C435 103 438 79 440 54 C446 16 454 -3 464 -3 C472 -3 484 2 499 12 C499 1 503 -4 510 -4 L837 -4 C897 -4 937 0 956 8 C988 20 1012 50 1029 98 C1032 105 1033 111 1033 114 C1033 120 1029 123 1021 123 C1008 123 988 121 962 117 C936 114 916 112 901 112 L593 112 C596 138 598 167 598 200 C598 220 597 245 596 275 C674 278 751 279 827 279 C839 279 864 278 903 277 C936 276 962 276 981 277 C996 278 1013 291 1030 316 C1048 342 1057 363 1057 380 L1057 380 Z M131 226 C284 383 371 473 393 498 C400 411 406 347 411 305 C414 268 417 246 418 238 L131 226 Z " />
<glyph glyph-name="ccedilla" unicode="&#xe7;" horiz-adv-x="727" d="M690 212 C690 223 685 229 674 229 C667 229 659 224 649 214 C632 196 615 178 599 159 C582 144 559 132 531 124 C486 111 443 104 402 104 C345 104 293 118 244 146 C193 175 157 215 136 266 C125 289 120 310 120 331 C120 383 153 432 230 505 C277 548 311 569 334 569 C350 569 385 546 438 501 C491 456 522 434 530 434 C545 434 562 447 581 474 C600 499 609 519 609 535 C609 542 601 550 586 561 C575 568 565 576 555 583 L484 647 C452 672 424 685 400 685 C380 685 350 672 310 645 C278 623 251 601 228 579 C99 454 35 341 35 240 C35 166 63 106 120 60 C171 18 234 -6 311 -11 L311 -50 C307 -63 317 -73 341 -69 C356 -67 369 -66 380 -66 C403 -66 414 -71 414 -81 C414 -91 405 -102 387 -113 C369 -124 355 -129 344 -126 L319 -119 C310 -116 302 -115 295 -115 C284 -115 279 -119 279 -126 C279 -137 294 -153 302 -156 C320 -161 337 -163 354 -163 C383 -163 407 -156 425 -142 C440 -129 448 -114 448 -96 C448 -60 416 -32 363 -29 L363 -11 C485 -3 585 52 662 155 C681 180 690 199 690 212 L690 212 Z " />
<glyph glyph-name="egrave" unicode="&#xe8;" horiz-adv-x="678" d="M494 717 C495 721 483 725 455 733 C442 738 432 741 425 743 L381 761 C362 769 348 774 339 777 C310 788 286 793 265 793 C249 793 232 790 215 783 C212 782 210 780 209 779 C208 777 213 774 224 770 C263 753 298 740 328 729 C375 712 412 703 440 703 C456 703 472 706 487 712 C491 713 493 715 494 717 L494 717 Z M635 380 C635 388 632 393 626 394 C611 397 573 398 513 398 C425 398 309 395 166 388 C166 393 163 448 158 551 C185 552 213 553 242 553 C297 553 360 551 430 547 C496 543 525 541 518 541 C533 541 550 554 569 579 C588 605 598 627 598 644 C598 651 594 656 586 658 C555 667 474 672 344 672 C245 672 178 669 141 664 C123 661 105 649 87 626 C70 603 61 583 61 564 C61 515 65 443 73 346 C81 249 85 177 85 129 C85 116 83 96 80 70 C77 44 76 25 76 12 C76 1 80 -4 88 -4 L414 -4 C474 -4 514 0 533 8 C565 20 590 50 608 98 C610 105 611 111 611 114 C611 120 607 123 599 123 C585 123 565 121 539 117 C513 114 493 112 480 112 L170 112 C173 138 175 167 175 200 C175 220 174 245 173 275 C252 278 329 279 404 279 C417 279 443 278 482 277 C513 276 539 276 558 277 C573 278 590 291 608 316 C626 342 635 363 635 380 L635 380 Z " />
<glyph glyph-name="eacute" unicode="&#xe9;" horiz-adv-x="678" d="M494 779 C493 780 491 782 488 783 C471 790 455 793 440 793 C418 793 393 788 364 777 C355 774 341 769 322 761 L279 743 C267 739 231 728 218 723 C211 721 208 719 209 717 C210 715 212 713 216 712 C231 706 248 703 265 703 C292 703 328 712 375 729 C406 740 441 753 480 770 C490 774 495 777 494 779 L494 779 Z M635 380 C635 388 632 393 626 394 C611 397 573 398 513 398 C425 398 309 395 166 388 C166 393 163 448 158 551 C185 552 213 553 242 553 C297 553 360 551 430 547 C496 543 525 541 518 541 C533 541 550 554 569 579 C588 605 598 627 598 644 C598 651 594 656 586 658 C555 667 474 672 344 672 C245 672 178 669 141 664 C123 661 105 649 87 626 C70 603 61 583 61 564 C61 515 65 443 73 346 C81 249 85 177 85 129 C85 116 83 96 80 70 C77 44 76 25 76 12 C76 1 80 -4 88 -4 L414 -4 C474 -4 514 0 533 8 C565 20 590 50 608 98 C610 105 611 111 611 114 C611 120 607 123 599 123 C585 123 565 121 539 117 C513 114 493 112 480 112 L170 112 C173 138 175 167 175 200 C175 220 174 245 173 275 C252 278 329 279 404 279 C417 279 443 278 482 277 C513 276 539 276 558 277 C573 278 590 291 608 316 C626 342 635 363 635 380 L635 380 Z " />
<glyph glyph-name="ecircumflex" unicode="&#xea;" horiz-adv-x="678" d="M487 752 C487 756 486 759 484 761 C483 763 466 776 433 799 L379 838 C378 839 377 839 375 839 C371 839 336 811 269 754 C251 740 242 726 242 712 C242 706 243 703 246 703 C249 703 281 727 342 776 C411 725 445 700 446 700 C454 700 463 707 472 720 C482 733 487 744 487 752 L487 752 Z M635 380 C635 388 632 393 626 394 C611 397 573 398 513 398 C425 398 309 395 166 388 C166 393 163 448 158 551 C185 552 213 553 242 553 C297 553 360 551 430 547 C496 543 525 541 518 541 C533 541 550 554 569 579 C588 605 598 627 598 644 C598 651 594 656 586 658 C555 667 474 672 344 672 C245 672 178 669 141 664 C123 661 105 649 87 626 C70 603 61 583 61 564 C61 515 65 443 73 346 C81 249 85 177 85 129 C85 116 83 96 80 70 C77 44 76 25 76 12 C76 1 80 -4 88 -4 L414 -4 C474 -4 514 0 533 8 C565 20 590 50 608 98 C610 105 611 111 611 114 C611 120 607 123 599 123 C585 123 565 121 539 117 C513 114 493 112 480 112 L170 112 C173 138 175 167 175 200 C175 220 174 245 173 275 C252 278 329 279 404 279 C417 279 443 278 482 277 C513 276 539 276 558 277 C573 278 590 291 608 316 C626 342 635 363 635 380 L635 380 Z " />
<glyph glyph-name="edieresis" unicode="&#xeb;" horiz-adv-x="678" d="M478 760 C478 784 457 806 433 806 C406 806 387 784 387 760 C387 733 406 713 433 713 C457 713 478 733 478 760 L478 760 Z M332 760 C332 784 312 806 287 806 C263 806 241 784 241 760 C241 733 263 713 287 713 C312 713 332 733 332 760 L332 760 Z M635 380 C635 388 632 393 626 394 C611 397 573 398 513 398 C425 398 309 395 166 388 C166 393 163 448 158 551 C185 552 213 553 242 553 C297 553 360 551 430 547 C496 543 525 541 518 541 C533 541 550 554 569 579 C588 605 598 627 598 644 C598 651 594 656 586 658 C555 667 474 672 344 672 C245 672 178 669 141 664 C123 661 105 649 87 626 C70 603 61 583 61 564 C61 515 65 443 73 346 C81 249 85 177 85 129 C85 116 83 96 80 70 C77 44 76 25 76 12 C76 1 80 -4 88 -4 L414 -4 C474 -4 514 0 533 8 C565 20 590 50 608 98 C610 105 611 111 611 114 C611 120 607 123 599 123 C585 123 565 121 539 117 C513 114 493 112 480 112 L170 112 C173 138 175 167 175 200 C175 220 174 245 173 275 C252 278 329 279 404 279 C417 279 443 278 482 277 C513 276 539 276 558 277 C573 278 590 291 608 316 C626 342 635 363 635 380 L635 380 Z " />
<glyph glyph-name="igrave" unicode="&#xec;" horiz-adv-x="268" d="M298 707 C299 711 286 715 258 724 C244 729 234 732 228 733 L184 751 C165 759 152 765 143 768 C114 778 89 783 67 783 C52 783 36 780 19 774 C16 773 14 771 13 770 C12 767 17 764 27 760 C67 743 102 730 132 719 C179 702 215 693 242 693 C259 693 276 696 291 702 C295 703 297 705 298 707 L298 707 Z M212 94 C212 97 210 100 206 103 C196 110 190 132 187 171 C184 213 182 261 182 315 C182 347 183 395 186 458 C189 522 190 570 190 603 C190 648 177 670 152 670 C139 670 123 657 104 630 C85 603 76 583 76 568 C76 565 80 559 88 552 C96 545 100 530 100 508 C100 477 99 431 96 370 C93 309 92 264 92 233 C92 74 104 -6 128 -6 C145 -6 163 6 182 30 C202 54 212 75 212 94 L212 94 Z " />
<glyph glyph-name="iacute" unicode="&#xed;" horiz-adv-x="268" d="M298 770 C297 771 295 773 292 774 C275 780 258 783 242 783 C221 783 197 778 168 768 C159 765 145 759 126 751 L82 733 C69 730 34 718 21 713 C15 711 12 709 13 707 C14 705 16 703 20 702 C35 696 51 693 67 693 C94 693 132 702 179 719 C209 730 244 743 283 760 C294 764 299 767 298 770 L298 770 Z M212 94 C212 97 210 100 206 103 C196 110 190 132 187 171 C184 213 182 261 182 315 C182 347 183 395 186 458 C189 522 190 570 190 603 C190 648 177 670 152 670 C139 670 123 657 104 630 C85 603 76 583 76 568 C76 565 80 559 88 552 C96 545 100 530 100 508 C100 477 99 431 96 370 C93 309 92 264 92 233 C92 74 104 -6 128 -6 C145 -6 163 6 182 30 C202 54 212 75 212 94 L212 94 Z " />
<glyph glyph-name="icircumflex" unicode="&#xee;" horiz-adv-x="268" d="M281 733 C281 736 280 738 278 740 C276 742 259 755 226 779 C194 804 176 817 173 818 C172 819 171 819 169 819 C165 819 129 791 62 734 C45 721 36 707 36 692 C36 687 37 684 40 684 C43 684 75 708 136 756 C204 706 238 681 239 681 C247 681 256 688 266 701 C276 714 281 725 281 733 L281 733 Z M212 94 C212 97 210 100 206 103 C196 110 190 132 187 171 C184 213 182 261 182 315 C182 347 183 395 186 458 C189 522 190 570 190 603 C190 648 177 670 152 670 C139 670 123 657 104 630 C85 603 76 583 76 568 C76 565 80 559 88 552 C96 545 100 530 100 508 C100 477 99 431 96 370 C93 309 92 264 92 233 C92 74 104 -6 128 -6 C145 -6 163 6 182 30 C202 54 212 75 212 94 L212 94 Z " />
<glyph glyph-name="idieresis" unicode="&#xef;" horiz-adv-x="268" d="M272 760 C272 784 250 806 226 806 C201 806 181 784 181 760 C181 733 201 713 226 713 C250 713 272 733 272 760 L272 760 Z M126 760 C126 784 107 806 80 806 C56 806 35 784 35 760 C35 733 56 713 80 713 C107 713 126 733 126 760 L126 760 Z M212 94 C212 97 210 100 206 103 C196 110 190 132 187 171 C184 213 182 261 182 315 C182 347 183 395 186 458 C189 522 190 570 190 603 C190 648 177 670 152 670 C139 670 123 657 104 630 C85 603 76 583 76 568 C76 565 80 559 88 552 C96 545 100 530 100 508 C100 477 99 431 96 370 C93 309 92 264 92 233 C92 74 104 -6 128 -6 C145 -6 163 6 182 30 C202 54 212 75 212 94 L212 94 Z " />
<glyph glyph-name="eth" unicode="&#xf0;" horiz-adv-x="831" d="M781 414 C781 587 666 674 436 674 C352 674 288 668 244 656 C227 652 210 638 192 614 C174 590 165 569 165 552 C165 543 169 539 177 539 C174 539 188 542 218 547 C213 534 211 511 211 478 C211 456 212 429 214 398 C160 398 116 396 82 392 C67 390 51 376 32 349 C14 323 5 302 5 285 C5 278 10 275 21 275 C23 275 90 277 222 282 C223 271 223 261 223 250 C223 195 208 142 178 91 C175 87 174 82 174 77 C174 58 186 39 211 21 C234 4 255 -4 276 -4 C477 -4 624 67 717 210 C760 276 781 344 781 414 L781 414 Z M690 329 C690 250 655 194 585 159 C540 137 471 122 377 114 C350 111 336 110 337 110 C329 110 324 111 321 113 C308 122 300 179 299 283 C317 283 348 283 392 282 C433 281 465 280 486 280 C502 280 519 293 537 319 C556 345 565 367 565 384 C565 391 562 396 555 398 C542 401 506 402 448 402 C443 402 400 401 319 400 L301 399 C303 444 307 497 313 557 C332 558 351 559 369 559 C460 559 532 544 586 513 C655 474 690 412 690 329 L690 329 Z " />
<glyph glyph-name="ntilde" unicode="&#xf1;" horiz-adv-x="744" d="M513 725 C513 729 511 731 508 731 C502 731 479 716 439 685 C438 693 435 706 428 723 C420 743 413 753 407 753 C406 753 398 747 384 734 L355 711 C318 690 299 669 298 647 L298 644 C297 640 298 638 301 638 C306 638 312 641 318 647 C343 667 362 682 375 691 C388 671 394 650 394 629 C394 624 395 621 398 621 C403 621 417 630 440 647 L483 679 C490 684 496 689 501 696 C509 708 513 718 513 725 L513 725 Z M694 548 C694 630 675 671 638 671 C620 671 601 659 582 634 C563 609 554 587 554 567 C554 560 557 556 563 556 C564 556 565 556 566 557 L570 557 C590 556 600 515 600 435 C600 410 599 372 596 322 C594 273 593 236 593 211 C410 377 277 507 193 602 C172 633 158 656 150 672 C148 678 145 681 140 681 C131 681 118 670 101 649 C72 612 57 575 57 538 C57 533 57 524 58 511 L58 478 L58 387 C58 124 74 -8 106 -8 C119 -8 136 5 157 31 C178 57 188 78 188 93 C188 96 186 99 183 103 C177 109 172 118 169 130 C167 137 165 148 163 161 C154 228 150 323 150 446 C220 365 325 263 466 140 C529 78 576 31 607 -1 C610 -4 613 -6 616 -6 C629 -6 646 9 665 40 C683 69 692 90 692 105 C692 130 691 168 688 219 C686 270 685 308 685 333 C685 357 686 393 689 440 C692 488 694 524 694 548 L694 548 Z " />
<glyph glyph-name="ograve" unicode="&#xf2;" horiz-adv-x="787" d="M593 717 C594 721 580 725 552 733 L523 743 L479 761 C460 769 447 774 438 777 C409 788 383 793 362 793 C347 793 331 790 314 783 C311 782 309 780 308 779 C307 777 312 774 322 770 C361 753 396 740 427 729 C474 712 510 703 537 703 C554 703 570 706 585 712 C590 713 592 715 593 717 L593 717 Z M764 412 C764 481 730 540 661 591 C632 613 593 634 544 654 C491 677 448 689 417 689 C404 689 393 687 384 682 C313 649 240 590 166 505 C85 411 44 329 44 260 C44 199 70 143 121 90 C166 44 219 9 281 -14 C301 -20 320 -23 338 -23 C359 -23 382 -19 407 -10 C492 21 571 76 644 157 C724 245 764 330 764 412 L764 412 Z M675 321 C675 288 660 255 630 224 C597 191 563 163 527 139 C481 108 441 92 408 92 C353 92 294 119 231 174 C167 231 135 287 135 341 C135 382 158 427 204 474 C240 509 282 540 330 567 C337 568 343 568 349 568 C388 568 436 560 493 544 C565 523 620 471 657 390 C669 365 675 342 675 321 L675 321 Z " />
<glyph glyph-name="oacute" unicode="&#xf3;" horiz-adv-x="787" d="M494 770 C493 771 491 773 488 774 C471 780 455 783 440 783 C418 783 393 778 364 768 C355 765 341 759 322 751 L279 733 C267 730 231 718 218 713 C211 711 208 709 209 707 C210 705 212 703 216 702 C231 696 248 693 265 693 C292 693 328 702 375 719 C406 730 441 743 480 760 C490 764 495 767 494 770 L494 770 Z M764 412 C764 481 730 540 661 591 C632 613 593 634 544 654 C491 677 448 689 417 689 C404 689 393 687 384 682 C313 649 240 590 166 505 C85 411 44 329 44 260 C44 199 70 143 121 90 C166 44 219 9 281 -14 C301 -20 320 -23 338 -23 C359 -23 382 -19 407 -10 C492 21 571 76 644 157 C724 245 764 330 764 412 L764 412 Z M675 321 C675 288 660 255 630 224 C597 191 563 163 527 139 C481 108 441 92 408 92 C353 92 294 119 231 174 C167 231 135 287 135 341 C135 382 158 427 204 474 C240 509 282 540 330 567 C337 568 343 568 349 568 C388 568 436 560 493 544 C565 523 620 471 657 390 C669 365 675 342 675 321 L675 321 Z " />
<glyph glyph-name="ocircumflex" unicode="&#xf4;" horiz-adv-x="787" d="M556 752 C556 756 555 759 553 761 C551 763 534 776 501 799 L448 838 C447 839 446 839 444 839 C441 839 405 811 337 754 C320 740 312 726 312 712 C312 706 313 703 315 703 C318 703 350 727 410 776 C479 725 514 700 515 700 C522 700 531 707 541 720 C551 733 556 744 556 752 L556 752 Z M764 412 C764 481 730 540 661 591 C632 613 593 634 544 654 C491 677 448 689 417 689 C404 689 393 687 384 682 C313 649 240 590 166 505 C85 411 44 329 44 260 C44 199 70 143 121 90 C166 44 219 9 281 -14 C301 -20 320 -23 338 -23 C359 -23 382 -19 407 -10 C492 21 571 76 644 157 C724 245 764 330 764 412 L764 412 Z M675 321 C675 288 660 255 630 224 C597 191 563 163 527 139 C481 108 441 92 408 92 C353 92 294 119 231 174 C167 231 135 287 135 341 C135 382 158 427 204 474 C240 509 282 540 330 567 C337 568 343 568 349 568 C388 568 436 560 493 544 C565 523 620 471 657 390 C669 365 675 342 675 321 L675 321 Z " />
<glyph glyph-name="otilde" unicode="&#xf5;" horiz-adv-x="787" d="M532 814 C532 817 530 819 527 819 C522 819 499 804 458 774 C457 782 454 795 447 812 C440 832 434 842 428 842 C427 842 418 836 403 823 L374 800 C337 779 318 757 317 734 L317 732 C316 728 317 726 320 726 C325 726 331 729 338 734 C363 755 382 770 395 779 C407 759 413 738 413 717 C413 712 415 709 418 709 C423 709 437 717 460 734 C475 745 489 757 503 768 C510 773 516 778 521 785 C528 797 532 807 532 814 L532 814 Z M764 412 C764 481 730 540 661 591 C632 613 593 634 544 654 C491 677 448 689 417 689 C404 689 393 687 384 682 C313 649 240 590 166 505 C85 411 44 329 44 260 C44 199 70 143 121 90 C166 44 219 9 281 -14 C301 -20 320 -23 338 -23 C359 -23 382 -19 407 -10 C492 21 571 76 644 157 C724 245 764 330 764 412 L764 412 Z M675 321 C675 288 660 255 630 224 C597 191 563 163 527 139 C481 108 441 92 408 92 C353 92 294 119 231 174 C167 231 135 287 135 341 C135 382 158 427 204 474 C240 509 282 540 330 567 C337 568 343 568 349 568 C388 568 436 560 493 544 C565 523 620 471 657 390 C669 365 675 342 675 321 L675 321 Z " />
<glyph glyph-name="odieresis" unicode="&#xf6;" horiz-adv-x="787" d="M546 760 C546 784 526 806 501 806 C476 806 456 784 456 760 C456 733 476 713 501 713 C526 713 546 733 546 760 L546 760 Z M400 760 C400 784 380 806 356 806 C331 806 311 784 311 760 C311 733 331 713 356 713 C380 713 400 733 400 760 L400 760 Z M764 412 C764 481 730 540 661 591 C632 613 593 634 544 654 C491 677 448 689 417 689 C404 689 393 687 384 682 C313 649 240 590 166 505 C85 411 44 329 44 260 C44 199 70 143 121 90 C166 44 219 9 281 -14 C301 -20 320 -23 338 -23 C359 -23 382 -19 407 -10 C492 21 571 76 644 157 C724 245 764 330 764 412 L764 412 Z M675 321 C675 288 660 255 630 224 C597 191 563 163 527 139 C481 108 441 92 408 92 C353 92 294 119 231 174 C167 231 135 287 135 341 C135 382 158 427 204 474 C240 509 282 540 330 567 C337 568 343 568 349 568 C388 568 436 560 493 544 C565 523 620 471 657 390 C669 365 675 342 675 321 L675 321 Z " />
<glyph glyph-name="divide" unicode="&#xf7;" horiz-adv-x="617" d="M435 600 C435 605 432 608 426 608 C414 608 385 604 374 604 C357 604 316 608 300 608 C275 608 253 598 236 579 C226 567 215 546 204 517 C201 510 200 505 200 502 C200 495 205 492 214 491 C249 487 280 485 306 485 C339 485 366 493 385 510 C402 523 418 547 431 582 C434 590 435 596 435 600 L435 600 Z M595 384 C595 391 591 396 584 398 C571 401 536 402 478 402 C458 402 415 401 349 400 L230 398 C183 398 143 396 112 392 C97 390 81 376 62 349 C43 323 34 302 34 285 C34 278 39 275 50 275 C81 275 126 276 186 279 C247 282 292 284 323 284 C344 284 376 283 419 282 C462 281 494 280 516 280 C531 280 548 293 567 319 C586 345 595 367 595 384 L595 384 Z M407 186 C407 191 404 194 398 194 C389 194 359 190 348 190 C331 190 289 194 273 194 C247 194 226 185 210 167 C199 154 189 133 178 104 C175 98 174 93 174 90 C174 82 179 78 188 77 C222 74 252 72 279 72 C347 72 379 101 403 170 C406 177 407 182 407 186 L407 186 Z " />
<glyph glyph-name="oslash" unicode="&#xf8;" horiz-adv-x="787" d="M764 412 C764 481 730 540 661 591 C648 601 632 611 611 622 C629 655 645 685 659 714 C670 736 676 752 676 763 C676 770 673 773 667 773 C645 773 623 753 600 712 C587 691 575 670 562 647 C501 675 452 689 417 689 C404 689 393 687 384 682 C313 649 240 590 166 505 C85 411 44 329 44 260 C44 210 62 162 98 117 C129 77 170 43 219 15 C194 -33 166 -85 166 -102 C166 -109 171 -112 180 -112 C199 -112 219 -92 242 -52 L268 -8 C294 -18 317 -23 338 -23 C359 -23 382 -19 407 -10 C492 21 571 76 644 157 C724 245 764 330 764 412 L764 412 Z M675 321 C675 288 660 255 630 224 C597 191 563 163 527 139 C481 108 441 92 408 92 C387 92 362 98 333 111 C385 209 424 282 451 331 L553 517 C596 489 631 447 657 390 C669 365 675 342 675 321 L675 321 Z M504 540 C454 445 416 375 391 329 L285 136 C242 162 208 193 181 228 C150 267 135 304 135 341 C135 382 158 427 204 474 C240 509 282 540 330 567 C337 568 343 568 349 568 C398 568 450 559 504 540 L504 540 Z " />
<glyph glyph-name="ugrave" unicode="&#xf9;" horiz-adv-x="675" d="M494 668 C495 672 483 676 455 684 C442 689 432 692 425 694 L381 711 C362 719 348 725 339 728 C310 738 286 743 265 743 C249 743 232 740 215 733 L209 730 C208 727 213 724 224 720 C263 704 298 691 328 680 C375 663 412 654 440 654 C456 654 472 657 487 663 C491 664 493 666 494 668 L494 668 Z M620 383 C620 411 617 457 610 521 C603 590 597 634 591 651 C589 658 585 661 580 661 C567 661 550 647 529 620 C509 593 500 573 501 559 L501 550 C502 525 508 479 519 414 C527 357 531 312 531 279 C531 218 523 177 508 156 C489 132 450 120 390 120 C228 120 147 191 147 334 C147 405 153 483 166 568 C173 616 176 639 176 636 C176 647 173 653 166 653 C151 653 134 640 115 614 C98 590 88 570 85 553 C68 470 59 380 59 282 C59 247 60 217 62 190 C67 127 94 79 142 46 C183 17 236 2 303 2 C410 2 492 40 547 116 C596 183 620 272 620 383 L620 383 Z " />
<glyph glyph-name="uacute" unicode="&#xfa;" horiz-adv-x="675" d="M508 733 C491 740 474 743 459 743 C438 743 413 738 384 728 C375 725 361 719 342 711 L299 694 C286 690 250 679 237 674 C231 672 228 670 229 668 C230 666 232 664 235 663 C252 657 268 654 284 654 C311 654 348 663 395 680 C425 691 460 704 499 720 C510 724 515 727 514 730 L508 733 Z M620 383 C620 411 617 457 610 521 C603 590 597 634 591 651 C589 658 585 661 580 661 C567 661 550 647 529 620 C509 593 500 573 501 559 L501 550 C502 525 508 479 519 414 C527 357 531 312 531 279 C531 218 523 177 508 156 C489 132 450 120 390 120 C228 120 147 191 147 334 C147 405 153 483 166 568 C173 616 176 639 176 636 C176 647 173 653 166 653 C151 653 134 640 115 614 C98 590 88 570 85 553 C68 470 59 380 59 282 C59 247 60 217 62 190 C67 127 94 79 142 46 C183 17 236 2 303 2 C410 2 492 40 547 116 C596 183 620 272 620 383 L620 383 Z " />
<glyph glyph-name="ucircumflex" unicode="&#xfb;" horiz-adv-x="675" d="M487 733 C487 736 486 738 484 740 C483 742 466 755 433 779 C400 804 382 817 379 818 C378 819 377 819 375 819 C371 819 336 791 269 734 C251 721 242 707 242 692 C242 687 243 684 246 684 C249 684 281 708 342 756 C411 706 445 681 446 681 C454 681 463 688 472 701 C482 714 487 725 487 733 L487 733 Z M620 383 C620 411 617 457 610 521 C603 590 597 634 591 651 C589 658 585 661 580 661 C567 661 550 647 529 620 C509 593 500 573 501 559 L501 550 C502 525 508 479 519 414 C527 357 531 312 531 279 C531 218 523 177 508 156 C489 132 450 120 390 120 C228 120 147 191 147 334 C147 405 153 483 166 568 C173 616 176 639 176 636 C176 647 173 653 166 653 C151 653 134 640 115 614 C98 590 88 570 85 553 C68 470 59 380 59 282 C59 247 60 217 62 190 C67 127 94 79 142 46 C183 17 236 2 303 2 C410 2 492 40 547 116 C596 183 620 272 620 383 L620 383 Z " />
<glyph glyph-name="udieresis" unicode="&#xfc;" horiz-adv-x="675" d="M478 710 C478 735 457 757 433 757 C406 757 387 735 387 710 C387 685 406 664 433 664 C457 664 478 685 478 710 L478 710 Z M332 710 C332 735 312 757 287 757 C263 757 241 735 241 710 C241 685 263 664 287 664 C312 664 332 685 332 710 L332 710 Z M620 383 C620 411 617 457 610 521 C603 590 597 634 591 651 C589 658 585 661 580 661 C567 661 550 647 529 620 C509 593 500 573 501 559 L501 550 C502 525 508 479 519 414 C527 357 531 312 531 279 C531 218 523 177 508 156 C489 132 450 120 390 120 C228 120 147 191 147 334 C147 405 153 483 166 568 C173 616 176 639 176 636 C176 647 173 653 166 653 C151 653 134 640 115 614 C98 590 88 570 85 553 C68 470 59 380 59 282 C59 247 60 217 62 190 C67 127 94 79 142 46 C183 17 236 2 303 2 C410 2 492 40 547 116 C596 183 620 272 620 383 L620 383 Z " />
<glyph glyph-name="yacute" unicode="&#xfd;" horiz-adv-x="626" d="M488 733 C471 740 455 743 440 743 C418 743 393 738 364 728 C355 725 341 719 322 711 L279 694 C267 690 231 679 218 674 C211 672 208 670 209 668 C210 666 212 664 216 663 C231 657 248 654 265 654 C292 654 328 663 375 680 C406 691 441 704 480 720 C490 724 495 727 494 730 L488 733 Z M629 629 C629 646 616 672 603 672 C594 672 582 669 566 663 C549 656 541 649 541 643 C541 639 545 628 545 624 C545 609 516 576 459 524 C400 471 360 445 341 445 C337 445 333 446 330 448 C271 479 207 529 139 600 C116 624 100 642 89 654 C86 656 83 657 79 657 C65 657 48 644 29 617 C10 591 0 571 0 556 C0 547 8 536 23 525 L60 504 C85 485 123 454 173 411 C235 359 265 330 264 324 C261 285 260 248 260 214 C260 69 277 -3 312 -3 C328 -3 345 10 362 37 C379 61 388 82 388 101 C388 104 384 112 375 127 C367 142 363 153 362 159 C356 189 353 236 353 301 L354 360 C388 390 414 413 431 430 C498 496 549 546 582 581 C602 596 629 610 629 629 L629 629 Z " />
<glyph glyph-name="thorn" unicode="&#xfe;" horiz-adv-x="529" d="M500 401 C500 414 498 427 494 438 C485 467 461 486 424 495 C364 511 298 519 227 519 C207 519 186 518 163 517 C163 533 165 577 165 597 C165 621 164 637 162 646 C157 664 145 673 128 673 C115 673 99 660 80 633 C62 606 53 586 53 571 C53 567 56 562 63 555 C70 549 74 535 74 513 C74 482 73 434 70 371 C68 308 67 260 67 229 C67 74 80 -4 105 -4 C120 -4 137 9 157 34 C178 60 188 81 188 97 C188 100 186 103 183 105 C176 110 171 121 168 138 C166 145 164 158 163 175 C248 176 317 192 371 222 C405 240 434 265 459 297 C486 333 500 368 500 401 L500 401 Z M406 326 C359 303 295 291 212 292 L159 292 L159 336 C159 361 159 384 160 403 C211 403 258 399 301 391 C366 378 401 356 406 326 L406 326 Z " />
<glyph glyph-name="ydieresis" unicode="&#xff;" horiz-adv-x="626" d="M448 710 C448 735 429 757 402 757 C378 757 357 735 357 710 C357 685 378 664 402 664 C429 664 448 685 448 710 L448 710 Z M303 710 C303 735 282 757 258 757 C231 757 212 735 212 710 C212 685 231 664 258 664 C282 664 303 685 303 710 L303 710 Z M629 629 C629 646 616 672 603 672 C594 672 582 669 566 663 C549 656 541 649 541 643 C541 639 545 628 545 624 C545 609 516 576 459 524 C400 471 360 445 341 445 C337 445 333 446 330 448 C271 479 207 529 139 600 C116 624 100 642 89 654 C86 656 83 657 79 657 C65 657 48 644 29 617 C10 591 0 571 0 556 C0 547 8 536 23 525 L60 504 C85 485 123 454 173 411 C235 359 265 330 264 324 C261 285 260 248 260 214 C260 69 277 -3 312 -3 C328 -3 345 10 362 37 C379 61 388 82 388 101 C388 104 384 112 375 127 C367 142 363 153 362 159 C356 189 353 236 353 301 L354 360 C388 390 414 413 431 430 C498 496 549 546 582 581 C602 596 629 610 629 629 L629 629 Z " />
<glyph glyph-name="Amacron" unicode="&#x100;" horiz-adv-x="694" d="M526 778 C526 781 526 783 525 784 C523 787 504 788 468 788 C458 788 436 788 402 787 L205 783 C197 782 188 774 179 760 C170 747 166 736 166 729 C166 726 169 724 174 724 C189 724 224 725 281 726 C338 727 375 728 390 728 C401 728 417 728 438 727 C460 726 476 726 487 726 C495 726 503 733 512 746 C521 760 526 771 526 778 L526 778 Z M703 97 C703 102 701 107 698 112 C665 157 623 223 574 310 C521 405 480 480 449 537 L415 605 C402 633 390 655 379 670 C374 677 368 681 361 681 C348 681 331 670 309 649 C287 628 275 611 272 598 C275 589 277 580 277 569 C277 536 248 462 190 345 C144 249 104 175 71 124 C67 118 54 107 31 90 C12 74 2 63 2 56 C2 32 15 7 36 7 C51 7 69 13 89 26 C109 39 119 53 119 67 C119 70 119 75 118 82 C117 88 117 93 118 96 C119 101 120 105 123 109 C291 116 427 122 532 128 C546 103 560 79 573 54 C597 16 614 -3 624 -3 C639 -3 655 10 674 35 C693 60 703 81 703 97 L703 97 Z M187 226 C269 383 315 473 326 498 C373 411 408 347 433 305 C452 268 464 246 469 238 L187 226 Z " />
<glyph glyph-name="amacron" unicode="&#x101;" horiz-adv-x="694" d="M526 778 C526 781 526 783 525 784 C523 787 504 788 468 788 C458 788 436 788 402 787 L205 783 C197 782 188 774 179 760 C170 747 166 736 166 729 C166 726 169 724 174 724 C189 724 224 725 281 726 C338 727 375 728 390 728 C401 728 417 728 438 727 C460 726 476 726 487 726 C495 726 503 733 512 746 C521 760 526 771 526 778 L526 778 Z M703 97 C703 102 701 107 698 112 C665 157 623 223 574 310 C521 405 480 480 449 537 L415 605 C402 633 390 655 379 670 C374 677 368 681 361 681 C348 681 331 670 309 649 C287 628 275 611 272 598 C275 589 277 580 277 569 C277 536 248 462 190 345 C144 249 104 175 71 124 C67 118 54 107 31 90 C12 74 2 63 2 56 C2 32 15 7 36 7 C51 7 69 13 89 26 C109 39 119 53 119 67 C119 70 119 75 118 82 C117 88 117 93 118 96 C119 101 120 105 123 109 C291 116 427 122 532 128 C546 103 560 79 573 54 C597 16 614 -3 624 -3 C639 -3 655 10 674 35 C693 60 703 81 703 97 L703 97 Z M187 226 C269 383 315 473 326 498 C373 411 408 347 433 305 C452 268 464 246 469 238 L187 226 Z " />
<glyph glyph-name="Abreve" unicode="&#x102;" horiz-adv-x="694" d="M475 773 C478 784 465 805 448 805 C443 805 437 802 432 796 C407 765 381 749 355 749 C336 749 320 758 308 777 C296 796 286 805 278 805 C263 805 244 791 244 780 C244 766 257 748 284 725 C303 709 329 701 364 701 C400 701 435 722 469 764 L475 773 Z M703 97 C703 102 701 107 698 112 C665 157 623 223 574 310 C521 405 480 480 449 537 L415 605 C402 633 390 655 379 670 C374 677 368 681 361 681 C348 681 331 670 309 649 C287 628 275 611 272 598 C275 589 277 580 277 569 C277 536 248 462 190 345 C144 249 104 175 71 124 C67 118 54 107 31 90 C12 74 2 63 2 56 C2 32 15 7 36 7 C51 7 69 13 89 26 C109 39 119 53 119 67 C119 70 119 75 118 82 C117 88 117 93 118 96 C119 101 120 105 123 109 C291 116 427 122 532 128 C546 103 560 79 573 54 C597 16 614 -3 624 -3 C639 -3 655 10 674 35 C693 60 703 81 703 97 L703 97 Z M187 226 C269 383 315 473 326 498 C373 411 408 347 433 305 C452 268 464 246 469 238 L187 226 Z " />
<glyph glyph-name="abreve" unicode="&#x103;" horiz-adv-x="694" d="M475 773 C478 784 465 805 448 805 C443 805 437 802 432 796 C407 765 381 749 355 749 C336 749 320 758 308 777 C296 796 286 805 278 805 C263 805 244 791 244 780 C244 766 257 748 284 725 C303 709 329 701 364 701 C400 701 435 722 469 764 L475 773 Z M703 97 C703 102 701 107 698 112 C665 157 623 223 574 310 C521 405 480 480 449 537 L415 605 C402 633 390 655 379 670 C374 677 368 681 361 681 C348 681 331 670 309 649 C287 628 275 611 272 598 C275 589 277 580 277 569 C277 536 248 462 190 345 C144 249 104 175 71 124 C67 118 54 107 31 90 C12 74 2 63 2 56 C2 32 15 7 36 7 C51 7 69 13 89 26 C109 39 119 53 119 67 C119 70 119 75 118 82 C117 88 117 93 118 96 C119 101 120 105 123 109 C291 116 427 122 532 128 C546 103 560 79 573 54 C597 16 614 -3 624 -3 C639 -3 655 10 674 35 C693 60 703 81 703 97 L703 97 Z M187 226 C269 383 315 473 326 498 C373 411 408 347 433 305 C452 268 464 246 469 238 L187 226 Z " />
<glyph glyph-name="Aogonek" unicode="&#x104;" horiz-adv-x="694" d="M703 97 C703 102 701 107 698 112 C665 157 623 223 574 310 C521 405 480 480 449 537 L415 605 C402 633 390 655 379 670 C374 677 368 681 361 681 C348 681 331 670 309 649 C287 628 275 611 272 598 C275 589 277 580 277 569 C277 536 248 462 190 345 C144 249 104 175 71 124 C67 118 54 107 31 90 C12 74 2 63 2 56 C2 32 15 7 36 7 C51 7 69 13 89 26 C109 39 119 53 119 67 C119 70 119 75 118 82 C117 88 117 93 118 96 C119 101 120 105 123 109 C291 116 427 122 532 128 C548 101 561 77 572 56 C561 53 552 49 544 45 C507 26 476 -16 476 -57 C476 -76 484 -96 499 -116 C515 -136 532 -146 550 -146 C563 -146 577 -139 591 -124 C605 -110 612 -96 612 -82 C612 -77 610 -74 607 -74 C604 -74 599 -77 593 -82 C578 -82 563 -74 548 -57 C534 -41 526 -26 525 -11 C528 -10 538 -7 556 -4 C567 -1 576 4 583 11 C586 14 590 18 594 24 C607 6 617 -3 624 -3 C639 -3 655 10 674 35 C693 60 703 81 703 97 L703 97 Z M187 226 C269 383 315 473 326 498 C373 411 408 347 433 305 C452 268 464 246 469 238 L187 226 Z " />
<glyph glyph-name="aogonek" unicode="&#x105;" horiz-adv-x="694" d="M703 97 C703 102 701 107 698 112 C665 157 623 223 574 310 C521 405 480 480 449 537 L415 605 C402 633 390 655 379 670 C374 677 368 681 361 681 C348 681 331 670 309 649 C287 628 275 611 272 598 C275 589 277 580 277 569 C277 536 248 462 190 345 C144 249 104 175 71 124 C67 118 54 107 31 90 C12 74 2 63 2 56 C2 32 15 7 36 7 C51 7 69 13 89 26 C109 39 119 53 119 67 C119 70 119 75 118 82 C117 88 117 93 118 96 C119 101 120 105 123 109 C291 116 427 122 532 128 C548 101 561 77 572 56 C561 53 552 49 544 45 C507 26 476 -16 476 -57 C476 -76 484 -96 499 -116 C515 -136 532 -146 550 -146 C563 -146 577 -139 591 -124 C605 -110 612 -96 612 -82 C612 -77 610 -74 607 -74 C604 -74 599 -77 593 -82 C578 -82 563 -74 548 -57 C534 -41 526 -26 525 -11 C528 -10 538 -7 556 -4 C567 -1 576 4 583 11 C586 14 590 18 594 24 C607 6 617 -3 624 -3 C639 -3 655 10 674 35 C693 60 703 81 703 97 L703 97 Z M187 226 C269 383 315 473 326 498 C373 411 408 347 433 305 C452 268 464 246 469 238 L187 226 Z " />
<glyph glyph-name="Cacute" unicode="&#x106;" horiz-adv-x="727" d="M543 770 C542 771 540 773 537 774 C520 780 503 783 488 783 C467 783 442 778 413 768 C404 765 390 759 371 751 L328 733 C315 730 280 718 267 713 C261 711 258 709 259 707 C260 705 262 703 266 702 C281 696 297 693 314 693 C341 693 378 702 425 719 C455 730 489 743 528 760 C539 764 544 767 543 770 L543 770 Z M690 212 C690 223 685 229 674 229 C667 229 659 224 649 214 C632 196 615 178 599 159 C582 144 559 132 531 124 C486 111 443 104 402 104 C345 104 293 118 244 146 C193 175 157 215 136 266 C125 289 120 310 120 331 C120 383 153 432 230 505 C277 548 311 569 334 569 C350 569 385 546 438 501 C491 456 522 434 530 434 C545 434 562 447 581 474 C600 499 609 519 609 535 C609 542 601 550 586 561 C575 568 565 576 555 583 L484 647 C452 672 424 685 400 685 C380 685 350 672 310 645 C278 623 251 601 228 579 C99 454 35 341 35 240 C35 162 66 99 129 52 C186 9 254 -12 335 -12 C469 -12 578 44 662 155 C681 180 690 199 690 212 L690 212 Z " />
<glyph glyph-name="cacute" unicode="&#x107;" horiz-adv-x="727" d="M524 779 C523 780 521 782 518 783 C500 790 484 793 469 793 C448 793 423 788 394 777 C385 774 370 769 351 761 L309 743 L247 723 C240 721 237 719 238 717 C239 715 241 713 245 712 C262 706 278 703 294 703 C321 703 357 712 404 729 C435 740 470 753 509 770 C519 774 524 777 524 779 L524 779 Z M690 212 C690 223 685 229 674 229 C667 229 659 224 649 214 C632 196 615 178 599 159 C582 144 559 132 531 124 C486 111 443 104 402 104 C345 104 293 118 244 146 C193 175 157 215 136 266 C125 289 120 310 120 331 C120 383 153 432 230 505 C277 548 311 569 334 569 C350 569 385 546 438 501 C491 456 522 434 530 434 C545 434 562 447 581 474 C600 499 609 519 609 535 C609 542 601 550 586 561 C575 568 565 576 555 583 L484 647 C452 672 424 685 400 685 C380 685 350 672 310 645 C278 623 251 601 228 579 C99 454 35 341 35 240 C35 162 66 99 129 52 C186 9 254 -12 335 -12 C469 -12 578 44 662 155 C681 180 690 199 690 212 L690 212 Z " />
<glyph glyph-name="Ccircumflex" unicode="&#x108;" horiz-adv-x="727" d="M536 733 C536 736 535 738 533 740 L482 779 C450 804 432 817 429 818 C428 819 427 819 425 819 C420 819 384 791 317 734 C300 721 292 707 292 692 C292 687 293 684 296 684 C299 684 331 708 391 756 C460 706 494 681 495 681 C503 681 512 688 521 701 C531 714 536 725 536 733 L536 733 Z M690 212 C690 223 685 229 674 229 C667 229 659 224 649 214 C632 196 615 178 599 159 C582 144 559 132 531 124 C486 111 443 104 402 104 C345 104 293 118 244 146 C193 175 157 215 136 266 C125 289 120 310 120 331 C120 383 153 432 230 505 C277 548 311 569 334 569 C350 569 385 546 438 501 C491 456 522 434 530 434 C545 434 562 447 581 474 C600 499 609 519 609 535 C609 542 601 550 586 561 C575 568 565 576 555 583 L484 647 C452 672 424 685 400 685 C380 685 350 672 310 645 C278 623 251 601 228 579 C99 454 35 341 35 240 C35 162 66 99 129 52 C186 9 254 -12 335 -12 C469 -12 578 44 662 155 C681 180 690 199 690 212 L690 212 Z " />
<glyph glyph-name="ccircumflex" unicode="&#x109;" horiz-adv-x="727" d="M546 733 C546 736 545 738 543 740 C541 742 524 755 491 779 C459 804 442 817 439 818 C438 819 437 819 435 819 C431 819 395 791 327 734 C310 721 302 707 302 692 C302 687 303 684 306 684 C309 684 341 708 400 756 C469 706 504 681 505 681 C513 681 522 688 531 701 C541 714 546 725 546 733 L546 733 Z M690 212 C690 223 685 229 674 229 C667 229 659 224 649 214 C632 196 615 178 599 159 C582 144 559 132 531 124 C486 111 443 104 402 104 C345 104 293 118 244 146 C193 175 157 215 136 266 C125 289 120 310 120 331 C120 383 153 432 230 505 C277 548 311 569 334 569 C350 569 385 546 438 501 C491 456 522 434 530 434 C545 434 562 447 581 474 C600 499 609 519 609 535 C609 542 601 550 586 561 C575 568 565 576 555 583 L484 647 C452 672 424 685 400 685 C380 685 350 672 310 645 C278 623 251 601 228 579 C99 454 35 341 35 240 C35 162 66 99 129 52 C186 9 254 -12 335 -12 C469 -12 578 44 662 155 C681 180 690 199 690 212 L690 212 Z " />
<glyph glyph-name="Cdot" unicode="&#x10a;" horiz-adv-x="727" d="M439 770 C439 794 417 816 393 816 C368 816 348 794 348 770 C348 743 368 723 393 723 C417 723 439 743 439 770 L439 770 Z M690 212 C690 223 685 229 674 229 C667 229 659 224 649 214 C632 196 615 178 599 159 C582 144 559 132 531 124 C486 111 443 104 402 104 C345 104 293 118 244 146 C193 175 157 215 136 266 C125 289 120 310 120 331 C120 383 153 432 230 505 C277 548 311 569 334 569 C350 569 385 546 438 501 C491 456 522 434 530 434 C545 434 562 447 581 474 C600 499 609 519 609 535 C609 542 601 550 586 561 C575 568 565 576 555 583 L484 647 C452 672 424 685 400 685 C380 685 350 672 310 645 C278 623 251 601 228 579 C99 454 35 341 35 240 C35 162 66 99 129 52 C186 9 254 -12 335 -12 C469 -12 578 44 662 155 C681 180 690 199 690 212 L690 212 Z " />
<glyph glyph-name="cdot" unicode="&#x10b;" horiz-adv-x="727" d="M439 770 C439 794 417 816 393 816 C368 816 348 794 348 770 C348 743 368 723 393 723 C417 723 439 743 439 770 L439 770 Z M690 212 C690 223 685 229 674 229 C667 229 659 224 649 214 C632 196 615 178 599 159 C582 144 559 132 531 124 C486 111 443 104 402 104 C345 104 293 118 244 146 C193 175 157 215 136 266 C125 289 120 310 120 331 C120 383 153 432 230 505 C277 548 311 569 334 569 C350 569 385 546 438 501 C491 456 522 434 530 434 C545 434 562 447 581 474 C600 499 609 519 609 535 C609 542 601 550 586 561 C575 568 565 576 555 583 L484 647 C452 672 424 685 400 685 C380 685 350 672 310 645 C278 623 251 601 228 579 C99 454 35 341 35 240 C35 162 66 99 129 52 C186 9 254 -12 335 -12 C469 -12 578 44 662 155 C681 180 690 199 690 212 L690 212 Z " />
<glyph glyph-name="Ccaron" unicode="&#x10c;" horiz-adv-x="727" d="M528 840 C528 846 527 849 524 849 C521 849 489 825 429 777 C360 827 325 852 324 852 C317 852 309 845 298 832 C288 819 283 808 283 800 C283 797 284 794 286 792 C288 790 305 777 338 753 L390 715 C392 714 394 713 395 713 C398 713 434 741 503 798 C520 811 528 825 528 840 L528 840 Z M690 212 C690 223 685 229 674 229 C667 229 659 224 649 214 C632 196 615 178 599 159 C582 144 559 132 531 124 C486 111 443 104 402 104 C345 104 293 118 244 146 C193 175 157 215 136 266 C125 289 120 310 120 331 C120 383 153 432 230 505 C277 548 311 569 334 569 C350 569 385 546 438 501 C491 456 522 434 530 434 C545 434 562 447 581 474 C600 499 609 519 609 535 C609 542 601 550 586 561 C575 568 565 576 555 583 L484 647 C452 672 424 685 400 685 C380 685 350 672 310 645 C278 623 251 601 228 579 C99 454 35 341 35 240 C35 162 66 99 129 52 C186 9 254 -12 335 -12 C469 -12 578 44 662 155 C681 180 690 199 690 212 L690 212 Z " />
<glyph glyph-name="ccaron" unicode="&#x10d;" horiz-adv-x="727" d="M528 840 C528 846 527 849 524 849 C521 849 489 825 429 777 C360 827 325 852 324 852 C317 852 309 845 298 832 C288 819 283 808 283 800 C283 797 284 794 286 792 C288 790 305 777 338 753 L390 715 C392 714 394 713 395 713 C398 713 434 741 503 798 C520 811 528 825 528 840 L528 840 Z M690 212 C690 223 685 229 674 229 C667 229 659 224 649 214 C632 196 615 178 599 159 C582 144 559 132 531 124 C486 111 443 104 402 104 C345 104 293 118 244 146 C193 175 157 215 136 266 C125 289 120 310 120 331 C120 383 153 432 230 505 C277 548 311 569 334 569 C350 569 385 546 438 501 C491 456 522 434 530 434 C545 434 562 447 581 474 C600 499 609 519 609 535 C609 542 601 550 586 561 C575 568 565 576 555 583 L484 647 C452 672 424 685 400 685 C380 685 350 672 310 645 C278 623 251 601 228 579 C99 454 35 341 35 240 C35 162 66 99 129 52 C186 9 254 -12 335 -12 C469 -12 578 44 662 155 C681 180 690 199 690 212 L690 212 Z " />
<glyph glyph-name="Dcaron" unicode="&#x10e;" horiz-adv-x="716" d="M528 840 C528 846 527 849 524 849 C521 849 489 825 429 777 C360 827 325 852 324 852 C317 852 309 845 298 832 C288 819 283 808 283 800 C283 797 284 794 286 792 C288 790 305 777 338 753 L390 715 C392 714 394 713 395 713 C398 713 434 741 503 798 C520 811 528 825 528 840 L528 840 Z M683 414 C683 587 568 674 337 674 C253 674 190 668 147 656 C130 652 112 638 93 614 C75 590 66 569 66 552 C66 543 70 539 78 539 C75 539 89 542 120 547 C115 534 113 511 113 478 C113 453 115 415 119 364 C123 314 125 276 125 250 C125 195 110 142 79 91 C76 87 75 82 75 77 C75 58 88 39 113 21 C136 4 157 -4 178 -4 C380 -4 527 67 619 210 C662 276 683 344 683 414 L683 414 Z M592 329 C592 250 557 194 487 159 C442 137 373 122 279 114 C251 111 237 110 238 110 C231 110 226 111 223 113 C208 123 200 189 200 311 C200 378 205 460 214 557 C233 558 253 559 272 559 C361 559 433 544 488 513 C557 474 592 412 592 329 L592 329 Z " />
<glyph glyph-name="dcaron" unicode="&#x10f;" horiz-adv-x="716" d="M528 840 C528 846 527 849 524 849 C521 849 489 825 429 777 C360 827 325 852 324 852 C317 852 309 845 298 832 C288 819 283 808 283 800 C283 797 284 794 286 792 C288 790 305 777 338 753 L390 715 C392 714 394 713 395 713 C398 713 434 741 503 798 C520 811 528 825 528 840 L528 840 Z M683 414 C683 587 568 674 337 674 C253 674 190 668 147 656 C130 652 112 638 93 614 C75 590 66 569 66 552 C66 543 70 539 78 539 C75 539 89 542 120 547 C115 534 113 511 113 478 C113 453 115 415 119 364 C123 314 125 276 125 250 C125 195 110 142 79 91 C76 87 75 82 75 77 C75 58 88 39 113 21 C136 4 157 -4 178 -4 C380 -4 527 67 619 210 C662 276 683 344 683 414 L683 414 Z M592 329 C592 250 557 194 487 159 C442 137 373 122 279 114 C251 111 237 110 238 110 C231 110 226 111 223 113 C208 123 200 189 200 311 C200 378 205 460 214 557 C233 558 253 559 272 559 C361 559 433 544 488 513 C557 474 592 412 592 329 L592 329 Z " />
<glyph glyph-name="Dslash" unicode="&#x110;" horiz-adv-x="831" d="M781 414 C781 587 666 674 436 674 C352 674 288 668 244 656 C227 652 210 638 192 614 C174 590 165 569 165 552 C165 543 169 539 177 539 C174 539 188 542 218 547 C213 534 211 511 211 478 C211 456 212 429 214 398 C160 398 116 396 82 392 C67 390 51 376 32 349 C14 323 5 302 5 285 C5 278 10 275 21 275 C23 275 90 277 222 282 C223 271 223 261 223 250 C223 195 208 142 178 91 C175 87 174 82 174 77 C174 58 186 39 211 21 C234 4 255 -4 276 -4 C477 -4 624 67 717 210 C760 276 781 344 781 414 L781 414 Z M690 329 C690 250 655 194 585 159 C540 137 471 122 377 114 C350 111 336 110 337 110 C329 110 324 111 321 113 C308 122 300 179 299 283 C317 283 348 283 392 282 C433 281 465 280 486 280 C502 280 519 293 537 319 C556 345 565 367 565 384 C565 391 562 396 555 398 C542 401 506 402 448 402 C443 402 400 401 319 400 L301 399 C303 444 307 497 313 557 C332 558 351 559 369 559 C460 559 532 544 586 513 C655 474 690 412 690 329 L690 329 Z " />
<glyph glyph-name="dslash" unicode="&#x111;" horiz-adv-x="831" d="M781 414 C781 587 666 674 436 674 C352 674 288 668 244 656 C227 652 210 638 192 614 C174 590 165 569 165 552 C165 543 169 539 177 539 C174 539 188 542 218 547 C213 534 211 511 211 478 C211 456 212 429 214 398 C160 398 116 396 82 392 C67 390 51 376 32 349 C14 323 5 302 5 285 C5 278 10 275 21 275 C23 275 90 277 222 282 C223 271 223 261 223 250 C223 195 208 142 178 91 C175 87 174 82 174 77 C174 58 186 39 211 21 C234 4 255 -4 276 -4 C477 -4 624 67 717 210 C760 276 781 344 781 414 L781 414 Z M690 329 C690 250 655 194 585 159 C540 137 471 122 377 114 C350 111 336 110 337 110 C329 110 324 111 321 113 C308 122 300 179 299 283 C317 283 348 283 392 282 C433 281 465 280 486 280 C502 280 519 293 537 319 C556 345 565 367 565 384 C565 391 562 396 555 398 C542 401 506 402 448 402 C443 402 400 401 319 400 L301 399 C303 444 307 497 313 557 C332 558 351 559 369 559 C460 559 532 544 586 513 C655 474 690 412 690 329 L690 329 Z " />
<glyph glyph-name="Emacron" unicode="&#x112;" horiz-adv-x="678" d="M526 778 C526 781 526 783 525 784 C523 787 504 788 468 788 C458 788 436 788 402 787 L205 783 C197 782 188 774 179 760 C170 747 166 736 166 729 C166 726 169 724 174 724 C189 724 224 725 281 726 C338 727 375 728 390 728 C401 728 417 728 438 727 C460 726 476 726 487 726 C495 726 503 733 512 746 C521 760 526 771 526 778 L526 778 Z M635 380 C635 388 632 393 626 394 C611 397 573 398 513 398 C425 398 309 395 166 388 C166 393 163 448 158 551 C185 552 213 553 242 553 C297 553 360 551 430 547 C496 543 525 541 518 541 C533 541 550 554 569 579 C588 605 598 627 598 644 C598 651 594 656 586 658 C555 667 474 672 344 672 C245 672 178 669 141 664 C123 661 105 649 87 626 C70 603 61 583 61 564 C61 515 65 443 73 346 C81 249 85 177 85 129 C85 116 83 96 80 70 C77 44 76 25 76 12 C76 1 80 -4 88 -4 L414 -4 C474 -4 514 0 533 8 C565 20 590 50 608 98 C610 105 611 111 611 114 C611 120 607 123 599 123 C585 123 565 121 539 117 C513 114 493 112 480 112 L170 112 C173 138 175 167 175 200 C175 220 174 245 173 275 C252 278 329 279 404 279 C417 279 443 278 482 277 C513 276 539 276 558 277 C573 278 590 291 608 316 C626 342 635 363 635 380 L635 380 Z " />
<glyph glyph-name="emacron" unicode="&#x113;" horiz-adv-x="678" d="M526 778 C526 781 526 783 525 784 C523 787 504 788 468 788 C458 788 436 788 402 787 L205 783 C197 782 188 774 179 760 C170 747 166 736 166 729 C166 726 169 724 174 724 C189 724 224 725 281 726 C338 727 375 728 390 728 C401 728 417 728 438 727 C460 726 476 726 487 726 C495 726 503 733 512 746 C521 760 526 771 526 778 L526 778 Z M635 380 C635 388 632 393 626 394 C611 397 573 398 513 398 C425 398 309 395 166 388 C166 393 163 448 158 551 C185 552 213 553 242 553 C297 553 360 551 430 547 C496 543 525 541 518 541 C533 541 550 554 569 579 C588 605 598 627 598 644 C598 651 594 656 586 658 C555 667 474 672 344 672 C245 672 178 669 141 664 C123 661 105 649 87 626 C70 603 61 583 61 564 C61 515 65 443 73 346 C81 249 85 177 85 129 C85 116 83 96 80 70 C77 44 76 25 76 12 C76 1 80 -4 88 -4 L414 -4 C474 -4 514 0 533 8 C565 20 590 50 608 98 C610 105 611 111 611 114 C611 120 607 123 599 123 C585 123 565 121 539 117 C513 114 493 112 480 112 L170 112 C173 138 175 167 175 200 C175 220 174 245 173 275 C252 278 329 279 404 279 C417 279 443 278 482 277 C513 276 539 276 558 277 C573 278 590 291 608 316 C626 342 635 363 635 380 L635 380 Z " />
<glyph glyph-name="Ebreve" unicode="&#x114;" horiz-adv-x="678" d="M475 773 C478 784 465 805 448 805 C443 805 437 802 432 796 C407 765 381 749 355 749 C336 749 320 758 308 777 C296 796 286 805 278 805 C263 805 244 791 244 780 C244 766 257 748 284 725 C303 709 329 701 364 701 C400 701 435 722 469 764 L475 773 Z M635 380 C635 388 632 393 626 394 C611 397 573 398 513 398 C425 398 309 395 166 388 C166 393 163 448 158 551 C185 552 213 553 242 553 C297 553 360 551 430 547 C496 543 525 541 518 541 C533 541 550 554 569 579 C588 605 598 627 598 644 C598 651 594 656 586 658 C555 667 474 672 344 672 C245 672 178 669 141 664 C123 661 105 649 87 626 C70 603 61 583 61 564 C61 515 65 443 73 346 C81 249 85 177 85 129 C85 116 83 96 80 70 C77 44 76 25 76 12 C76 1 80 -4 88 -4 L414 -4 C474 -4 514 0 533 8 C565 20 590 50 608 98 C610 105 611 111 611 114 C611 120 607 123 599 123 C585 123 565 121 539 117 C513 114 493 112 480 112 L170 112 C173 138 175 167 175 200 C175 220 174 245 173 275 C252 278 329 279 404 279 C417 279 443 278 482 277 C513 276 539 276 558 277 C573 278 590 291 608 316 C626 342 635 363 635 380 L635 380 Z " />
<glyph glyph-name="ebreve" unicode="&#x115;" horiz-adv-x="678" d="M475 773 C478 784 465 805 448 805 C443 805 437 802 432 796 C407 765 381 749 355 749 C336 749 320 758 308 777 C296 796 286 805 278 805 C263 805 244 791 244 780 C244 766 257 748 284 725 C303 709 329 701 364 701 C400 701 435 722 469 764 L475 773 Z M635 380 C635 388 632 393 626 394 C611 397 573 398 513 398 C425 398 309 395 166 388 C166 393 163 448 158 551 C185 552 213 553 242 553 C297 553 360 551 430 547 C496 543 525 541 518 541 C533 541 550 554 569 579 C588 605 598 627 598 644 C598 651 594 656 586 658 C555 667 474 672 344 672 C245 672 178 669 141 664 C123 661 105 649 87 626 C70 603 61 583 61 564 C61 515 65 443 73 346 C81 249 85 177 85 129 C85 116 83 96 80 70 C77 44 76 25 76 12 C76 1 80 -4 88 -4 L414 -4 C474 -4 514 0 533 8 C565 20 590 50 608 98 C610 105 611 111 611 114 C611 120 607 123 599 123 C585 123 565 121 539 117 C513 114 493 112 480 112 L170 112 C173 138 175 167 175 200 C175 220 174 245 173 275 C252 278 329 279 404 279 C417 279 443 278 482 277 C513 276 539 276 558 277 C573 278 590 291 608 316 C626 342 635 363 635 380 L635 380 Z " />
<glyph glyph-name="Edot" unicode="&#x116;" horiz-adv-x="678" d="M379 770 C379 794 359 816 334 816 C309 816 289 794 289 770 C289 743 309 723 334 723 C359 723 379 743 379 770 L379 770 Z M635 380 C635 388 632 393 626 394 C611 397 573 398 513 398 C425 398 309 395 166 388 C166 393 163 448 158 551 C185 552 213 553 242 553 C297 553 360 551 430 547 C496 543 525 541 518 541 C533 541 550 554 569 579 C588 605 598 627 598 644 C598 651 594 656 586 658 C555 667 474 672 344 672 C245 672 178 669 141 664 C123 661 105 649 87 626 C70 603 61 583 61 564 C61 515 65 443 73 346 C81 249 85 177 85 129 C85 116 83 96 80 70 C77 44 76 25 76 12 C76 1 80 -4 88 -4 L414 -4 C474 -4 514 0 533 8 C565 20 590 50 608 98 C610 105 611 111 611 114 C611 120 607 123 599 123 C585 123 565 121 539 117 C513 114 493 112 480 112 L170 112 C173 138 175 167 175 200 C175 220 174 245 173 275 C252 278 329 279 404 279 C417 279 443 278 482 277 C513 276 539 276 558 277 C573 278 590 291 608 316 C626 342 635 363 635 380 L635 380 Z " />
<glyph glyph-name="edot" unicode="&#x117;" horiz-adv-x="678" d="M369 770 C369 794 349 816 324 816 C300 816 279 794 279 770 C279 743 300 723 324 723 C349 723 369 743 369 770 L369 770 Z M635 380 C635 388 632 393 626 394 C611 397 573 398 513 398 C425 398 309 395 166 388 C166 393 163 448 158 551 C185 552 213 553 242 553 C297 553 360 551 430 547 C496 543 525 541 518 541 C533 541 550 554 569 579 C588 605 598 627 598 644 C598 651 594 656 586 658 C555 667 474 672 344 672 C245 672 178 669 141 664 C123 661 105 649 87 626 C70 603 61 583 61 564 C61 515 65 443 73 346 C81 249 85 177 85 129 C85 116 83 96 80 70 C77 44 76 25 76 12 C76 1 80 -4 88 -4 L414 -4 C474 -4 514 0 533 8 C565 20 590 50 608 98 C610 105 611 111 611 114 C611 120 607 123 599 123 C585 123 565 121 539 117 C513 114 493 112 480 112 L170 112 C173 138 175 167 175 200 C175 220 174 245 173 275 C252 278 329 279 404 279 C417 279 443 278 482 277 C513 276 539 276 558 277 C573 278 590 291 608 316 C626 342 635 363 635 380 L635 380 Z " />
<glyph glyph-name="Eogonek" unicode="&#x118;" horiz-adv-x="678" d="M635 380 C635 388 632 393 626 394 C611 397 573 398 513 398 C425 398 309 395 166 388 C166 393 163 448 158 551 C185 552 213 553 242 553 C297 553 360 551 430 547 C496 543 525 541 518 541 C533 541 550 554 569 579 C588 605 598 627 598 644 C598 651 594 656 586 658 C555 667 474 672 344 672 C245 672 178 669 141 664 C123 661 105 649 87 626 C70 603 61 583 61 564 C61 515 65 443 73 346 C81 249 85 177 85 129 C85 116 83 96 80 70 C77 44 76 25 76 12 C76 1 80 -4 88 -4 L276 -4 C265 -21 260 -39 260 -57 C260 -76 268 -96 283 -116 C299 -136 316 -146 334 -146 C348 -146 362 -139 375 -124 C389 -110 396 -96 396 -82 C396 -77 394 -74 390 -74 C387 -74 382 -77 376 -82 C362 -82 348 -74 333 -57 C319 -41 311 -26 310 -11 C323 -7 332 -5 339 -4 L414 -4 C474 -4 514 0 533 8 C565 20 590 50 608 98 C610 105 611 111 611 114 C611 120 607 123 599 123 C585 123 565 121 539 117 C513 114 493 112 480 112 L170 112 C173 138 175 167 175 200 C175 220 174 245 173 275 C252 278 329 279 404 279 C417 279 443 278 482 277 C513 276 539 276 558 277 C573 278 590 291 608 316 C626 342 635 363 635 380 L635 380 Z " />
<glyph glyph-name="eogonek" unicode="&#x119;" horiz-adv-x="678" d="M635 380 C635 388 632 393 626 394 C611 397 573 398 513 398 C425 398 309 395 166 388 C166 393 163 448 158 551 C185 552 213 553 242 553 C297 553 360 551 430 547 C496 543 525 541 518 541 C533 541 550 554 569 579 C588 605 598 627 598 644 C598 651 594 656 586 658 C555 667 474 672 344 672 C245 672 178 669 141 664 C123 661 105 649 87 626 C70 603 61 583 61 564 C61 515 65 443 73 346 C81 249 85 177 85 129 C85 116 83 96 80 70 C77 44 76 25 76 12 C76 1 80 -4 88 -4 L286 -4 C275 -21 270 -39 270 -57 C270 -76 278 -96 293 -116 C308 -136 325 -146 344 -146 C357 -146 371 -139 384 -124 C398 -110 405 -96 405 -82 C405 -77 403 -74 399 -74 C396 -74 392 -77 386 -82 C371 -82 357 -74 342 -57 C328 -41 320 -26 319 -11 C332 -7 342 -5 349 -4 L414 -4 C474 -4 514 0 533 8 C565 20 590 50 608 98 C610 105 611 111 611 114 C611 120 607 123 599 123 C585 123 565 121 539 117 C513 114 493 112 480 112 L170 112 C173 138 175 167 175 200 C175 220 174 245 173 275 C252 278 329 279 404 279 C417 279 443 278 482 277 C513 276 539 276 558 277 C573 278 590 291 608 316 C626 342 635 363 635 380 L635 380 Z " />
<glyph glyph-name="Ecaron" unicode="&#x11a;" horiz-adv-x="678" d="M470 840 C470 846 468 849 465 849 C462 849 430 825 369 777 C302 827 267 852 266 852 C259 852 250 845 239 832 C229 819 224 808 224 800 C224 797 225 794 227 792 C229 790 246 777 279 753 L331 715 C333 714 335 713 336 713 C340 713 376 741 444 798 C461 811 470 825 470 840 L470 840 Z M635 380 C635 388 632 393 626 394 C611 397 573 398 513 398 C425 398 309 395 166 388 C166 393 163 448 158 551 C185 552 213 553 242 553 C297 553 360 551 430 547 C496 543 525 541 518 541 C533 541 550 554 569 579 C588 605 598 627 598 644 C598 651 594 656 586 658 C555 667 474 672 344 672 C245 672 178 669 141 664 C123 661 105 649 87 626 C70 603 61 583 61 564 C61 515 65 443 73 346 C81 249 85 177 85 129 C85 116 83 96 80 70 C77 44 76 25 76 12 C76 1 80 -4 88 -4 L414 -4 C474 -4 514 0 533 8 C565 20 590 50 608 98 C610 105 611 111 611 114 C611 120 607 123 599 123 C585 123 565 121 539 117 C513 114 493 112 480 112 L170 112 C173 138 175 167 175 200 C175 220 174 245 173 275 C252 278 329 279 404 279 C417 279 443 278 482 277 C513 276 539 276 558 277 C573 278 590 291 608 316 C626 342 635 363 635 380 L635 380 Z " />
<glyph glyph-name="ecaron" unicode="&#x11b;" horiz-adv-x="678" d="M470 840 C470 846 468 849 465 849 C462 849 430 825 369 777 C302 827 267 852 266 852 C259 852 250 845 239 832 C229 819 224 808 224 800 C224 797 225 794 227 792 C229 790 246 777 279 753 L331 715 C333 714 335 713 336 713 C340 713 376 741 444 798 C461 811 470 825 470 840 L470 840 Z M635 380 C635 388 632 393 626 394 C611 397 573 398 513 398 C425 398 309 395 166 388 C166 393 163 448 158 551 C185 552 213 553 242 553 C297 553 360 551 430 547 C496 543 525 541 518 541 C533 541 550 554 569 579 C588 605 598 627 598 644 C598 651 594 656 586 658 C555 667 474 672 344 672 C245 672 178 669 141 664 C123 661 105 649 87 626 C70 603 61 583 61 564 C61 515 65 443 73 346 C81 249 85 177 85 129 C85 116 83 96 80 70 C77 44 76 25 76 12 C76 1 80 -4 88 -4 L414 -4 C474 -4 514 0 533 8 C565 20 590 50 608 98 C610 105 611 111 611 114 C611 120 607 123 599 123 C585 123 565 121 539 117 C513 114 493 112 480 112 L170 112 C173 138 175 167 175 200 C175 220 174 245 173 275 C252 278 329 279 404 279 C417 279 443 278 482 277 C513 276 539 276 558 277 C573 278 590 291 608 316 C626 342 635 363 635 380 L635 380 Z " />
<glyph glyph-name="Gcircumflex" unicode="&#x11c;" horiz-adv-x="745" d="M556 742 C556 745 555 748 553 750 C551 752 534 765 501 789 L448 828 C447 829 446 829 444 829 C441 829 405 801 337 744 C320 731 312 717 312 702 C312 696 313 693 315 693 C318 693 350 717 410 766 C479 716 514 691 515 691 C522 691 531 698 541 711 C551 724 556 735 556 742 L556 742 Z M709 381 C709 388 705 392 697 392 C512 392 406 387 378 376 C364 371 349 356 332 333 C315 310 307 290 307 275 C307 267 311 263 318 263 C321 263 324 264 327 265 C352 271 380 274 413 274 C436 274 470 274 515 275 L615 275 C604 203 591 159 578 142 C569 128 542 118 499 111 C469 106 439 104 409 104 C352 104 300 118 253 146 C202 175 165 215 143 266 C133 288 128 310 128 331 C128 371 153 418 202 473 C249 524 294 555 335 567 C337 568 339 568 341 568 C356 568 389 555 440 530 C491 505 519 493 523 493 C538 493 555 506 574 533 C593 558 603 579 603 596 C603 604 588 616 557 633 L498 662 C467 679 441 687 420 687 C410 687 400 685 391 682 C314 655 238 597 162 506 C81 410 41 323 41 244 C41 171 65 114 114 72 C181 15 259 -13 346 -13 C413 -13 477 3 539 36 C601 69 648 114 680 170 C689 187 694 208 694 234 C694 251 696 276 701 308 C706 341 709 365 709 381 L709 381 Z " />
<glyph glyph-name="gcircumflex" unicode="&#x11d;" horiz-adv-x="745" d="M556 742 C556 745 555 748 553 750 C551 752 534 765 501 789 L448 828 C447 829 446 829 444 829 C441 829 405 801 337 744 C320 731 312 717 312 702 C312 696 313 693 315 693 C318 693 350 717 410 766 C479 716 514 691 515 691 C522 691 531 698 541 711 C551 724 556 735 556 742 L556 742 Z M709 381 C709 388 705 392 697 392 C512 392 406 387 378 376 C364 371 349 356 332 333 C315 310 307 290 307 275 C307 267 311 263 318 263 C321 263 324 264 327 265 C352 271 380 274 413 274 C436 274 470 274 515 275 L615 275 C604 203 591 159 578 142 C569 128 542 118 499 111 C469 106 439 104 409 104 C352 104 300 118 253 146 C202 175 165 215 143 266 C133 288 128 310 128 331 C128 371 153 418 202 473 C249 524 294 555 335 567 C337 568 339 568 341 568 C356 568 389 555 440 530 C491 505 519 493 523 493 C538 493 555 506 574 533 C593 558 603 579 603 596 C603 604 588 616 557 633 L498 662 C467 679 441 687 420 687 C410 687 400 685 391 682 C314 655 238 597 162 506 C81 410 41 323 41 244 C41 171 65 114 114 72 C181 15 259 -13 346 -13 C413 -13 477 3 539 36 C601 69 648 114 680 170 C689 187 694 208 694 234 C694 251 696 276 701 308 C706 341 709 365 709 381 L709 381 Z " />
<glyph glyph-name="Gbreve" unicode="&#x11e;" horiz-adv-x="745" d="M533 802 C536 814 524 834 507 834 C501 834 495 831 490 825 C465 794 440 779 413 779 C394 779 379 788 367 806 C355 825 345 834 337 834 C321 834 304 819 304 810 C304 795 317 777 343 754 C361 739 388 731 424 731 C460 731 494 752 527 793 L533 802 Z M709 381 C709 388 705 392 697 392 C512 392 406 387 378 376 C364 371 349 356 332 333 C315 310 307 290 307 275 C307 267 311 263 318 263 C321 263 324 264 327 265 C352 271 380 274 413 274 C436 274 470 274 515 275 L615 275 C604 203 591 159 578 142 C569 128 542 118 499 111 C469 106 439 104 409 104 C352 104 300 118 253 146 C202 175 165 215 143 266 C133 288 128 310 128 331 C128 371 153 418 202 473 C249 524 294 555 335 567 C337 568 339 568 341 568 C356 568 389 555 440 530 C491 505 519 493 523 493 C538 493 555 506 574 533 C593 558 603 579 603 596 C603 604 588 616 557 633 L498 662 C467 679 441 687 420 687 C410 687 400 685 391 682 C314 655 238 597 162 506 C81 410 41 323 41 244 C41 171 65 114 114 72 C181 15 259 -13 346 -13 C413 -13 477 3 539 36 C601 69 648 114 680 170 C689 187 694 208 694 234 C694 251 696 276 701 308 C706 341 709 365 709 381 L709 381 Z " />
<glyph glyph-name="gbreve" unicode="&#x11f;" horiz-adv-x="745" d="M504 792 C507 804 494 824 478 824 C472 824 466 821 461 816 C436 785 411 770 384 770 C365 770 350 779 337 797 C325 815 315 824 308 824 C292 824 274 811 274 800 C274 785 287 767 314 744 C332 729 359 721 394 721 C430 721 465 742 498 783 L504 792 Z M709 381 C709 388 705 392 697 392 C512 392 406 387 378 376 C364 371 349 356 332 333 C315 310 307 290 307 275 C307 267 311 263 318 263 C321 263 324 264 327 265 C352 271 380 274 413 274 C436 274 470 274 515 275 L615 275 C604 203 591 159 578 142 C569 128 542 118 499 111 C469 106 439 104 409 104 C352 104 300 118 253 146 C202 175 165 215 143 266 C133 288 128 310 128 331 C128 371 153 418 202 473 C249 524 294 555 335 567 C337 568 339 568 341 568 C356 568 389 555 440 530 C491 505 519 493 523 493 C538 493 555 506 574 533 C593 558 603 579 603 596 C603 604 588 616 557 633 L498 662 C467 679 441 687 420 687 C410 687 400 685 391 682 C314 655 238 597 162 506 C81 410 41 323 41 244 C41 171 65 114 114 72 C181 15 259 -13 346 -13 C413 -13 477 3 539 36 C601 69 648 114 680 170 C689 187 694 208 694 234 C694 251 696 276 701 308 C706 341 709 365 709 381 L709 381 Z " />
<glyph glyph-name="Gdot" unicode="&#x120;" horiz-adv-x="745" d="M439 770 C439 794 417 816 393 816 C368 816 348 794 348 770 C348 743 368 723 393 723 C417 723 439 743 439 770 L439 770 Z M709 381 C709 388 705 392 697 392 C512 392 406 387 378 376 C364 371 349 356 332 333 C315 310 307 290 307 275 C307 267 311 263 318 263 C321 263 324 264 327 265 C352 271 380 274 413 274 C436 274 470 274 515 275 L615 275 C604 203 591 159 578 142 C569 128 542 118 499 111 C469 106 439 104 409 104 C352 104 300 118 253 146 C202 175 165 215 143 266 C133 288 128 310 128 331 C128 371 153 418 202 473 C249 524 294 555 335 567 C337 568 339 568 341 568 C356 568 389 555 440 530 C491 505 519 493 523 493 C538 493 555 506 574 533 C593 558 603 579 603 596 C603 604 588 616 557 633 L498 662 C467 679 441 687 420 687 C410 687 400 685 391 682 C314 655 238 597 162 506 C81 410 41 323 41 244 C41 171 65 114 114 72 C181 15 259 -13 346 -13 C413 -13 477 3 539 36 C601 69 648 114 680 170 C689 187 694 208 694 234 C694 251 696 276 701 308 C706 341 709 365 709 381 L709 381 Z " />
<glyph glyph-name="gdot" unicode="&#x121;" horiz-adv-x="745" d="M439 770 C439 794 417 816 393 816 C368 816 348 794 348 770 C348 743 368 723 393 723 C417 723 439 743 439 770 L439 770 Z M709 381 C709 388 705 392 697 392 C512 392 406 387 378 376 C364 371 349 356 332 333 C315 310 307 290 307 275 C307 267 311 263 318 263 C321 263 324 264 327 265 C352 271 380 274 413 274 C436 274 470 274 515 275 L615 275 C604 203 591 159 578 142 C569 128 542 118 499 111 C469 106 439 104 409 104 C352 104 300 118 253 146 C202 175 165 215 143 266 C133 288 128 310 128 331 C128 371 153 418 202 473 C249 524 294 555 335 567 C337 568 339 568 341 568 C356 568 389 555 440 530 C491 505 519 493 523 493 C538 493 555 506 574 533 C593 558 603 579 603 596 C603 604 588 616 557 633 L498 662 C467 679 441 687 420 687 C410 687 400 685 391 682 C314 655 238 597 162 506 C81 410 41 323 41 244 C41 171 65 114 114 72 C181 15 259 -13 346 -13 C413 -13 477 3 539 36 C601 69 648 114 680 170 C689 187 694 208 694 234 C694 251 696 276 701 308 C706 341 709 365 709 381 L709 381 Z " />
<glyph glyph-name="Gcedilla" unicode="&#x122;" horiz-adv-x="745" d="M709 381 C709 388 705 392 697 392 C512 392 406 387 378 376 C364 371 349 356 332 333 C315 310 307 290 307 275 C307 267 311 263 318 263 C321 263 324 264 327 265 C352 271 380 274 413 274 C436 274 470 274 515 275 L615 275 C604 203 591 159 578 142 C569 128 542 118 499 111 C469 106 439 104 409 104 C352 104 300 118 253 146 C202 175 165 215 143 266 C133 288 128 310 128 331 C128 371 153 418 202 473 C249 524 294 555 335 567 C337 568 339 568 341 568 C356 568 389 555 440 530 C491 505 519 493 523 493 C538 493 555 506 574 533 C593 558 603 579 603 596 C603 604 588 616 557 633 L498 662 C467 679 441 687 420 687 C410 687 400 685 391 682 C314 655 238 597 162 506 C81 410 41 323 41 244 C41 171 65 114 114 72 C174 22 243 -6 320 -12 L320 -50 C316 -63 327 -73 351 -69 C366 -67 379 -66 390 -66 C413 -66 425 -71 425 -81 C425 -91 416 -102 397 -113 C379 -124 365 -129 354 -126 L329 -119 C319 -116 311 -115 305 -115 C294 -115 289 -119 289 -126 C289 -137 304 -153 312 -156 C330 -161 347 -163 363 -163 C392 -163 416 -156 435 -142 C450 -129 458 -114 458 -96 C458 -60 426 -32 373 -29 L373 -12 C436 -7 495 11 549 42 C607 75 651 118 680 170 C689 187 694 208 694 234 C694 251 696 276 701 308 C706 341 709 365 709 381 L709 381 Z " />
<glyph glyph-name="gcedilla" unicode="&#x123;" horiz-adv-x="745" d="M709 381 C709 388 705 392 697 392 C512 392 406 387 378 376 C364 371 349 356 332 333 C315 310 307 290 307 275 C307 267 311 263 318 263 C321 263 324 264 327 265 C352 271 380 274 413 274 C436 274 470 274 515 275 L615 275 C604 203 591 159 578 142 C569 128 542 118 499 111 C469 106 439 104 409 104 C352 104 300 118 253 146 C202 175 165 215 143 266 C133 288 128 310 128 331 C128 371 153 418 202 473 C249 524 294 555 335 567 C337 568 339 568 341 568 C356 568 389 555 440 530 C491 505 519 493 523 493 C538 493 555 506 574 533 C593 558 603 579 603 596 C603 604 588 616 557 633 L498 662 C467 679 441 687 420 687 C410 687 400 685 391 682 C314 655 238 597 162 506 C81 410 41 323 41 244 C41 171 65 114 114 72 C177 19 249 -9 330 -13 L330 -50 C326 -63 337 -73 360 -69 C375 -67 388 -66 399 -66 C423 -66 435 -71 435 -81 C435 -91 426 -102 407 -113 C389 -124 374 -129 363 -126 L339 -119 C329 -116 321 -115 314 -115 C304 -115 299 -119 299 -126 C299 -137 313 -153 321 -156 C340 -161 357 -163 373 -163 C402 -163 426 -156 444 -142 C460 -129 468 -114 468 -96 C468 -60 438 -32 383 -29 L383 -11 C444 -5 502 14 556 46 C610 78 651 119 680 170 C689 187 694 208 694 234 C694 251 696 276 701 308 C706 341 709 365 709 381 L709 381 Z " />
<glyph glyph-name="Hcircumflex" unicode="&#x124;" horiz-adv-x="695" d="M487 684 C487 687 486 690 484 691 C483 693 466 706 433 730 L379 770 C378 771 377 771 375 771 C371 771 336 743 269 686 C251 672 242 658 242 644 C242 638 243 635 246 635 C249 635 281 659 342 706 C411 657 445 632 446 632 C454 632 463 639 472 652 C482 665 487 676 487 684 L487 684 Z M660 94 C660 97 658 100 654 103 C644 110 637 132 634 171 C631 210 630 254 630 304 C630 337 631 386 634 452 C637 519 639 569 639 602 C639 647 628 670 605 670 C589 670 571 657 552 631 C533 606 524 585 524 568 C524 563 528 558 535 553 C542 548 546 529 546 495 C546 484 545 468 544 445 C543 423 542 407 542 397 C477 398 347 395 152 388 C152 408 153 438 155 479 C157 520 158 550 158 571 C158 602 157 622 156 631 C151 657 141 670 125 670 C109 670 92 657 73 632 C54 607 45 585 45 567 C45 558 49 553 56 553 C63 542 67 531 67 520 C67 485 66 432 63 361 C60 290 59 237 59 201 C59 63 71 -6 96 -6 C113 -6 132 6 151 29 C171 53 181 74 181 93 C181 93 164 115 160 134 C154 162 151 203 151 257 L151 274 C251 278 324 280 370 280 C389 280 417 279 455 278 C493 277 521 277 540 277 L540 243 C539 222 539 204 539 188 C539 59 551 -6 575 -6 C593 -6 612 6 631 30 C650 54 660 75 660 94 L660 94 Z " />
<glyph glyph-name="hcircumflex" unicode="&#x125;" horiz-adv-x="695" d="M487 713 C487 716 486 719 484 721 C483 723 466 736 433 760 L379 799 C378 800 377 800 375 800 C371 800 336 772 269 715 C251 701 242 687 242 673 C242 667 243 664 246 664 C249 664 281 688 342 735 C411 686 445 661 446 661 C454 661 463 668 472 681 C482 694 487 705 487 713 L487 713 Z M660 94 C660 97 658 100 654 103 C644 110 637 132 634 171 C631 210 630 254 630 304 C630 337 631 386 634 452 C637 519 639 569 639 602 C639 647 628 670 605 670 C589 670 571 657 552 631 C533 606 524 585 524 568 C524 563 528 558 535 553 C542 548 546 529 546 495 C546 484 545 468 544 445 C543 423 542 407 542 397 C477 398 347 395 152 388 C152 408 153 438 155 479 C157 520 158 550 158 571 C158 602 157 622 156 631 C151 657 141 670 125 670 C109 670 92 657 73 632 C54 607 45 585 45 567 C45 558 49 553 56 553 C63 542 67 531 67 520 C67 485 66 432 63 361 C60 290 59 237 59 201 C59 63 71 -6 96 -6 C113 -6 132 6 151 29 C171 53 181 74 181 93 C181 93 164 115 160 134 C154 162 151 203 151 257 L151 274 C251 278 324 280 370 280 C389 280 417 279 455 278 C493 277 521 277 540 277 L540 243 C539 222 539 204 539 188 C539 59 551 -6 575 -6 C593 -6 612 6 631 30 C650 54 660 75 660 94 L660 94 Z " />
<glyph glyph-name="Hbar" unicode="&#x126;" horiz-adv-x="695" d="M696 526 C696 529 696 531 695 532 C692 535 673 536 638 536 L637 536 C638 559 639 581 639 602 C639 647 628 670 605 670 C589 670 571 657 552 631 C533 606 524 585 524 568 C524 563 528 558 535 553 C539 550 542 544 544 535 C536 535 478 535 369 536 C274 537 204 538 158 538 L158 571 C158 602 157 622 156 631 C151 657 141 670 125 670 C109 670 92 657 73 632 C54 607 45 585 45 567 C45 558 49 553 56 553 C59 549 62 544 63 537 C56 536 51 536 48 536 C40 535 31 527 22 514 C13 501 9 490 9 482 C9 479 12 478 17 478 L67 478 C66 453 65 407 62 340 C60 283 59 236 59 201 C59 63 71 -6 96 -6 C113 -6 132 6 151 29 C171 53 181 74 181 93 C181 93 164 115 160 134 C154 162 151 203 151 257 L151 274 C251 278 324 280 370 280 C389 280 417 279 455 278 C493 277 521 277 540 277 L540 243 C539 222 539 204 539 188 C539 59 551 -6 575 -6 C593 -6 612 6 631 30 C650 54 660 75 660 94 C660 97 658 100 654 103 C644 110 637 132 634 171 C631 210 630 254 630 304 C630 335 632 392 635 475 L657 475 C665 475 673 482 682 495 C691 508 696 519 696 526 L696 526 Z M546 477 C545 442 543 415 542 397 C477 398 347 395 152 388 C152 408 153 438 155 478 L546 477 Z " />
<glyph glyph-name="hbar" unicode="&#x127;" horiz-adv-x="695" d="M696 526 C696 529 696 531 695 532 C692 535 673 536 638 536 L637 536 C638 559 639 581 639 602 C639 647 628 670 605 670 C589 670 571 657 552 631 C533 606 524 585 524 568 C524 563 528 558 535 553 C539 550 542 544 544 535 C536 535 478 535 369 536 C274 537 204 538 158 538 L158 571 C158 602 157 622 156 631 C151 657 141 670 125 670 C109 670 92 657 73 632 C54 607 45 585 45 567 C45 558 49 553 56 553 C59 549 62 544 63 537 C56 536 51 536 48 536 C40 535 31 527 22 514 C13 501 9 490 9 482 C9 479 12 478 17 478 L67 478 C66 453 65 407 62 340 C60 283 59 236 59 201 C59 63 71 -6 96 -6 C113 -6 132 6 151 29 C171 53 181 74 181 93 C181 93 164 115 160 134 C154 162 151 203 151 257 L151 274 C251 278 324 280 370 280 C389 280 417 279 455 278 C493 277 521 277 540 277 L540 243 C539 222 539 204 539 188 C539 59 551 -6 575 -6 C593 -6 612 6 631 30 C650 54 660 75 660 94 C660 97 658 100 654 103 C644 110 637 132 634 171 C631 210 630 254 630 304 C630 335 632 392 635 475 L657 475 C665 475 673 482 682 495 C691 508 696 519 696 526 L696 526 Z M546 477 C545 442 543 415 542 397 C477 398 347 395 152 388 C152 408 153 438 155 478 L546 477 Z " />
<glyph glyph-name="Itilde" unicode="&#x128;" horiz-adv-x="661" d="M464 814 C464 817 462 819 459 819 C453 819 430 804 389 774 C388 782 385 795 378 812 C371 832 364 842 358 842 C357 842 349 836 335 823 L306 800 C268 779 249 757 248 734 L248 732 C247 728 248 726 251 726 C257 726 263 729 270 734 C295 755 313 770 326 779 C339 759 345 738 345 717 C345 712 347 709 350 709 C354 709 368 717 391 734 L435 768 C441 773 447 778 452 785 C460 797 464 807 464 814 L464 814 Z M615 113 C615 120 612 125 606 127 C592 130 556 132 498 132 C475 132 439 131 389 130 C386 141 384 155 383 171 C380 213 378 261 378 315 C378 345 379 384 381 433 C384 495 386 533 386 548 C492 546 542 545 535 545 C551 545 568 558 586 584 C605 611 614 633 614 650 C614 657 611 661 605 663 C591 666 555 668 497 668 C508 668 465 667 368 666 L334 665 C231 664 163 661 132 657 C117 655 100 641 81 614 C63 587 54 566 54 550 C54 543 59 540 69 540 C98 540 134 541 179 543 L288 548 C293 540 296 527 296 508 C296 477 295 431 292 370 C289 309 288 264 288 233 C288 184 288 149 289 128 C221 128 169 126 133 121 C118 119 101 105 82 78 C64 51 55 30 55 14 C55 7 60 4 70 4 C99 4 139 5 188 7 C247 10 286 11 307 12 C320 12 358 11 422 10 C476 9 514 9 536 9 C552 9 569 22 587 48 C606 75 615 96 615 113 L615 113 Z " />
<glyph glyph-name="itilde" unicode="&#x129;" horiz-adv-x="268" d="M247 814 C247 817 245 819 242 819 C236 819 213 804 173 774 C172 782 169 795 162 812 C155 832 148 842 143 842 C142 842 134 836 119 823 L90 800 C52 779 33 757 32 734 L32 732 C31 728 32 726 35 726 C40 726 46 729 53 734 C78 755 97 770 110 779 C123 759 129 738 129 717 C129 712 131 709 134 709 C139 709 152 717 175 734 C189 745 203 757 218 768 C225 773 230 778 235 785 C243 797 247 807 247 814 L247 814 Z M212 94 C212 97 210 100 206 103 C196 110 190 132 187 171 C184 213 182 261 182 315 C182 347 183 395 186 458 C189 522 190 570 190 603 C190 648 177 670 152 670 C139 670 123 657 104 630 C85 603 76 583 76 568 C76 565 80 559 88 552 C96 545 100 530 100 508 C100 477 99 431 96 370 C93 309 92 264 92 233 C92 74 104 -6 128 -6 C145 -6 163 6 182 30 C202 54 212 75 212 94 L212 94 Z " />
<glyph glyph-name="Imacron" unicode="&#x12a;" horiz-adv-x="661" d="M526 778 C526 781 526 783 525 784 C523 787 504 788 468 788 C458 788 436 788 402 787 L205 783 C197 782 188 774 179 760 C170 747 166 736 166 729 C166 726 169 724 174 724 C189 724 224 725 281 726 C338 727 375 728 390 728 C401 728 417 728 438 727 C460 726 476 726 487 726 C495 726 503 733 512 746 C521 760 526 771 526 778 L526 778 Z M615 113 C615 120 612 125 606 127 C592 130 556 132 498 132 C475 132 439 131 389 130 C386 141 384 155 383 171 C380 213 378 261 378 315 C378 345 379 384 381 433 C384 495 386 533 386 548 C492 546 542 545 535 545 C551 545 568 558 586 584 C605 611 614 633 614 650 C614 657 611 661 605 663 C591 666 555 668 497 668 C508 668 465 667 368 666 L334 665 C231 664 163 661 132 657 C117 655 100 641 81 614 C63 587 54 566 54 550 C54 543 59 540 69 540 C98 540 134 541 179 543 L288 548 C293 540 296 527 296 508 C296 477 295 431 292 370 C289 309 288 264 288 233 C288 184 288 149 289 128 C221 128 169 126 133 121 C118 119 101 105 82 78 C64 51 55 30 55 14 C55 7 60 4 70 4 C99 4 139 5 188 7 C247 10 286 11 307 12 C320 12 358 11 422 10 C476 9 514 9 536 9 C552 9 569 22 587 48 C606 75 615 96 615 113 L615 113 Z " />
<glyph glyph-name="imacron" unicode="&#x12b;" horiz-adv-x="268" d="M330 778 C330 781 330 783 329 784 C326 787 307 788 272 788 C262 788 240 788 206 787 L9 783 C1 782 -7 774 -16 760 C-25 747 -30 736 -30 729 C-30 726 -27 724 -22 724 C-7 724 28 725 85 726 C142 727 178 728 193 728 C204 728 221 728 242 727 C263 726 280 726 291 726 C299 726 307 733 316 746 C325 760 330 771 330 778 L330 778 Z M212 94 C212 97 210 100 206 103 C196 110 190 132 187 171 C184 213 182 261 182 315 C182 347 183 395 186 458 C189 522 190 570 190 603 C190 648 177 670 152 670 C139 670 123 657 104 630 C85 603 76 583 76 568 C76 565 80 559 88 552 C96 545 100 530 100 508 C100 477 99 431 96 370 C93 309 92 264 92 233 C92 74 104 -6 128 -6 C145 -6 163 6 182 30 C202 54 212 75 212 94 L212 94 Z " />
<glyph glyph-name="Ibreve" unicode="&#x12c;" horiz-adv-x="661" d="M475 773 C478 784 465 805 448 805 C443 805 437 802 432 796 C407 765 381 749 355 749 C336 749 320 758 308 777 C296 796 286 805 278 805 C263 805 244 791 244 780 C244 766 257 748 284 725 C303 709 329 701 364 701 C400 701 435 722 469 764 L475 773 Z M615 113 C615 120 612 125 606 127 C592 130 556 132 498 132 C475 132 439 131 389 130 C386 141 384 155 383 171 C380 213 378 261 378 315 C378 345 379 384 381 433 C384 495 386 533 386 548 C492 546 542 545 535 545 C551 545 568 558 586 584 C605 611 614 633 614 650 C614 657 611 661 605 663 C591 666 555 668 497 668 C508 668 465 667 368 666 L334 665 C231 664 163 661 132 657 C117 655 100 641 81 614 C63 587 54 566 54 550 C54 543 59 540 69 540 C98 540 134 541 179 543 L288 548 C293 540 296 527 296 508 C296 477 295 431 292 370 C289 309 288 264 288 233 C288 184 288 149 289 128 C221 128 169 126 133 121 C118 119 101 105 82 78 C64 51 55 30 55 14 C55 7 60 4 70 4 C99 4 139 5 188 7 C247 10 286 11 307 12 C320 12 358 11 422 10 C476 9 514 9 536 9 C552 9 569 22 587 48 C606 75 615 96 615 113 L615 113 Z " />
<glyph glyph-name="ibreve" unicode="&#x12d;" horiz-adv-x="268" d="M278 773 C281 784 270 805 251 805 C245 805 239 802 234 796 C209 765 184 749 158 749 C139 749 124 758 112 777 C100 796 90 805 81 805 C65 805 48 791 48 780 C48 766 61 748 88 725 C106 709 133 701 168 701 C204 701 239 722 273 764 C276 768 277 771 278 773 L278 773 Z M212 94 C212 97 210 100 206 103 C196 110 190 132 187 171 C184 213 182 261 182 315 C182 347 183 395 186 458 C189 522 190 570 190 603 C190 648 177 670 152 670 C139 670 123 657 104 630 C85 603 76 583 76 568 C76 565 80 559 88 552 C96 545 100 530 100 508 C100 477 99 431 96 370 C93 309 92 264 92 233 C92 74 104 -6 128 -6 C145 -6 163 6 182 30 C202 54 212 75 212 94 L212 94 Z " />
<glyph glyph-name="Iogonek" unicode="&#x12e;" horiz-adv-x="661" d="M615 113 C615 120 612 125 606 127 C592 130 556 132 498 132 C475 132 439 131 389 130 C386 141 384 155 383 171 C380 213 378 261 378 315 C378 345 379 384 381 433 C384 495 386 533 386 548 C492 546 542 545 535 545 C551 545 568 558 586 584 C605 611 614 633 614 650 C614 657 611 661 605 663 C591 666 555 668 497 668 C508 668 465 667 368 666 L334 665 C223 663 156 660 132 657 C117 655 100 641 81 614 C63 587 54 566 54 550 C54 543 59 540 69 540 C98 540 134 541 179 543 L288 548 C293 540 296 527 296 508 C296 477 295 431 292 370 C289 309 288 264 288 233 C288 184 288 149 289 128 C221 128 169 126 133 121 C118 119 101 105 82 78 C64 51 55 30 55 14 C55 7 60 4 70 4 C68 4 137 6 276 11 C258 -10 249 -33 249 -57 C249 -76 257 -96 273 -116 C289 -136 306 -146 324 -146 C338 -146 352 -139 365 -124 C379 -110 386 -96 386 -82 C386 -77 384 -74 380 -74 C377 -74 372 -77 366 -82 C352 -82 338 -74 323 -57 C309 -41 301 -26 300 -11 C303 -10 313 -7 330 -4 C342 -1 351 4 357 11 C458 10 517 9 536 9 C552 9 569 22 587 48 C606 75 615 96 615 113 L615 113 Z " />
<glyph glyph-name="iogonek" unicode="&#x12f;" horiz-adv-x="268" d="M212 94 C212 97 210 100 206 103 C196 110 190 132 187 171 C184 213 182 261 182 315 C182 347 183 395 186 458 C189 522 190 570 190 603 C190 648 177 670 152 670 C139 670 123 657 104 630 C85 603 76 583 76 568 C76 565 80 559 88 552 C96 545 100 530 100 508 C100 477 99 431 96 370 C93 309 92 264 92 233 C92 140 96 75 103 39 C63 15 43 -17 43 -57 C43 -76 51 -96 67 -116 C83 -136 100 -146 118 -146 C132 -146 146 -139 159 -124 C173 -110 180 -96 180 -82 C180 -77 178 -74 174 -74 C171 -74 166 -77 160 -82 C146 -82 132 -74 117 -57 C103 -41 95 -26 94 -11 C106 -8 115 -5 122 -4 C124 -5 126 -6 128 -6 C145 -6 163 6 182 30 C202 54 212 75 212 94 L212 94 Z " />
<glyph glyph-name="Idot" unicode="&#x130;" horiz-adv-x="661" d="M398 770 C398 794 378 816 354 816 C329 816 309 794 309 770 C309 743 329 723 354 723 C378 723 398 743 398 770 L398 770 Z M615 113 C615 120 612 125 606 127 C592 130 556 132 498 132 C475 132 439 131 389 130 C386 141 384 155 383 171 C380 213 378 261 378 315 C378 345 379 384 381 433 C384 495 386 533 386 548 C492 546 542 545 535 545 C551 545 568 558 586 584 C605 611 614 633 614 650 C614 657 611 661 605 663 C591 666 555 668 497 668 C508 668 465 667 368 666 L334 665 C231 664 163 661 132 657 C117 655 100 641 81 614 C63 587 54 566 54 550 C54 543 59 540 69 540 C98 540 134 541 179 543 L288 548 C293 540 296 527 296 508 C296 477 295 431 292 370 C289 309 288 264 288 233 C288 184 288 149 289 128 C221 128 169 126 133 121 C118 119 101 105 82 78 C64 51 55 30 55 14 C55 7 60 4 70 4 C99 4 139 5 188 7 C247 10 286 11 307 12 C320 12 358 11 422 10 C476 9 514 9 536 9 C552 9 569 22 587 48 C606 75 615 96 615 113 L615 113 Z " />
<glyph glyph-name="dotlessi" unicode="&#x131;" horiz-adv-x="268" d="M212 94 C212 97 210 100 206 103 C196 110 190 132 187 171 C184 213 182 261 182 315 C182 347 183 395 186 458 C189 522 190 570 190 603 C190 648 177 670 152 670 C139 670 123 657 104 630 C85 603 76 583 76 568 C76 565 80 559 88 552 C96 545 100 530 100 508 C100 477 99 431 96 370 C93 309 92 264 92 233 C92 74 104 -6 128 -6 C145 -6 163 6 182 30 C202 54 212 75 212 94 L212 94 Z " />
<glyph glyph-name="IJ" unicode="&#x132;" horiz-adv-x="1303" d="M1266 649 C1266 656 1262 660 1254 662 C1243 665 1209 667 1152 667 C1018 667 929 663 885 656 C870 653 853 639 835 612 C817 586 808 565 808 549 C808 542 813 539 823 539 C850 539 892 541 948 544 C1005 547 1048 549 1077 548 L1110 548 C1131 390 1141 284 1141 231 C1141 156 1091 118 991 118 C930 118 873 134 820 165 C759 202 728 249 728 306 C728 321 736 359 736 375 C736 383 734 387 729 387 C724 387 717 384 706 377 C661 349 639 299 639 226 C639 157 669 102 728 60 C781 23 843 4 914 4 C998 4 1069 32 1127 88 C1186 144 1218 214 1223 299 C1225 322 1226 346 1226 372 C1226 434 1221 496 1212 558 C1222 566 1233 580 1246 601 C1259 622 1266 638 1266 649 L1266 649 Z M615 113 C615 120 612 125 606 127 C592 130 556 132 498 132 C475 132 439 131 389 130 C386 141 384 155 383 171 C380 213 378 261 378 315 C378 345 379 384 381 433 C384 495 386 533 386 548 C492 546 542 545 535 545 C551 545 568 558 586 584 C605 611 614 633 614 650 C614 657 611 661 605 663 C591 666 555 668 497 668 C508 668 465 667 368 666 L334 665 C231 664 163 661 132 657 C117 655 100 641 81 614 C63 587 54 566 54 550 C54 543 59 540 69 540 C98 540 134 541 179 543 L288 548 C293 540 296 527 296 508 C296 477 295 431 292 370 C289 309 288 264 288 233 C288 184 288 149 289 128 C221 128 169 126 133 121 C118 119 101 105 82 78 C64 51 55 30 55 14 C55 7 60 4 70 4 C99 4 139 5 188 7 C247 10 286 11 307 12 C320 12 358 11 422 10 C476 9 514 9 536 9 C552 9 569 22 587 48 C606 75 615 96 615 113 L615 113 Z " />
<glyph glyph-name="ij" unicode="&#x133;" horiz-adv-x="915" d="M882 649 C882 656 878 660 871 662 C861 665 827 667 769 667 C634 667 545 663 502 656 C487 653 471 639 452 612 C434 586 425 565 425 549 C425 542 430 539 440 539 C468 539 510 541 566 544 C622 547 665 549 694 548 L726 548 C747 390 758 284 758 231 C758 156 708 118 608 118 C547 118 491 134 438 165 C376 202 345 249 345 306 C345 321 354 359 354 375 C354 383 351 387 346 387 C341 387 334 384 323 377 C278 349 256 299 256 226 C256 157 286 102 345 60 C398 23 460 4 531 4 C615 4 686 32 744 88 C803 144 835 214 840 299 C842 322 843 346 843 372 C843 434 838 496 829 558 C839 566 850 580 863 601 C876 622 882 638 882 649 L882 649 Z M212 94 C212 97 210 100 206 103 C196 110 190 132 187 171 C184 213 182 261 182 315 C182 347 183 395 186 458 C189 522 190 570 190 603 C190 648 177 670 152 670 C139 670 123 657 104 630 C85 603 76 583 76 568 C76 565 80 559 88 552 C96 545 100 530 100 508 C100 477 99 431 96 370 C93 309 92 264 92 233 C92 74 104 -6 128 -6 C145 -6 163 6 182 30 C202 54 212 75 212 94 L212 94 Z " />
<glyph glyph-name="Jcircumflex" unicode="&#x134;" horiz-adv-x="680" d="M585 752 C585 756 584 759 582 761 C580 763 563 776 530 799 L478 838 C477 839 476 839 474 839 C470 839 434 811 366 754 C349 740 341 726 341 712 C341 706 342 703 345 703 C348 703 380 727 440 776 C509 725 543 700 544 700 C552 700 561 707 570 720 C580 733 585 744 585 752 L585 752 Z M666 649 C666 656 662 660 655 662 C645 665 611 667 552 667 C419 667 330 663 286 656 C271 653 255 639 236 612 C217 586 208 565 208 549 C208 542 213 539 224 539 C252 539 294 541 350 544 C407 547 450 549 479 548 L510 548 C531 390 541 284 541 231 C541 156 491 118 392 118 C331 118 274 134 221 165 C160 202 129 249 129 306 C129 321 138 359 138 375 C138 383 135 387 130 387 C125 387 118 384 107 377 C62 349 39 299 39 226 C39 157 69 102 129 60 C181 23 243 4 315 4 C399 4 470 32 528 88 C587 144 619 214 624 299 C626 322 627 346 627 372 C627 434 622 496 613 558 C623 566 634 580 647 601 C660 622 666 638 666 649 L666 649 Z " />
<glyph glyph-name="jcircumflex" unicode="&#x135;" horiz-adv-x="680" d="M575 752 C575 756 574 759 572 761 C570 763 553 776 521 799 L468 838 C467 839 466 839 464 839 C460 839 424 811 356 754 C339 740 331 726 331 712 C331 706 332 703 335 703 C338 703 370 727 431 776 C499 725 533 700 534 700 C542 700 551 707 560 720 C570 733 575 744 575 752 L575 752 Z M666 649 C666 656 662 660 655 662 C645 665 611 667 552 667 C419 667 330 663 286 656 C271 653 255 639 236 612 C217 586 208 565 208 549 C208 542 213 539 224 539 C252 539 294 541 350 544 C407 547 450 549 479 548 L510 548 C531 390 541 284 541 231 C541 156 491 118 392 118 C331 118 274 134 221 165 C160 202 129 249 129 306 C129 321 138 359 138 375 C138 383 135 387 130 387 C125 387 118 384 107 377 C62 349 39 299 39 226 C39 157 69 102 129 60 C181 23 243 4 315 4 C399 4 470 32 528 88 C587 144 619 214 624 299 C626 322 627 346 627 372 C627 434 622 496 613 558 C623 566 634 580 647 601 C660 622 666 638 666 649 L666 649 Z " />
</font>
</svg>
