<?xml version="1.0" encoding="utf-8"?>
<svg version="1.1" xmlns="http://www.w3.org/2000/svg" xmlns:xlink="http://www.w3.org/1999/xlink" x="0px" y="0px"
	 viewBox="0 0 3212 946" fill="#660000">
<g>
	<path d="M826,0c4.5,1,9,1.9,13.4,3c33.1,8.1,57.8,36.3,62.7,69.8c6.2,42.7-21.9,86.2-68.3,94.7c-33.3,6.1-67.6-8-86.5-38.5
		c-2.3-3.8-4.8-5.3-9.4-5.3c-210,0.1-420,0.1-630,0.1c-17.9,0-32.3,10.8-36.5,27.4c-0.6,2.4-0.8,4.9-0.8,7.4
		c0,225.7,0,451.3-0.1,677c0,19.5,17.9,40.1,40.1,40c224.5-0.3,449-0.3,673.5,0c19.7,0,36.6-17.4,38-35.8
		c0.6-7.9,0.8-15.9,0.8-23.9c0-125.8,0.1-251.7,0-377.5c0-15.8-4.6-29.5-18.9-38.3c-6.7-4.1-14.2-5.4-22-5.4
		c-98.8,0-197.7,0-296.5,0c-33,0-66,0-99,0c-22,0-39.9,13.6-44.1,33.2c-0.4,1.9-0.5,3.9-0.5,5.9c0,40.8,0.4,81.7-0.2,122.5
		c-0.3,18.9,11.5,30.6,24.5,35.4c5.6,2.1,11.9,3.3,17.9,3.4c46,0.3,92,0.1,138,0.2c3.8,0,5.6-1.1,7.7-4.4
		c18.7-29.5,45.9-43.7,80.5-40.4c36.1,3.5,64.5,28.2,73,62.2c12.7,50.7-20.3,97.5-69.4,104.9c-36.3,5.5-72.4-13.9-88-47.3
		c-1.7-3.7-3.7-4.5-7.5-4.5c-46.2,0.1-92.3,0.5-138.5,0c-49.8-0.6-98.4-35.7-107.7-89.8c-1-5.9-1.3-11.9-1.3-17.9
		c-0.1-41-0.2-82,0-123c0.2-53.7,40.3-100.7,93.2-109.2c7.7-1.2,15.5-2,23.3-2c131.3-0.1,262.7,0.3,394-0.3
		c51.6-0.3,95.3,33.4,107.7,80.5c2.6,10,4.3,20.6,4.3,30.9c0.3,132.7,0.5,265.3,0,398c-0.1,41.1-17.3,74.2-52.3,96.9
		c-11.7,7.6-24.5,12.4-38.3,14.7c-1,0.2-2,0.7-3,1.1c-235,0-470,0-705,0c-0.5-0.3-0.9-0.9-1.5-1c-47.6-9.4-77.3-38-90.5-84.3
		c-1.1-3.9-2-7.8-3-11.7c0-234.7,0-469.3,0-704c0.3-0.7,0.9-1.4,1-2.2C9.1,91.2,53.7,53,105.9,53c209.4,0,418.8,0,628.2,0
		c2.2,0,4.3,0,6.4,0c0.9-1.7,1.6-3.2,2.3-4.7C754.6,24.3,773.7,9,799.7,2.5c3.7-0.9,7.5-1.6,11.3-2.5C816,0,821,0,826,0z
			M858.3,84.7c0-22.1-17.9-40.1-39.8-39.9C797.1,44.9,779,62.9,779,84.1c-0.1,22,17.9,40.2,39.7,40.2
		C840.6,124.2,858.3,106.5,858.3,84.7z M602.2,594.7c-20.5-0.6-40,15.7-40,39.6c0,22.8,17.9,39.5,39.5,39.6
		c22.2,0.1,40-17.2,40-39.7C641.8,611.1,622.7,594.3,602.2,594.7z"/>
	<path d="M3212,502c-1.4,6.8-2.5,13.6-4.1,20.3c-12.1,50.3-55.2,90.4-106.2,98.7c-43.4,7-81.7-3.9-114.1-33.7
		c-23.6-21.7-37.4-48.7-41.5-80.5c-9-69.2,35.7-129.6,97.1-146c39.9-10.7,77.2-4,111.6,19.1c0.9,0.6,1.8,1.2,3.3,2.2
		c0-49.5,0-98.3,0-148.1c18.3,0,36.2,0,54.1,0C3212,323.3,3212,412.7,3212,502z M3078.5,569.3c44.7-0.4,80.2-36.5,79.3-81.9
		c-0.9-43-36.7-79-82.7-77.3c-43,1.6-76.6,37.2-76.4,80.2C2999,533.8,3035.4,569.6,3078.5,569.3z"/>
	<path d="M1940.3,416.4c16.6-20.9,36.6-36,61.2-44.8c12.4-4.4,25.1-6.9,38.4-7.6c36.3-1.7,68,9.3,95.2,33.1
		c22.9,20,37.3,45.2,42.8,75.1c1.4,7.8,2,15.8,2,23.8c0.2,39,0.1,78,0.1,117c0,2,0,4,0,6.8c-1.8,0-3.4,0-5,0
		c-14.5,0-29-0.1-43.5,0.1c-4.2,0.1-5.3-1.2-5.3-5.3c0.1-39.2,0.1-78.3,0.1-117.5c0-47.2-41.7-84.4-88.7-79
		c-36.7,4.2-66.8,34.9-69.8,71.4c-0.5,5.4-0.7,10.9-0.7,16.4c-0.1,36,0,72,0,108c0,1.8,0,3.6,0,5.7c-1.9,0.1-3.4,0.3-4.8,0.3
		c-14.5,0-29-0.2-43.5,0.1c-4.6,0.1-5.5-1.4-5.5-5.7c0.2-38,0-76,0.1-114c0-19.8-5.2-37.8-18.1-53c-20.7-24.4-47.2-34.5-78.5-27.5
		c-32.6,7.3-52.9,28.4-60.8,60.9c-1.3,5.6-1.9,11.5-1.9,17.2c-0.2,38.5-0.1,77-0.1,115.5c0,2,0,3.9,0,6.2c-18.1,0-35.7,0-54,0
		c0-2,0-4,0-5.9c0-38.7-0.1-77.3,0-116c0.1-34.9,11.8-65.3,35.6-91c22.6-24.4,50.5-38.8,83.5-42.1c43-4.3,80.1,9.4,110.7,40
		C1933.4,408.1,1936.6,412.1,1940.3,416.4z"/>
	<path d="M1247.3,825.4c0-18.5,0-36.1,0-52.7c10.9-2.9,22.1-4.5,32-8.9c27.3-12.1,43-33.6,46.9-63.3c0.9-7,0.8-14.2,0.8-21.4
		c0.1-27,0-54,0-81.8c-4.8,2.9-9,5.6-13.3,8.1c-49,28.9-114.3,21.6-156-17c-25.9-24-40.9-53.4-43.4-88.5
		c-4.9-68.6,39.5-127.7,106.8-141.3c43.5-8.8,82.6,2.3,115.9,32c24,21.4,37.8,48.4,42.6,80.1c0.9,6.2,1.3,12.6,1.3,18.9
		c0.1,67,0.1,134,0.1,201c0,66.1-46.7,121.4-111.9,132.3C1262,824.2,1254.8,824.6,1247.3,825.4z M1167.7,489.6
		c0.1,43.7,35.9,79.8,79.6,79.6c43.6-0.1,80.4-35.3,79.6-81.2c-0.7-43.3-36.4-79.1-81.6-78C1202.2,411,1168,446.5,1167.7,489.6z"/>
	<path d="M2865.1,615.7c0-6.4,0-12.2,0-17.9c-9.1,4.8-17.6,10.4-26.8,14.1c-51.7,20.7-99.5,13.6-141.7-22.9
		c-29.7-25.7-43.8-59-44.7-98.5c-1.4-62.6,44.2-120.1,107.5-132c45.3-8.5,85.2,3.4,118.8,35.2c22.2,21,34.8,47,39.4,77
		c0.7,4.6,1.1,9.2,1.1,13.9c0.1,41.8,0,83.7,0.1,125.5c0,4.4-1.1,5.7-5.6,5.6C2897.4,615.5,2881.6,615.7,2865.1,615.7z
			M2705.7,489.6c0,43.7,35.8,79.8,79.6,79.6c43.9-0.2,79.3-34.9,79.5-79.1c0.2-45.5-35.8-79-77.6-80
		C2741.4,408.9,2705.6,446.1,2705.7,489.6z"/>
	<path d="M2491.7,623c-70.6,0.5-133.2-56.6-133.2-133.6c0-75.1,60.6-133.7,134.6-133.4c71.6,0.2,134.8,59.4,132.6,137.8
		C2623.7,565.1,2564.4,623.8,2491.7,623z M2412.7,489.4c0,44.1,35.9,80.3,79.7,79.8c43.4-0.5,79.1-34.2,79.3-79.4
		c0.2-45-35.4-79-78.3-79.8C2447.4,409.2,2412.2,447.3,2412.7,489.4z"/>
	<path d="M1620,375.1c18.3,0,35.8,0,54,0c0,1.9,0,3.6,0,5.4c0,40,0.4,80-0.1,120c-0.4,33.7-12.8,63-35.8,87.8
		c-21.4,23-47.8,37-78.7,41.2c-41.3,5.5-78-5.7-109.1-33.8c-23-20.8-36.6-46.9-41.8-77.3c-0.9-5.1-1.4-10.2-1.4-15.4
		c-0.1-41.5-0.1-83-0.1-124.5c0-1,0.1-1.9,0.2-3.1c17.9,0,35.5,0,53.8,0c0,1.9,0,3.8,0,5.7c0,38.5,0.2,77,0,115.5
		c-0.2,37.8,26.1,72.7,67,79.3c44.6,7.3,85.8-24.2,91.3-68.5c0.5-3.9,0.7-7.9,0.7-11.9c0.1-38.2,0-76.3,0-114.5
		C1620,379.1,1620,377.3,1620,375.1z"/>
	<path d="M2343.7,417.5c-11.5,0.3-22.4,2.3-32.5,7.2c-26.9,12.9-42.6,34.1-46.4,63.8c-0.6,4.6-0.7,9.3-0.7,13.9
		c-0.1,37,0,74,0,110.9c0,1.9,0,3.9,0,6.1c-18.1,0-35.7,0-53.7,0c-0.1-1.8-0.3-3.4-0.3-5c0-39.1-0.1-78.3,0-117.4
		c0.1-65.2,47.7-121.3,111.7-131.7c7.1-1.2,14.4-1.4,21.9-2.1C2343.7,381.4,2343.7,399.2,2343.7,417.5z"/>
</g>
</svg>
