<?xml version="1.0" encoding="utf-8"?>
<svg version="1.1" baseProfile="tiny" id="Layer_1" xmlns="http://www.w3.org/2000/svg" xmlns:xlink="http://www.w3.org/1999/xlink"
	 x="0px" y="0px" viewBox="0 0 476.3 78.9" overflow="visible" xml:space="preserve">
<path d="M0,7.2c0-3.4,2.5-5.6,6.4-5.6H25c16.9,0,28.3,9.3,28.3,22.9c0,13.4-11.3,23.3-28.3,23.3h-2.6c-6.5,0-9.8,3.4-9.8,8.8v15.2
	c0,4.3-2.5,7-6.3,7c-3.8,0-6.3-2.7-6.3-7V7.2z M12.5,26.6c0,6.8,3.5,10.1,10.1,10.1h1.6c9.3,0,16.1-3.8,16.1-12.1
	s-6.8-12.1-16.1-12.1h-1.6c-6.6,0-10.1,3.2-10.1,10.1V26.6z M53.3,72.9c0,3.6,2.5,5.9,6.3,5.9c2.5,0,4.8-1.6,6.1-5l2.3-6.1
	c1.8-4.9,5.1-7.1,8.6-7.1h20.5c3.6,0,6.8,2.3,8.6,7.1l2.3,6.1c1.3,3.4,3.6,5,6.1,5c3.8,0,6.3-2.4,6.3-5.9c0-1-0.2-2.2-0.6-3.4
	L95.1,5.8c-1.5-3.9-5-5.8-8.3-5.8c-3.4,0-6.8,1.9-8.3,5.8L53.9,69.6C53.5,70.8,53.3,72,53.3,72.9z M77.2,44c0-1.2,0.3-2.3,0.9-3.9
	l4.6-12.9c0.9-2.5,2.4-3.7,4.1-3.7s3.2,1.2,4.1,3.7l4.6,12.9c0.5,1.6,0.9,2.7,0.9,3.9c0,3.2-1.8,5.5-6.7,5.5h-5.8
	C79,49.5,77.2,47.2,77.2,44z M116.2,7.5c0-3.5,2.5-5.8,6.5-5.8h49.7c4,0,6.5,2.4,6.5,5.8c0,3.5-2.5,5.8-6.5,5.8h-8.3
	c-6.6,0-10.2,3.4-10.2,11v47.4c0,4.4-2.5,7.1-6.4,7.1s-6.4-2.7-6.4-7.1V24.3c0-7.7-3.6-11-10.2-11h-8.3
	C118.7,13.3,116.2,10.9,116.2,7.5z M190.6,71.9c0,4.3,2.5,7,6.3,7s6.3-2.7,6.3-7V54.7c0-4.9,2.8-6.9,6.3-6.9h0.9
	c2.3,0,4.5,1.4,5.9,3.5l16.4,24.1c1.5,2.3,3.5,3.6,5.9,3.6c3.2,0,5.8-2.7,5.8-5.9c0-1.3-0.4-2.7-1.4-4.1l-10.9-15.3
	c-1.3-1.8-1.8-3.4-1.8-4.6c0-2.7,2.4-4.6,5.2-6.7c5.1-3.8,10.6-8.8,10.6-18.3c0-13.3-10.4-22.3-27.5-22.3h-21.7
	c-3.9,0-6.3,2.3-6.3,5.6V71.9z M203.1,25.6v-3.2c0-7,3.7-9.9,9.3-9.9h5.4c9.3,0,15.2,3.5,15.2,11.5s-6.3,11.7-15.6,11.7h-5.1
	C206.8,35.6,203.1,32.6,203.1,25.6z M262,71.7V7.2c0-3.4,2.4-5.6,6.3-5.6h40.9c3.9,0,6.3,2.3,6.3,5.6s-2.4,5.6-6.3,5.6h-25.8
	c-5.1,0-8.8,3-8.8,8.8V24c0,5.7,3.7,8.8,8.8,8.8h20c3.9,0,6.3,2.3,6.3,5.6c0,3.4-2.4,5.6-6.3,5.6H284c-5.1,0-9.5,3.1-9.5,9.5v3
	c0,6.4,4.4,9.5,9.5,9.5h25.1c3.9,0,6.3,2.3,6.3,5.6c0,3.4-2.4,5.6-6.3,5.6h-40.9C264.4,77.3,262,75,262,71.7z M322.8,39.4
	c0-23.3,17.5-39.4,38-39.4s38,16.1,38,39.4c0,23.3-17.5,39.4-38,39.4S322.8,62.8,322.8,39.4z M337.1,39.4c0,16.4,9.7,26.9,23.8,26.9
	s23.8-10.5,23.8-26.9c0-16.5-9.7-26.9-23.8-26.9S337.1,22.9,337.1,39.4z M414,71.9c0,4.3,2.5,7,6.3,7s6.3-2.7,6.3-7V38.8
	c0-4,2.4-5.9,4.9-5.9c1.9,0,3.6,1.1,4.8,3l20.8,34.7c2.8,4.8,5.4,8.3,10.7,8.3c5.1,0,8.8-3.7,8.8-9.6V7c0-4.3-2.5-7-6.3-7
	c-3.8,0-6.3,2.7-6.3,7v33.1c0,4-2.4,5.9-4.9,5.9c-1.9,0-3.6-1.1-4.8-3L433.4,8.3C430.6,3.6,428,0,422.7,0c-5.1,0-8.8,3.7-8.8,9.6
	V71.9z" fill="#660000"/>
</svg>
