<?xml version="1.0" encoding="utf-8"?>
<!-- Generator: Adobe Illustrator 22.1.0, SVG Export Plug-In . SVG Version: 6.00 Build 0)  -->
<svg version="1.2" baseProfile="tiny" id="Layer_1" xmlns="http://www.w3.org/2000/svg" xmlns:xlink="http://www.w3.org/1999/xlink"
	 x="0px" y="0px" viewBox="0 0 333.7 118.9" fill="#660000">
<path d="M325,118.9V0h8.7v118.9L325,118.9L325,118.9z M276.4,39.6h8.7v37.7H276l-13.6-24.2v24.2h-8.7V39.6h9.1l13.6,24.5L276.4,39.6
	L276.4,39.6z M219.3,38.7c12.5,0,19.9,9.5,19.9,19.8s-7.4,19.8-19.9,19.8c-12.5,0-20-9.5-20-19.8S206.8,38.7,219.3,38.7z
	 M230.4,58.5c0-6.2-4.2-12-11-12c-6.9,0-11,5.8-11,12s4.1,12,11,12C226.2,70.4,230.4,64.7,230.4,58.5L230.4,58.5z M78.5,47.2v-7.5
	h25.8v7.5h-8.6v30.1H87V47.2H78.5z M170.9,55.2h14.3V62h-14.3v8.3h14.3v7h-23V39.6h23v7h-14.3V55.2z M133.7,39.6
	c8.3,0,13.7,6.3,13.7,13.6c0,5.3-2.8,10-7.5,12.2l7.5,11.9h-10.1l-6.7-10.4h-4.1v10.4h-8.7V39.6H133.7z M138.6,53.2
	c0-3.5-2.4-6.5-6-6.5h-6v13h6C136.2,59.8,138.6,56.7,138.6,53.2z M61.4,72.7H48l-1.5,4.6h-9.3l13.5-37.7h8l13.6,37.7h-9.5L61.4,72.7
	z M54.7,50.4l-4.6,15.5h9.2L54.7,50.4z M15.8,39.6c8.3,0,13.7,6.3,13.7,13.6c0,7.3-5.4,13.6-13.7,13.6H8.7v10.4H0V39.6H15.8z
	 M20.7,53.2c0-3.5-2.4-6.5-6-6.5h-6v13h6C18.4,59.8,20.7,56.7,20.7,53.2z"/>
</svg>
