<?xml version="1.0" encoding="UTF-8" standalone="no"?>
<svg
   xmlns="http://www.w3.org/2000/svg"
   version="1.1"
   id="svg2"
   xml:space="preserve"
   width="1027.6801"
   height="302.49332"
   viewBox="0 0 1027.6801 302.49332"
   ><defs
     id="defs6"><clipPath
       clipPathUnits="userSpaceOnUse"
       id="clipPath20"><path
         d="m 1444.63,844.262 c 53.09,0 96.22,-43.082 96.22,-96.211 0,-53.11 -43.13,-96.211 -96.22,-96.211 -53.15,0 -96.2,43.101 -96.2,96.211 0,53.129 43.05,96.211 96.2,96.211 z m 520.09,1319.388 c 53.19,0 96.24,-43.07 96.24,-96.19 0,-53.15 -43.05,-96.21 -96.24,-96.21 -53.06,0 -96.19,43.06 -96.19,96.21 0,53.12 43.13,96.19 96.19,96.19 z M 262.676,1975.02 H 1786.15 c 33.55,-64.57 100.93,-108.83 178.57,-108.83 111,0 201.28,90.28 201.28,201.27 0,110.96 -90.28,201.24 -201.28,201.24 -84.2,0 -156.39,-52.04 -186.34,-125.6 H 262.676 C 115.371,2143.1 0,2031.38 0,1888.79 V 267.039 C 0,122.301 120.301,0 262.676,0 H 1884.37 c 142.67,0 258.74,119.801 258.74,267.039 v 962.031 c 0,144.86 -116.07,262.69 -258.74,262.69 H 922.344 c -146.895,0 -271.008,-120.29 -271.008,-262.69 V 926.719 c 0,-140.278 121.574,-254.379 271.008,-254.379 h 335.926 c 30,-73.539 102.19,-125.551 186.36,-125.551 111,0 201.28,90.289 201.28,201.262 0,110.988 -90.28,201.269 -201.28,201.269 -77.67,0 -145.07,-44.3 -178.61,-108.898 H 922.344 c -49.492,0 -102.922,33 -102.922,86.297 v 302.351 c 0,49.53 49.062,94.61 102.922,94.61 h 962.026 c 50.82,0 90.66,-41.55 90.66,-94.61 V 267.039 c 0,-53.641 -41.52,-98.957 -90.66,-98.957 H 262.676 c -50.391,0 -94.59,46.25 -94.59,98.957 V 1888.79 c 0,49.16 40.664,86.23 94.59,86.23 z"
         id="path18" /></clipPath><clipPath
       clipPathUnits="userSpaceOnUse"
       id="clipPath40"><path
         d="M 0,267 H 169 V 1887 H 0 Z"
         id="path38" /></clipPath><linearGradient
       x1="0"
       y1="0"
       x2="1"
       y2="0"
       gradientUnits="userSpaceOnUse"
       gradientTransform="matrix(0,1549.99,1549.99,0,91.982,289.32)"
       spreadMethod="pad"
       id="linearGradient46"><stop
         style="stop-opacity:1;stop-color:#389d8f"
         offset="0"
         id="stop42" /><stop
         style="stop-opacity:1;stop-color:#51c4bb"
         offset="1"
         id="stop44" /></linearGradient><clipPath
       clipPathUnits="userSpaceOnUse"
       id="clipPath56"><path
         d="m 1444.63,844.262 c 53.09,0 96.22,-43.082 96.22,-96.211 0,-53.11 -43.13,-96.211 -96.22,-96.211 -53.15,0 -96.2,43.101 -96.2,96.211 0,53.129 43.05,96.211 96.2,96.211 z m 520.09,1319.388 c 53.19,0 96.24,-43.07 96.24,-96.19 0,-53.15 -43.05,-96.21 -96.24,-96.21 -53.06,0 -96.19,43.06 -96.19,96.21 0,53.12 43.13,96.19 96.19,96.19 z M 262.676,1975.02 H 1786.15 c 33.55,-64.57 100.93,-108.83 178.57,-108.83 111,0 201.28,90.28 201.28,201.27 0,110.96 -90.28,201.24 -201.28,201.24 -84.2,0 -156.39,-52.04 -186.34,-125.6 H 262.676 C 115.371,2143.1 0,2031.38 0,1888.79 V 267.039 C 0,122.301 120.301,0 262.676,0 H 1884.37 c 142.67,0 258.74,119.801 258.74,267.039 v 962.031 c 0,144.86 -116.07,262.69 -258.74,262.69 H 922.344 c -146.895,0 -271.008,-120.29 -271.008,-262.69 V 926.719 c 0,-140.278 121.574,-254.379 271.008,-254.379 h 335.926 c 30,-73.539 102.19,-125.551 186.36,-125.551 111,0 201.28,90.289 201.28,201.262 0,110.988 -90.28,201.269 -201.28,201.269 -77.67,0 -145.07,-44.3 -178.61,-108.898 H 922.344 c -49.492,0 -102.922,33 -102.922,86.297 v 302.351 c 0,49.53 49.062,94.61 102.922,94.61 h 962.026 c 50.82,0 90.66,-41.55 90.66,-94.61 V 267.039 c 0,-53.641 -41.52,-98.957 -90.66,-98.957 H 262.676 c -50.391,0 -94.59,46.25 -94.59,98.957 V 1888.79 c 0,49.16 40.664,86.23 94.59,86.23 z"
         id="path54" /></clipPath><clipPath
       clipPathUnits="userSpaceOnUse"
       id="clipPath62"><path
         d="M 1884.37,-69.1406 H 249.559 V 267.039 H 1884.37 Z"
         id="path60" /></clipPath><linearGradient
       x1="0"
       y1="0"
       x2="1"
       y2="0"
       gradientUnits="userSpaceOnUse"
       gradientTransform="matrix(1634.81,0,0,-1634.81,249.56,98.9499)"
       spreadMethod="pad"
       id="linearGradient68"><stop
         style="stop-opacity:1;stop-color:#389d8f"
         offset="0"
         id="stop64" /><stop
         style="stop-opacity:1;stop-color:#f14f2c"
         offset="1"
         id="stop66" /></linearGradient><clipPath
       clipPathUnits="userSpaceOnUse"
       id="clipPath78"><path
         d="m 1975,267 h 169 v 963 h -169 z"
         id="path76" /></clipPath><linearGradient
       x1="0"
       y1="0"
       x2="1"
       y2="0"
       gradientUnits="userSpaceOnUse"
       gradientTransform="matrix(0,-948.702,-948.702,0,2041.96,1225.24)"
       spreadMethod="pad"
       id="linearGradient84"><stop
         style="stop-opacity:1;stop-color:#c22735"
         offset="0"
         id="stop80" /><stop
         style="stop-opacity:1;stop-color:#f14f2c"
         offset="1"
         id="stop82" /></linearGradient><clipPath
       clipPathUnits="userSpaceOnUse"
       id="clipPath94"><path
         d="m 922,1323 h 963 v 169 H 922 Z"
         id="path92" /></clipPath><linearGradient
       x1="0"
       y1="0"
       x2="1"
       y2="0"
       gradientUnits="userSpaceOnUse"
       gradientTransform="matrix(-930.136,0,0,930.136,1870.19,1397.16)"
       spreadMethod="pad"
       id="linearGradient100"><stop
         style="stop-opacity:1;stop-color:#c22735"
         offset="0"
         id="stop96" /><stop
         style="stop-opacity:1;stop-color:#ca4233"
         offset="1"
         id="stop98" /></linearGradient><clipPath
       clipPathUnits="userSpaceOnUse"
       id="clipPath110"><path
         d="m 651,926 h 169 v 304 H 651 Z"
         id="path108" /></clipPath><linearGradient
       x1="0"
       y1="0"
       x2="1"
       y2="0"
       gradientUnits="userSpaceOnUse"
       gradientTransform="matrix(0,-285.245,-285.245,0,764.76,1222.19)"
       spreadMethod="pad"
       id="linearGradient116"><stop
         style="stop-opacity:1;stop-color:#ca4233"
         offset="0"
         id="stop112" /><stop
         style="stop-opacity:1;stop-color:#f14624"
         offset="1"
         id="stop114" /></linearGradient><clipPath
       clipPathUnits="userSpaceOnUse"
       id="clipPath126"><path
         d="m 1444.63,844.262 c 53.09,0 96.22,-43.082 96.22,-96.211 0,-53.11 -43.13,-96.211 -96.22,-96.211 -53.15,0 -96.2,43.101 -96.2,96.211 0,53.129 43.05,96.211 96.2,96.211 z m 520.09,1319.388 c 53.19,0 96.24,-43.07 96.24,-96.19 0,-53.15 -43.05,-96.21 -96.24,-96.21 -53.06,0 -96.19,43.06 -96.19,96.21 0,53.12 43.13,96.19 96.19,96.19 z M 262.676,1975.02 H 1786.15 c 33.55,-64.57 100.93,-108.83 178.57,-108.83 111,0 201.28,90.28 201.28,201.27 0,110.96 -90.28,201.24 -201.28,201.24 -84.2,0 -156.39,-52.04 -186.34,-125.6 H 262.676 C 115.371,2143.1 0,2031.38 0,1888.79 V 267.039 C 0,122.301 120.301,0 262.676,0 H 1884.37 c 142.67,0 258.74,119.801 258.74,267.039 v 962.031 c 0,144.86 -116.07,262.69 -258.74,262.69 H 922.344 c -146.895,0 -271.008,-120.29 -271.008,-262.69 V 926.719 c 0,-140.278 121.574,-254.379 271.008,-254.379 h 335.926 c 30,-73.539 102.19,-125.551 186.36,-125.551 111,0 201.28,90.289 201.28,201.262 0,110.988 -90.28,201.269 -201.28,201.269 -77.67,0 -145.07,-44.3 -178.61,-108.898 H 922.344 c -49.492,0 -102.922,33 -102.922,86.297 v 302.351 c 0,49.53 49.062,94.61 102.922,94.61 h 962.026 c 50.82,0 90.66,-41.55 90.66,-94.61 V 267.039 c 0,-53.641 -41.52,-98.957 -90.66,-98.957 H 262.676 c -50.391,0 -94.59,46.25 -94.59,98.957 V 1888.79 c 0,49.16 40.664,86.23 94.59,86.23 z"
         id="path124" /></clipPath><clipPath
       clipPathUnits="userSpaceOnUse"
       id="clipPath132"><path
         d="m 1724.37,2291.82 v -69.49 H 249.559 V 1886.15 H 1724.37 v -69.49 h 475.17 v 475.16 z"
         id="path130" /></clipPath><linearGradient
       x1="0"
       y1="0"
       x2="1"
       y2="0"
       gradientUnits="userSpaceOnUse"
       gradientTransform="matrix(-1917.26,0,0,1917.26,2199.54,2054.24)"
       spreadMethod="pad"
       id="linearGradient138"><stop
         style="stop-opacity:1;stop-color:#3778c2"
         offset="0"
         id="stop134" /><stop
         style="stop-opacity:1;stop-color:#51c4bb"
         offset="1"
         id="stop136" /></linearGradient><clipPath
       clipPathUnits="userSpaceOnUse"
       id="clipPath148"><path
         d="m 1444.63,844.262 c 53.09,0 96.22,-43.082 96.22,-96.211 0,-53.11 -43.13,-96.211 -96.22,-96.211 -53.15,0 -96.2,43.101 -96.2,96.211 0,53.129 43.05,96.211 96.2,96.211 z m 520.09,1319.388 c 53.19,0 96.24,-43.07 96.24,-96.19 0,-53.15 -43.05,-96.21 -96.24,-96.21 -53.06,0 -96.19,43.06 -96.19,96.21 0,53.12 43.13,96.19 96.19,96.19 z M 262.676,1975.02 H 1786.15 c 33.55,-64.57 100.93,-108.83 178.57,-108.83 111,0 201.28,90.28 201.28,201.27 0,110.96 -90.28,201.24 -201.28,201.24 -84.2,0 -156.39,-52.04 -186.34,-125.6 H 262.676 C 115.371,2143.1 0,2031.38 0,1888.79 V 267.039 C 0,122.301 120.301,0 262.676,0 H 1884.37 c 142.67,0 258.74,119.801 258.74,267.039 v 962.031 c 0,144.86 -116.07,262.69 -258.74,262.69 H 922.344 c -146.895,0 -271.008,-120.29 -271.008,-262.69 V 926.719 c 0,-140.278 121.574,-254.379 271.008,-254.379 h 335.926 c 30,-73.539 102.19,-125.551 186.36,-125.551 111,0 201.28,90.289 201.28,201.262 0,110.988 -90.28,201.269 -201.28,201.269 -77.67,0 -145.07,-44.3 -178.61,-108.898 H 922.344 c -49.492,0 -102.922,33 -102.922,86.297 v 302.351 c 0,49.53 49.062,94.61 102.922,94.61 h 962.026 c 50.82,0 90.66,-41.55 90.66,-94.61 V 267.039 c 0,-53.641 -41.52,-98.957 -90.66,-98.957 H 262.676 c -50.391,0 -94.59,46.25 -94.59,98.957 V 1888.79 c 0,49.16 40.664,86.23 94.59,86.23 z"
         id="path146" /></clipPath><clipPath
       clipPathUnits="userSpaceOnUse"
       id="clipPath154"><path
         d="M 1210.82,984.43 V 926.719 H 922.344 v -336.16 h 288.476 v -78.887 h 472.73 V 984.43 Z"
         id="path152" /></clipPath><linearGradient
       x1="0"
       y1="0"
       x2="1"
       y2="0"
       gradientUnits="userSpaceOnUse"
       gradientTransform="matrix(761.211,0,0,-761.211,922.343,748.06)"
       spreadMethod="pad"
       id="linearGradient160"><stop
         style="stop-opacity:1;stop-color:#f14624"
         offset="0"
         id="stop156" /><stop
         style="stop-opacity:1;stop-color:#f8a131"
         offset="1"
         id="stop158" /></linearGradient></defs><g
     id="g10"
     transform="matrix(1.3333333,0,0,-1.3333333,0,302.49333)"><g
       id="g12"
       transform="scale(0.1)"><g
         id="g14"><g
           id="g16"
           clip-path="url(#clipPath20)"><path
             d="M -65.5977,2222.33 H 255.867 v -342.9 H -65.5977 v 342.9"
             style="fill:#51c3bb;fill-opacity:1;fill-rule:nonzero;stroke:none"
             id="path22" /><path
             d="M -65.5977,273.762 H 255.867 V -69.1406 H -65.5977 V 273.762"
             style="fill:#389d8f;fill-opacity:1;fill-rule:nonzero;stroke:none"
             id="path24" /><path
             d="m 1878.08,273.762 h 321.46 V -69.1406 H 1878.08 V 273.762"
             style="fill:#f14f2c;fill-opacity:1;fill-rule:nonzero;stroke:none"
             id="path26" /><path
             d="m 1878.08,1565.25 h 321.46 v -342.9 h -321.46 v 342.9"
             style="fill:#c22735;fill-opacity:1;fill-rule:nonzero;stroke:none"
             id="path28" /><path
             d="m 607.176,1565.25 h 321.476 v -342.9 H 607.176 v 342.9"
             style="fill:#ca4233;fill-opacity:1;fill-rule:nonzero;stroke:none"
             id="path30" /><path
             d="M 607.176,933.449 H 928.652 V 590.559 H 607.176 v 342.89"
             style="fill:#f14624;fill-opacity:1;fill-rule:nonzero;stroke:none"
             id="path32" /></g></g><g
         id="g34"><g
           id="g36"
           clip-path="url(#clipPath40)"><path
             d="M 0,267 H 169 V 1887 H 0 Z"
             style="fill:url(#linearGradient46);fill-opacity:1;fill-rule:nonzero;stroke:none"
             id="path48" /></g></g><g
         id="g50"><g
           id="g52"
           clip-path="url(#clipPath56)"><g
             id="g58"
             clip-path="url(#clipPath62)"><path
               d="m 249,0 v 170 h 3 v -1 H 1885 V 0"
               style="fill:url(#linearGradient68);fill-opacity:1;fill-rule:nonzero;stroke:none"
               id="path70" /></g></g></g><g
         id="g72"><g
           id="g74"
           clip-path="url(#clipPath78)"><path
             d="m 1975,267 h 169 v 963 h -169 z"
             style="fill:url(#linearGradient84);fill-opacity:1;fill-rule:nonzero;stroke:none"
             id="path86" /></g></g><g
         id="g88"><g
           id="g90"
           clip-path="url(#clipPath94)"><path
             d="m 922,1323 h 963 v 169 H 922 Z"
             style="fill:url(#linearGradient100);fill-opacity:1;fill-rule:nonzero;stroke:none"
             id="path102" /></g></g><g
         id="g104"><g
           id="g106"
           clip-path="url(#clipPath110)"><path
             d="m 651,926 h 169 v 304 H 651 Z"
             style="fill:url(#linearGradient116);fill-opacity:1;fill-rule:nonzero;stroke:none"
             id="path118" /></g></g><g
         id="g120"><g
           id="g122"
           clip-path="url(#clipPath126)"><g
             id="g128"
             clip-path="url(#clipPath132)"><path
               d="m 1948,1866 v 1 h -10 v 1 h -6 v 1 h -5 v 1 h -4 v 1 h -5 v 1 h -5 v 1 h -4 v 1 h -3 v 1 h -3 v 1 h -3 v 1 h -2 v 1 h -3 v 1 h -3 v 1 h -2 v 1 h -3 v 1 h -3 v 1 h -2 v 1 h -2 v 1 h -2 v 1 h -2 v 1 h -2 v 1 h -2 v 1 h -2 v 1 h -1 v 1 h -2 v 1 h -2 v 1 h -2 v 1 h -2 v 1 h -2 v 1 h -1 v 1 h -2 v 1 h -1 v 1 h -2 v 1 h -1 v 1 h -1 v 1 h -2 v 1 h -1 v 1 h -2 v 1 h -1 v 1 h -1 v 1 h -2 v 1 h -1 v 1 h -2 v 1 h -1 v 1 h -1 v 1 h -1 v 1 h -1 v 1 h -2 v 1 h -1 v 1 h -1 v 1 h -1 v 1 h -1 v 1 h -1 v 1 h -1 v 1 h -1 v 1 h -1 v 1 h -1 v 1 h -1 v 1 h -1 v 1 h -1 v 1 h -1 v 1 h -1 v 1 h -1 v 1 h -1 v 1 h -1 v 1 h -1 v 1 h -1 v 1 h -1 v 2 h -1 v 1 h -1 v 1 h -1 v 1 h -1 v 2 h -1 v 1 h -1 v 1 h -1 v 1 h -1 v 1 h -1 v 2 h -1 v 1 h -1 v 1 h -1 v 1 h -1 v 2 h -1 v 1 h -1 v 2 h -1 v 1 h -1 v 2 h -1 v 2 h -1 v 1 h -1 v 2 h -1 v 1 h -1 v 2 h -1 v 1 h -1 v 2 h -1 v 2 h -1 v 2 h -1 v 2 H 258 v -1 h -9 v 169 h 5 v 1 h 1524 v 1 h 1 v 3 h 1 v 2 h 1 v 2 h 1 v 2 h 1 v 2 h 1 v 2 h 1 v 2 h 1 v 2 h 1 v 2 h 1 v 1 h 1 v 2 h 1 v 2 h 1 v 2 h 1 v 1 h 1 v 2 h 1 v 2 h 1 v 1 h 1 v 2 h 1 v 1 h 1 v 2 h 1 v 1 h 1 v 2 h 1 v 1 h 1 v 1 h 1 v 2 h 1 v 1 h 1 v 1 h 1 v 2 h 1 v 1 h 1 v 1 h 1 v 1 h 1 v 1 h 1 v 2 h 1 v 1 h 1 v 1 h 1 v 1 h 1 v 1 h 1 v 1 h 1 v 1 h 1 v 1 h 1 v 1 h 1 v 1 h 1 v 1 h 1 v 1 h 1 v 1 h 1 v 1 h 1 v 1 h 1 v 1 h 1 v 1 h 1 v 1 h 1 v 1 h 1 v 1 h 1 v 1 h 1 v 1 h 1 v 1 h 2 v 1 h 1 v 1 h 1 v 1 h 1 v 1 h 1 v 1 h 2 v 1 h 1 v 1 h 1 v 1 h 2 v 1 h 1 v 1 h 1 v 1 h 2 v 1 h 1 v 1 h 2 v 1 h 1 v 1 h 2 v 1 h 1 v 1 h 2 v 1 h 1 v 1 h 2 v 1 h 2 v 1 h 1 v 1 h 2 v 1 h 2 v 1 h 2 v 1 h 2 v 1 h 2 v 1 h 1 v 1 h 3 v 1 h 2 v 1 h 2 v 1 h 2 v 1 h 3 v 1 h 2 v 1 h 2 v 1 h 3 v 1 h 3 v 1 h 3 v 1 h 3 v 1 h 3 v 1 h 4 v 1 h 3 v 1 h 4 v 1 h 4 v 1 h 6 v 1 h 5 v 1 h 7 v 1 h 9 v 1 h 33 v -1 h 9 v -1 h 7 v -1 h 6 v -1 h 5 v -1 h 4 v -1 h 4 v -1 h 4 v -1 h 4 v -1 h 3 v -1 h 2 v -1 h 3 v -1 h 3 v -1 h 3 v -1 h 2 v -1 h 3 v -1 h 2 v -1 h 2 v -1 h 2 v -1 h 2 v -1 h 3 v -1 h 2 v -1 h 2 v -1 h 2 v -1 h 2 v -1 h 1 v -1 h 2 v -1 h 2 v -1 h 1 v -1 h 2 v -1 h 2 v -1 h 1 v -1 h 2 v -1 h 1 v -1 h 2 v -1 h 1 v -1 h 2 v -1 h 1 v -1 h 1 v -1 h 2 v -1 h 1 v -1 h 1 v -1 h 2 v -1 h 1 v -1 h 1 v -1 h 2 v -1 h 1 v -1 h 1 v -1 h 1 v -1 h 1 v -1 h 1 v -1 h 1 v -1 h 2 v -1 h 1 v -1 h 1 v -1 h 1 v -1 h 1 v -1 h 1 v -1 h 1 v -1 h 1 v -1 h 1 v -1 h 1 v -1 h 1 v -1 h 1 v -1 h 1 v -1 h 1 v -2 h 1 v -1 h 1 v -1 h 1 v -1 h 1 v -1 h 1 v -1 h 1 v -1 h 1 v -1 h 1 v -2 h 1 v -1 h 1 v -1 h 1 v -2 h 1 v -1 h 1 v -1 h 1 v -2 h 1 v -1 h 1 v -2 h 1 v -1 h 1 v -1 h 1 v -2 h 1 v -2 h 1 v -1 h 1 v -2 h 1 v -2 h 1 v -1 h 1 v -2 h 1 v -1 h 1 v -2 h 1 v -2 h 1 v -2 h 1 v -2 h 1 v -2 h 1 v -2 h 1 v -2 h 1 v -2 h 1 v -2 h 1 v -2 h 1 v -3 h 1 v -3 h 1 v -3 h 1 v -2 h 1 v -3 h 1 v -3 h 1 v -3 h 1 v -3 h 1 v -4 h 1 v -4 h 1 v -4 h 1 v -4 h 1 v -7 h 1 v -6 h 1 v -7 h 1 v -41 h -1 v -7 h -1 v -6 h -1 v -7 h -1 v -4 h -1 v -4 h -1 v -4 h -1 v -4 h -1 v -4 h -1 v -2 h -1 v -3 h -1 v -3 h -1 v -3 h -1 v -2 h -1 v -3 h -1 v -3 h -1 v -2 h -1 v -2 h -1 v -2 h -1 v -2 h -1 v -2 h -1 v -2 h -1 v -2 h -1 v -2 h -1 v -2 h -1 v -2 h -1 v -1 h -1 v -2 h -1 v -2 h -1 v -1 h -1 v -2 h -1 v -2 h -1 v -1 h -1 v -2 h -1 v -1 h -1 v -2 h -1 v -1 h -1 v -1 h -1 v -2 h -1 v -1 h -1 v -1 h -1 v -2 h -1 v -1 h -1 v -1 h -1 v -2 h -1 v -1 h -1 v -1 h -1 v -1 h -1 v -1 h -1 v -1 h -1 v -1 h -1 v -2 h -1 v -1 h -1 v -1 h -1 v -1 h -1 v -1 h -1 v -1 h -1 v -1 h -1 v -1 h -1 v -1 h -1 v -1 h -1 v -1 h -1 v -1 h -1 v -1 h -1 v -1 h -1 v -1 h -1 v -1 h -2 v -1 h -1 v -1 h -1 v -1 h -1 v -1 h -1 v -1 h -1 v -1 h -1 v -1 h -2 v -1 h -1 v -1 h -1 v -1 h -2 v -1 h -1 v -1 h -1 v -1 h -2 v -1 h -1 v -1 h -1 v -1 h -2 v -1 h -1 v -1 h -2 v -1 h -2 v -1 h -1 v -1 h -2 v -1 h -2 v -1 h -1 v -1 h -2 v -1 h -1 v -1 h -2 v -1 h -2 v -1 h -2 v -1 h -2 v -1 h -2 v -1 h -2 v -1 h -2 v -1 h -2 v -1 h -2 v -1 h -3 v -1 h -2 v -1 h -3 v -1 h -3 v -1 h -2 v -1 h -3 v -1 h -3 v -1 h -3 v -1 h -4 v -1 h -4 v -1 h -4 v -1 h -3 v -1 h -5 v -1 h -7 v -1 h -6 v -1 h -9 v -1 z m 6,107 v -1 h 22 v 1 h 6 v 1 h 5 v 1 h 4 v 1 h 3 v 1 h 3 v 1 h 2 v 1 h 3 v 1 h 2 v 1 h 2 v 1 h 2 v 1 h 2 v 1 h 2 v 1 h 2 v 1 h 1 v 1 h 2 v 1 h 1 v 1 h 2 v 1 h 1 v 1 h 1 v 1 h 2 v 1 h 1 v 1 h 1 v 1 h 1 v 1 h 2 v 1 h 1 v 1 h 1 v 1 h 1 v 1 h 1 v 1 h 1 v 1 h 1 v 1 h 1 v 2 h 1 v 1 h 1 v 1 h 1 v 1 h 1 v 1 h 1 v 2 h 1 v 1 h 1 v 1 h 1 v 2 h 1 v 2 h 1 v 1 h 1 v 2 h 1 v 2 h 1 v 1 h 1 v 3 h 1 v 2 h 1 v 2 h 1 v 2 h 1 v 3 h 1 v 3 h 1 v 3 h 1 v 4 h 1 v 4 h 1 v 6 h 1 v 25 h -1 v 6 h -1 v 4 h -1 v 4 h -1 v 3 h -1 v 3 h -1 v 3 h -1 v 2 h -1 v 2 h -1 v 2 h -1 v 2 h -1 v 2 h -1 v 2 h -1 v 2 h -1 v 1 h -1 v 2 h -1 v 1 h -1 v 2 h -1 v 1 h -1 v 1 h -1 v 2 h -1 v 1 h -1 v 1 h -1 v 1 h -1 v 1 h -1 v 2 h -1 v 1 h -1 v 1 h -1 v 1 h -1 v 1 h -1 v 1 h -2 v 1 h -1 v 1 h -1 v 1 h -1 v 1 h -1 v 1 h -2 v 1 h -1 v 1 h -1 v 1 h -2 v 1 h -1 v 1 h -2 v 1 h -2 v 1 h -1 v 1 h -2 v 1 h -2 v 1 h -2 v 1 h -2 v 1 h -2 v 1 h -3 v 1 h -3 v 1 h -2 v 1 h -4 v 1 h -4 v 1 h -4 v 1 h -7 v 1 h -21 v -1 h -6 v -1 h -5 v -1 h -4 v -1 h -3 v -1 h -3 v -1 h -3 v -1 h -2 v -1 h -2 v -1 h -3 v -1 h -2 v -1 h -2 v -1 h -1 v -1 h -2 v -1 h -2 v -1 h -1 v -1 h -2 v -1 h -1 v -1 h -2 v -1 h -1 v -1 h -1 v -1 h -2 v -1 h -1 v -1 h -1 v -1 h -1 v -1 h -1 v -1 h -1 v -1 h -1 v -1 h -1 v -1 h -1 v -1 h -1 v -1 h -1 v -1 h -1 v -1 h -1 v -1 h -1 v -2 h -1 v -1 h -1 v -1 h -1 v -2 h -1 v -1 h -1 v -1 h -1 v -2 h -1 v -2 h -1 v -1 h -1 v -2 h -1 v -2 h -1 v -2 h -1 v -2 h -1 v -2 h -1 v -2 h -1 v -3 h -1 v -2 h -1 v -3 h -1 v -4 h -1 v -4 h -1 v -5 h -1 v -7 h -1 v -18 h 1 v -6 h 1 v -5 h 1 v -4 h 1 v -4 h 1 v -3 h 1 v -3 h 1 v -2 h 1 v -2 h 1 v -2 h 1 v -3 h 1 v -2 h 1 v -1 h 1 v -2 h 1 v -2 h 1 v -1 h 1 v -2 h 1 v -1 h 1 v -2 h 1 v -1 h 1 v -1 h 1 v -2 h 1 v -1 h 1 v -1 h 1 v -1 h 1 v -1 h 1 v -1 h 1 v -1 h 1 v -1 h 1 v -1 h 1 v -1 h 1 v -1 h 1 v -1 h 1 v -1 h 1 v -1 h 1 v -1 h 2 v -1 h 1 v -1 h 1 v -1 h 2 v -1 h 1 v -1 h 2 v -1 h 1 v -1 h 2 v -1 h 2 v -1 h 1 v -1 h 2 v -1 h 2 v -1 h 2 v -1 h 2 v -1 h 3 v -1 h 3 v -1 h 2 v -1 h 4 v -1 h 4 v -1 h 4 v -1"
               style="fill:url(#linearGradient138);fill-opacity:1;fill-rule:nonzero;stroke:none"
               id="path140" /></g></g></g><g
         id="g142"><g
           id="g144"
           clip-path="url(#clipPath148)"><g
             id="g150"
             clip-path="url(#clipPath154)"><path
               d="m 1436,546 v 1 h -13 v 1 h -8 v 1 h -6 v 1 h -5 v 1 h -5 v 1 h -4 v 1 h -4 v 1 h -3 v 1 h -4 v 1 h -3 v 1 h -3 v 1 h -2 v 1 h -3 v 1 h -3 v 1 h -2 v 1 h -3 v 1 h -2 v 1 h -2 v 1 h -2 v 1 h -3 v 1 h -2 v 1 h -1 v 1 h -2 v 1 h -2 v 1 h -2 v 1 h -2 v 1 h -2 v 1 h -1 v 1 h -2 v 1 h -1 v 1 h -2 v 1 h -2 v 1 h -1 v 1 h -2 v 1 h -1 v 1 h -2 v 1 h -1 v 1 h -1 v 1 h -2 v 1 h -1 v 1 h -1 v 1 h -2 v 1 h -1 v 1 h -1 v 1 h -2 v 1 h -1 v 1 h -1 v 1 h -1 v 1 h -1 v 1 h -1 v 1 h -2 v 1 h -1 v 1 h -1 v 1 h -1 v 1 h -1 v 1 h -1 v 1 h -1 v 1 h -1 v 1 h -1 v 1 h -1 v 1 h -1 v 1 h -1 v 1 h -1 v 1 h -1 v 1 h -1 v 1 h -1 v 1 h -1 v 2 h -1 v 1 h -1 v 1 h -1 v 1 h -1 v 1 h -1 v 1 h -1 v 1 h -1 v 2 h -1 v 1 h -1 v 1 h -1 v 2 h -1 v 1 h -1 v 1 h -1 v 2 h -1 v 1 h -1 v 2 h -1 v 1 h -1 v 2 h -1 v 1 h -1 v 2 h -1 v 1 h -1 v 2 h -1 v 1 h -1 v 2 h -1 v 2 h -1 v 2 h -1 v 2 h -1 v 1 h -1 v 2 h -1 v 2 h -1 v 2 h -1 v 2 h -1 v 2 h -1 v 3 h -1 v 2 h -1 v 2 h -1 v 2 H 922 v 169 h 344 v 2 h 1 v 2 h 1 v 2 h 1 v 1 h 1 v 2 h 1 v 1 h 1 v 2 h 1 v 2 h 1 v 1 h 1 v 2 h 1 v 1 h 1 v 2 h 1 v 1 h 1 v 2 h 1 v 1 h 1 v 1 h 1 v 2 h 1 v 1 h 1 v 1 h 1 v 1 h 1 v 2 h 1 v 1 h 1 v 1 h 1 v 1 h 1 v 2 h 1 v 1 h 1 v 1 h 1 v 1 h 1 v 2 h 1 v 1 h 1 v 1 h 1 v 1 h 1 v 1 h 1 v 1 h 1 v 1 h 1 v 1 h 1 v 1 h 1 v 1 h 1 v 1 h 1 v 1 h 1 v 1 h 2 v 1 h 1 v 1 h 1 v 1 h 1 v 1 h 1 v 1 h 1 v 1 h 1 v 1 h 1 v 1 h 1 v 1 h 1 v 1 h 2 v 1 h 1 v 1 h 1 v 1 h 2 v 1 h 1 v 1 h 2 v 1 h 1 v 1 h 1 v 1 h 2 v 1 h 1 v 1 h 2 v 1 h 1 v 1 h 1 v 1 h 2 v 1 h 1 v 1 h 2 v 1 h 2 v 1 h 2 v 1 h 2 v 1 h 1 v 1 h 2 v 1 h 2 v 1 h 2 v 1 h 2 v 1 h 2 v 1 h 2 v 1 h 2 v 1 h 2 v 1 h 2 v 1 h 3 v 1 h 3 v 1 h 3 v 1 h 2 v 1 h 3 v 1 h 3 v 1 h 2 v 1 h 3 v 1 h 4 v 1 h 5 v 1 h 4 v 1 h 5 v 1 h 5 v 1 h 4 v 1 h 9 v 1 h 11 v 1 h 21 v -1 h 12 v -1 h 7 v -1 h 7 v -1 h 6 v -1 h 3 v -1 h 4 v -1 h 4 v -1 h 4 v -1 h 4 v -1 h 2 v -1 h 3 v -1 h 3 v -1 h 3 v -1 h 2 v -1 h 3 v -1 h 2 v -1 h 2 v -1 h 3 v -1 h 2 v -1 h 2 v -1 h 2 v -1 h 2 v -1 h 2 v -1 h 2 v -1 h 2 v -1 h 1 v -1 h 2 v -1 h 2 v -1 h 1 v -1 h 2 v -1 h 1 v -1 h 2 v -1 h 2 v -1 h 1 v -1 h 2 v -1 h 1 v -1 h 1 v -1 h 2 v -1 h 1 v -1 h 1 v -1 h 2 v -1 h 1 v -1 h 1 v -1 h 2 v -1 h 1 v -1 h 1 v -1 h 2 v -1 h 1 v -1 h 1 v -1 h 1 v -1 h 1 v -1 h 1 v -1 h 1 v -1 h 1 v -1 h 1 v -1 h 1 v -1 h 2 v -1 h 1 v -1 h 1 v -1 h 1 v -2 h 1 v -1 h 1 v -1 h 1 v -1 h 1 v -1 h 1 v -1 h 1 v -1 h 1 v -1 h 1 v -1 h 1 v -1 h 1 v -2 h 1 v -1 h 1 v -1 h 1 v -1 h 1 v -2 h 1 v -1 h 1 v -1 h 1 v -2 h 1 v -1 h 1 v -1 h 1 v -2 h 1 v -1 h 1 v -1 h 1 v -2 h 1 v -1 h 1 v -2 h 1 v -2 h 1 v -1 h 1 v -2 h 1 v -2 h 1 v -1 h 1 v -2 h 1 v -2 h 1 v -1 h 1 v -3 h 1 v -2 h 1 v -2 h 1 v -2 h 1 v -2 h 1 v -2 h 1 v -2 h 1 v -2 h 1 v -3 h 1 v -2 h 1 v -3 h 1 v -3 h 1 v -3 h 1 v -2 h 1 v -3 h 1 v -4 h 1 v -4 h 1 v -4 h 1 v -4 h 1 v -4 h 1 v -7 h 1 v -6 h 1 v -8 h 1 v -38 h -1 v -8 h -1 v -6 h -1 v -7 h -1 v -4 h -1 v -4 h -1 v -4 h -1 v -4 h -1 v -4 h -1 v -3 h -1 v -2 h -1 v -3 h -1 v -3 h -1 v -2 h -1 v -3 h -1 v -3 h -1 v -2 h -1 v -2 h -1 v -2 h -1 v -2 h -1 v -2 h -1 v -2 h -1 v -2 h -1 v -2 h -1 v -2 h -1 v -2 h -1 v -2 h -1 v -1 h -1 v -2 h -1 v -1 h -1 v -2 h -1 v -2 h -1 v -1 h -1 v -2 h -1 v -2 h -1 v -1 h -1 v -1 h -1 v -2 h -1 v -1 h -1 v -1 h -1 v -2 h -1 v -1 h -1 v -1 h -1 v -2 h -1 v -1 h -1 v -1 h -1 v -1 h -1 v -1 h -1 v -2 h -1 v -1 h -1 v -1 h -1 v -1 h -1 v -1 h -1 v -1 h -1 v -1 h -1 v -1 h -1 v -1 h -1 v -1 h -1 v -2 h -1 v -1 h -2 v -1 h -1 v -1 h -1 v -1 h -1 v -1 h -1 v -1 h -1 v -1 h -1 v -1 h -1 v -1 h -1 v -1 h -1 v -1 h -2 v -1 h -1 v -1 h -1 v -1 h -1 v -1 h -2 v -1 h -1 v -1 h -1 v -1 h -2 v -1 h -1 v -1 h -1 v -1 h -2 v -1 h -1 v -1 h -1 v -1 h -2 v -1 h -1 v -1 h -2 v -1 h -2 v -1 h -1 v -1 h -2 v -1 h -2 v -1 h -1 v -1 h -2 v -1 h -2 v -1 h -1 v -1 h -2 v -1 h -2 v -1 h -2 v -1 h -3 v -1 h -2 v -1 h -2 v -1 h -2 v -1 h -2 v -1 h -2 v -1 h -3 v -1 h -3 v -1 h -3 v -1 h -2 v -1 h -3 v -1 h -3 v -1 h -3 v -1 h -4 v -1 h -4 v -1 h -4 v -1 h -4 v -1 h -6 v -1 h -7 v -1 h -6 v -1 h -14 v -1 z m 4,107 v -1 h 9 v 1 h 9 v 1 h 6 v 1 h 4 v 1 h 4 v 1 h 3 v 1 h 3 v 1 h 2 v 1 h 3 v 1 h 2 v 1 h 2 v 1 h 2 v 1 h 2 v 1 h 2 v 1 h 1 v 1 h 2 v 1 h 1 v 1 h 2 v 1 h 1 v 1 h 2 v 1 h 1 v 1 h 1 v 1 h 2 v 1 h 1 v 1 h 1 v 1 h 1 v 1 h 1 v 1 h 1 v 1 h 1 v 1 h 1 v 1 h 1 v 1 h 1 v 1 h 1 v 1 h 1 v 1 h 1 v 2 h 1 v 1 h 1 v 1 h 1 v 2 h 1 v 1 h 1 v 1 h 1 v 2 h 1 v 1 h 1 v 2 h 1 v 2 h 1 v 1 h 1 v 2 h 1 v 2 h 1 v 2 h 1 v 3 h 1 v 2 h 1 v 3 h 1 v 3 h 1 v 3 h 1 v 4 h 1 v 4 h 1 v 6 h 1 v 24 h -1 v 6 h -1 v 4 h -1 v 4 h -1 v 4 h -1 v 2 h -1 v 3 h -1 v 3 h -1 v 2 h -1 v 2 h -1 v 2 h -1 v 2 h -1 v 1 h -1 v 2 h -1 v 2 h -1 v 1 h -1 v 2 h -1 v 1 h -1 v 2 h -1 v 1 h -1 v 1 h -1 v 2 h -1 v 1 h -1 v 1 h -1 v 1 h -1 v 1 h -1 v 1 h -1 v 1 h -1 v 1 h -1 v 1 h -1 v 1 h -1 v 1 h -1 v 1 h -1 v 1 h -1 v 1 h -2 v 1 h -1 v 1 h -1 v 1 h -2 v 1 h -1 v 1 h -1 v 1 h -2 v 1 h -2 v 1 h -1 v 1 h -2 v 1 h -2 v 1 h -2 v 1 h -2 v 1 h -2 v 1 h -2 v 1 h -3 v 1 h -3 v 1 h -3 v 1 h -3 v 1 h -4 v 1 h -6 v 1 h -9 v 1 h -11 v -1 h -9 v -1 h -5 v -1 h -4 v -1 h -4 v -1 h -3 v -1 h -3 v -1 h -3 v -1 h -2 v -1 h -2 v -1 h -2 v -1 h -2 v -1 h -2 v -1 h -1 v -1 h -2 v -1 h -2 v -1 h -1 v -1 h -2 v -1 h -1 v -1 h -1 v -1 h -2 v -1 h -1 v -1 h -1 v -1 h -1 v -1 h -2 v -1 h -1 v -1 h -1 v -1 h -1 v -1 h -1 v -1 h -1 v -1 h -1 v -1 h -1 v -1 h -1 v -1 h -1 v -2 h -1 v -1 h -1 v -1 h -1 v -1 h -1 v -2 h -1 v -1 h -1 v -1 h -1 v -2 h -1 v -2 h -1 v -1 h -1 v -2 h -1 v -2 h -1 v -2 h -1 v -2 h -1 v -2 h -1 v -2 h -1 v -3 h -1 v -2 h -1 v -3 h -1 v -4 h -1 v -4 h -1 v -5 h -1 v -6 h -1 v -20 h 1 v -6 h 1 v -5 h 1 v -4 h 1 v -4 h 1 v -2 h 1 v -3 h 1 v -3 h 1 v -2 h 1 v -2 h 1 v -2 h 1 v -2 h 1 v -2 h 1 v -2 h 1 v -1 h 1 v -2 h 1 v -1 h 1 v -2 h 1 v -1 h 1 v -1 h 1 v -2 h 1 v -1 h 1 v -1 h 1 v -1 h 1 v -2 h 1 v -1 h 1 v -1 h 1 v -1 h 1 v -1 h 1 v -1 h 1 v -1 h 1 v -1 h 2 v -1 h 1 v -1 h 1 v -1 h 1 v -1 h 1 v -1 h 2 v -1 h 1 v -1 h 1 v -1 h 2 v -1 h 1 v -1 h 2 v -1 h 2 v -1 h 1 v -1 h 2 v -1 h 2 v -1 h 2 v -1 h 2 v -1 h 3 v -1 h 3 v -1 h 2 v -1 h 3 v -1 h 4 v -1 h 4 v -1 h 6 v -1"
               style="fill:url(#linearGradient160);fill-opacity:1;fill-rule:nonzero;stroke:none"
               id="path162" /></g></g></g><path
         d="m 2993.44,903.469 c -105.79,0 -191.86,86.082 -191.86,191.861 0,105.79 86.07,191.86 191.86,191.86 105.79,0 191.86,-86.07 191.86,-191.86 0,-105.779 -86.07,-191.861 -191.86,-191.861 z m 0,511.621 c -176.32,0 -319.76,-143.45 -319.76,-319.76 0,-176.31 143.44,-319.76 319.76,-319.76 71.93,0 138.38,23.891 191.86,64.129 V 611.121 c 0,-105.781 -86.07,-191.859 -191.86,-191.859 V 291.359 c 176.31,0 319.76,143.45 319.76,319.762 v 484.209 c 0,176.31 -143.45,319.76 -319.76,319.76"
         style="fill:#666a6c;fill-opacity:1;fill-rule:nonzero;stroke:none"
         id="path164" /><path
         d="m 3888.81,1077.07 c 0,-105.8 -86.08,-191.859 -191.86,-191.859 -105.79,0 -191.86,86.059 -191.86,191.859 v 292.35 h -127.9 v -292.35 c 0,-176.32 143.44,-319.761 319.76,-319.761 176.32,0 319.76,143.441 319.76,319.761 v 292.35 h -127.9 v -292.35"
         style="fill:#666a6c;fill-opacity:1;fill-rule:nonzero;stroke:none"
         id="path166" /><path
         d="m 4912.01,1396.83 c -104.49,0 -197.43,-50.4 -255.81,-128.14 -58.39,77.74 -151.33,128.14 -255.81,128.14 -176.32,0 -319.76,-143.45 -319.76,-319.76 V 784.711 h 127.89 v 292.359 c 0,105.79 86.08,191.86 191.87,191.86 105.79,0 191.85,-86.07 191.85,-191.86 V 784.711 h 127.91 v 292.359 c 0,105.79 86.07,191.86 191.86,191.86 105.79,0 191.86,-86.07 191.86,-191.86 V 784.711 h 127.9 v 292.359 c 0,176.31 -143.44,319.76 -319.76,319.76"
         style="fill:#666a6c;fill-opacity:1;fill-rule:nonzero;stroke:none"
         id="path168" /><path
         d="M 5304.86,1077.07 V 784.711 h 127.89 v 292.359 c 0,105.79 86.08,191.86 191.87,191.86 v 127.9 c -176.32,0 -319.76,-143.45 -319.76,-319.76"
         style="fill:#666a6c;fill-opacity:1;fill-rule:nonzero;stroke:none"
         id="path170" /><path
         d="m 5980.92,903.469 c -105.79,0 -191.86,86.082 -191.86,191.861 0,105.79 86.07,191.86 191.86,191.86 105.79,0 191.86,-86.07 191.86,-191.86 0,-105.779 -86.07,-191.861 -191.86,-191.861 z m 0,511.621 c -176.32,0 -319.76,-143.45 -319.76,-319.76 0,-176.31 143.44,-319.76 319.76,-319.76 176.32,0 319.76,143.45 319.76,319.76 0,176.31 -143.44,319.76 -319.76,319.76"
         style="fill:#666a6c;fill-opacity:1;fill-rule:nonzero;stroke:none"
         id="path172" /><path
         d="m 6684.39,903.469 c -105.78,0 -191.85,86.082 -191.85,191.861 0,105.79 86.07,191.86 191.85,191.86 105.79,0 191.87,-86.07 191.87,-191.86 0,-105.779 -86.08,-191.861 -191.87,-191.861 z m 0,511.621 c -176.31,0 -319.75,-143.45 -319.75,-319.76 0,-176.31 143.44,-319.76 319.75,-319.76 71.94,0 138.39,23.891 191.87,64.129 V 793.84 h 127.9 v 301.49 c 0,176.31 -143.45,319.76 -319.77,319.76"
         style="fill:#666a6c;fill-opacity:1;fill-rule:nonzero;stroke:none"
         id="path174" /><path
         d="m 7387.87,903.469 c -105.79,0 -191.87,86.082 -191.87,191.861 0,105.79 86.08,191.86 191.87,191.86 105.79,0 191.86,-86.07 191.86,-191.86 0,-105.779 -86.07,-191.861 -191.86,-191.861 z m 191.86,803.981 v -356.49 c -53.48,40.24 -119.93,64.13 -191.86,64.13 -176.32,0 -319.77,-143.45 -319.77,-319.76 0,-176.31 143.45,-319.76 319.77,-319.76 176.32,0 319.76,143.45 319.76,319.76 v 612.12 h -127.9"
         style="fill:#666a6c;fill-opacity:1;fill-rule:nonzero;stroke:none"
         id="path176" /></g></g></svg>
