<?xml version="1.0" encoding="utf-8"?>
<svg version="1.1" id="Layer_1" xmlns="http://www.w3.org/2000/svg" xmlns:xlink="http://www.w3.org/1999/xlink" x="0px" y="0px"
	 viewBox="0 0 2331 2500" xml:space="preserve">
<style type="text/css">
	.st0{fill:#3088D4;}
	.st1{fill:#FFFFFF;}
</style>
<path class="st0" d="M2276.8,1496.4c-34.2,175.8-306.1,368.3-618.4,405.6c-162.8,19.4-323.2,37.3-494.2,29.4
	c-279.6-12.8-500.3-66.7-500.3-66.7c0,27.2,1.7,53.1,5.1,77.4c36.4,276,273.6,292.5,498.4,300.2c226.9,7.8,428.9-55.9,428.9-55.9
	l9.3,205.1c0,0-158.7,85.2-441.3,100.9c-155.9,8.6-349.4-3.9-574.8-63.6c-488.9-129.4-573-650.6-585.8-1179.4
	c-3.9-157-1.5-305.1-1.5-428.9c0-540.7,354.3-699.2,354.3-699.2C535,39.2,841.5,4.7,1160.1,2.1h7.9c318.6,2.6,625.4,37.1,804,119.2
	c0,0,354.3,158.5,354.3,699.2C2326.2,820.4,2330.7,1219.4,2276.8,1496.4"/>
<path class="st1" d="M1908.4,862.4v654.7H1649V881.7c0-134-56.3-201.9-169.1-201.9c-124.7,0-187.1,80.6-187.1,240.1v347.9h-257.9
	V919.8c0-159.5-62.5-240.1-187.1-240.1c-112.7,0-169.1,68-169.1,201.9v635.5H419.3V862.4c0-133.8,34.1-240.2,102.5-318.8
	c70.6-78.7,163-119,277.7-119c132.7,0,233.2,51,299.7,153.1l64.6,108.3l64.6-108.3c66.4-102,167-153.1,299.7-153.1
	c114.7,0,207.2,40.3,277.7,119C1874.3,622.2,1908.4,728.6,1908.4,862.4L1908.4,862.4z"/>
</svg>
