<?xml version="1.0" encoding="utf-8"?>
<svg version="1.1" baseProfile="tiny" id="Layer_1" xmlns="http://www.w3.org/2000/svg" x="0px" y="0px" viewBox="0 0 365.5 67.5" overflow="visible" stroke-miterlimit="10">
<g fill="#F9CBDF" stroke="#000000" stroke-width="2">
	<path d="M23.1,17.9c-3.4,2.6-8.2,4.1-14.4,4.4
		c-0.3,1.5-0.9,3.6-1.7,6.4c-0.3,0.7-0.7,1.3-1.3,1.9c-0.9,0.8-1.8,1.2-2.7,1.2c-0.6,0-1.1-0.2-1.5-0.5C1.2,30.9,1,30.4,1,29.8
		s0.3-1.5,0.9-2.6c0.5-0.9,1-2.3,1.7-4.1C5.4,18,6.9,13.4,8,9.1c0.1-0.7,0.2-1.8,0.5-3.2c0.3-1,0.8-1.8,1.7-2.6S12,2.2,13,2.2
		c0.3,0,0.5,0,0.7,0.1c2.5-0.7,4.7-1.1,6.6-1.1c2.3,0,4.3,0.6,5.9,1.8c2,1.4,2.9,3.2,2.9,5.4c0,0.6-0.1,1.3-0.3,2
		C28.1,13,26.2,15.5,23.1,17.9z M22.9,8c-0.9-0.4-2.1-0.5-3.6-0.5c-1.6,0-3.5,0.2-5.7,0.6c-0.8,2.2-1.8,4.9-2.8,8
		c5.1-0.1,9-1.5,11.9-4c1.1-0.9,1.6-1.8,1.6-2.5C24.3,8.8,23.8,8.3,22.9,8z"/>
	<path d="M43.8,30.4c-0.8,0.9-1.6,1.4-2.4,1.4
		c-1.1,0-1.7-0.7-1.8-2.1c0.1-1.8,0.1-3.2,0.2-4.4l-10.6,0.9l-1.8,3c-0.9,1.2-2.1,1.8-3.5,1.8c-0.6,0-1.1-0.2-1.5-0.6
		s-0.6-0.9-0.6-1.5s1.4-2.9,4.2-6.8c1.6-2.2,3.3-4.4,4.9-6.7c3.6-5.3,5.7-8.6,6.2-9.9C37.7,4.1,38.3,3,39,2.3C39.9,1.4,41,1,42.3,1
		s2,0.8,2,2.5c0,0.6-0.1,1.6-0.2,2.9c-0.1,1.3-0.2,2.4-0.2,3.1c0,4.1,0.1,8.3,0.4,12.4c0.1,0.8,0.2,1.8,0.4,3c0.3,0.7,0.4,1.4,0.4,2
		C45.1,28.2,44.7,29.3,43.8,30.4z M39.3,10.7c-1.9,2.7-4.2,6-6.9,10.1l7.3-0.5C39.6,16.5,39.5,13.3,39.3,10.7z"/>
	<path d="M61.9,20.8c0.7,0.4,1.5,0.9,2.5,1.5
		s1.8,1,2.6,1.1c1.3,0.3,2,1.1,2,2.5c0,1-0.4,2-1.1,3c-0.8,1.1-1.7,1.7-2.6,1.7c-0.7,0-1.4-0.4-2.1-1.3c-1.7-2-4.6-4.1-8.6-6.5
		c-0.2,0.6-0.4,1.6-0.7,3c-0.3,1.3-0.5,2.2-0.8,2.9c-0.3,0.8-0.9,1.5-1.7,2.1c-0.8,0.6-1.6,0.8-2.5,0.8c-1.3,0-2-0.6-2-1.8
		c0-0.6,0.3-1.5,1-2.7c0.5-0.9,1-2.3,1.7-4.1c2.1-5.8,3.6-10.5,4.4-14c0.1-1,0.2-2,0.5-3.1c0.2-0.9,0.8-1.8,1.7-2.6s1.9-1.1,2.9-1.1
		c0.2,0,0.4,0,0.5,0.1c2.4-0.6,4.5-1,6.3-1c2.3,0,4.4,0.6,6.2,1.8c2,1.3,3,3.1,3,5.4c0,3-1.5,5.8-4.5,8.2
		C68.2,18.5,65.3,19.9,61.9,20.8z M59.9,7.4c-0.9,2.4-2,5.3-3.1,8.7c3.6-0.1,6.8-1,9.6-2.6c2.6-1.4,3.9-2.9,3.9-4.2
		C70.3,7.7,68.5,7,65,7C63.6,6.9,61.9,7.1,59.9,7.4z"/>
	<path d="M87,20.8c0.7,0.4,1.5,0.9,2.5,1.5s1.8,1,2.6,1.1
		c1.3,0.3,2,1.1,2,2.5c0,1-0.4,2-1.1,3c-0.8,1.1-1.7,1.7-2.6,1.7c-0.7,0-1.4-0.4-2.1-1.3c-1.7-2-4.6-4.1-8.6-6.5
		c-0.2,0.6-0.4,1.6-0.7,3c-0.3,1.3-0.5,2.2-0.8,2.9c-0.3,0.8-0.9,1.5-1.7,2.1c-0.8,0.6-1.6,0.8-2.5,0.8c-1.3,0-2-0.6-2-1.8
		c0-0.6,0.3-1.5,1-2.7c0.5-0.9,1-2.3,1.7-4.1c2.1-5.8,3.6-10.5,4.4-14c0.1-1,0.2-2,0.5-3.1c0.2-0.9,0.8-1.8,1.7-2.6
		c0.9-0.8,1.9-1.1,2.9-1.1c0.2,0,0.4,0,0.5,0.1c2.4-0.6,4.5-1,6.3-1c2.3,0,4.4,0.6,6.2,1.8c2,1.3,3,3.1,3,5.4c0,3-1.5,5.8-4.5,8.2
		C93.2,18.5,90.3,19.9,87,20.8z M85,7.4c-0.9,2.4-2,5.3-3.1,8.7c3.6-0.1,6.8-1,9.6-2.6c2.6-1.4,3.9-2.9,3.9-4.2
		c0-1.6-1.8-2.3-5.3-2.3C88.7,6.9,87,7.1,85,7.4z"/>
	<path d="M120.6,11.8c-2.1,2.2-4.7,5.2-8,9
		c-0.5,1.6-1,3.3-1.4,5.1c-0.1,0.6-0.3,1.3-0.6,2.2c-0.3,0.7-0.7,1.3-1.4,1.9c-0.9,0.7-1.8,1.1-2.8,1.1c-0.6,0-1.1-0.2-1.4-0.5
		c-0.4-0.4-0.5-0.8-0.5-1.4s0.3-1.5,0.9-2.7c0.6-1.1,1.3-2.9,2.2-5.4c-2-6.6-3.5-10.7-4.6-12.2c-0.6-0.9-1-1.7-1-2.6
		c0-1.1,0.5-2.1,1.5-3.1c0.7-0.6,1.5-1,2.5-1c1.4,0,2.3,0.9,2.6,2.6c0.4,1.9,1.4,5.3,3,10l3.7-4.2c2.1-2.4,3.4-4,3.8-4.7
		c1.5-2.7,3.5-4,6-4c0.6,0,1.1,0.2,1.5,0.5s0.7,0.8,0.7,1.3c0,0.7-1,2.1-3,4.2C123.1,9.2,121.9,10.5,120.6,11.8z"/>
	<path d="M149.1,13.7c-0.9,0-1.6-0.3-2.2-0.8
		c-0.6-0.6-0.8-1.3-0.7-2.2c0-0.3,0.1-0.7,0.1-1c0-1-0.4-2.5-1.1-4.7c-0.1-0.3-0.2-0.7-0.2-1.1c0-0.9,0.4-1.6,1.1-2.1
		c0.7-0.4,1.5-0.6,2.4-0.6c2,0,3,0.8,3,2.4c0,0.4-0.1,0.9-0.2,1.6c-0.2,0.7-0.2,1.3-0.2,1.6c0,0.6,0.2,1.3,0.5,2.2s0.5,1.6,0.5,2
		c0,0.8-0.3,1.4-0.9,1.9C150.7,13.4,149.9,13.7,149.1,13.7z"/>
	<path d="M182.2,6.9l-1.1,2.8c-2.4,6.6-4,11.6-4.9,15.1
		c-0.1,0.6-0.3,1.6-0.6,2.8c-0.2,0.9-0.8,1.8-1.6,2.5s-1.7,1.1-2.6,1.1c-1.2,0-1.9-0.6-1.9-1.9c0-0.3,0.1-0.6,0.2-1
		c-2.8-6.9-5.7-12.3-8.8-16.3c-2.1,5.8-3.5,9.9-4.1,12.4c-0.1,0.7-0.3,1.8-0.6,3.2c-0.2,1-0.8,1.9-1.6,2.6c-0.9,0.8-1.8,1.1-2.8,1.1
		c-1.3,0-2-0.7-2-2c0-0.6,0.3-1.5,1-2.6c0.4-0.7,1.2-2.9,2.5-6.5c1.7-4.8,2.8-8.4,3.5-10.8c0.3-1.1,0.4-1.8,0.4-2.2
		c0.1-1.7,0.7-3.1,2-4.2c1-0.8,1.9-1.2,2.9-1.2c1.1,0,1.8,0.6,1.8,1.8c3.7,5.5,6.7,11.2,9,16.9c1.6-4.6,2.8-8.4,3.6-11.4
		c0.3-1.1,0.4-1.8,0.4-2.1c0-1,0.2-1.8,0.4-2.4s0.7-1.2,1.4-1.8c0.9-0.8,1.8-1.2,2.7-1.2c1.3,0,1.9,0.6,1.9,1.7
		C183.3,3.9,182.9,5.1,182.2,6.9z"/>
	<path d="M193.9,5.2c-1.3,1.5-2,2.4-2.3,2.7
		c-0.8,1.1-1.4,2.1-1.8,3.1c-0.3,0.8-0.9,1.5-1.6,1.9c-0.8,0.5-1.6,0.7-2.5,0.7c-1.4,0-2.2-0.5-2.2-1.6c0-0.7,0.4-1.6,1.1-2.5
		c0.6-0.7,1.3-1.4,1.9-2.2c0.5-0.7,0.8-1.5,1.1-2.6c0.6-2.4,2.2-3.6,4.6-3.6c1.7,0,2.6,0.6,2.6,1.8C194.9,3.8,194.5,4.5,193.9,5.2z"
		/>
	<path d="M231,12.5c-0.6,0-1.2-0.2-1.7-0.5
		c-0.5-0.4-0.8-0.9-0.8-1.5c0-0.2,0.1-0.5,0.2-0.9c0.1-0.4,0.2-0.7,0.2-0.9c-0.8-0.6-1.8-1-3-1c-3.1,0-6,1.4-8.9,4.3
		s-4.3,5.9-4.3,8.9c0,1.4,0.4,2.6,1.2,3.4c0.8,0.9,1.9,1.3,3.3,1.3c1,0,2-0.2,3.2-0.6c1.1-0.4,2.1-0.9,2.9-1.5
		c0.5-0.4,1.2-1,2.2-1.8c0.9-0.7,1.7-1,2.6-1c0.6,0,1,0.2,1.4,0.7c0.4,0.4,0.6,0.9,0.6,1.5c0,0.8-0.7,1.8-2.2,3.2
		c-3.7,3.4-7.4,5.2-11,5.2c-3.5,0-5.9-1.5-7.4-4.5c-0.7-1.5-1.1-3.2-1.1-5c0-1.4,0.2-2.8,0.6-4.2c1-3.9,3.1-7.4,6.2-10.5
		c3.5-3.5,7.1-5.2,10.9-5.2c1.8,0,3.3,0.4,4.5,1.2c1.1,0.7,2.1,1.9,3.1,3.5c0.4,0.7,0.6,1.3,0.6,2c0,1-0.4,1.8-1.1,2.6
		S232,12.5,231,12.5z"/>
	<path d="M252.3,30.4c-0.8,0.9-1.6,1.4-2.4,1.4
		c-1.1,0-1.7-0.7-1.8-2.1c0.1-1.8,0.1-3.2,0.2-4.4l-10.6,0.9l-1.8,3c-0.9,1.2-2.1,1.8-3.5,1.8c-0.6,0-1.1-0.2-1.5-0.6
		s-0.6-0.9-0.6-1.5s1.4-2.9,4.2-6.8c1.6-2.2,3.3-4.4,4.9-6.7c3.6-5.3,5.7-8.6,6.2-9.9c0.6-1.4,1.2-2.5,1.9-3.2
		c0.9-0.9,2-1.3,3.3-1.3s2,0.8,2,2.5c0,0.6-0.1,1.6-0.2,2.9c-0.1,1.3-0.2,2.4-0.2,3.1c0,4.1,0.1,8.3,0.4,12.4c0.1,0.8,0.2,1.8,0.4,3
		c0.3,0.7,0.4,1.4,0.4,2C253.6,28.2,253.2,29.3,252.3,30.4z M247.9,10.7c-1.9,2.7-4.2,6-6.9,10.1l7.3-0.5
		C248.2,16.5,248,13.3,247.9,10.7z"/>
	<path d="M270.4,20.8c0.7,0.4,1.5,0.9,2.5,1.5
		s1.8,1,2.6,1.1c1.3,0.3,2,1.1,2,2.5c0,1-0.4,2-1.1,3c-0.8,1.1-1.7,1.7-2.6,1.7c-0.7,0-1.4-0.4-2.1-1.3c-1.7-2-4.6-4.1-8.6-6.5
		c-0.2,0.6-0.4,1.6-0.7,3c-0.3,1.3-0.5,2.2-0.8,2.9c-0.3,0.8-0.9,1.5-1.7,2.1c-0.8,0.6-1.6,0.8-2.5,0.8c-1.3,0-2-0.6-2-1.8
		c0-0.6,0.3-1.5,1-2.7c0.5-0.9,1-2.3,1.7-4.1c2.1-5.8,3.6-10.5,4.4-14c0.1-1,0.2-2,0.5-3.1c0.2-0.9,0.8-1.8,1.7-2.6
		c0.9-0.8,1.9-1.1,2.9-1.1c0.2,0,0.4,0,0.5,0.1c2.4-0.6,4.5-1,6.3-1c2.3,0,4.4,0.6,6.2,1.8c2,1.3,3,3.1,3,5.4c0,3-1.5,5.8-4.5,8.2
		C276.7,18.5,273.8,19.9,270.4,20.8z M268.4,7.4c-0.9,2.4-2,5.3-3.1,8.7c3.6-0.1,6.8-1,9.6-2.6c2.6-1.4,3.9-2.9,3.9-4.2
		c0-1.6-1.8-2.3-5.3-2.3C272.1,6.9,270.4,7.1,268.4,7.4z"/>
	<path d="M313.5,6.9l-1.1,2.8c-2.4,6.6-4,11.6-4.9,15.1
		c-0.1,0.6-0.3,1.6-0.6,2.8c-0.2,0.9-0.8,1.8-1.6,2.5c-0.8,0.7-1.7,1.1-2.6,1.1c-1.2,0-1.9-0.6-1.9-1.9c0-0.3,0.1-0.6,0.2-1
		c-2.8-6.9-5.7-12.3-8.8-16.3c-2.1,5.8-3.5,9.9-4.1,12.4c-0.1,0.7-0.3,1.8-0.6,3.2c-0.2,1-0.8,1.9-1.6,2.6c-0.9,0.8-1.8,1.1-2.8,1.1
		c-1.3,0-2-0.7-2-2c0-0.6,0.3-1.5,1-2.6c0.4-0.7,1.2-2.9,2.5-6.5c1.7-4.8,2.8-8.4,3.5-10.8c0.3-1.1,0.4-1.8,0.4-2.2
		c0.1-1.7,0.7-3.1,2-4.2c1-0.8,1.9-1.2,2.9-1.2c1.1,0,1.8,0.6,1.8,1.8c3.7,5.5,6.7,11.2,9,16.9c1.6-4.6,2.8-8.4,3.6-11.4
		c0.3-1.1,0.4-1.8,0.4-2.1c0-1,0.2-1.8,0.4-2.4c0.2-0.6,0.7-1.2,1.4-1.8c0.9-0.8,1.8-1.2,2.7-1.2c1.3,0,1.9,0.6,1.9,1.7
		C314.7,3.9,314.3,5.1,313.5,6.9z"/>
	<path d="M334.4,7.3c-0.4,0-0.9,0-1.6-0.1
		s-1.2-0.1-1.6-0.1c-0.8,0-3.4,0.2-8,0.7c-0.7,1.7-1.4,3.6-2.1,5.7l5.5-0.3c2-0.1,3.8-0.4,5.4-0.9c0.6-0.1,1-0.2,1.3-0.2
		c0.9,0,1.5,0.3,2.1,0.9c0.5,0.6,0.8,1.3,0.8,2.2c0,1-0.3,1.8-1,2.4s-1.5,0.9-2.6,0.9c-0.4,0-0.9,0-1.7-0.1
		c-0.7-0.1-1.3-0.1-1.7-0.1c-1.1,0-4.5,0.3-10.1,0.8c-1.1,3.1-1.8,5.4-2.1,7l5.7-0.3c2.2-0.2,4.1-0.5,5.6-0.9c0.6-0.1,1-0.2,1.2-0.2
		c0.8,0,1.4,0.3,1.9,0.9s0.8,1.3,0.8,2c0,0.3,0,0.5-0.1,0.7c-0.4,1.6-1.5,2.4-3.3,2.4c-0.4,0-1.1,0-1.9-0.1s-1.5-0.1-1.9-0.1
		c-2.2,0-5.8,0.3-10.8,0.8c-0.7,0.4-1.3,0.6-1.9,0.6c-1.4,0-2.1-0.6-2.1-1.8c0-0.7,0.3-1.6,1-2.9c0.4-0.8,1-2.1,1.7-4.1
		c1.9-5.3,3.3-9.7,4.2-13.1c0.3-1.1,0.5-1.9,0.5-2.3c0-1,0.2-1.8,0.5-2.4s0.8-1.2,1.5-1.8c0.9-0.7,1.9-1.1,2.9-1.1
		c0.4,0,0.7,0.1,1,0.2l5.1-0.3c2-0.2,3.7-0.4,5-0.8c0.5-0.1,0.9-0.2,1.2-0.2c0.8,0,1.5,0.3,2,0.8c0.5,0.6,0.8,1.2,0.8,2
		c0,1-0.3,1.7-0.9,2.3C336.1,7,335.3,7.3,334.4,7.3z"/>
	<path d="M357.8,11.8c-2.1,2.2-4.7,5.2-8,9
		c-0.5,1.6-1,3.3-1.4,5.1c-0.1,0.6-0.3,1.3-0.6,2.2c-0.3,0.7-0.7,1.3-1.4,1.9c-0.9,0.7-1.8,1.1-2.8,1.1c-0.6,0-1.1-0.2-1.4-0.5
		c-0.4-0.4-0.5-0.8-0.5-1.4s0.3-1.5,0.9-2.7c0.6-1.1,1.3-2.9,2.2-5.4c-2-6.6-3.5-10.7-4.6-12.2c-0.6-0.9-1-1.7-1-2.6
		c0-1.1,0.5-2.1,1.5-3.1c0.7-0.6,1.5-1,2.5-1c1.4,0,2.3,0.9,2.6,2.6c0.4,1.9,1.4,5.3,3,10l3.7-4.2c2.1-2.4,3.4-4,3.8-4.7
		c1.5-2.7,3.5-4,6-4c0.6,0,1.1,0.2,1.5,0.5s0.7,0.8,0.7,1.3c0,0.7-1,2.1-3,4.2C360.3,9.2,359.1,10.5,357.8,11.8z"/>
</g>
<g fill="#B9E5FB" stroke="#000000">
	<path d="M86,52.1c-0.2,0-0.5,0-0.9-0.1s-0.7-0.1-0.9-0.1
		c-0.5,0-2.1,0.1-4.9,0.4c-0.4,0.9-0.9,2.3-1.5,4.3c1.8-0.1,2.9-0.1,3.3-0.2c1.2-0.1,2.3-0.3,3.3-0.5c0.3-0.1,0.6-0.1,0.8-0.1
		c0.5,0,0.9,0.2,1.3,0.5c0.3,0.4,0.5,0.8,0.5,1.3c0,0.6-0.2,1.1-0.6,1.4c-0.4,0.4-0.9,0.5-1.5,0.5c-0.2,0-0.6,0-1-0.1
		c-0.4,0-0.8-0.1-1-0.1c-0.8,0-2.8,0.2-6.1,0.5l-0.6,2c-0.1,0.2-0.2,0.7-0.4,1.7c-0.1,0.7-0.3,1.2-0.5,1.6c-0.2,0.3-0.4,0.7-0.8,1
		c-0.5,0.4-1.1,0.6-1.6,0.6c-0.8,0-1.2-0.4-1.2-1.2c0-0.3,0.3-1.1,0.8-2.3c0.6-1.5,1-2.2,1-2.4c0.2-0.7,0.6-1.8,1-3.2
		c0.3-1.1,0.6-2,0.8-2.7c0.5-1.6,0.7-2.5,0.7-2.8c0-1.1,0.4-2,1.2-2.6c0.6-0.4,1.1-0.7,1.8-0.7c0.2,0,0.4,0.1,0.6,0.2l3.1-0.2
		c1.2-0.1,2.2-0.3,3-0.5c0.3-0.1,0.6-0.2,0.8-0.2c0.5,0,0.9,0.2,1.1,0.5c0.3,0.3,0.4,0.8,0.4,1.2c0,0.6-0.2,1-0.6,1.4
		C87.1,52,86.6,52.1,86,52.1z"/>
	<path d="M95.1,60.4c0.4,0.3,0.9,0.6,1.5,0.9s1.1,0.6,1.6,0.7
		c0.8,0.2,1.2,0.7,1.2,1.5c0,0.6-0.2,1.2-0.7,1.8c-0.5,0.7-1,1-1.6,1c-0.4,0-0.8-0.3-1.2-0.8c-1-1.2-2.7-2.5-5.2-3.9
		c-0.1,0.3-0.3,0.9-0.4,1.8c-0.2,0.8-0.3,1.3-0.5,1.7c-0.2,0.5-0.5,0.9-1,1.3c-0.5,0.3-1,0.5-1.5,0.5c-0.8,0-1.2-0.4-1.2-1.1
		c0-0.4,0.2-0.9,0.6-1.6c0.3-0.5,0.6-1.4,1-2.5c1.2-3.5,2.1-6.3,2.7-8.4c0.1-0.6,0.1-1.2,0.3-1.9c0.1-0.6,0.5-1.1,1-1.5
		c0.6-0.5,1.1-0.7,1.7-0.7c0.1,0,0.2,0,0.3,0c1.4-0.4,2.7-0.6,3.7-0.6c1.4,0,2.6,0.4,3.7,1.1c1.2,0.8,1.8,1.9,1.8,3.2
		c0,1.8-0.9,3.5-2.7,4.9C98.8,59,97.1,59.9,95.1,60.4z M93.9,52.4c-0.6,1.4-1.2,3.1-1.9,5.2c2.1-0.1,4.1-0.6,5.8-1.5
		c1.6-0.9,2.4-1.7,2.4-2.5c0-0.9-1.1-1.4-3.2-1.4C96.1,52.1,95.1,52.2,93.9,52.4z"/>
	<path d="M110,51.4c-0.8,1.7-1.6,3.7-2.4,6c-0.9,2.7-1.5,4.7-1.8,6.2
		c-0.1,0.6-0.2,1.1-0.3,1.4c-0.2,0.5-0.5,0.9-1,1.2c-0.5,0.4-1,0.5-1.5,0.5c-0.4,0-0.6-0.1-0.9-0.3s-0.3-0.5-0.3-0.8
		c0,0,0.4-1.1,1.3-3.2c0.9-2.2,1.3-3.3,1.4-3.4c0.2-0.7,0.6-2.1,1-4.1c0.4-1.8,0.8-3.2,1.1-4c0.2-0.4,0.5-0.7,0.9-1.1
		c0.6-0.5,1.1-0.7,1.7-0.7c0.8,0,1.1,0.4,1.1,1.1C110.3,50.4,110.2,50.9,110,51.4z"/>
	<path d="M123.5,52.3c-0.2,0-0.5,0-0.9-0.1c-0.4,0-0.7-0.1-0.9-0.1
		c-0.5,0-2.1,0.1-4.8,0.4c-0.4,1-0.8,2.1-1.2,3.4l3.3-0.2c1.2-0.1,2.3-0.3,3.3-0.5c0.3-0.1,0.6-0.1,0.8-0.1c0.5,0,0.9,0.2,1.2,0.5
		c0.3,0.4,0.5,0.8,0.5,1.3c0,0.6-0.2,1.1-0.6,1.4c-0.4,0.4-0.9,0.5-1.5,0.5c-0.2,0-0.6,0-1-0.1c-0.4,0-0.8-0.1-1-0.1
		c-0.7,0-2.7,0.2-6,0.5c-0.6,1.8-1.1,3.3-1.3,4.2l3.4-0.2c1.3-0.1,2.5-0.3,3.3-0.5c0.3-0.1,0.6-0.1,0.7-0.1c0.5,0,0.8,0.2,1.2,0.5
		c0.3,0.4,0.5,0.8,0.5,1.2c0,0.2,0,0.3-0.1,0.4c-0.3,1-0.9,1.4-2,1.4c-0.3,0-0.6,0-1.1-0.1s-0.9-0.1-1.1-0.1c-1.3,0-3.5,0.2-6.5,0.5
		c-0.4,0.2-0.8,0.4-1.2,0.4c-0.9,0-1.3-0.4-1.3-1.1c0-0.4,0.2-1,0.6-1.7c0.2-0.5,0.6-1.3,1-2.4c1.1-3.2,2-5.8,2.5-7.9
		c0.2-0.7,0.3-1.1,0.3-1.4c0-0.6,0.1-1.1,0.3-1.5s0.5-0.7,0.9-1.1c0.6-0.4,1.1-0.7,1.7-0.7c0.2,0,0.4,0,0.6,0.1l3.1-0.2
		c1.2-0.1,2.2-0.3,3-0.5c0.3-0.1,0.6-0.1,0.7-0.1c0.5,0,0.9,0.2,1.2,0.5c0.3,0.3,0.4,0.7,0.4,1.2c0,0.6-0.2,1-0.6,1.4
		S124.1,52.3,123.5,52.3z"/>
	<path d="M143.6,52.1l-0.7,1.7c-1.4,3.9-2.4,7-2.9,9
		c-0.1,0.4-0.2,0.9-0.4,1.7c-0.1,0.6-0.5,1.1-1,1.5s-1,0.7-1.6,0.7c-0.7,0-1.1-0.4-1.1-1.1c0-0.2,0-0.4,0.1-0.6
		c-1.7-4.1-3.4-7.4-5.3-9.8c-1.3,3.5-2.1,6-2.4,7.4c-0.1,0.4-0.2,1.1-0.4,1.9c-0.1,0.6-0.5,1.1-1,1.6s-1.1,0.7-1.7,0.7
		c-0.8,0-1.2-0.4-1.2-1.2c0-0.3,0.2-0.9,0.6-1.6c0.2-0.4,0.7-1.7,1.5-3.9c1-2.9,1.7-5,2.1-6.5c0.2-0.6,0.3-1.1,0.3-1.3
		c0-1,0.4-1.9,1.2-2.5c0.6-0.5,1.2-0.7,1.7-0.7c0.7,0,1.1,0.4,1.1,1.1c2.2,3.3,4,6.7,5.4,10.1c1-2.7,1.7-5,2.2-6.9
		c0.2-0.6,0.3-1.1,0.3-1.2c0-0.6,0.1-1.1,0.3-1.4s0.4-0.7,0.9-1.1c0.5-0.5,1.1-0.7,1.6-0.7c0.8,0,1.2,0.3,1.2,1
		C144.3,50.3,144.1,51,143.6,52.1z"/>
	<path d="M157.4,59.9c-3.1,3.9-6.9,6.1-11.2,6.7c-0.6,0-1.2,0.1-2,0.1
		l-0.6,0.1c-0.8,0-1.1-0.3-1.1-1c0-0.2,0.3-1.2,1-2.7c0.4-0.9,0.7-1.9,1.1-2.8c0.9-2.4,1.5-4.5,2-6.3c0.2-0.7,0.3-1.2,0.3-1.5
		c0.1-1.1,0.5-2,1.3-2.6c0.6-0.5,1.2-0.7,1.8-0.7c0.3,0,0.5,0.1,0.7,0.3c1.4-0.3,2.7-0.4,3.8-0.4c2.2,0,3.7,0.6,4.5,1.7
		c0.7,1,1.1,2,1.1,3.2C160,55.7,159.1,57.7,157.4,59.9z M153.1,52.7c-0.9,0-1.9,0.1-3.1,0.2c-1.6,4.1-2.7,7.5-3.3,10.1
		c1.5-0.1,3-0.6,4.5-1.5c1.4-0.8,2.7-1.7,3.8-2.9c1.3-1.3,2-2.5,2-3.6C157.1,53.5,155.8,52.7,153.1,52.7z"/>
	<path d="M173.1,53.3c-0.4,0-0.8-0.2-1.3-0.6c-0.5-0.4-0.9-0.6-1.2-0.6
		c-0.7,0-1.6,0.1-2.8,0.4c-1.4,0.3-2.2,0.7-2.3,1.1s0.4,0.8,1.5,1.1c4.8,1.5,7.2,3.3,7.2,5.5c0,0.3,0,0.5-0.1,0.8
		c-0.5,1.8-2,3.3-4.4,4.5c-2.1,1-4.2,1.5-6.3,1.5c-1,0-1.9-0.1-2.6-0.4c-1-0.4-1.5-0.9-1.5-1.8c0-0.2,0-0.4,0.1-0.6
		c0.1-0.5,0.4-0.9,0.8-1.2c0.4-0.3,0.9-0.4,1.4-0.4c0.3,0,0.6,0.1,0.9,0.2c0.5,0.3,0.9,0.5,1.1,0.6c0.2,0.1,0.6,0.1,1.2,0.1
		c1.1,0,2.2-0.2,3.3-0.5c1.5-0.4,2.4-1,2.6-1.8c0-0.1,0-0.2,0-0.4c0-0.5-0.9-1.1-2.7-1.8c-0.7-0.2-2-0.7-3.9-1.3s-2.9-1.6-2.9-2.7
		c0-0.2,0-0.5,0.1-0.7c0.2-0.9,0.7-1.7,1.4-2.4c0.6-0.7,1.4-1.2,2.3-1.6c3.3-1.3,6-2,8.3-2c0.6,0,1.1,0.2,1.5,0.6
		c0.4,0.4,0.6,0.9,0.6,1.5c0,0.8-0.3,1.5-1,2C174.1,53.1,173.6,53.3,173.1,53.3z"/>
	<path d="M198.4,52.1c-0.2,0-0.5,0-0.9-0.1s-0.7-0.1-0.9-0.1
		c-0.5,0-2.1,0.1-4.9,0.4c-0.4,0.9-0.9,2.3-1.5,4.3c1.8-0.1,2.9-0.1,3.3-0.2c1.2-0.1,2.3-0.3,3.3-0.5c0.3-0.1,0.6-0.1,0.8-0.1
		c0.5,0,0.9,0.2,1.3,0.5c0.3,0.4,0.5,0.8,0.5,1.3c0,0.6-0.2,1.1-0.6,1.4c-0.4,0.4-0.9,0.5-1.5,0.5c-0.2,0-0.6,0-1-0.1
		c-0.4,0-0.8-0.1-1-0.1c-0.8,0-2.8,0.2-6.1,0.5l-0.6,2c-0.1,0.2-0.2,0.7-0.4,1.7c-0.1,0.7-0.3,1.2-0.5,1.6c-0.2,0.3-0.4,0.7-0.8,1
		c-0.5,0.4-1.1,0.6-1.6,0.6c-0.8,0-1.2-0.4-1.2-1.2c0-0.3,0.3-1.1,0.8-2.3c0.6-1.5,1-2.2,1-2.4c0.2-0.7,0.6-1.8,1-3.2
		c0.3-1.1,0.6-2,0.8-2.7c0.5-1.6,0.7-2.5,0.7-2.8c0-1.1,0.4-2,1.2-2.6c0.6-0.4,1.1-0.7,1.8-0.7c0.2,0,0.4,0.1,0.6,0.2l3.1-0.2
		c1.2-0.1,2.2-0.3,3-0.5c0.3-0.1,0.6-0.2,0.8-0.2c0.5,0,0.9,0.2,1.1,0.5c0.3,0.3,0.4,0.8,0.4,1.2c0,0.6-0.2,1-0.6,1.4
		C199.5,52,199,52.1,198.4,52.1z"/>
	<path d="M212.7,63.7c-2.3,2.1-4.7,3.1-7.3,3.1c-2.1,0-3.7-0.8-4.7-2.5
		c-0.6-1-0.8-2-0.8-3.2c0-0.7,0.1-1.5,0.3-2.4c0.7-2.6,2.1-4.9,4.3-6.8c2.3-2.1,4.7-3.1,7.3-3.1c2.1,0,3.7,0.8,4.7,2.5
		c0.6,1,0.8,2,0.8,3.3c0,0.8-0.1,1.5-0.3,2.3C216.3,59.4,214.9,61.7,212.7,63.7z M211.5,52.4c-1.8,0-3.6,0.7-5.3,2.1s-2.9,3-3.3,4.8
		c-0.1,0.5-0.2,0.9-0.2,1.3c0,0.9,0.3,1.6,0.8,2.1s1.3,0.8,2.2,0.8c1.8,0,3.6-0.7,5.4-2.2c1.7-1.4,2.8-3,3.3-4.8
		c0.1-0.5,0.2-0.9,0.2-1.3c0-0.6-0.1-1-0.3-1.5C213.6,52.8,212.7,52.4,211.5,52.4z"/>
	<path d="M225.9,60.4c0.4,0.3,0.9,0.6,1.5,0.9s1.1,0.6,1.6,0.7
		c0.8,0.2,1.2,0.7,1.2,1.5c0,0.6-0.2,1.2-0.7,1.8c-0.5,0.7-1,1-1.6,1c-0.4,0-0.8-0.3-1.2-0.8c-1-1.2-2.7-2.5-5.2-3.9
		c-0.1,0.3-0.3,0.9-0.4,1.8c-0.2,0.8-0.3,1.3-0.5,1.7c-0.2,0.5-0.5,0.9-1,1.3c-0.5,0.3-1,0.5-1.5,0.5c-0.8,0-1.2-0.4-1.2-1.1
		c0-0.4,0.2-0.9,0.6-1.6c0.3-0.5,0.6-1.4,1-2.5c1.2-3.5,2.1-6.3,2.7-8.4c0.1-0.6,0.1-1.2,0.3-1.9c0.1-0.6,0.5-1.1,1-1.5
		c0.6-0.5,1.1-0.7,1.7-0.7c0.1,0,0.2,0,0.3,0c1.4-0.4,2.7-0.6,3.7-0.6c1.4,0,2.6,0.4,3.7,1.1c1.2,0.8,1.8,1.9,1.8,3.2
		c0,1.8-0.9,3.5-2.7,4.9C229.6,59,227.9,59.9,225.9,60.4z M224.7,52.4c-0.6,1.4-1.2,3.1-1.9,5.2c2.1-0.1,4.1-0.6,5.8-1.5
		c1.6-0.9,2.4-1.7,2.4-2.5c0-0.9-1.1-1.4-3.2-1.4C226.9,52.1,225.9,52.2,224.7,52.4z"/>
	<path d="M252.8,66.1c-0.3,0-0.6,0-1.2-0.1c-0.5-0.1-0.9-0.1-1.2-0.1
		c-1.1,0-3.3,0.2-6.4,0.5c-0.4,0.2-0.8,0.3-1.1,0.3c-0.8,0-1.3-0.4-1.3-1.1c0-0.4,0.2-0.9,0.6-1.7c1.1-2,2.3-5.5,3.6-10.4
		c0.2-0.7,0.3-1.1,0.3-1.3c0-1,0.4-1.9,1.1-2.5c0.5-0.5,1.1-0.7,1.6-0.7c0.8,0,1.2,0.4,1.2,1.1c0,0.3-0.1,0.8-0.4,1.3
		c-0.5,1.2-1.3,3.1-2.2,5.8c-0.8,2.4-1.3,4.1-1.6,5c-0.1,0.5-0.2,0.8-0.3,1.1c0.9,0,1.9-0.1,3.2-0.1c1.6-0.1,2.7-0.2,3.5-0.4
		c0.3-0.1,0.6-0.1,0.8-0.1c0.4,0,0.8,0.2,1.1,0.5s0.5,0.7,0.5,1.2c0,0.1,0,0.3-0.1,0.4C254.4,65.6,253.8,66.1,252.8,66.1z"/>
	<path d="M264,51.4c-0.8,1.7-1.6,3.7-2.4,6c-0.9,2.7-1.5,4.7-1.8,6.2
		c-0.1,0.6-0.2,1.1-0.3,1.4c-0.2,0.5-0.5,0.9-1,1.2c-0.5,0.4-1,0.5-1.5,0.5c-0.4,0-0.6-0.1-0.9-0.3s-0.3-0.5-0.3-0.8
		c0,0,0.4-1.1,1.3-3.2c0.9-2.2,1.3-3.3,1.4-3.4c0.2-0.7,0.6-2.1,1-4.1c0.4-1.8,0.8-3.2,1.1-4c0.2-0.4,0.5-0.7,0.9-1.1
		c0.6-0.5,1.1-0.7,1.7-0.7c0.8,0,1.1,0.4,1.1,1.1C264.3,50.4,264.2,50.9,264,51.4z"/>
	<path d="M277.5,52.1c-0.2,0-0.5,0-0.9-0.1s-0.7-0.1-0.9-0.1
		c-0.5,0-2.1,0.1-4.9,0.4c-0.4,0.9-0.9,2.3-1.5,4.3c1.8-0.1,2.9-0.1,3.3-0.2c1.2-0.1,2.3-0.3,3.3-0.5c0.3-0.1,0.6-0.1,0.8-0.1
		c0.5,0,0.9,0.2,1.3,0.5c0.3,0.4,0.5,0.8,0.5,1.3c0,0.6-0.2,1.1-0.6,1.4c-0.4,0.4-0.9,0.5-1.5,0.5c-0.2,0-0.6,0-1-0.1
		c-0.4,0-0.8-0.1-1-0.1c-0.8,0-2.8,0.2-6.1,0.5l-0.6,2c-0.1,0.2-0.2,0.7-0.4,1.7c-0.1,0.7-0.3,1.2-0.5,1.6c-0.2,0.3-0.4,0.7-0.8,1
		c-0.5,0.4-1.1,0.6-1.6,0.6c-0.8,0-1.2-0.4-1.2-1.2c0-0.3,0.3-1.1,0.8-2.3c0.6-1.5,1-2.2,1-2.4c0.2-0.7,0.6-1.8,1-3.2
		c0.3-1.1,0.6-2,0.8-2.7c0.5-1.6,0.7-2.5,0.7-2.8c0-1.1,0.4-2,1.2-2.6c0.6-0.4,1.1-0.7,1.8-0.7c0.2,0,0.4,0.1,0.6,0.2l3.1-0.2
		c1.2-0.1,2.2-0.3,3-0.5c0.3-0.1,0.6-0.2,0.8-0.2c0.5,0,0.9,0.2,1.1,0.5c0.3,0.3,0.4,0.8,0.4,1.2c0,0.6-0.2,1-0.6,1.4
		C278.5,52,278,52.1,277.5,52.1z"/>
	<path d="M292,52.3c-0.2,0-0.5,0-0.9-0.1c-0.4,0-0.7-0.1-0.9-0.1
		c-0.5,0-2.1,0.1-4.8,0.4c-0.4,1-0.8,2.1-1.2,3.4l3.3-0.2c1.2-0.1,2.3-0.3,3.3-0.5c0.3-0.1,0.6-0.1,0.8-0.1c0.5,0,0.9,0.2,1.2,0.5
		c0.3,0.4,0.5,0.8,0.5,1.3c0,0.6-0.2,1.1-0.6,1.4c-0.4,0.4-0.9,0.5-1.5,0.5c-0.2,0-0.6,0-1-0.1c-0.4,0-0.8-0.1-1-0.1
		c-0.7,0-2.7,0.2-6,0.5c-0.6,1.8-1.1,3.3-1.3,4.2l3.4-0.2c1.3-0.1,2.5-0.3,3.3-0.5c0.3-0.1,0.6-0.1,0.7-0.1c0.5,0,0.8,0.2,1.2,0.5
		c0.3,0.4,0.5,0.8,0.5,1.2c0,0.2,0,0.3-0.1,0.4c-0.3,1-0.9,1.4-2,1.4c-0.3,0-0.6,0-1.1-0.1s-0.9-0.1-1.1-0.1c-1.3,0-3.5,0.2-6.5,0.5
		c-0.4,0.2-0.8,0.4-1.2,0.4c-0.9,0-1.3-0.4-1.3-1.1c0-0.4,0.2-1,0.6-1.7c0.2-0.5,0.6-1.3,1-2.4c1.1-3.2,2-5.8,2.5-7.9
		c0.2-0.7,0.3-1.1,0.3-1.4c0-0.6,0.1-1.1,0.3-1.5s0.5-0.7,0.9-1.1c0.6-0.4,1.1-0.7,1.7-0.7c0.2,0,0.4,0,0.6,0.1l3.1-0.2
		c1.2-0.1,2.2-0.3,3-0.5c0.3-0.1,0.6-0.1,0.7-0.1c0.5,0,0.9,0.2,1.2,0.5c0.3,0.3,0.4,0.7,0.4,1.2c0,0.6-0.2,1-0.6,1.4
		S292.6,52.3,292,52.3z"/>
</g>
</svg>
