<svg xmlns="http://www.w3.org/2000/svg" version="1.1" xmlns:xlink="http://www.w3.org/1999/xlink" width="245.8" height="238.5"><svg id="SvgjsSvg1040" xmlns="http://www.w3.org/2000/svg" baseProfile="tiny" version="1.2" viewBox="0 0 245.8 238.5">
  <!-- Generator: Adobe Illustrator 29.5.1, SVG Export Plug-In . SVG Version: 2.1.0 Build 141)  -->
  <ellipse cx="122.9" cy="119.3" rx="122.9" ry="119.3" fill="#600"></ellipse>
  <path d="M192.2,126.8c1.4-2.2,2.6-4.9,4.4-7.1,3.2-3.8,7.8-5.5,12.1-3.8,2.3.9,4.3,4.8,5,7.7,1.1,4.6-2.1,7.8-5.8,9.7-9.2,4.9-18.5,9.5-27.7,14.3-1.8.9-2.9,1.6-5.8,3-14.3,5.2-30.7-3.2-39.2-12.2-4.7-4.9-9.6-9.7-14.4-14.7-1.9-2.1-3.6-3.2-6.4-1.7-.9.5-2.1.8-3.2.7-6.3-1.1-8.7,3.2-11.5,7.8-9.5,16.1-19.3,31.9-29.2,47.7-4.3,6.8-9,8.3-15.3,5.4-5-2.3-6.8-6.8-3.7-11.4,2-2.8,4.8-5.5,7.8-6.9,18.8-8.2,31.3-22.5,40.9-40,1.1-2.1,1-3.4-.4-5.3-4.6-6.2-2.3-11.5,5.4-12.5,2.9-.4,3.9-1.7,4.8-4.1,3.4-10.7,2.9-21-2.4-31.1-1.9-3.5-4.1-4.4-7.6-3-2.7,1.1-5.3,2.3-8,3.6-5.4,2.6-10.7,5.6-16.3,8-4.6,2-5.6,1-5.1-3.8.9-9.9,8.7-17.6,19.7-19.4,10.1-1.7,19.2,2.9,23.3,12.1,4.3,9.6,2.5,19.5.7,29.3-.2,1-.7,2.1-.8,3.2-.2,2.1-1,5,0,6.1,2.5,2.6,5.4,4.3,9.8,2.1,15.5-7.9,27.8-19,34.5-35.2,2.1-5,2.3-10.8,3.1-16.3.8-6,.4-12.4,5.4-16.8,2-1.7,5.6-3,7.8-2.3,1.9.6,3.5,4.2,3.8,6.7.4,3.1.2,6.8-1.2,9.5-3.3,6.3-7,12.4-11.3,18-6.1,7.8-12.7,15.3-19.3,22.8-6.6,7.5-13.4,14.8-20.8,22.8,6,9.3,13.6,19.6,25.1,26.1,5.2,2.9,14.5,1,20.5-1.1,10.5-4.3,20.1-15.6,21.4-17.8Z" fill="#ffc" stroke="#ffc" stroke-width="16"></path>
  <path d="M128.9,110.3" fill="#ffc" stroke="#ffc" stroke-width="4"></path>
</svg><style>@media (prefers-color-scheme: light) { :root { filter: none; } }
@media (prefers-color-scheme: dark) { :root { filter: none; } }
</style></svg>