<?xml version="1.0" encoding="UTF-8"?>
<svg id="Layer_1" xmlns="http://www.w3.org/2000/svg" baseProfile="tiny" version="1.2" viewBox="0 0 850 874">
  <!-- Generator: Adobe Illustrator 29.5.1, SVG Export Plug-In . SVG Version: 2.1.0 Build 141)  -->
  <g id="zokWt2">
    <g>
      <path d="M0,764V0h850v874h-116c-2-9.9-5.5-19.5-8.2-29.3-2.3-8.7-5.5-19.1-7.4-27.7s.6-3.1.4-4.3c-.6-2.4-4.5-3.4-5.7-5.3-6-9.4-1-22.1-1.3-31.8-.2-4.5-.2-8.7-.3-13-.4-17.5-.3-29.7-9.8-44.8-8.3-13.3-24.1-35-30.2-48.8-1.4-3.3-1.1-7.3-2.6-10.2-3.5-6.8-5.4-3.8-8-15s-3.3-1.1-3.1-6.2,1.8-4.1,2.1-6c2.5-17.8,1.3-30.1-10.5-44.4-2.5-3-7.6-6.2-9.1-8.9-2.5-4.3-2.2-7.9-6.8-12.2s-23.1-12.4-29.2-14.8-16.8-5.7-20-6-7.1,2.1-10.3,4.3-2.2,2.5-3,0,2.4-1.1,2-2l-2-3.5,11.9-2.1c1-4-1-3.6-3-5.9,17.6,2.4,33.5,6.3,51.5,5s18.5-3.3,21.7-5,1.3-3.5,2.3-4.9c1.5-2.1,5.5-3,7.4-4.6,4.5-4,5.5-14.1,3.7-19.6s-7.9-16.1-9.7-18.3c-2.8-3.6-8.1-6.1-11.5-9.5-14.7-14.4-15.2-18.8-35.2-28.8-10.4-5.2-19.3-9-28.8-15.2s-3.6-2.4-5-4.1l1.6-7h-6c-.7-4.6,5.7-5.4,5-10h-5c1.7-6.3,3.4-14.8,1.9-21.4s-3.2-5.4-3.7-7.4.5-5.1-.5-8.5-2.7-3.8-2.6-5.1c.2-2.2,3.5-5.7,3.5-10-.1-8.2-5.7-26.8-7.8-36s-4-4-3.8-7.2l10.5,3.5c1.2-4.1,4.3-.9,7.5-1.1.3-2-1.6-2.6-2-4.5s.5-5.3-.2-7.8c-1.5-5-4.8-.9-5.3-.9-4.1.1-3.1-15.9-4.5-18.8-1.1-.8-6.5,1.8-6,4l-3.3-1.9-4.1,4.9c-1.9-1-.9-3.8-1.8-4.8s-5.6-2.3-6.7-3.8c-1.6-2.2.3-5.1,0-5.4s-1.7.3-2.6-.3c-4.4-3.1-2.5-4.6-3.6-8s-2.7-7.8-3.9-11.2-5.5-8.5-4.5-12.5l12,6c2.1-3.1-1.5-3.1-3.1-4.9-3.1-3.5-5.7-6.4-8.4-9.5s-6.4-8.8-10.5-12.5l-1.5,1.5c-3.4-4.7-5.6-12.2-11-14.5-.1-1.9,1.9-.8,2.9-.4,15.7,6.4,31.4,18.9,44.3,29.7l6.7.8c1.4-6.2-2.9-5.7-5.9-8.6s-7.6-9.6-11.1-12.9c-5.6-5.2-22.8-10.5-31.3-14.5s-7.8-3.1-11.3-4.9-2.5-1.2-3.4-2.6c2.9-1.8,6.7.9,9.4.5s2.5-2.1,4.8-1.9c3.4.3,21.6,5.2,25.6,6.5,5.8,1.9,10.1,6.9,17.2,5.3,1.6-1.5-3.4-7.3-4.2-7.7s-8.1-2-9.4-2.3c-2-.4-4,.8-5.5.4s-3.9-3.7-5.7-4.2c-5.5-1.6-13.1-1.7-18.7-3.3s-11.2-6.4-15.2-6.9-11,2.1-14.9,3.1c-5.1-3.2-9-7.7-15.5-5.1l.5,4c-5.5-2-12.9-9-18.5-4.5,2.6,3.7,6.8,4.5,10.3,6.7s5.9,6.5,10.1,5.9,3.4-3.1,5.6-1.6c3.1,5.6,7.9,8.6,12,13,15.3,16.6,29.8,32.3,38.5,53.5,2.1,5,4,12.6,4.5,18l-3.5-3h-1.4c-1.5.6-3.8,12.2-4,14.6s1.1,3.5.9,5.4c-2.9.5-1.6-.7-2.1-2.3-1.6-5.1-1.7-12.1-6.3-15.7s-2.8,2-6.6,1.1l-1-9c-2.3-.2-5,3.6-5.2,3.8-.7.3-1.8-.5-2.7-.1-5,1.9-.6,2.6-3.5,5.3l-7.4-1.8c-3,4.3,0,10.6-7.1,9.8-1.9-4.8-3.7-5.3-2.6-11s7.4-17.9,10.3-19.9c4.5-3.1,11.2-3.1,10.2-11-3.4-.1-5.1,2.8-8.3,4.2-5.3,2.4-8.2,1.7-12.7,7.3s-8.8,17.7-11,26.5c-1.8.4-2-.5-2.7-1.8-6-10.8-7.5-20.2-20.3-25.7s-10.4-3.6-16,0c2.8,3.8,7.2,1.9,11.5,3.5,11.1,3.9,14,17.5,22,25.1v3.1c0,0-7.9,4.9-7.9,4.9l-3.1-5.9c-3,.2-7.8,4.4-10.5,2.5l-2.5-5.6-7.5,6c-.3-3.5-.5-13.1-4.7-13.8s-8.3,3.9-6.3,6.8c-3.7-.2-6.9-.2-10,2,1.7-6-9.2-2.3-10-3-.1-9.3-11.3-7.8-10,1-5,.2-9.3-.1-9,6-5.4-1.4-12.4-.1-11,7-4.7-6.1-8.3-.9-11.5-1s-5.4-4-10.3.2c-1.6,3,1.3,11.6.8,13.2s-2.8,1.3-3,2.3c-.3,1.6,3.4,13.4,4.5,15.4,2.7,5,4.8,5.5,10.6,4.9l-1-6c2.5,1,7.2.9,9.3,2s1.8,4.6,4.2,6.1,4.8,1.2,7,1.8c2.3-.6,2.8-7.7,2.6-9.9,4.6-.1,12.1,5.6,12-2l6.4,2.1c1.2-4.3,5.1-.5,8.6-1.1l1.5-5,18.5,6-1-4.5,2-.5c.6,3.2,3.5,5.3,6.6,6,3.9,0,1.1-6,3.9-5,5,1.8,12.2,12.6,12.5.5,2.5-1.5,10.8-.1,13.3,1.5s2.9,5.3,7.7,4v-12c2.1,0,4.4.8,4-2l2,.5c-1.8,7.9,6.5,9.8,12.5,8.6l-2.5-28c2.9-.5,1.7.6,2.1,2.3,2.8,10.4,3.9,22.3,6.1,32.9,0,2,4.5,3.9,4.7,2.3v-4.5c8.4,5.2,6.1-.2,8-1.5s2.8-.3,4-1,.7-2.4,1.7-2.5,2.4,1.2,3.4.6.5-2.3,1.7-2.6c2.7-.7,4,1.4,5.8-3,1.8,3.6,1.6,8.8,7,9.1s1.6-8.7,1.5-11.1c3-.6,1.6,2.2,3.4,4,5.6,5.7,5.4-3,10.5-.5,8.3,4.1,6,13,7.3,19.7s8.1,18.4,6.8,28.7l-3-.6c-4.5,6.9-8.5,17.9-17.7,19.4s-14-1.1-17.8-2.7-5.7-6.4-11.9-6.1-2.9-.7-2.5,1.5c5.6,5.7,12.2,13.3,20.6,14.4s25.4-.9,31.1-8.2,1.2-7.8,5.3-7.7c1,1.2-1.8,9.4-1.9,11.6-.1,4,1.7,10.4,1.5,14.7-.3,5.9-3,11.8-3.6,17.7-2.5-.1-3.6-2.4-6-3.5-5.7-2.6-11.7-3.3-17.7-6.3s-20.5-10.9-24.3-13.7-4.6-6.8-12.6-8.4-4-.9-3.4,1.4c3.2,2.2,6.4,4.2,9.5,6.5,15.9,12.5,37.9,24.1,55.9,34.1,20.1,11.2,37.2,17.8,56.8,31.2,10.8,7.4,25.8,18.3,32.3,29.7,9.5,16.6,12.5,25.2-7.7,33.1-13.8,5.4-25.3,1.4-39.2-.2s-25.9-2.3-39-3c-19.2-.9-38.2-13.2-56.3-19.7-3.3-1.2-7.3-1-10.7-2.3s-13.8-8.3-14.5-9.5c-2.4-4-1.8-15.5,2.8-17.3s18.5-2.2,25,.5,6.9,10.3,14.3,7.2c.9-3.7-3.1-3.9-5.5-6-7.4-6.7-8.5-8.7-19.7-9.3-6.3-.4-21.1.6-24,6.6s-1.9,15.3.2,20.1c-2.9,1.8-3.4,7.9-8,8.6l1-9c-7.6-.2-4.4,8.2-4.5,13-5.2-3.4.6-13.1-5.5-14l-.2,2.8-2.9.7v12.4c-6.1-5.2-4.8-15.6-4.9-23h-3s-2,23-2,23c-1.4.2-1.4-1.7-1.7-2.8-2.2-6.9-4-13.9-3.3-21.2h-3s-2,11-2,11l-4.5-5h-1.4c0,0-.5,2-.5,2-1.6-.3-2.7-2.9-3.2-3-4.1-1.1-2.9,2.7-4.8,2-2-1.8-3.3-4.6-6.5-4l-5,15c.7-4.2.5-9.2,1.2-13.3s5.2-10.1,1.5-14.5-8.9,1.9-10.4,4-5.9,12.6-8,16.5.5,2.7-2.3,2.1c-.9-4.6,4.6-6.2,2.8-10.9-11.9-2.8,6-15.6-1.4-23.1l-9.8,14.7-5.1,1.3c-.9,0-1.9-5-4.6-4l-4,10c-.7-5.5,2.9-10.1,1-15.5s-2.7-2.2-3-3.2c-1-3.3.3-9.4-3.5-12.3-5.5,1.4-3.7,6.9-4.7,10.3s-4.1,6.6-4.8,4.2c.3-2.8-.2-4.8-2.5-6.5-4.3,3.7-5.7,9.2-8.1,14s.2,2.5-2.4,2c2.1-10.1,4.8-20.1,9-29.5l-6-.5,4-11c-3.9-4.1-18.7,19.8-21.5,20s-.9-1.9-.8-2.7c1.5-8.6,12.9-17.9,18.2-24.8-3.2-4.1-4.7,1.4-8,1.5v-6c-6.2-1.3-7.4,4.1-10.4,8.1s0,2.5-2.6,1.9l3-16-4,2c-.2-6,5.4-8.3,7.3-13.7.8-1.8,8.6-3,7.7-4.8-2-3.8-8.4-1.8-11.3-.3-7,3.6-8.8,10.2-14.7,14.8-.5-1.8,1.4-2.3,1.7-3.7,3-10.6,8.1-11.7,13.3-19.7s.2-7.5-5.7-4.7-10.1,8.4-12,9c-4.8,1.4-12.7.6-17.7,1.3s-8.4,3.3-11,2.9-2-1.4-.5-2.5c3.3-2.3,12.4-4.1,16.7-6.3s2.8-2.6,4.4-3.6c2.8-1.7,10.5-4.3,10.5-8.1l-1.6-3-10,.5-1.2-5.8c-3.9-3.9-29.5,3.2-36.3,3.8s-19.5,1.1-19.5-1.5l34-8c2.9-1.4,20.1-4.9,14.5-9.5s-36.6,5-36.5,2.5c1.7-5.7,20.9-1.8,17.5-8.5s-7.3-3-5.5-5,10.7-.5,13.5-1c6.2-1.2-2.5-10,5.1-12,3.6-6.5-13-5.7-16.4-6.7s-5.2-2.7-6.1-4.3c8.9-1.1,18.9-.6,25-8.5-2.7-4.5-7.7.5-12,.5l1-4c-5.2-.2-10.5.6-15.5-1s-1.8.6-1.5-2c4.9-.9,21.4-5.3,21-11.4s-2.7-4-2-6.5c1.7-.9,11.3-5.8,11.7-6.3,1.2-1.8,1.2-6-1.5-6.6-4-1-15.4,8.3-19.1,10.5s-10.2,6.3-14.2,4.9,3.3-1.7.5-3.5c-5,.3-23.3,9.2-26.6,8.5s-3.9-1.7-1.9-3c5.7-3.8,16.7-3.9,22.8-8.2,4.1,1.1,9.4-2.9,11.9-3.1s2.5,2.3,4,2.7c3.8,1.2,11.8-7.3,15.3-9.4l-3-1.5,1-3c-8.4-1.4-13,7.2-21.4,6s-2.6-1.7-3.1-1.8c-.7,0-1.8,2.1-3.2,2.6-2.4.7-5.7,0-8.3.2.1-5.2,12.3-5.9,4.5-10-13.5,5.1-23.7,15.8-38.5,18,.9-4.5,6.1-8.6,9.9-10.6s7.6-2.2,9.5-3.5,1.4-3.6,3.2-4.8c5.8-4.3,28-4.4,29.4-7.6s.4-2.5-.5-2.5c-8.1.8-16.2,2.3-24.3,3.7s-10.4,4.3-17.9,7.1-11.6,3.4-17.3,4.2l23-15.5,24-3.5-.5-5c-1.4-3-9.8-1.3-12.8-.8s-19,6.5-19.7,5.8c-.2-1.4.8-3.5-1.5-3l-25.5,12-1.5-6c7.8-2.7,12.9-7.1,19.4-11.6s6.9-1.8,5.1-5.3l31.5,3.1c4.1.3,6.2-1.8,3-5.1-5-5.2-19.1-2.4-26-3s-14-6.3-10.5,5c-5.9-.9-15.1,5.8-19.6,6s-3.4-2.6-7.6-1.8-9.8,6.1-10.3,6.8c-3.7,6,6.5,4.6,6.5,6.5-1.6,2-4.3,1.4-6.3,2.5s-.7,1.5-1.4,2c-2.1,1.6-6.9,2.6-3.8,7.1s11.4-4.4,15.1-5,2.9-.6,2.4,1.4c-2.6,3.3-13.9,7.8-14.9,11.2s1.3,3.6,1.4,4.8c.3,4-.7,9.3-.5,13.5-6.8-1-10-5.5-17.4-4.9-28.5,2.3-45.1,34-40.3,60.1,2.5,13.7,8.8,27.5,15.2,39.8s26.8,40.6,37.2,47.8,5.6,2.3,7.9,4.1c-3.9,8.4.5,6.6,4,10s4.1,6.2,8,8l-1.5,4.3,4.9,5.2c-5.7,3.1-7.9,8,0,9.5.3.4-.6,2.9-.9,3.3-.7.7-16,6.2-18.3,6.9-10.3,3.2-21,4.2-31,7-23,6.5-33.4,36.5-45.4,54.6-5.4,8.3-12.9,15-16.8,24.2-4.2,9.9-7.4,33.1-4.4,43.2s4,4.5,3.7,7.6c-3.5,1.6-5.2,6.4-7.9,9.6-5.7,6.9-13.6,13.6-19.5,20.5-16.9,19.8-23.2,39.1-34.1,61.9-2.2,4.7-6.8,10-8.9,15.1-4,9.9-3,20.4-6.5,30ZM331,114c10.6,2.6,14.3-12.5,22.1-17.5,2-2.1.5-4.4-1.7-5.4-22.6,14.9-47,29.2-67.8,46.9-12.7,10.7-51.8,44.7-57.4,57.6s-2.4,6-1.7,7.4c3.1,3.2,9.6,7.7,13.6,3.5s3.4-8.5,5-11c14.1-23.8,48.3-47.4,70.1-64.9s5.3-6.8,8.4-8.6,7.4-.8,6-4h3.5s0-4,0-4ZM440,91c-.7-.7-16.3,5.1-18.5,5.9-6,2.2-19,9.2-24.2,9.8s-4.6-1-7.6-.7c-31.1,2.5-56.3,28.2-85.5,36.5l-32.6,29.4c.5,5.5,3.3,9.9,9.6,8.6s14.9-7.1,17.1-8.7c5.2-3.6,10.4-9.6,14.9-13.3,6.7-5.5,17.1-14.9,24.6-18.4s14.2-4.4,20.9-7.1c18.3-7.6,35.9-17.2,54.3-24.7,9.8-4,19.9-7.9,30.1-10.4l-3-7ZM511.9,112.1c-2.9-3.6-22.6,3.4-27.4,3.9-9.4,1-20.4-.7-30,0s-25.9,5.8-38.1,7.9c-21.7,3.7-38.2,7.3-59.2,14.8-3.8,1.4-9.5,3.3-12.9,5s-1.7-.3-1.3,1.7c2.3,4.3,6,8.1,11.3,7.3s14-3.1,19.3-4.8,15-7.6,21.2-8.8c12.4-2.4,27.8-2.2,40.7-4.3s12.6-3.5,18.4-4.6c19.7-3.7,39.4-5.8,58.1-13.4v-4.7ZM265,117l-6.5-1.8c-.8,0-5.8,7.6-6.7,9.1-3.8,6.4-8.1,18.2-12.4,23.6-13.1,16.2-19.1,22.7-28.6,42.4s-5.3,17.2-11.6,23.2c1.6,3.8,6.2,7.9,10.5,5.8s10.8-19.8,13.7-25.3c9.7-18.6,20.8-37.3,30.8-55.2l10.7-21.7ZM424.8,156.8c3.3-6.8,12.7-2.6,18.7-2.8s12.3-2.6,18.1-3.1c13.7-1.1,28.1.6,41.9,0,14.3-.6,28.6-3.1,43-3,4,0,1.7-5.6,0-7s-19-1.1-23.1-1-5.6,1.4-9,1.1-7.4-4.3-12.1-5-24.8-1.7-29-1.2-1.3,1.8-2.2,2c-11.8,2.6-24.7,2.6-36.6,4.2s-18.1,2.7-20.6,4.4,2,7,3.3,8.2,4,1.8,5.4,3.1h2.1ZM549.8,159.3c-10.4.4-20,1.8-30.4,1.8-18.3,0-38.8-2-57,.9s-5.1-.8-6.4-.4-3.6,3.1-5.5,3.4c-3.3,7.6,7.8,7.4,13.1,8,18.1,2.3,50.5,5.9,68,4s13.2-3.1,19.1-3.9,25-.6,28.9-4.1,3.9-6.6-.2-7.8-12.5-2-15.8-2.2-9.1.1-13.7.3ZM444.8,189.2c-.4-.8-13.5-8.8-15.8-7.2-.3,4.7,3.1,3.6,5.3,5.1,3.4,2.3,5.7,5.9,10.7,4.9,0-.9.3-1.9-.2-2.8ZM428,188c-6.5,1.9-13.9-5.2-20-.5,0,2.2,16.4,5.8,18.8,4.3l1.2-3.8ZM349.7,187.1c-1.6.5-3.6,4.1-1.7,5.4s9.2,2.9,10.8,3.2c4.4,1,11.4,1.3,4.3-3.3s-10.8-6.2-13.4-5.4ZM418,195c-7.8-3-15.3,1.3-22.7,1.6-13.8.7-21-1.5-35.3,3.9s-7.9,2.8-7,6.5c.7.7,15.6-4.5,18.6-4.9,10.6-1.2,21.2-1.7,31.9-3.1s13.2,1.8,14.5-4ZM199,235c-4.6-5.2-1-5.9-1.2-11.3-6.6-9-10.4-20.1-18.8-27.7,1.1,4.8,2.5,9.7,4.2,14.2s7.3,13.3,8.3,17.8-.6,3.8-.6,6l8,1ZM320,206h17.5c.4,0,6.2-1.2,4.5-3-3.6-1.1-19.8-3.7-21.6-1.1l-.4,4.1ZM320,216c3.7-3.6-19.4-11.8-21.4-12.2s-1.8-1.5-2.6.7-.5,3,.6,3.5l23.4,7.9ZM314,221c-1,5.5,6.3,4.3,10.2,3.7,8.7-1.2,15.8-6.1,23.6-8.4s27-3.4,27.2-7.8-11.8,1.1-13.6,1.4c-3.5.5-7-.1-10.6.4-8.2,1.2-14.3,6.3-21.5,8.5s-10.1,1.1-15.2,2.3ZM429,210l2.5,3,18.4-2.5c-6.2-4.8-14-.3-21-.5ZM301.9,222.1c-4-1.9-8.5-1.7-12.5-3-5.9-2-10.8-7.1-17.4-6.1-.5,2.7.7,1.7,2,2.5,8.5,5,17.9,9.3,28,9.5v-2.9ZM213,221c-.1,2.7-.5,4.4,2.5,5s18.5.8,18.5-2.5c-5.5-6.2-13.9-2.5-21-2.5ZM283.9,229.1c-6.5-1.6-11-7.8-17.9-8.1-1.7,4.5,3.2,7.1,7,8.5s6.9,1.5,10.5,2.5l.4-2.9ZM467,221c-6.8,2.6-14,0-20.5,0-16.9-.4-24.7-.1-40.4,6.6-1.3.6-5.8,1.2-5.1,2.9,1.4,3.2,13.3-1.8,16.2-2.8,17.7-5.7,25.7-.3,42.2-1.8s4.7-1.4,7-1.8l.6-3.1ZM186.6,233.4c-1.2-.8-12.6-7.1-13.4-7.2-1.3-.3-5.2,1.8-5.3,2.5-1,5.9,17.7,8.6,22.1,8.4-.8-.8-2.7-3.1-3.4-3.6ZM295.5,235c8.9,1.2,20.3-.9,29.5,0,.2-1.5-1.8-1.4-2.8-1.7-5.3-1.5-9.7-.7-14.6-1.4-7.5-1.1-15-3.5-22.6-3.9-2.6,2.3,9.1,6.8,10.5,7ZM305,245c-8.3,3.4-11.8-1.3-18.2-3.3s-13.7-2.5-18.9-4.1-11-9.6-17.9-7.6v5c3.8.8,10.7,2,13.7,3.8s3.4,5,10.8,7.2,26,7.3,30.4-.9ZM298,253c-5.6.7-11.8,1.7-17.5,1s-12.4-5.6-19.5-4c-3.8,3.7,12.1,7.7,14.5,8,6.5.7,17.9,0,22.5-5ZM290,263c-6.4-.6-15-2.5-21.3-.8s-8.8,11.2-1.4,8.6,1.4-2.3,2.3-2.9c2-1.3,14.8-2,18.8-3s1.8.7,1.5-2ZM362.1,376.9c9.3,3,7.7-2.6,9.2-8.2s3.7-12.1,8.7-17.4l-1.5-2.3c-8.8-2.2-16.5,21.1-16.3,27.9ZM443.3,380.3c-2.8,2.3-3.6,9-8.3,12.2s-20.7,5.4-26.9,1-7.6-16.8-16-10.9c7.2,11.8,16.5,22.2,31.5,21.5s20.4-3.2,23.5-7.5,5.2-15,4.9-15.9c-.9-2.7-6.8-1.9-8.6-.3ZM460.6,428.6c4.3-6.9,5.6-19,4-27-.5-2.4-5.3-14.5-8.6-11.7-4.1,17.1-.9,37.7-18.8,46.7-2.6,1.3-17.2,6.2-17.2,7.8,4,5.3,12.7,1,18-1,7.8-2.9,18.3-7.7,22.6-14.8Z" fill="#fff"/>
      <path d="M0,764c3.5-9.6,2.5-20.1,6.5-30s6.7-10.4,8.9-15.1c10.8-22.8,17.2-42.1,34.1-61.9,5.9-6.9,13.8-13.6,19.5-20.5s4.3-8,7.9-9.6c.3-3-3.2-5.9-3.7-7.6-3-10.1.2-33.3,4.4-43.2,3.9-9.2,11.4-15.9,16.8-24.2,11.9-18.1,22.4-48.2,45.4-54.6,10-2.8,20.7-3.8,31-7s17.6-6.2,18.3-6.9,1.2-3,.9-3.3c-7.9-1.6-5.7-6.5,0-9.5l-4.9-5.2,1.5-4.3c-3.9-1.8-5.5-5.6-8-8s-7.8-1.6-4-10c-2.3-1.9-5.6-2.5-7.9-4.1-10.4-7.3-31.1-36.1-37.2-47.8s-12.7-26.1-15.2-39.8c-4.7-26.1,11.9-57.8,40.3-60.1s10.5,3.9,17.4,4.9c-.2-4.2.8-9.5.5-13.5s-2.1-2.2-1.4-4.8,12.2-7.9,14.9-11.2c.4-2.1-1-1.7-2.4-1.4-3.7.6-12.6,8.7-15.1,5s1.8-5.5,3.8-7.1.9-1.7,1.4-2c2-1.1,4.7-.5,6.3-2.5,0-1.9-10.1-.5-6.5-6.5s9-6.6,10.3-6.8c4.2-.8,5,2,7.6,1.8,4.5-.2,13.7-6.9,19.6-6-3.5-11.3,4.5-5.5,10.5-5s21.1-2.3,26,3,1.1,5.4-3,5.1l-31.5-3.1c1.8,3.5-2.8,3.7-5.1,5.3-6.5,4.5-11.6,9-19.4,11.6l1.5,6,25.5-12c2.3-.5,1.3,1.6,1.5,3,.8.7,16.7-5.2,19.7-5.8s11.3-2.2,12.8.8l.5,5-24,3.5-23,15.5c5.7-.8,11.9-2.2,17.3-4.2s9.9-5.6,17.9-7.1,16.2-2.9,24.3-3.7c.9,0,.7,2.1.5,2.5-1.4,3.2-23.6,3.3-29.4,7.6s-1.4,3.5-3.2,4.8-6.8,2.1-9.5,3.5-9,6.1-9.9,10.6c14.9-2.2,25.1-12.9,38.5-18,7.8,4.1-4.4,4.8-4.5,10,2.6-.3,5.9.6,8.3-.2s2.5-2.6,3.2-2.6,1.7,1.6,3.1,1.8c8.5,1.3,13-7.4,21.4-6l-1,3,3,1.5c-3.5,2.1-11.4,10.6-15.3,9.4s-2.2-2.9-4-2.7c-2.5.2-7.8,4.3-11.9,3.1-6,4.3-17.1,4.4-22.8,8.2s.9,2.8,1.9,3c3.3.6,21.6-8.2,26.6-8.5,2.8,1.8-3.8,2.4-.5,3.5s10.5-2.7,14.2-4.9,15.1-11.5,19.1-10.5,2.7,4.9,1.5,6.6-10,5.4-11.7,6.3c-.7,2.5,1.8,4.3,2,6.5.4,6.2-16.1,10.5-21,11.4-.3,2.6,0,1.6,1.5,2,5,1.5,10.4.8,15.5,1l-1,4c4.3,0,9.3-5,12-.5-6.1,7.9-16.1,7.4-25,8.5,1,1.6,4.5,3.8,6.1,4.3,3.4,1,20,.1,16.4,6.7-7.5,2,1.1,10.8-5.1,12s-11.8-.8-13.5,1,4.5,3,5.5,5c3.4,6.7-15.9,2.8-17.5,8.5,0,2.5,32.2-6.1,36.5-2.5s-11.6,8.1-14.5,9.5l-34,8c0,2.6,17.7,1.6,19.5,1.5,6.8-.6,32.4-7.7,36.3-3.8l1.2,5.8,10-.5,1.6,3c0,3.8-7.7,6.4-10.5,8.1s-2.5,2.6-4.4,3.6c-4.3,2.2-13.4,4-16.7,6.3s-.2,2.4.5,2.5c2.6.3,8.5-2.6,11-2.9,5-.7,12.9.1,17.7-1.3s8.5-7.3,12-9c5.9-2.8,10.1-2.1,5.7,4.7s-10.3,9.1-13.3,19.7-2.2,1.9-1.7,3.7c5.8-4.6,7.7-11.2,14.7-14.8s9.4-3.5,11.3.3-6.9,3-7.7,4.8c-1.9,5.4-7.4,7.7-7.3,13.7l4-2-3,16c2.6.6,1.7-.8,2.6-1.9,3-4.1,4.2-9.4,10.4-8.1v6c3.3-.1,4.7-5.6,8-1.5-5.4,6.9-16.7,16.1-18.2,24.8s-.9,2.8.8,2.7c2.8-.1,17.6-24.1,21.5-20l-4,11,6,.5c-4.2,9.4-6.9,19.4-9,29.5,2.7.5,1.7-.6,2.4-2,2.3-4.8,3.8-10.3,8.1-14,2.3,1.6,2.8,3.7,2.5,6.5.7,2.4,4.5-3.1,4.8-4.2,1-3.4-.8-8.9,4.7-10.3,3.8,2.9,2.5,8.9,3.5,12.3s2.1.7,3,3.2c1.9,5.4-1.7,10-1,15.5l4-10c2.7-1,3.7,3.9,4.6,4l5.1-1.3,9.8-14.7c7.3,7.5-10.6,20.4,1.4,23.1,1.8,4.7-3.8,6.3-2.8,10.9,2.8.6,1.6-.8,2.3-2.1,2.1-3.9,6.1-13.9,8-16.5s7.9-7.1,10.4-4c3.7,4.3-.8,10.5-1.5,14.5s-.5,9.1-1.2,13.3l5-15c3.2-.6,4.5,2.2,6.5,4,1.9.7.7-3,4.8-2s1.5,2.7,3.2,3l.5-1.9h1.4c0,0,4.5,4.9,4.5,4.9l2-11h3c-.7,7.3,1.1,14.3,3.3,21.2s.3,3,1.7,2.8l2-23h3c.1,7.4-1.2,17.8,5,23v-12.4c0,0,2.8-.7,2.8-.7l.2-2.8c6.1.9.3,10.6,5.5,14,0-4.7-3.1-13.2,4.5-13l-1,9c4.7-.7,5.2-6.8,8-8.6-2.2-4.8-2.5-15.5-.2-20.1s17.8-7,24-6.6c11.2.6,12.3,2.6,19.7,9.3s6.4,2.3,5.5,6c-7.4,3-9.7-5.3-14.3-7.2-6.5-2.7-18.4-3.2-25-.5s-5.2,13.4-2.8,17.3,12.6,8.8,14.5,9.5c3.4,1.2,7.5,1.1,10.7,2.3,18.1,6.5,37.1,18.8,56.3,19.7,13.1.6,25.9,1.5,39,3s25.4,5.6,39.2.2c20.2-7.9,17.2-16.5,7.7-33.1s-21.5-22.2-32.3-29.7c-19.5-13.4-36.7-20-56.8-31.2-17.9-10-40-21.7-55.9-34.1-3-2.4-6.3-4.4-9.5-6.5-.5-2.3,2.1-1.7,3.4-1.4,8.1,1.5,7.7,4.5,12.6,8.4s19.3,11.2,24.3,13.7,12,3.7,17.7,6.3,3.5,3.4,6,3.5c.7-5.8,3.4-11.8,3.6-17.7.2-4.3-1.6-10.7-1.5-14.7s2.9-10.4,1.9-11.6c-4.1,0-3.5,5.5-5.3,7.7-5.7,7.3-22.4,9.4-31.1,8.2s-15-8.7-20.6-14.4c-.4-2.2,1-1.5,2.5-1.5,6.2-.3,7.1,4.1,11.9,6.1s13.9,3.3,17.8,2.7c9.2-1.4,13.3-12.4,17.7-19.4l3,.6c1.4-10.3-5-19.3-6.8-28.7s1-15.7-7.3-19.7-4.9,6.2-10.5.5-.4-4.6-3.4-4c0,2.4,2.6,11.3-1.5,11.1s-5.2-5.5-7-9.1c-1.7,4.3-3,2.3-5.8,3s-1.1,2.2-1.7,2.6c-1,.6-2.4-.7-3.4-.6s-.9,2-1.7,2.5c-1.2.8-3.1.4-4,1-1.8,1.3.5,6.7-7.9,1.5v4.5c-.2,1.6-4.8-.2-4.7-2.3-2.2-10.6-3.3-22.6-6.1-32.9s.7-2.8-2.1-2.3l2.5,28c-6.1,1.3-14.3-.6-12.5-8.6l-2-.5c.4,2.8-1.9,2-4,2v12c-4.8,1.3-5.7-2.7-7.7-4s-10.8-3-13.3-1.5c-.2,12.1-7.5,1.4-12.5-.5s0,4.9-3.9,5c-3-.7-6-2.8-6.6-6l-2,.5,1,4.5-18.5-6-1.5,5c-3.5.5-7.3-3.2-8.6,1.1l-6.4-2.1c0,7.6-7.4,1.9-12,2,.2,2.1-.2,9.3-2.6,9.9-2.2-.6-5-.6-7-1.8s-2.8-5.4-4.2-6.1c-2-1.1-6.8-1-9.3-2l1,6c-5.8.6-7.8,0-10.6-4.9s-4.8-13.8-4.5-15.4,2.6-.9,3-2.3-2.3-10.2-.8-13.2c4.9-4.2,7.7-.3,10.3-.2s6.8-5.1,11.5,1c-1.4-7.1,5.6-8.4,11-7-.3-6.1,4-5.9,9-6-1.2-8.9,9.9-10.3,10-1,.8.7,11.7-3,10,3,3.1-2.2,6.3-2.2,10-2-1.9-3,4.2-7.2,6.3-6.8,4.2.8,4.4,10.3,4.7,13.8l7.5-6,2.5,5.6c2.7,1.9,7.5-2.3,10.5-2.5l3.1,5.9,8-4.9v-3.1c-8-7.6-10.9-21.2-22-25.1s-8.8.4-11.5-3.5c5.6-3.6,10.3-2.5,16,0,12.8,5.6,14.3,14.9,20.3,25.7.7,1.3.9,2.1,2.7,1.8,2.2-8.8,5.3-19.4,11-26.5s7.4-4.8,12.7-7.3,4.9-4.3,8.3-4.2c1,7.9-5.8,7.9-10.2,11s-9.5,16-10.3,19.9c-1.1,5.6.8,6.2,2.6,11,7,.8,4.1-5.4,7.1-9.8l7.4,1.8c2.9-2.7-1.5-3.4,3.5-5.3s2.1.4,2.7.1,3-4,5.2-3.8l1,9c3.8.9,2.6-4.1,6.6-1.1s4.7,10.6,6.3,15.7-.8,2.8,2.1,2.3c.2-1.8-1.1-3.6-.9-5.4s2.5-14,4-14.6h1.4s3.5,2.9,3.5,2.9c-.5-5.4-2.4-12.9-4.5-18-8.7-21.2-23.2-36.9-38.5-53.5-4.1-4.4-8.9-7.5-12-13-2.2-1.5-3.6,1.3-5.6,1.6-4.2.7-7-3.9-10.1-5.9s-7.8-3-10.3-6.7c5.6-4.5,13,2.5,18.5,4.5l-.5-4c6.4-2.6,10.4,1.8,15.5,5.1,3.9-1,11-3.6,14.9-3.1s10.8,5.7,15.2,6.9,13.2,1.7,18.7,3.3,3.9,3.7,5.7,4.2,3.5-.8,5.5-.4,8.9,2.1,9.4,2.3c.8.4,5.8,6.1,4.2,7.7-7.1,1.6-11.4-3.4-17.2-5.3s-22.1-6.2-25.6-6.5-3.1,1.6-4.8,1.9c-2.8.4-6.5-2.3-9.4-.5.9,1.3,2.1,1.8,3.4,2.6,3.5,1.8,8,3.4,11.3,4.9,8.5,4.1,25.7,9.3,31.3,14.5s7.5,9.4,11.1,12.9,7.3,2.4,5.9,8.6l-6.7-.8c-12.9-10.8-28.6-23.3-44.3-29.7s-3.1-1.5-2.9.4c5.4,2.4,7.6,9.9,11,14.5l1.5-1.5c4.1,3.7,7,8.4,10.5,12.5s5.3,6,8.4,9.5,5.2,1.8,3.1,4.9l-12-6c-1,4,3.1,8.7,4.5,12.5s2.9,8.1,3.9,11.2-.8,4.9,3.6,8,2.5.2,2.6.3c.3.3-1.6,3.2,0,5.4s6.5,3.5,6.7,3.8c.8,1-.1,3.8,1.8,4.8l4.1-4.9,3.3,1.9c-.5-2.2,4.9-4.8,6-4,1.4,2.9.4,18.9,4.5,18.8s3.8-4.2,5.3.9-.2,5.3.2,7.8,2.3,2.5,2,4.5c-3.2.2-6.4-3-7.5,1.1l-10.5-3.5c-.2,3.2,3.1,4.2,3.8,7.2,2.1,9.1,7.7,27.7,7.8,36s-3.3,7.8-3.5,10,2,3.2,2.6,5.1c1,3.4,0,6.6.5,8.5s2.9,4,3.7,7.4c1.5,6.6-.2,15.1-1.9,21.4h5c.7,4.6-5.7,5.4-5,10h6s-1.6,7-1.6,7c1.4,1.7,3.2,2.9,5,4.1,9.5,6.2,18.4,10,28.8,15.2,20,10,20.5,14.4,35.2,28.8,3.5,3.4,8.7,5.9,11.5,9.5s8.8,15.6,9.7,18.3c1.7,5.5.7,15.6-3.7,19.6s-5.9,2.6-7.4,4.6-.7,4.1-2.3,4.9c-3.2,1.7-17.6,4.7-21.7,5-18,1.3-34-2.7-51.5-5,1.9,2.4,4,1.9,3,5.9l-11.9,2.1,2,3.5c.4.9-2.7-.2-2,2s2,.7,3,0c3.2-2.1,6-4.7,10.3-4.3s16.3,4.6,20,6c6.2,2.3,25,10.9,29.2,14.8s4.4,7.8,6.8,12.2c1.5,2.7,6.6,5.8,9.1,8.9,11.8,14.3,13,26.6,10.5,44.4s-1.9,2.9-2.1,6c-.2,5.1,2.9,5.4,3.1,6.2,2.6,11.2,4.5,8.2,8,15s1.1,6.9,2.6,10.2c6.1,13.8,21.8,35.5,30.2,48.8,9.4,15.1,9.4,27.3,9.8,44.8s.1,8.5.3,13c.4,9.7-4.7,22.4,1.3,31.8s5.2,2.9,5.7,5.3-.7,2.6-.4,4.3c1.9,8.6,5,18.9,7.4,27.7,2.6,9.9,6.1,19.4,8.2,29.3h-9l-15.8-48.7c-2.5-4.2-7.8,0-9-8s1-16.3.8-22.8c-1.4-43.4-5-65.6-24.9-104.1-1.4-2.7-3.1-11.3-6.6-11.4-2.3,16.9-8.8,33.6-21.6,45.4s-21.5,15.1-31,4.2c-1.2-1.4-3.9-8.5-5.9-4.9s-1.6,7.3-5,6.9c-6.2-.8-4.1-7.8-6.9-12.1s-19.2-16.5-22.8-17.3-3.7.9-5.5.6-7.9-1.5-11-2-5.5-2.5-7.3-2.4c-4.5.2-5.1,7.2-13.9,5.6s-2.8-2.4-5.8-1.8c-14.7,2.7-29.3,21.6-39.7,31.4-4.2,3.9-9.8,7.2-14.1,10.9s-4.3,6.1-7.5,8.5c-4.9,3.8-11.8,5.8-17.1,9-.2.4,2.2,7.8,2.5,8.3.8,1.3,3.3,1.3,3.9,3.4,1,3.2,1.8,17.6,1.2,20.8s-10.7,11.9-15.9,9.6l-5.1,70.9h-5l1.1-75.4c-12.6-6.9-28.4-19.3-22.1-35.6l-13.3,1.8c-5.8-2.6-20.3-13.7-25.5-14.6s-3.3,1-5.5.6c-7.6-1.4-25.3-8.9-34.3-11.8-17.6-5.6-35.2-12.6-53.2-15.8s-30.3-7.4-39-8.1c-16.9-1.4-34.1-2.3-50.9-4.1-12.4-1.3-7.3,2.8-9.9,8.9-4.8,11.2-17.8-3.9-18.5-3-1,6.1-6.4,22.6-14.3,21.8-3.3-.3-7.3-4.5-12.1-3-3.1-5.3-7.3-10.3-10.5-15.5s-7.2-14.7-11.4-21.6c-12.2-20.3-27.8-38.5-36.4-60.8-2.2.2-4.8-.3-6.9,0s-12.4,10.2-14,12c-16.7,18.4-14.8,34-22.7,54.3s-9.8,17.4-12.9,22.1-8.3,8.4-8.6,9.4c-.6,2.2,0,4.8-.6,7.4-1.3,4.6-4.8,10.9-5.5,15.5s-1.8,14.3-1.8,17.1c0,5.9,8.3,20.1,9.5,27.1s-.6,4.9-.8,7.7,1,3.1.8,4.8-9,14.9-10.4,16.7-4.4,4.2-6.4,5.1v-21l5.8-6.6c-3.6-6.7-2.4-14.6-5.8-21.4v-24ZM205.8,330.1c-2.5-.6-10.6-6.8-12-8.6s.2-3.1-.4-4.5-8.2-9.1-9.2-9.9c-4.5-3.7-21.3-9.5-27-9.8s-18.6,5.5-21.3,8.3-11.1,17.7-12,21c-4.4,14.9,2.1,31.8,7.7,45.2s.2,4,.9,6.1,6.9,8.1,8.1,9.9c9.5,13.7,18.3,27,31.2,37.8s16.4,9.2,23.8,5.8c3.8-1.8,1.3-5.1,2.4-7.1s6-2.1,3.2-5.2c-3.3.5-6.5-1-7.4-4.4l10.9-5.6c.3-5-9.1-1.1-9-6.5s8.5-4.2,8.8-7-7.4-1.7-8.7-6.1l4-4.4-4-1.5c-4.3-5.7,7-3.7,7.8-8.1l-.8-9.4c-4.3.3-6.5-1.6-6-6,5.6.4,7.6-1.8,5.8-7.4s-2.9-1.3-3.4-3.6-.4-7.2-.4-7.6c.4-3.3,9.7-6.4,6.9-11.3ZM296,380c-5.3,1.4-11.8,2.8-16.8,4.7s-2.9.6-3.2,2.3c6.5-1.5,14.8-2.5,20-7ZM272,458c1.9,1.4,4.9-4.4,3.8-6.2l-7.8-14.7c-.4,7.2,3.4,13.8,4,21ZM283.8,464.2l-9.8-1.2c-.3,3.4,1.5,6.4,1.9,9.6,1,8.1,1.2,16.6,3.5,24.4s20.6,32.6,25.9,39.6c9.8,12.7,23.6,16.8,38.6,20.9,25.7,7,54.9,11.4,81.5,8.5,1.9-.2,16.5-4.6,16.5-5.5-4.1-2.5-4.2-2.8-3-7.5-5.3-2.6-11.1,3.6-13.7,3.8s-3.4-2.3-5.6-1.7-2.2,3.2-5.2,3-3.5-4.5-3.6-7c-9-2-5.2,3.8-8.2,7.7s-9,6.1-11.6.6l1.8-11.3c-6.1-1.3-3.2,4.5-9.2,6.3s-13.8.6-15.8-.9c-4.2-3.2-.7-16.1-6-17-3.4-.6-9.6,11.4-17.4,6.6s2.6-9.7,3.5-12.4c2-5.5-3,0-4.3.8-3.6,2.3-8.8,5.3-12.9,3.6l4-11c-17.3,4.1-6.8-6.6-8.1-8.9-2.7-.2-5.9-4.5-7.6-4.9s-6.1,2.4-7.8.9c-3.1-2.6,0-5.3-.7-8.3s-5.3-7.1-5.8-7.3-8.6,3-11,1.6c-1.6-3.3,3.1-8.3,2.8-10.3s-5.5-9.2-6-9.5c-1.4-.8-4.1,0-5.8-.2l-1.2-12.8ZM199,493c-4.5-1.7-10.4,1.8-13.4,1.9-11.7.4-15.1,3-25.3,4.9s-24.1-.9-30.3,10.7c-5.2,9.7-14.7,22.9-18.5,31.5s-1.5,7.6-3.8,11.2-10.5,10.2-14.1,14.9c-10.1,13.4-12,31.3-13.7,47.3s-2.1,4.4-1.7,7.8c.7,6.4,6.1,8.1,8.7,12.4s5,12.3,7.6,17.4c5.9,11.2,12.7,21.8,18.7,32.8,8.8-1.2,12.2,13,16.8,18.7s2.7,1.5,3.5,2.5c2.1,2.5,11.9,15.5,14.5,13,1.4-16.8,13.1-30.3,28.7-35.8s13.8-.4,22.7-1.3c19.3-1.9,32.7-2.9,52.2-2s.3-1.7,1.1-1.9c2.5-.7,4.9.4,6.4,2.5-2,1-2.4.8-2,3.5,7.7-1.8,15.7,7,23.2,9.3,3.4,1.1,7.5,1,11,2,25.2,6.9,49.9,19.8,72.5,31.7,7.3,3.8,18,8,24.6,12.2s4,4.9,5,5.4,3.3.3,4.4,1.1c6.7,4.4,11,9.8,20.3,9.2.6-2.9-.9-1.6-2.2-2.3-20.3-11.8-38.6-28.2-58.5-39.5-37-21.1-80.5-34-113.4-61.6s-13.5-14.6-20.4-21.6c-5-5-12-9.2-16.6-14.7-13.3-16.1-27.2-43.7-20-64.8s3.9-6,5.2-8.8,2.7-9.5,3.9-11.1,4.4-1,5.9-3.1l-4.1-2.1,2.1-8.4c-2.5.2-4.8-.2-5.9-2.7l1.9-6.3c-3.9,1.6-5.7.9-7.9-2.6-.1-.8,2.7-4.4,3.5-5.2,1.4-1.5,9.5-6,7.4-8.1ZM575,561c-2.5-.8-4.7-2.1-6.9-3.6s-13.3-13-15.1-11.4c5.1,13.9,18.6,21.1,32.9,21.1v5.8s-16.9-.9-16.9-.9c1.3,3.2-.4,6,.2,9.2,1.1,6.3,7.4,12.4,4.8,20.7-3.2-.2-3.4-3.7-6.1-5.4s-10.8-5.8-13.2-6.8-2.3-1-3.7-.8c1.5,10.9,11.1,17.5,12.9,28.6l-7.2,28.7c-8.8,12.1-18.1,23.6-29.3,33.7l-14.5,18c1.7,1.6,36.1-23,40.1-25.4,8.1-4.9,43.8-25.4,51.2-23.4s1.8,1.8,2.8,2.3,3.1.3,3.7.8.5,2.6,1.6,3.9c1.9,2.1,4.7,3.2,7,6,5.9,7.3,6.4,22.7,8,32.3,2.1,13.5,5,18-.4,31.9-.4,1-1.9.8-2,1.3,1.3,9.8,9.1-6.5,10.6-9.5,6.8-13.8,10.6-29.4,12.3-44.7.4-3.7,1.8-10.6,1.1-13.8s-4.4-4.2-4.7-7.2,3.5-8,3.6-10.8c.2-4.3-2.6-12.9-2.8-18.1-.9-18.3,4.7-18.1-9-34-9.1-10.5-20.4-21.8-32.7-28.3s-19-5.5-26.8-8.2l-1.5,8ZM213,558l-7-1c-.3,10.9-4.6,21-4,32,2.6,0,3.5-2.5,6-3.5,7-3,17.1-2.5,15-13.5-2.5,2.3-12.2,5.1-12.8.5s20.8-7.6,18.8-15.5c-6.9.1-12.2,9.7-19,4.5l3-3.5ZM564,588c.7-.8-3.7-7.6-4.6-8.9-4-6.4-9.3-16.3-17.4-17.1l10,15.2,12,10.8ZM254,564c-2.9-2.8-11.3,13-13.1,15.2-4.7,6-16.1,13.2-23.7,14.5s-6.4-1.8-6.8-1.8c-4.1,0-7.1,3-3.9,7s9.2-1.4,13.8-3.2c7.5-2.9,15.5-4.3,22.6-9.4,7.7-5.6,10.8-13.2,11.1-22.4ZM365,669v-17.5c0-3.6,4.6-22.2,6.6-25.4s2.3-1.3,3.2-2.8.9-4.5,2.2-6.3c-2-2-4.8,5.8-5.1,6.3-1.9,2.8-4.2,5-5.7,8.3-3.6,7.8-4.2,27.3-14.7,28.4-7.2.7-2.8-4.3-3.5-7.3s-8.8-11.3-9.4-15.8c-5,2.7-10,5.4-9.4,12,3.8.5,2.9-4,5-5v12c-12.7,2.3-9.4-5.8-13-12.3s-1.9-.6-2-.7c-.7-1.2,1.8-2.9,1.9-4.4.1-2.4-3.3-7.1-2-10.5-1.4-1.7-11.9,8.3-15.2,7.9s-4.6-1.9-4.8-2.5c-1.1-4,2.6-3.6,2.9-4.9s-1.3-4.9-1.4-6.4c-3.2,3.2-1.5,10.2-7.5,10-.3-6.1-.9-12.5-2-18.5s.4-3.3-1.5-4.5c-1,6.9-.4,18.5-8.5,21-.7-13.7-1.9-27.5-1-41-4.2,3.7-4.5,9.9-8,14.5s-7.1,8-8.5,5.5c-1.1-6.4,2.5-12.9,2.6-19.5l-1-9.5c-2.6,7.5-3.9,26.7-10.4,31.1s-4.1,1.6-5.6-.6c.7-3.2,2.5-5.8,2.8-9.2s.9-3.2-1.2-2.2-6.9,6-9.4,7.6c-6.2,4.1-12.8,8.1-19.5,11.3l-.6,2,8.3,4.8,22.7-9.7c1.4,6.9-2.1,9.7-7.1,13.4s-6.9,2.4-7,5c4.8,5.7,6.4,2.5,11.6,2.5s.8,6.5.8,8.6c0,5.7,12.6,9.1,16.4,11.3,16.9,10,33.5,20.2,51.4,28.6s19.2,8.4,21.5,8.6c3.3.2,6.5-1.7,9.9-2,33.5-2.5,67.6-7.5,100.9-4.1,14.3-7.5,34.8-12.5,51-9.9s6.6,4.9,13.8,2.7,19.2-21.2,21.5-24.5c6.1-8.7,10.3-19.1,13.5-29.5s4.1-12.2,1.8-16.3-9.8-10.9-11-12-1.4-1.8-3-1.5c1.5,4.7,1.3,14.5,2.9,18.5s7.3,5.9,6.1,11.5c-3,3-17.1-12.3-19.5-15-2.1-.4-1.6.8-1.3,2.3,1.6,6.6,3.4,13.1,4.8,19.7-4.9-1.8-5.2,2.4-6.6,2.9-5.1,1.8-14.5-14-16.4-11.9,1.3,9.9,1.1,20.3,4.8,29.7s2.9,3,3,3.8c.4,4.7-19.1,11-14,.7s5.9-2,8.3-4.8c-2.6-3.1-4.1-11.4-5.9-13.8s-8.7-4-10.1-5.6c-1.5,2,5,15.3,4.9,18.6,0,5-4.8-.5-5.1-2.9l-11.8-30.7c-.4,3.8,2,8.6,1,12.3s-4.9,1.1-1.8,5.6h3.8c-.2,3.5,1.5,8.6,3.2,11.4s7.5,4.9,3.3,10.7c-6.2,3-4.7-1.8-5.8-3.8s-1.8-.9-2.6-1.9c-4.6-6.2-8.5-13-14.2-18.4.2,2.6-.5,5.8.2,8.3s7.2,6.4,5.8,7.7l-6.5-2c-1.1.2-2.2,8.6-8.2,9.8s-4.6-.7-6.7-.5-5.9,2.3-9.6.7l1,5-4.3-1.1c-2.3,4.3-3,4.3-7.6,3.1l4,7.4c-3.9,4-5.9-3.5-7.2-4.2s-4.3-.2-6.5-1c-11.4-3.8-6.8-16.6-9.3-25.2-1.3.5-2.4,4.4-2.7,5.8-2.4,8.7-1.2,9.2-.3,16.8s-4.2,7.4-6.8,2.8c-4.9-8.7,3.4-30.8,3-40.9s0-4.7-3.1-4.5l-7,45h-9.9c1,2.2-3,13.2-5.6,9s2.2-23.7,2.6-27.4c.7-5.9,3.5-14.7,2.9-20.1s-.2-3.1-2-3.5c-1.5,11-3.8,24.8-11,33.5s-6.7,3.5-6.1,9.5h-3ZM533,603c-1.6-6.7-4.6-13.6-9-19-.5,4.4-1.2,7.3,1.2,11.3l7.8,7.7ZM237,596c-1.4-1.3-7.7,5.2-9.7,5.8s-5,0-7.5.5-5.6,3.5-8.7,3.8l2.1,5.8c2.6,1.5,19.8-8.9,23.7-10v-5.8ZM333,616c-7.4,2.7-6.4,11.6-6,18l8-6.7-2-11.3ZM419.3,766.3c-6.6,9.3,9.3,25.9,19.7,25.2,11.6-.7,16.2-8.8,13.7-19.8s-18.5-13.6-25.5-10.9-7.7,5.1-8,5.5Z"/>
      <path d="M0,837c2-.9,5.1-3.4,6.4-5.1s10.2-15.3,10.4-16.7-.9-3.3-.8-4.8c.1-2.8,1.4-4.4.8-7.7-1.2-6.9-9.6-21.2-9.5-27.1s1.3-13.8,1.8-17.1,4.3-10.9,5.5-15.5,0-5.2.6-7.4,6.8-6.7,8.6-9.4c3.2-4.7,11-17.3,12.9-22.1,8-20.2,6-35.8,22.7-54.3,1.6-1.8,12.7-11.7,14-12,2.1-.4,4.7.2,6.9,0,8.6,22.3,24.2,40.5,36.4,60.8s7.2,14.6,11.4,21.6,7.3,10.2,10.5,15.5c4.8-1.5,8.8,2.6,12.1,3,7.8.8,13.3-15.7,14.3-21.8.7-.9,13.7,14.2,18.5,3s-2.5-10.2,9.9-8.9c16.8,1.8,34,2.7,50.9,4.1s28.3,6.2,39,8.1c18.1,3.1,35.6,10.2,53.2,15.8,9,2.9,26.8,10.3,34.3,11.8s3.8-.9,5.5-.6c5.1,1,19.7,12.1,25.5,14.6l13.3-1.8c-6.4,16.3,9.4,28.7,22.1,35.6l-1.1,75.4h-220c3.5-5,3.6-11.7,5.3-17.2s5.9-12.4,5.2-18.8c-1.8-.1-2.4,1.6-3.2,2.8-6.7,10.2-11.5,21.7-15.3,33.2h-33c-.6-4.1-2.9-9.4-6-12l-1,12H0v-37Z" fill="#fff"/>
      <path d="M725,874h-70l-5-20.4c5.2-2.9,8-12.9,9.4-18.7,1.8-7.8,2.2-20.8-7.3-22.8l-4.5,30c-1.3-4-6.7-9.9-8-13s-2.3-10.6-5.8-15.3c-3-1.2-2.6-6.2-6.3-5.7s9.4,25,10.2,26.8c5.5,12.8,7.9,25.6,10.3,39.2h-207l5.1-70.9c5.2,2.3,15-5.2,15.9-9.6s-.2-17.6-1.2-20.8-3.1-2.1-3.9-3.4-2.7-8-2.5-8.3c5.3-3.2,12.2-5.2,17.1-9s5-6.4,7.5-8.5c4.3-3.7,9.8-7,14.1-10.9,10.5-9.7,25-28.6,39.7-31.4s3.6,1.4,5.8,1.8c8.9,1.7,9.5-5.3,13.9-5.6s5.1,2,7.3,2.4c3.1.6,8.4,1.7,11,2s3.5-1.1,5.5-.6c3.5.8,20.7,14.1,22.8,17.3s.8,11.3,6.9,12.1,4.2-5.4,5-6.9c2-3.6,4.7,3.5,5.9,4.9,9.4,10.9,22.5,3.4,31-4.2,12.9-11.7,19.3-28.5,21.6-45.4,3.5,0,5.2,8.7,6.6,11.4,20,38.5,23.6,60.7,24.9,104.1.2,6.5-1.6,17.7-.8,22.8,1.2,8,6.5,3.9,9,8l15.8,48.7Z" fill="#fff"/>
      <path d="M648,874c-2.4-13.6-4.8-26.5-10.3-39.2s-14.6-26.1-10.2-26.8,3.3,4.5,6.3,5.7c3.5,4.7,4,10.8,5.8,15.3s6.6,9,8,13l4.5-30c9.6,2,9.1,15.1,7.3,22.8-1.3,5.8-4.2,15.8-9.4,18.7l5,20.4h-7Z"/>
      <path d="M208,874c3.8-11.5,8.6-23.1,15.3-33.2s1.4-2.9,3.2-2.8c.7,6.4-3.4,12.8-5.2,18.8s-1.7,12.2-5.3,17.2h-8Z"/>
      <path d="M0,816v-28c3.5,6.7,2.3,14.6,5.8,21.4l-5.8,6.6Z" fill="#fff"/>
      <path d="M175,874h-7l1-12c3.1,2.6,5.4,7.9,6,12Z"/>
      <path d="M440,91l3,7c-10.3,2.5-20.3,6.4-30.1,10.4-18.4,7.5-36,17-54.3,24.7s-14.3,4.1-20.9,7.1-17.9,12.9-24.6,18.4-9.7,9.7-14.9,13.3-15,8.2-17.1,8.7c-6.3,1.4-9.1-3.1-9.6-8.6l32.6-29.4c29.2-8.4,54.4-34.1,85.5-36.5,3-.2,5.6,1,7.6.7,5.2-.6,18.2-7.6,24.2-9.8s17.8-6.6,18.5-5.9Z"/>
      <path d="M511.9,112.1v4.7c-18.7,7.6-38.4,9.7-58.1,13.4s-12,3.6-18.4,4.6c-12.9,2.2-28.2,1.9-40.7,4.3s-14.4,6.7-21.2,8.8-14,4-19.3,4.8-9-3-11.3-7.3c-.3-2,.4-1.3,1.3-1.7,3.5-1.8,9.1-3.7,12.9-5,21-7.5,37.5-11.2,59.2-14.8s26.2-6.9,38.1-7.9,20.6,1,30,0,24.4-7.5,27.4-3.9Z"/>
      <path d="M331,114v4s-3.5,0-3.5,0c1.4,3.2-3.2,2.3-6,4s-5.9,6.6-8.4,8.6c-21.8,17.5-55.9,41.2-70.1,64.9s-4.3,10.3-5,11c-4,4.2-10.4-.3-13.6-3.5-.7-1.4,1-5.8,1.7-7.4,5.6-12.9,44.7-46.8,57.4-57.6,20.9-17.6,45.2-32,67.8-46.9,2.2,1,3.7,3.3,1.7,5.4-7.8,4.9-11.4,20.1-22.1,17.5Z"/>
      <path d="M549.8,159.3c4.5-.2,9.1-.6,13.7-.3s13,1.4,15.8,2.2c4.1,1.2,2.7,5.6.2,7.8-3.9,3.4-22.7,3.2-28.9,4.1s-13.1,3.3-19.1,3.9c-17.4,1.9-49.8-1.7-68-4s-16.3-.4-13.1-8c1.9-.3,4.5-3,5.5-3.4s4.1.7,6.4.4c18.2-2.9,38.7-1,57-.9s20-1.4,30.4-1.8Z"/>
      <path d="M424.8,156.8h-2.1c-1.4-1.4-4.2-2-5.4-3.1s-5.5-6.7-3.3-8.2,16.7-3.8,20.6-4.4c11.9-1.6,24.8-1.6,36.6-4.2s.4-1.8,2.2-2c4.2-.6,24.2.5,29,1.2s7.5,4.6,12.1,5,5.9-1,9-1.1,21.1-.7,23.1,1,3.9,7,0,7c-14.4,0-28.7,2.4-43,3-13.8.6-28.2-1.1-41.9,0s-12.7,2.9-18.1,3.1-15.3-4.1-18.7,2.8Z"/>
      <path d="M265,117l-10.7,21.7c-10,17.9-21.1,36.6-30.8,55.2s-8.9,23-13.7,25.3-9-2-10.5-5.8c6.2-6,8-15.7,11.6-23.2,9.5-19.7,15.5-26.2,28.6-42.4s8.6-17.1,12.4-23.6,5.9-9,6.7-9.1l6.5,1.8Z"/>
      <path d="M460.6,428.6c-4.4,7.1-14.9,11.9-22.6,14.8s-14,6.3-18,1c0-1.6,14.6-6.4,17.2-7.8,17.9-9.1,14.6-29.7,18.8-46.7,3.2-2.8,8.1,9.3,8.6,11.7,1.6,8,.3,20-4,27Z"/>
      <path d="M443.3,380.3c1.8-1.5,7.8-2.4,8.6.3s-4.1,14.9-4.9,15.9c-3.1,4.3-18.2,7.3-23.5,7.5-15,.6-24.3-9.8-31.5-21.5,8.4-5.8,11.2,7.5,16,10.9s20.6,3.1,26.9-1,5.5-9.9,8.3-12.2Z"/>
      <path d="M418,195c-1.2,5.8-10.1,3.5-14.5,4-10.7,1.4-21.3,1.9-31.9,3.1s-17.9,5.6-18.6,4.9c-.9-3.6,4.2-5.4,7-6.5,14.3-5.4,21.5-3.2,35.3-3.9s14.9-4.6,22.7-1.6Z"/>
      <path d="M305,245c-4.4,8.3-22.9,3.1-30.4.9s-6.6-4.7-10.8-7.2-10-3-13.7-3.8v-5c6.9-2,12.9,6,17.9,7.6s12.8,2.2,18.9,4.1,9.9,6.7,18.2,3.3Z"/>
      <path d="M314,221c5.2-1.2,10.1-.7,15.2-2.3s13.3-7.3,21.5-8.5,7.2.1,10.6-.4,13.7-4.8,13.6-1.4-22.9,6.5-27.2,7.8c-7.8,2.3-14.8,7.2-23.6,8.4s-11.2,1.8-10.2-3.7Z"/>
      <path d="M467,221l-.6,3.1c-2.3.4-4.7,1.6-7,1.8-16.5,1.5-24.5-3.9-42.2,1.8s-14.8,6-16.2,2.8,3.7-2.3,5.1-2.9c15.7-6.8,23.5-7,40.4-6.6s13.7,2.7,20.5,0Z"/>
      <path d="M199,235l-8-1c0-2.2,1.2-3.6.6-6-1.1-4.4-6.4-12.6-8.3-17.8s-3.2-9.4-4.2-14.2c8.4,7.6,12.2,18.7,18.8,27.7.2,5.4-3.4,6.1,1.2,11.3Z"/>
      <path d="M362.1,376.9c-.2-6.7,7.5-30.1,16.3-27.9l1.5,2.3c-4.9,5.3-6.8,10.5-8.7,17.4s.1,11.1-9.2,8.2Z"/>
      <path d="M298,253c-4.6,4.9-16.1,5.7-22.5,5s-18.3-4.3-14.5-8c7.1-1.6,13.2,3.3,19.5,4s11.9-.3,17.5-1Z"/>
      <path d="M295.5,235c-1.4-.2-13.1-4.7-10.5-7,7.6.4,15.1,2.7,22.6,3.9s9.2-.1,14.6,1.4,3,.2,2.8,1.7c-9.2-.9-20.6,1.2-29.5,0Z"/>
      <path d="M290,263c.2,2.7,0,1.6-1.5,2-4,1-16.8,1.6-18.8,3s-1,2.4-2.3,2.9c-7.4,2.6-5.8-6.6,1.4-8.6s14.9.2,21.3.8Z"/>
      <path d="M186.6,233.4c.7.5,2.6,2.8,3.4,3.6-4.3.2-23-2.5-22.1-8.4s4.1-2.7,5.3-2.5,12.2,6.4,13.4,7.2Z"/>
      <path d="M301.9,222.1v2.9c-10.1-.2-19.4-4.5-27.9-9.5s-2.5.2-2-2.5c6.6-1,11.6,4.1,17.4,6.1s8.5,1.1,12.5,3Z"/>
      <path d="M320,216l-23.4-7.9c-1.1-.5-.8-2.7-.6-3.5.8-2.2,1.7-.9,2.6-.7,2,.4,25.1,8.6,21.4,12.2Z"/>
      <path d="M213,221c7.1,0,15.5-3.7,21,2.5,0,3.3-15.8,3-18.5,2.5s-2.6-2.3-2.5-5Z"/>
      <path d="M320,206l.4-4.1c1.8-2.6,17.9,0,21.6,1.1,1.7,1.8-4.1,3-4.5,3h-17.5Z"/>
      <path d="M349.7,187.1c2.6-.8,10.9,3.8,13.4,5.4,7.1,4.6.2,4.2-4.3,3.3s-10.1-2.8-10.8-3.2c-2-1.3.1-4.9,1.7-5.4Z"/>
      <path d="M283.9,229.1l-.4,2.9c-3.6-1-6.9-1.2-10.5-2.5s-8.6-4-7-8.5c6.9.3,11.3,6.6,17.9,8.1Z"/>
      <path d="M428,188l-1.2,3.8c-2.4,1.5-18.8-2.1-18.8-4.3,6.1-4.7,13.5,2.4,20,.5Z"/>
      <path d="M444.8,189.2c.5.9.2,1.9.2,2.8-4.9,1-7.2-2.5-10.7-4.9s-5.6-.5-5.3-5.1c2.3-1.6,15.3,6.4,15.8,7.2Z"/>
      <path d="M429,210c7,.2,14.8-4.3,21,.5l-18.4,2.5-2.5-3Z"/>
      <path d="M199,493c2.1,2.1-6,6.6-7.4,8.1s-3.7,4.4-3.5,5.2c2.2,3.5,4,4.2,7.9,2.6l-1.9,6.3c1.1,2.5,3.4,2.9,5.9,2.7l-2.1,8.4,4.1,2.1c-1.5,2.1-4.4.9-5.9,3.1s-2.5,8.3-3.9,11.1-4.3,5.9-5.2,8.8c-7.2,21.1,6.7,48.6,20,64.8,4.6,5.5,11.6,9.7,16.6,14.7,6.9,6.9,12.9,15.2,20.4,21.6,32.9,27.7,76.3,40.5,113.4,61.6s38.2,27.8,58.5,39.5c1.2.7,2.8-.6,2.2,2.3-9.3.6-13.6-4.8-20.3-9.2s-3.1-.4-4.4-1.1-3.4-4.4-5-5.4c-6.6-4.2-17.3-8.4-24.6-12.2-22.6-11.9-47.3-24.8-72.5-31.7-3.6-1-7.6-.9-11-2-7.4-2.3-15.5-11.1-23.2-9.3-.4-2.7,0-2.5,2-3.5-1.5-2.1-3.8-3.2-6.4-2.5s-.6,1.9-1.1,1.9c-19.5-.9-32.8,0-52.2,2-8.9.9-13.6-1.9-22.7,1.3-15.7,5.5-27.3,19-28.7,35.8-2.6,2.5-12.4-10.5-14.5-13s-2.6-1.4-3.5-2.5c-4.5-5.6-8-19.9-16.8-18.7-6.1-11-12.9-21.6-18.7-32.8s-4.9-12.8-7.6-17.4-8-6.1-8.7-12.4,1.4-5,1.7-7.8c1.7-16,3.5-33.9,13.7-47.3s11.2-10.5,14.1-14.9,2.1-7.3,3.8-11.2c3.8-8.6,13.3-21.8,18.5-31.5,6.2-11.6,19.6-8.6,30.3-10.7s13.6-4.5,25.3-4.9,8.9-3.6,13.4-1.9Z" fill="#fff"/>
      <path d="M365,669h3c-.6-5.9,3.6-6.4,6.1-9.5,7.2-8.7,9.4-22.5,11-33.5,1.8.4,1.9,2,2,3.5.6,5.5-2.2,14.2-2.9,20.1s-3.4,26.2-2.6,27.4c2.6,4.2,6.6-6.8,5.6-8.9h9.9c0,0,7-45.1,7-45.1,3-.2,3,2.2,3.1,4.5.4,10.1-7.9,32.2-3,40.9s7.5,3.7,6.8-2.8-2.1-8.1.3-16.8,1.4-5.2,2.7-5.8c2.4,8.6-2.2,21.4,9.3,25.2s5.5.4,6.5,1,3.3,8.2,7.2,4.2l-4-7.4c4.7,1.1,5.3,1.2,7.6-3.1l4.3,1.1-1-5c3.7,1.6,7.4-.6,9.6-.7s3.8,1.1,6.7.5c6-1.3,7.2-9.6,8.2-9.8l6.5,2c1.4-1.3-5.3-6-5.8-7.7-.7-2.5,0-5.7-.2-8.3,5.7,5.4,9.5,12.1,14.2,18.4s2.3,1.4,2.6,1.9c1.1,2-.4,6.7,5.8,3.8,4.2-5.8-1.4-7.6-3.3-10.7s-3.5-8-3.2-11.3h-3.8c-3.1-4.6,1.5-4.3,1.8-5.7,1-3.7-1.4-8.5-1-12.3l11.8,30.7c.3,2.4,5.1,7.9,5.1,2.9,0-3.3-6.5-16.6-4.9-18.6,1.4,1.7,9.7,5.1,10.1,5.6,1.8,2.4,3.3,10.7,5.9,13.8-2.3,2.8-6.6,1.4-8.3,4.8-5.1,10.3,14.4,4,14-.7s-2.4-2.3-3-3.8c-3.7-9.4-3.5-19.8-4.8-29.7,1.9-2.1,11.3,13.7,16.4,11.9s1.7-4.8,6.6-2.9c-1.4-6.6-3.2-13.1-4.8-19.7s-.8-2.7,1.3-2.3c2.4,2.7,16.5,18,19.5,15,1.2-5.5-4.5-7.5-6.1-11.5s-1.4-13.8-2.9-18.5c1.6-.4,2,.6,3,1.5s10.6,11.3,11,12c2.4,4.1-.4,11.8-1.8,16.3-3.1,10.4-7.3,20.9-13.5,29.5s-19.2,23.8-21.5,24.5c-7.2,2.1-9.3-2-13.8-2.7-16.2-2.7-36.7,2.3-51,9.9-33.3-3.4-67.4,1.6-100.9,4.1s-6.6,2.2-9.9,2-18.2-7-21.5-8.6c-17.9-8.4-34.5-18.6-51.4-28.6-3.8-2.2-16.3-5.5-16.4-11.3s6.4-8.6-.8-8.6-6.8,3.3-11.6-2.5c0-2.7,5.1-3.6,7-5,4.9-3.7,8.4-6.5,7.1-13.4l-22.7,9.7-8.3-4.8.6-2c6.8-3.2,13.3-7.2,19.5-11.3,2.5-1.7,7.6-6.8,9.4-7.6s1.3,1.3,1.2,2.2c-.3,3.4-2,6-2.8,9.2,1.5,2.2,3.5,2,5.6.6,6.6-4.4,7.8-23.5,10.4-31.1l1,9.5c0,6.6-3.7,13.1-2.6,19.5,1.4,2.5,7.7-4.5,8.5-5.5,3.5-4.6,3.8-10.8,8-14.5-.9,13.5.3,27.3,1,41,8.1-2.5,7.4-14.1,8.5-21,1.9,1.2,1.2,2.9,1.5,4.5,1.1,6,1.7,12.4,2,18.5,6,.2,4.3-6.8,7.5-10,.1,1.5,1.7,5.2,1.4,6.4s-4,.9-2.9,4.9,4.1,2.4,4.8,2.5c3.3.5,13.8-9.5,15.2-7.9-1.3,3.4,2.1,8.2,2,10.5s-2.6,3.3-1.9,4.4,1.5,0,2,.7c3.6,6.5.2,14.6,13,12.3v-12c-2.1,1-1.2,5.5-5,5-.6-6.6,4.4-9.3,9.4-12,.6,4.4,8.7,12.9,9.4,15.8s-3.7,8,3.5,7.3c10.6-1.1,11.1-20.6,14.7-28.4s3.9-5.5,5.7-8.3,3.1-8.4,5.1-6.3c-1.2,1.8-1.2,4.7-2.2,6.3s-2.7,1.8-3.2,2.8c-2,3.2-6.6,21.8-6.6,25.4v17.5ZM299.2,652.2c-.5.3-1,3.6-2.1,4.3,3.8,3.7,9.2.6,12-3,1-3.5-9.1-1.7-9.8-1.3ZM368.8,679.8c4.9-8-16.5-10-16.9-.3s.3,1.2,1.4,1.6c5.5,2.1,10.4,1.5,15.4-1.3ZM448,685c9.3,2.1,6.4-10.1,1.6-3.9s-1.8,2.4-1.6,3.9Z" fill="#fff"/>
      <path d="M575,561l1.5-8c7.8,2.6,19.8,4.4,26.8,8.2,12.3,6.5,23.6,17.8,32.7,28.3,13.7,15.9,8.2,15.7,9,34s3.1,13.7,2.8,18.1-3.9,7.8-3.6,10.8,4.2,4.3,4.7,7.2-.7,10.1-1.1,13.8c-1.7,15.3-5.5,30.8-12.3,44.7s-9.2,19.2-10.6,9.5c0-.5,1.6-.3,2-1.3,5.4-14,2.6-18.4.4-31.9-1.5-9.5-2.1-25-8-32.3s-5.2-3.9-7-6-1.2-3.5-1.6-3.9c-.6-.5-2.5-.2-3.7-.8s-1.7-2-2.8-2.3c-7.4-2-43.2,18.5-51.2,23.4s-38.3,27-40.1,25.4l14.5-18c11.1-10.1,20.4-21.6,29.3-33.7l7.2-28.7c-1.8-11.1-11.5-17.7-12.9-28.6,1.4-.3,2.5.2,3.7.8,2.4,1,11.2,5.5,13.2,6.8s2.9,5.2,6.1,5.4c2.6-8.3-3.6-14.4-4.8-20.7s1.1-6.1-.2-9.2l16.9.9v-5.8c-14.3,0-27.8-7.2-32.9-21.1,1.8-1.6,12.6,9.8,15.1,11.4s4.4,2.8,6.9,3.6Z" fill="#fff"/>
      <path d="M205.8,330.1c2.9,4.9-6.5,8.1-6.9,11.3s.3,7.2.4,7.6c.6,2.3,3,2.2,3.4,3.6,1.8,5.5-.3,7.8-5.8,7.4-.6,4.4,1.6,6.3,6,6l.8,9.4c-.8,4.4-12.1,2.4-7.8,8.1l4,1.5-4,4.4c1.3,4.4,9.2,2.4,8.7,6.1s-8.8,3.8-8.8,7c0,5.4,9.4,1.5,9,6.5l-10.9,5.6c.9,3.4,4,4.9,7.4,4.4,2.7,3.1-2.8,4.5-3.2,5.2-1.1,2,1.4,5.3-2.4,7.1-7.4,3.4-18-.9-23.8-5.8-12.9-10.9-21.7-24.2-31.2-37.8s-7.9-9.3-8.1-9.9c-.8-2.1-.3-4.6-.9-6.1-5.6-13.4-12.2-30.3-7.7-45.2s9.8-18.6,12-21,17.5-8.5,21.3-8.3c5.7.4,22.5,6.1,27,9.8s8.9,9.3,9.2,9.9c.6,1.4-.9,2.8.4,4.5s9.5,8,12,8.6ZM170.8,327.3c-6.1-2.6-14.9,2.4-18.6,7.4s-6.7,9.9-.2,11.9c10.5,3.3,7.8-11.5,15.1-9.2s18.2,25.5,16,27.6c-20.3,0-20.8,22-14.1,36.6s7.9,8.9,15,7.4c.9-3.8-2.3-5.1-3.5-8s-3.9-9.9-4.3-12.8.6-9.1.2-13.3l1.3-1.9c7.9-4.3,9.4,4.4,13.7,4.1s2.1-.6,2.4-1.7c1.3-4.1-7.6-26.7-10-31.7s-5.1-10.5-11.6-14.3-1.3-1.9-1.5-2Z" fill="#fff"/>
      <path d="M283.8,464.2l1.2,12.8c1.7.3,4.4-.6,5.8.2s5.9,8.9,6,9.5c.3,2-4.4,7-2.8,10.3,2.4,1.5,10.5-1.8,11-1.6s5.6,6.6,5.8,7.3c.6,3-2.4,5.8.7,8.3s5.5-1.5,7.8-.9,4.9,4.8,7.6,4.9c1.3,2.3-9.1,13,8.1,8.9l-4,11c4.2,1.7,9.3-1.2,12.9-3.6s6.2-6.3,4.3-.8-7.5,10-3.5,12.4c7.8,4.8,13.9-7.3,17.4-6.6,5.3.9,1.8,13.8,6,17s13.1,1.7,15.8.9c5.9-1.9,3.1-7.6,9.2-6.3l-1.8,11.3c2.5,5.5,8.8,2.9,11.6-.6s-.7-9.7,8.2-7.7c0,2.5.5,6.7,3.6,7s3.6-2.5,5.2-3,3.7,1.8,5.6,1.7,8.3-6.4,13.7-3.8c-1.2,4.7-1.1,5,3,7.5,0,.9-14.6,5.3-16.5,5.5-26.7,2.9-55.8-1.5-81.5-8.5-15-4.1-28.8-8.2-38.6-20.9-5.4-6.9-23.9-32.7-25.9-39.6s-2.5-16.3-3.5-24.4-2.2-6.2-1.9-9.6l9.8,1.2Z" fill="#fff"/>
      <path d="M419.3,766.3c.3-.4,7.2-5.2,8-5.5,7-2.7,23.7,3.1,25.5,10.9s-2.1,19.1-13.7,19.8c-10.4.6-26.3-16-19.7-25.2Z" fill="#fff"/>
      <path d="M213,558l-3,3.5c6.7,5.2,12.1-4.4,19-4.5,2,7.9-19.6,9.6-18.8,15.5s10.3,1.8,12.8-.5c2.1,11-8,10.5-15,13.5-2.4,1-3.4,3.4-6,3.5-.6-11,3.7-21.1,4-32l7,1Z" fill="#fff"/>
      <path d="M254,564c-.2,9.3-3.3,16.9-11.1,22.4-7.1,5.1-15.2,6.4-22.6,9.4s-9.8,8.2-13.8,3.2-.1-7.1,3.9-7,0,3.1,6.8,1.8,19-8.6,23.7-14.5,10.1-18,13.1-15.2Z" fill="#fff"/>
      <path d="M237,596v5.8c-4,1.1-21.2,11.5-23.8,10l-2.1-5.8c3.1-.3,5.9-3.2,8.7-3.8s5.1.2,7.5-.5,8.3-7.1,9.7-5.8Z" fill="#fff"/>
      <path d="M564,588l-12-10.8-10-15.2c8.1.7,13.4,10.6,17.4,17.1s5.2,8.1,4.6,8.9Z" fill="#fff"/>
      <path d="M333,616l2,11.3-8,6.7c-.4-6.4-1.4-15.3,6-18Z" fill="#fff"/>
      <path d="M272,458c-.6-7.2-4.4-13.8-4-21l7.8,14.7c1.1,1.9-1.9,7.6-3.8,6.2Z" fill="#fff"/>
      <path d="M533,603l-7.8-7.7c-2.4-4-1.7-6.9-1.2-11.3,4.4,5.4,7.4,12.3,9,19Z" fill="#fff"/>
      <path d="M296,380c-5.2,4.5-13.5,5.5-20,7,.3-1.7,1.9-1.8,3.2-2.3,5-1.9,11.5-3.3,16.8-4.7Z" fill="#fff"/>
      <path d="M368.8,679.8c-5.1,2.7-10,3.3-15.4,1.3s-1.5.5-1.4-1.6c.4-9.7,21.8-7.7,16.9.3Z"/>
      <path d="M299.2,652.2c.7-.4,10.9-2.2,9.8,1.3-2.8,3.6-8.1,6.7-12,3,1.1-.8,1.6-4,2.1-4.3Z"/>
      <path d="M448,685c-.2-1.5.7-2.8,1.6-3.9,4.8-6.1,7.8,6-1.6,3.9Z"/>
      <path d="M170.8,327.3c.2,0,.5,1.5,1.5,2,6.6,3.8,8.2,7.4,11.6,14.3s11.3,27.6,10,31.7-1.3,1.6-2.4,1.7c-4.3.4-5.8-8.4-13.7-4.1l-1.3,1.9c.4,4.2-.6,9.4-.2,13.3s3,9.9,4.3,12.8,4.5,4.2,3.5,8c-7.1,1.5-12.1-.9-15-7.4-6.7-14.6-6.3-36.5,14.1-36.6,2.2-2.1-11.1-26.1-16-27.6-7.2-2.3-4.5,12.5-15.1,9.2s-2.6-8.1.2-11.9,12.4-10,18.6-7.4Z"/>
    </g>
  </g>
</svg>